<?xml version="1.0" standalone="no"?>
<!DOCTYPE svg PUBLIC "-//W3C//DTD SVG 1.1//EN" "http://www.w3.org/Graphics/SVG/1.1/DTD/svg11.dtd" >
<svg>
<metadata>
Created by FontForge 20090622 at Thu Jun  1 09:41:45 2017
 By deploy user
Copyright (c) Emigre Inc, 2011. Designed by Berton Hasebe. All rights reserved.
</metadata>
<defs>
<font id="AldaPro-Regular" horiz-adv-x="540" >
  <font-face 
    font-family="Alda Pro"
    font-weight="400"
    font-stretch="normal"
    units-per-em="1000"
    panose-1="0 0 0 0 0 0 0 0 0 0"
    ascent="763"
    descent="-237"
    x-height="468"
    cap-height="658"
    bbox="-100 -254 1194 1075"
    underline-thickness="0"
    underline-position="0"
    unicode-range="U+0020-U+FB04"
  />
<missing-glyph horiz-adv-x="0" 
 />
    <glyph glyph-name="f_f" unicode="ff" horiz-adv-x="672" 
d="M115 466v17q0 107 55 169.5t152 62.5q40 0 61.5 -14t21.5 -38q0 -29 -24 -43q-3 1 -16.5 8t-17 8.5t-14 6.5t-16.5 6l-15.5 2.5t-18.5 1.5q-82 0 -82 -111v-76h216v27q0 106 59.5 169t160.5 63q89 0 89 -51q0 -31 -25 -44q-5 2 -20.5 9.5t-22 10t-18.5 6.5t-22.5 5.5
t-22.5 1.5q-92 0 -92 -111v-86h148v-35q-9 -12 -26 -16.5t-56 -4.5h-66v-356q65 -6 100 -18v-36h-268q0 26 15 36t67 20v354h-216v-356q41 -5 80 -18v-36h-248q0 26 15 36t67 20v354q-34 3 -74 15v36q31 4 74 5z" />
    <glyph glyph-name="f_i" unicode="fi" horiz-adv-x="605" 
d="M579 0h-241q-1 24 13 35.5t63 20.5v354h-213v-356q41 -5 80 -18v-36h-248q0 26 15 36t67 20v354q-34 3 -74 15v36q31 4 74 5v37q0 102 59 162t159 60q135 0 135 -64q0 -37 -36 -54l-16.5 12.5t-17.5 12.5t-16.5 10.5t-19.5 10.5l-19.5 7.5t-23.5 6t-25 1.5
q-54 0 -73.5 -36t-19.5 -99v-67h246q38 0 53 -5v-406q47 -8 79 -19v-36z" />
    <glyph glyph-name="f_l" unicode="fl" horiz-adv-x="611" 
d="M503 690v-636q44 -6 80 -18v-36h-248q0 26 15 36t67 20v580q-43 27 -110 27q-59 0 -82.5 -31.5t-23.5 -92.5v-73h139v-35q-9 -12 -26 -16.5t-56 -4.5h-57v-356q41 -5 80 -18v-36h-248q0 26 15 36t67 20v354q-34 3 -74 15v36q31 4 74 5v27q0 103 58 167.5t165 64.5
q54 0 99 -10.5t66 -24.5z" />
    <glyph glyph-name="f_f_i" unicode="ffi" horiz-adv-x="907" 
d="M417 410h-216v-356q41 -5 80 -18v-36h-248q0 26 15 36t67 20v354q-34 3 -74 15v36q31 4 74 5v17q0 107 55 169.5t152 62.5q40 0 61.5 -14t21.5 -38q0 -29 -24 -43q-3 1 -16.5 8t-17 8.5t-14 6.5t-16.5 6l-15.5 2.5t-18.5 1.5q-82 0 -82 -111v-76h216v37q0 102 59 162
t159 60q135 0 135 -64q0 -37 -36 -54l-16.5 12.5t-17.5 12.5t-16.5 10.5t-19.5 10.5l-19.5 7.5t-23.5 6t-25 1.5q-54 0 -73.5 -36t-19.5 -99v-67h246q38 0 53 -5v-406q47 -8 79 -19v-36h-241q-1 24 13 35.5t63 20.5v354h-213v-356q41 -5 80 -18v-36h-248q0 26 15 36t67 20
v354z" />
    <glyph glyph-name="f_f_l" unicode="ffl" horiz-adv-x="914" 
d="M418 466v27q0 103 58 167.5t165 64.5q54 0 99 -10.5t66 -24.5v-636q44 -6 80 -18v-36h-248q0 26 15 36t67 20v580q-43 27 -110 27q-59 0 -82.5 -31.5t-23.5 -92.5v-73h139v-35q-9 -12 -26 -16.5t-56 -4.5h-57v-356q41 -5 80 -18v-36h-248q0 26 15 36t67 20v354h-217v-356
q41 -5 80 -18v-36h-248q0 26 15 36t67 20v354q-34 3 -74 15v36q31 4 74 5v17q0 107 55 169.5t152 62.5q40 0 61.5 -14t21.5 -38q0 -29 -24 -43q-3 1 -16.5 8t-17 8.5t-14 6.5t-16.5 6l-15.5 2.5t-18.5 1.5q-82 0 -82 -111v-76h217z" />
    <glyph glyph-name="f_b" unicode="fb" horiz-adv-x="888" 
d="M301 0h-268q0 26 15 36t67 20v354q-34 3 -74 15v36q31 4 74 5v27q0 103 58 167.5t165 64.5q54 0 99 -10.5t66 -24.5v-274q55 62 140 62q94 0 147.5 -65t53.5 -158q0 -118 -68.5 -191.5t-178.5 -73.5q-102 0 -180 48v598q-43 27 -110 27q-59 0 -82.5 -31.5t-23.5 -92.5
v-73h139v-35q-9 -12 -26 -16.5t-56 -4.5h-57v-356q65 -6 100 -18v-36zM603 45q67 0 108.5 50.5t41.5 138.5q0 80 -39.5 129t-106.5 49q-61 0 -104 -47v-293q40 -27 100 -27z" />
    <glyph glyph-name="f_f_b" unicode="ffb" horiz-adv-x="1191" 
d="M604 0h-268q0 26 15 36t67 20v354h-217v-356q41 -5 80 -18v-36h-248q0 26 15 36t67 20v354q-34 3 -74 15v36q31 4 74 5v17q0 107 55 169.5t152 62.5q40 0 61.5 -14t21.5 -38q0 -29 -24 -43q-3 1 -16.5 8t-17 8.5t-14 6.5t-16.5 6l-15.5 2.5t-18.5 1.5q-82 0 -82 -111v-76
h217v27q0 103 58 167.5t165 64.5q54 0 99 -10.5t66 -24.5v-274q55 62 140 62q94 0 147.5 -65t53.5 -158q0 -118 -68.5 -191.5t-178.5 -73.5q-102 0 -180 48v598q-43 27 -110 27q-59 0 -82.5 -31.5t-23.5 -92.5v-73h139v-35q-9 -12 -26 -16.5t-56 -4.5h-57v-356
q65 -6 100 -18v-36zM906 45q67 0 108.5 50.5t41.5 138.5q0 80 -39.5 129t-106.5 49q-61 0 -104 -47v-293q40 -27 100 -27z" />
    <glyph glyph-name="f_f_h" unicode="ffh" horiz-adv-x="1220" 
d="M806 690v-293q55 81 148 81q78 0 119 -49.5t41 -123.5v-250q48 -8 80 -19v-36h-248q0 26 15 36t67 20v225q0 65 -28.5 98.5t-81.5 33.5q-38 0 -67.5 -21.5t-44.5 -52.5v-284q48 -8 80 -19v-36h-248q0 26 15 36t67 20v580q-43 27 -110 27q-59 0 -82.5 -31.5t-23.5 -92.5
v-73h139v-35q-9 -12 -26 -16.5t-56 -4.5h-57v-356q41 -5 80 -18v-36h-248q0 26 15 36t67 20v354h-217v-356q41 -5 80 -18v-36h-248q0 26 15 36t67 20v354q-34 3 -74 15v36q31 4 74 5v17q0 107 55 169.5t152 62.5q40 0 61.5 -14t21.5 -38q0 -29 -24 -43q-3 1 -16.5 8t-17 8.5
t-14 6.5t-16.5 6l-15.5 2.5t-18.5 1.5q-82 0 -82 -111v-76h217v27q0 103 58 167.5t165 64.5q54 0 99 -10.5t66 -24.5z" />
    <glyph glyph-name="f_f_j" unicode="ffj" horiz-adv-x="892" 
d="M603 0h-268q0 26 15 36t67 20v354h-216v-356q41 -5 80 -18v-36h-248q0 26 15 36t67 20v354q-34 3 -74 15v36q31 4 74 5v17q0 107 55 169.5t152 62.5q40 0 61.5 -14t21.5 -38q0 -29 -24 -43q-3 1 -16.5 8t-17 8.5t-14 6.5t-16.5 6l-15.5 2.5t-18.5 1.5q-82 0 -82 -111v-76
h216v37q0 102 59 162t159 60q135 0 135 -64q0 -37 -36 -54l-16.5 12.5t-17.5 12.5t-16.5 10.5t-19.5 10.5l-19.5 7.5t-23.5 6t-25 1.5q-54 0 -73.5 -36t-19.5 -99v-67h246q38 0 53 -5v-240l1 -210q0 -124 -52.5 -191t-133.5 -67q-51 0 -77.5 17t-26.5 45q0 31 27 48
q74 -37 101 -37q43 0 59 28t16 107v449h-213v-356q65 -6 100 -18v-36z" />
    <glyph glyph-name="f_f_k" unicode="ffk" horiz-adv-x="1139" 
d="M720 56v580q-43 27 -110 27q-59 0 -82.5 -31.5t-23.5 -92.5v-73h139v-35q-9 -12 -26 -16.5t-56 -4.5h-57v-356q41 -5 80 -18v-36h-248q0 26 15 36t67 20v354h-217v-356q41 -5 80 -18v-36h-248q0 26 15 36t67 20v354q-34 3 -74 15v36q31 4 74 5v17q0 107 55 169.5
t152 62.5q40 0 61.5 -14t21.5 -38q0 -29 -24 -43q-3 1 -16.5 8t-17 8.5t-14 6.5t-16.5 6l-15.5 2.5t-18.5 1.5q-82 0 -82 -111v-76h217v27q0 103 58 167.5t165 64.5q54 0 99 -10.5t66 -24.5v-430l163 153q-34 3 -71 9v33q44 11 82 11h81q40 0 51 -1v-33q-14 -20 -69 -21
l-152 -138q34 -44 127 -150q53 -61 99 -84v-31q-24 -19 -55 -19q-29 0 -52 18t-60 64l-144 176v-193q44 -6 80 -18v-36h-248q0 26 15 36t67 20z" />
    <glyph glyph-name="f_h" unicode="fh" horiz-adv-x="917" 
d="M503 690v-293q55 81 148 81q78 0 119 -49.5t41 -123.5v-250q48 -8 80 -19v-36h-248q0 26 15 36t67 20v225q0 65 -28.5 98.5t-81.5 33.5q-38 0 -67.5 -21.5t-44.5 -52.5v-284q48 -8 80 -19v-36h-248q0 26 15 36t67 20v580q-43 27 -110 27q-59 0 -82.5 -31.5t-23.5 -92.5
v-73h139v-35q-9 -12 -26 -16.5t-56 -4.5h-57v-356q41 -5 80 -18v-36h-248q0 26 15 36t67 20v354q-34 3 -74 15v36q31 4 74 5v27q0 103 58 167.5t165 64.5q54 0 99 -10.5t66 -24.5z" />
    <glyph glyph-name="f_j" unicode="fj" horiz-adv-x="590" 
d="M301 0h-268q0 26 15 36t67 20v354q-34 3 -74 15v36q31 4 74 5v37q0 102 59 162t159 60q135 0 135 -64q0 -37 -36 -54l-16.5 12.5t-17.5 12.5t-16.5 10.5t-19.5 10.5l-19.5 7.5t-23.5 6t-25 1.5q-54 0 -73.5 -36t-19.5 -99v-67h246q38 0 53 -5v-240l1 -210
q0 -124 -52.5 -191t-133.5 -67q-51 0 -77.5 17t-26.5 45q0 31 27 48q74 -37 101 -37q43 0 59 28t16 107v449h-213v-356q65 -6 100 -18v-36z" />
    <glyph glyph-name="f_k" unicode="fk" horiz-adv-x="836" 
d="M503 690v-430l163 153q-34 3 -71 9v33q44 11 82 11h81q40 0 51 -1v-33q-14 -20 -69 -21l-152 -138q34 -44 127 -150q53 -61 99 -84v-31q-24 -19 -55 -19q-29 0 -52 18t-60 64l-144 176v-193q44 -6 80 -18v-36h-248q0 26 15 36t67 20v580q-43 27 -110 27
q-59 0 -82.5 -31.5t-23.5 -92.5v-73h139v-35q-9 -12 -26 -16.5t-56 -4.5h-57v-356q41 -5 80 -18v-36h-248q0 26 15 36t67 20v354q-34 3 -74 15v36q31 4 74 5v27q0 103 58 167.5t165 64.5q54 0 99 -10.5t66 -24.5z" />
    <glyph glyph-name=".notdef" horiz-adv-x="0" 
 />
    <glyph glyph-name=".null" horiz-adv-x="0" 
 />
    <glyph glyph-name="nonmarkingreturn" horiz-adv-x="333" 
 />
    <glyph glyph-name="space" unicode=" " horiz-adv-x="240" 
 />
    <glyph glyph-name="exclam" unicode="!" horiz-adv-x="278" 
d="M189 564q0 -54 -34 -377h-44q-2 37 -9 141t-11.5 193.5t-4.5 144.5q16 2 35 2q20 0 33.5 -6t20.5 -12.5t10 -23.5t3.5 -27.5t0.5 -34.5zM75 45q0 23 17 40.5t40 17.5t40.5 -17.5t17.5 -40.5q0 -22 -17.5 -39t-40.5 -17q-22 0 -39.5 17t-17.5 39z" />
    <glyph glyph-name="quotedbl" unicode="&#x22;" horiz-adv-x="353" 
d="M116 492h-34q-32 145 -32 182q0 21 12 37t36 16t36 -16t12 -37q0 -46 -30 -182zM273 492h-34q-32 145 -32 182q0 21 12 37t36 16t36 -16t12 -37q0 -46 -30 -182z" />
    <glyph glyph-name="numbersign" unicode="#" horiz-adv-x="704" 
d="M292 442l-41 -203h171l40 203h-170zM153 239h31l40 203h-51q-41 0 -86 14l4 39q35 5 93 5h52l32 158h36q27 -23 17 -71l-18 -87h171l32 158h36q27 -23 17 -71l-18 -87h120l-4 -38q-10 -13 -25.5 -16.5t-56.5 -3.5h-45l-41 -203h141l-4 -38q-10 -13 -25.5 -16.5
t-56.5 -3.5h-67l-36 -181h-36q-27 23 -17 70l22 111h-171l-36 -181h-36q-27 23 -17 70l22 111h-30q-41 0 -86 14l4 39q35 5 93 5z" />
    <glyph glyph-name="dollar" unicode="$" horiz-adv-x="554" 
d="M224 405q9 -5 25 -11v218q-108 -10 -108 -99q0 -71 83 -108zM316 273q-4 1 -12 5v-233q110 12 110 110q0 46 -22 72t-76 46zM246 45q0 8 1 21t1.5 24t0.5 19v189q-58 22 -86 36q-105 50 -105 163q0 74 48.5 117t140.5 52q-7 77 20 89h50l-6 -86q74 -1 156 -17
q18 -54 -17 -154h-30q-22 40 -34 102q-41 11 -80 13q-2 -58 -2 -67v-174l52 -18q70 -27 106.5 -67t36.5 -113q0 -77 -51 -126t-141 -57q6 -75 -20 -88h-50l6 87q-131 6 -194 50q-18 72 22 154h31q22 -50 29 -114q39 -29 115 -35z" />
    <glyph glyph-name="percent" unicode="%" horiz-adv-x="747" 
d="M35 510q0 66 45.5 111t109.5 45q70 0 113.5 -40.5t43.5 -110.5q0 -65 -46 -111t-109 -46q-68 0 -112.5 40.5t-44.5 111.5zM148 0h-32q-11 35 33 92l451 566h32q10 -37 -33 -92zM109 511q0 -51 25 -79.5t59 -28.5q35 0 57 28.5t22 81.5t-23.5 80.5t-58.5 27.5t-58 -29
t-23 -81zM400 144q0 66 45.5 111t109.5 45q70 0 113.5 -40.5t43.5 -110.5q0 -65 -46 -111t-109 -46q-68 0 -112.5 40.5t-44.5 111.5zM474 145q0 -51 25 -79.5t59 -28.5q35 0 57 28.5t22 81.5t-23.5 80.5t-58.5 27.5t-58 -29t-23 -81z" />
    <glyph glyph-name="ampersand" unicode="&#x26;" horiz-adv-x="717" 
d="M381 516q0 49 -24.5 75.5t-68.5 26.5q-41 0 -65 -24.5t-24 -66.5q0 -37 22.5 -69.5t72.5 -75.5q42 24 64.5 54.5t22.5 79.5zM152 178q0 -61 38 -96.5t107 -35.5q98 0 156 78l-111 99l-57 47.5l-50 41.5q-83 -46 -83 -134zM688 36q-6 -44 -52 -44q-32 0 -60 23l-81 71
q-77 -97 -209 -97q-114 0 -173 48.5t-59 127.5q0 70 44 112.5t107 61.5q-95 90 -95 169q0 76 51.5 118.5t134.5 42.5q82 0 126.5 -41.5t44.5 -105.5t-39.5 -105.5t-102.5 -60.5l92 -80l79 -72q25 68 34 163h108q24 0 51 -5v-36q-22 -29 -79 -29h-31q-13 -76 -38 -134
q80 -74 147 -127z" />
    <glyph glyph-name="quotesingle" unicode="'" horiz-adv-x="196" 
d="M116 492h-34q-32 145 -32 182q0 21 12 37t36 16t36 -16t12 -37q0 -46 -30 -182z" />
    <glyph glyph-name="parenleft" unicode="(" horiz-adv-x="345" 
d="M168 295q0 -122 32.5 -227t109.5 -207q-7 -14 -25 -25q-84 72 -144.5 188.5t-60.5 266.5q0 151 64.5 272t151.5 191q16 -9 24 -25q-152 -190 -152 -434z" />
    <glyph glyph-name="parenright" unicode=")" horiz-adv-x="345" 
d="M174 295q0 242 -143 434q8 14 25 25q38 -33 72 -75t65.5 -98.5t50 -130.5t18.5 -155q0 -143 -64.5 -267t-148.5 -192q-15 11 -24 25q149 186 149 434z" />
    <glyph glyph-name="asterisk" unicode="*" horiz-adv-x="376" 
d="M204 538l11 -56.5t11 -64.5q-12 -16 -38 -16q-24 0 -38 16q22 115 23 121l-28 -25l-36.5 -32.5l-27.5 -23.5q-21 5 -33 25q-13 20 -5 41q15 6 57 20.5t58 20.5l-57 20t-59 21q-7 19 5 41q12 21 33 25l44 -39t49 -42l-11.5 59.5t-11.5 61.5q14 16 38 16t38 -16
q-3 -17 -11.5 -61.5l-11.5 -59.5q91 77 93 79q19 -2 32 -24q13 -21 6 -42l-52.5 -17.5t-62.5 -21.5q115 -40 116 -41q5 -19 -6 -40q-10 -20 -32 -25q-18 14 -93 80z" />
    <glyph glyph-name="plus" unicode="+" horiz-adv-x="527" 
d="M301 103q0 -53 -24 -69h-51v191h-95q-39 0 -81 13v46q33 6 93 6h83v112q0 53 24 69h51v-181h176v-41q-16 -24 -69 -24h-107v-122z" />
    <glyph glyph-name="comma" unicode="," horiz-adv-x="232" 
d="M26 -164q-15 10 -28 25q65 96 95 234q14 4 28 4q47 0 47 -53q0 -45 -40 -102t-102 -108z" />
    <glyph glyph-name="hyphen" unicode="-" horiz-adv-x="363" 
d="M65 226v55q10 13 25.5 16.5t56.5 3.5h151v-55q-10 -13 -25.5 -16.5t-56.5 -3.5h-151z" />
    <glyph glyph-name="period" unicode="." horiz-adv-x="242" 
d="M64 46q0 24 16.5 40.5t40.5 16.5t40.5 -16.5t16.5 -40.5t-16.5 -40.5t-40.5 -16.5t-40.5 16.5t-16.5 40.5z" />
    <glyph glyph-name="slash" unicode="/" horiz-adv-x="498" 
d="M53 -140l333 858h43q9 -15 9 -34q0 -20 -16 -63l-333 -858h-43q-9 15 -9 33q0 23 16 64z" />
    <glyph glyph-name="zero" unicode="0" horiz-adv-x="649" 
d="M55 317q0 159 73.5 255.5t196.5 96.5q120 0 194.5 -86.5t74.5 -243.5q0 -158 -73 -254t-199 -96q-119 0 -193 87.5t-74 240.5zM156 328q0 -130 45.5 -206t130.5 -76q81 0 121 76t40 211q0 132 -44.5 205.5t-127.5 73.5t-124 -74.5t-41 -209.5z" />
    <glyph glyph-name="one" unicode="1" horiz-adv-x="386" 
d="M154 61v531q-46 4 -99 15v32q69 24 129 24q43 0 60 -13v-591q70 -10 107 -23v-36h-314q0 28 23 39.5t94 21.5z" />
    <glyph glyph-name="two" unicode="2" horiz-adv-x="511" 
d="M403 0h-354v62q78 72 144 142q156 164 156 283q0 126 -112 126q-52 0 -80 -34t-38 -103q-34 0 -54 16.5t-20 46.5q0 52 55 91t143 39q105 0 155.5 -49.5t50.5 -128.5q0 -30 -5.5 -58t-21 -57l-27.5 -51t-40.5 -52.5l-43 -46.5t-52 -49l-51.5 -44.5l-57 -47.5v-3h324v-53
q-19 -29 -72 -29z" />
    <glyph glyph-name="three" unicode="3" horiz-adv-x="517" 
d="M230 -11q-91 0 -144.5 33.5t-53.5 78.5q0 27 17 45.5t48 22.5q16 -54 54 -90t89 -36q58 0 95 35t37 99q0 74 -54 106t-165 27v55q99 9 143 43.5t44 100.5q0 51 -26.5 78.5t-75.5 27.5q-52 0 -78 -27.5t-41 -88.5q-24 3 -44 18.5t-20 42.5q0 45 51 76.5t134 31.5
q99 0 148 -40.5t49 -108.5q0 -115 -129 -159q69 -10 116 -54t47 -117q0 -91 -64.5 -145.5t-176.5 -54.5z" />
    <glyph glyph-name="four" unicode="4" horiz-adv-x="570" 
d="M426 166v-110q64 -11 92 -20v-36h-270q0 27 16.5 37t73.5 20v109h-304q-1 5 -1 19q0 6 0.5 12.5t1.5 11.5t3.5 12l4 11.5t5.5 12l6 11.5t7.5 12.5t7.5 12t9 14l9 13.5l183 290q24 35 41 48t45 13h70v-419h114v-45q-19 -26 -66 -29h-48zM338 594l-222 -354h222v354z" />
    <glyph glyph-name="five" unicode="5" horiz-adv-x="494" 
d="M418 658v-51q-19 -29 -72 -29h-181l-16 -167q293 3 293 -205q0 -102 -63 -159.5t-162 -57.5q-92 0 -142 30.5t-50 75.5q0 27 17.5 45.5t47.5 19.5q34 -117 126 -117q65 0 95.5 39.5t30.5 107.5q0 90 -64 126.5t-202 27.5l29 270q5 44 49 44h264z" />
    <glyph glyph-name="six" unicode="6" horiz-adv-x="554" 
d="M478 624q-138 -21 -220 -100.5t-102 -194.5q24 39 66 62.5t93 23.5q92 0 143 -55.5t51 -148.5q0 -100 -65 -161t-165 -61q-105 0 -164.5 71.5t-59.5 202.5q0 172 114 284t303 113zM150 254q0 -88 33.5 -149.5t103.5 -61.5q55 0 90.5 41t35.5 116q0 69 -34.5 110.5
t-89.5 41.5q-88 0 -138 -74q-1 -8 -1 -24z" />
    <glyph glyph-name="seven" unicode="7" horiz-adv-x="452" 
d="M32 578v51q19 29 72 29h310v-52q-22 -126 -74 -273.5t-105 -228.5q-33 -51 -65 -79.5t-76 -28.5q-14 0 -26 4v38q184 197 286 540h-322z" />
    <glyph glyph-name="eight" unicode="8" horiz-adv-x="536" 
d="M40 155q0 64 43 108t105 60q-123 61 -123 173q0 75 55 123.5t154 48.5q98 0 147 -44.5t49 -112.5q0 -56 -36.5 -97t-90.5 -59q77 -32 112 -73t35 -109q0 -80 -63 -132t-161 -52q-103 0 -164.5 44.5t-61.5 121.5zM155 513q0 -55 36 -85t105 -55q5 -3 11 -4q72 52 72 132
q0 51 -31 83t-82 32q-49 0 -80 -27.5t-31 -75.5zM135 168q1 -61 36.5 -93.5t96.5 -32.5q58 0 93.5 29t35.5 86q0 54 -31 82.5t-100 51.5q-21 6 -47 17q-85 -53 -84 -140z" />
    <glyph glyph-name="nine" unicode="9" horiz-adv-x="552" 
d="M84 35q143 21 221.5 103t93.5 196q-59 -92 -166 -92q-85 0 -136.5 53.5t-51.5 136.5q0 97 60 166.5t157 69.5q107 0 171 -69t64 -211q0 -172 -108.5 -280t-297.5 -109zM402 383q0 103 -33.5 167t-110.5 64q-54 0 -85.5 -42.5t-31.5 -118.5q0 -68 35 -107t99 -39
q38 0 72.5 21t54.5 52v3z" />
    <glyph glyph-name="colon" unicode=":" horiz-adv-x="242" 
d="M64 351q0 24 16.5 40.5t40.5 16.5t40.5 -16.5t16.5 -40.5t-16.5 -40.5t-40.5 -16.5t-40.5 16.5t-16.5 40.5zM64 46q0 24 16.5 40.5t40.5 16.5t40.5 -16.5t16.5 -40.5t-16.5 -40.5t-40.5 -16.5t-40.5 16.5t-16.5 40.5z" />
    <glyph glyph-name="semicolon" unicode=";" horiz-adv-x="242" 
d="M64 351q0 24 16.5 40.5t40.5 16.5t40.5 -16.5t16.5 -40.5t-16.5 -40.5t-40.5 -16.5t-40.5 16.5t-16.5 40.5zM23 -164q-15 10 -28 25q65 96 95 234q14 4 28 4q47 0 47 -53q0 -45 -40 -102t-102 -108z" />
    <glyph glyph-name="less" unicode="&#x3c;" horiz-adv-x="507" 
d="M62 300l374 164q14 -15 19 -41l-306 -164l306 -160q-4 -24 -19 -41l-322 134q-29 11 -42.5 27t-13.5 46q0 19 4 35z" />
    <glyph glyph-name="equal" unicode="=" horiz-adv-x="538" 
d="M404 298h-268q-39 0 -81 13v44q33 6 93 6h335v-43q-10 -13 -25 -16.5t-54 -3.5zM404 153h-268q-39 0 -81 13v44q33 6 93 6h335v-43q-10 -13 -25 -16.5t-54 -3.5z" />
    <glyph glyph-name="greater" unicode="&#x3e;" horiz-adv-x="507" 
d="M445 220l-374 -164q-14 15 -19 41l306 164l-306 160q4 24 19 41l322 -134q29 -11 42.5 -27t13.5 -46q0 -19 -4 -35z" />
    <glyph glyph-name="question" unicode="?" horiz-adv-x="422" 
d="M25 566q0 43 47 72.5t141 29.5q90 0 139.5 -40t49.5 -112q0 -41 -15.5 -74t-44.5 -56.5t-58.5 -39t-69.5 -30.5v-141h-44q-39 51 -39 86q0 27 14.5 46.5t50.5 45.5q57 42 82.5 76t25.5 82q0 47 -24 75.5t-76 28.5q-22 0 -41.5 -9.5t-30.5 -18t-24.5 -31t-16 -27.5
t-12.5 -27q-54 8 -54 64zM133 45q0 25 16 41.5t40 16.5q25 0 41.5 -16.5t16.5 -41.5q0 -24 -16.5 -40t-41.5 -16q-24 0 -40 16t-16 40z" />
    <glyph glyph-name="at" unicode="@" horiz-adv-x="911" 
d="M622 21q-98 0 -98 95q0 8 1.5 23.5t1.5 19.5h-3q-19 -61 -52 -97.5t-79 -36.5q-57 0 -85 51t-28 125q0 106 50.5 180t133.5 74q46 0 86 -42q12 13 34.5 26t41.5 16l14 -26q-41 -219 -41 -311q0 -42 35 -42q62 0 104 64t42 169q0 125 -82 204t-227 79q-151 0 -243 -102.5
t-92 -265.5q0 -153 90 -245t247 -92q130 0 236 70l22 -33q-31 -35 -105.5 -64.5t-157.5 -29.5q-194 0 -305.5 107t-111.5 282q0 184 116 306.5t305 122.5q94 0 169.5 -27.5t122.5 -74.5t71.5 -107t24.5 -128q0 -132 -72 -211t-166 -79zM527 258q13 51 18 113q-29 31 -73 31
q-51 0 -79.5 -54t-28.5 -133q0 -49 12.5 -86.5t40.5 -37.5q33 0 62.5 50t47.5 117z" />
    <glyph glyph-name="A" unicode="A" horiz-adv-x="686" 
d="M330 599l-104 -316h208zM510 54l-58 175h-244l-57 -175q55 -8 93 -18v-36h-230q0 24 14 34.5t56 20.5l206 611h47q23 0 38 -4.5t24.5 -17t14 -21.5t11.5 -31l177 -538q43 -10 56.5 -19.5t13.5 -34.5h-255v36q40 11 93 18z" />
    <glyph glyph-name="B" unicode="B" horiz-adv-x="621" 
d="M40 658h298q190 0 190 -152q0 -55 -29.5 -94t-77.5 -57q71 -11 111.5 -50.5t40.5 -109.5q0 -99 -66 -147t-168 -48h-299q0 28 15.5 38t71.5 20v542q-56 10 -71.5 20t-15.5 38zM313 604h-96v-236h105q57 2 83.5 38t26.5 83q0 55 -30 85t-89 30zM333 314h-116v-231
q0 -29 29 -29h87q62 0 102 34.5t40 101.5q0 59 -36.5 91.5t-105.5 32.5z" />
    <glyph glyph-name="C" unicode="C" horiz-adv-x="622" 
d="M359 -11q-142 0 -224 92.5t-82 240.5q0 149 92.5 247.5t259.5 98.5q43 0 93 -5.5t68 -11.5q6 -20 6 -49q0 -49 -27 -115h-30q-23 49 -34 111q-48 15 -101 15q-106 0 -166.5 -71t-60.5 -206q0 -122 61 -201.5t167 -79.5q89 0 170 73q19 -12 26 -28q-29 -45 -83.5 -78
t-134.5 -33z" />
    <glyph glyph-name="D" unicode="D" horiz-adv-x="741" 
d="M40 658h310q154 0 246 -80t92 -233q0 -155 -89.5 -250t-250.5 -95h-308q0 28 15.5 38t71.5 20v542q-56 10 -71.5 20t-15.5 38zM332 604h-115v-521q0 -16 6.5 -22.5t22.5 -6.5h85q257 0 257 288q0 120 -63.5 191t-192.5 71z" />
    <glyph glyph-name="E" unicode="E" horiz-adv-x="570" 
d="M512 0h-472q0 28 15.5 38t71.5 20v542q-56 10 -71.5 20t-15.5 38h473q6 -16 6 -45q0 -51 -23 -108h-30q-21 46 -32 99h-217v-227h218v-30q-14 -28 -53 -28h-165v-265h219q11 62 31 105h30q23 -58 23 -111q0 -27 -8 -48z" />
    <glyph glyph-name="F" unicode="F" horiz-adv-x="550" 
d="M220 377h208v-30q-14 -28 -53 -28h-155v-263q63 -9 102 -20v-36h-282q0 27 16.5 37t73.5 20v543q-56 10 -71.5 20t-15.5 38h463q6 -16 6 -45q0 -51 -23 -108h-30q-21 46 -32 99h-207v-227z" />
    <glyph glyph-name="G" unicode="G" horiz-adv-x="677" 
d="M587 651q6 -20 6 -49q0 -49 -27 -115h-30q-23 49 -34 111q-43 15 -117 15q-108 0 -170 -78t-62 -197q0 -74 20 -131t54 -90.5t75.5 -50t88.5 -16.5q73 0 130 19v176q-58 5 -97 19v29q60 22 108 22q55 0 76 -23v-229q-86 -73 -231 -73q-156 0 -240 92.5t-84 230.5
q0 73 22.5 136t65.5 112.5t113 78t159 28.5q116 0 174 -17z" />
    <glyph glyph-name="H" unicode="H" horiz-adv-x="778" 
d="M220 602v-233h338v233q-64 11 -92 20v36h272q0 -27 -16.5 -37t-73.5 -20v-544q57 -10 73.5 -20t16.5 -37h-272v36q28 9 92 20v257h-338v-257q64 -11 92 -20v-36h-272q0 27 16.5 37t73.5 20v544q-57 10 -73.5 20t-16.5 37h272v-36q-28 -9 -92 -20z" />
    <glyph glyph-name="I" unicode="I" horiz-adv-x="354" 
d="M222 601v-544q58 -10 92 -21v-36h-274q0 27 17 37.5t75 20.5v542q-58 10 -75 20.5t-17 37.5h274v-36q-34 -11 -92 -21z" />
    <glyph glyph-name="J" unicode="J" horiz-adv-x="347" 
d="M220 601v-493q0 -81 -20.5 -141.5t-53.5 -91.5t-66.5 -45.5t-66.5 -14.5q-43 0 -71.5 16.5t-28.5 44.5q0 33 26 51q80 -40 112 -40q42 0 60.5 37.5t18.5 126.5v549q-58 10 -75 20.5t-17 37.5h274v-36q-34 -11 -92 -21z" />
    <glyph glyph-name="K" unicode="K" horiz-adv-x="661" 
d="M220 602v-259l248 261q-45 9 -73 18v36h235q0 -26 -15.5 -36.5t-65.5 -19.5l-234 -242l187 -220q65 -77 126 -104v-31q-22 -16 -57 -16q-40 0 -69.5 22.5t-76.5 78.5l-205 244v-278q64 -11 92 -20v-36h-272q0 27 16.5 37t73.5 20v544q-57 10 -73.5 20t-16.5 37h264v-36
q-34 -11 -84 -20z" />
    <glyph glyph-name="L" unicode="L" horiz-adv-x="573" 
d="M524 0h-481q0 27 16 37.5t71 19.5v544q-56 10 -71.5 20t-15.5 37h269v-36q-28 -9 -92 -20v-548h228q12 67 31 108h30q23 -58 23 -114q0 -27 -8 -48z" />
    <glyph glyph-name="M" unicode="M" horiz-adv-x="924" 
d="M760 600l37 -543q57 -10 73.5 -20t16.5 -37h-269v36q28 9 92 20l-39 534l-138 -400q-23 -66 -37 -87t-43 -21h-42l-176 505l-41 -531q64 -11 92 -20v-36h-249q0 27 16.5 37t73.5 20l43 543q-52 10 -66.5 20t-14.5 38h153q44 0 59.5 -16t37.5 -81l127 -380l128 375
q23 68 37.5 85t47.5 17h162q0 -28 -14.5 -38t-66.5 -20z" />
    <glyph glyph-name="N" unicode="N" horiz-adv-x="767" 
d="M130 57v543q-52 10 -66.5 20t-14.5 38h108q28 0 44 -8t31 -29l344 -502v483q-64 11 -92 20v36h248q0 -27 -16.5 -37t-73.5 -20v-499q0 -33 -3.5 -54t-18 -38t-41.5 -17h-19l-364 524v-461q66 -11 93 -20v-36h-249q0 27 16.5 37t73.5 20z" />
    <glyph glyph-name="O" unicode="O" horiz-adv-x="749" 
d="M53 322q0 153 93 250t233 97q138 0 227.5 -87t89.5 -243q0 -153 -94.5 -251.5t-235.5 -98.5q-137 0 -225 88t-88 245zM153 328q0 -129 61.5 -205t160.5 -76q100 0 160.5 78t60.5 208q0 129 -61.5 204t-161.5 75t-160 -76.5t-60 -207.5z" />
    <glyph glyph-name="P" unicode="P" horiz-adv-x="585" 
d="M307 610q-64 0 -87 -3v-266q59 -11 100 -3.5t67 20t40.5 35t20 43t5.5 44.5q0 64 -37.5 97t-108.5 33zM130 57v543q-56 10 -71.5 20t-15.5 38h116q20 0 90 1.5t85 1.5q104 0 160.5 -44.5t56.5 -129.5q0 -44 -20.5 -83t-60 -69.5t-104.5 -44t-146 -4.5v-230
q74 -10 102 -20v-36h-282q0 27 16.5 37t73.5 20z" />
    <glyph glyph-name="Q" unicode="Q" horiz-adv-x="748" 
d="M53 322q0 153 92.5 250t233.5 97q138 0 227.5 -87t89.5 -243q0 -125 -64.5 -215t-169.5 -121q160 -112 301 -112q38 0 101 14l12 -27q-17 -24 -57.5 -44.5t-96.5 -20.5q-83 0 -169.5 48t-163.5 129q-12 -1 -24 -1q-137 0 -224.5 88t-87.5 245zM153 328q0 -129 61.5 -205
t160.5 -76q100 0 160.5 78t60.5 208q0 128 -62 203.5t-161 75.5q-101 0 -160.5 -76.5t-59.5 -207.5z" />
    <glyph glyph-name="R" unicode="R" horiz-adv-x="663" 
d="M220 288v-232q64 -11 92 -20v-36h-272q0 27 16.5 37t73.5 20v543q-56 10 -71.5 20t-15.5 38h124q23 0 88 1.5t78 1.5q104 0 160.5 -44t56.5 -129q0 -57 -35.5 -106t-99.5 -74l104 -153q32 -48 59.5 -75.5t64.5 -43.5v-31q-23 -16 -55 -16q-36 0 -63.5 21t-68.5 81
l-132 196q-49 -6 -104 1zM306 610q-63 0 -86 -3v-266q58 -11 99 -3.5t67 20t40.5 35.5t20 43.5t5.5 43.5q0 130 -146 130z" />
    <glyph glyph-name="S" unicode="S" horiz-adv-x="539" 
d="M69 501q0 78 56.5 122.5t166.5 44.5q90 0 165 -16q18 -54 -17 -154h-30q-23 41 -34 101q-43 13 -95 13q-61 0 -93.5 -26t-32.5 -74q0 -67 80 -103q23 -11 100 -39q76 -28 114.5 -71.5t38.5 -115.5q0 -96 -62 -145t-169 -49q-122 0 -203 50q-8 39 -0.5 81t24.5 77h31
q23 -52 30 -117q49 -33 124 -33q63 0 99.5 31t36.5 83q0 49 -24 75.5t-72 45.5q-22 9 -47.5 18.5l-43 16.5t-40.5 19q-103 52 -103 165z" />
    <glyph glyph-name="T" unicode="T" horiz-adv-x="632" 
d="M272 604h-152q-12 -61 -32 -105h-30q-23 57 -23 112q0 31 6 47h550q6 -16 6 -47q0 -55 -23 -112h-30q-20 44 -32 105h-150v-549q55 -7 88 -17v-38h-273q1 27 20 39t75 18v547z" />
    <glyph glyph-name="U" unicode="U" horiz-adv-x="771" 
d="M580 268v334q-77 11 -100 20v36h260q0 -27 -16.5 -37t-73.5 -20l-1 -340q0 -124 -69 -198.5t-186 -74.5q-134 0 -203.5 65t-69.5 208v340q-57 10 -73.5 20t-16.5 37h280v-36q-23 -9 -100 -20v-334q0 -104 45 -159t146 -55q178 0 178 214z" />
    <glyph glyph-name="V" unicode="V" horiz-adv-x="686" 
d="M188 604l169 -502l172 502q-77 13 -93 18v36h231q0 -25 -13.5 -35t-56.5 -19l-192 -541q-16 -46 -31 -59t-43 -13h-27l-215 613q-42 9 -56 19.5t-14 34.5h262v-36q-16 -5 -93 -18z" />
    <glyph glyph-name="W" unicode="W" horiz-adv-x="995" 
d="M638 -7l-132 447l-120 -376q-14 -43 -29.5 -57t-45.5 -14h-31l-191 611q-42 9 -56 19.5t-14 34.5h263v-36q-16 -5 -93 -18l149 -502l138 440l-12 43q-10 32 0.5 52.5t41.5 20.5h32l156 -556l147 502q-77 13 -93 18v36h228q0 -25 -14 -35.5t-56 -19.5l-163 -539
q-12 -40 -28.5 -55.5t-45.5 -15.5h-31z" />
    <glyph glyph-name="X" unicode="X" horiz-adv-x="679" 
d="M218 604h-1l133 -207l138 207q-57 9 -86 18v36h228q0 -25 -14 -35.5t-56 -19.5l-176 -255l190 -293q46 -9 60.5 -19.5t14.5 -35.5h-267v36q28 9 92 20l-145 219l-149 -219q64 -11 92 -20v-36h-242q0 26 14 36t62 20l187 271l-184 276q-42 9 -56 19.5t-14 35.5h265v-36
q-29 -9 -86 -18z" />
    <glyph glyph-name="Y" unicode="Y" horiz-adv-x="618" 
d="M327 328l139 276q-77 13 -93 18v36h226q0 -25 -13.5 -35.5t-55.5 -19.5l-170 -325v-221q58 -10 92 -21v-36h-274q0 27 17 37.5t75 20.5v200l-181 345q-42 9 -56 19.5t-14 35.5h264v-36q-17 -6 -92 -18z" />
    <glyph glyph-name="Z" unicode="Z" horiz-adv-x="583" 
d="M533 0h-412q-39 0 -58 17.5t-23 39.5l385 547h-282q-14 -64 -32 -105h-30q-23 57 -23 112q0 31 6 47h386q33 0 53 -14t24 -28l4 -15l-391 -547h317q11 62 31 105h30q23 -58 23 -111q0 -27 -8 -48z" />
    <glyph glyph-name="bracketleft" unicode="[" horiz-adv-x="311" 
d="M177 730h99v-36q-10 -13 -25 -16t-57 -3h-21v-794h103v-34q-9 -12 -26 -16.5t-56 -4.5h-99v885q10 13 25 16t57 3z" />
    <glyph glyph-name="backslash" unicode="\" horiz-adv-x="498" 
d="M112 718l333 -858q25 -65 7 -97h-43l-333 858q-25 64 -7 97h43z" />
    <glyph glyph-name="bracketright" unicode="]" horiz-adv-x="311" 
d="M134 -174h-99v36q10 13 25 16t57 3h21v794h-103v34q9 12 26 16.5t56 4.5h99v-885q-10 -13 -25 -16t-57 -3z" />
    <glyph glyph-name="asciicircum" unicode="^" horiz-adv-x="450" 
d="M415 385q-13 -13 -38 -23l-152 219l-152 -219q-25 10 -38 23l114 219q14 25 22 35.5t24 18t42 7.5q18 0 36 -3q18 -32 69.5 -137t72.5 -140z" />
    <glyph glyph-name="underscore" unicode="_" horiz-adv-x="555" 
d="M100 -29h437v-46q-10 -13 -25.5 -16.5t-56.5 -3.5h-437v46q10 13 25.5 16.5t56.5 3.5z" />
    <glyph glyph-name="grave" unicode="`" horiz-adv-x="400" 
d="M309 565l-21 -25l-61 30.5t-55 32t-49.5 40.5t-16.5 39q0 20 15.5 31t42.5 10q59 -76 145 -158z" />
    <glyph glyph-name="a" unicode="a" horiz-adv-x="494" 
d="M223 54q29 0 54 13.5t36 34.5l2 101q-91 5 -136.5 -10t-45.5 -65q0 -36 24.5 -55t65.5 -19zM472 62v-31q-30 -41 -75 -41q-52 0 -73 70q-45 -71 -133 -71q-70 0 -109.5 36.5t-39.5 91.5q0 68 58 103.5t161 35.5q22 0 56 -2q1 35 1 51q0 58 -24.5 90t-68.5 32
q-16 0 -29.5 -5t-27.5 -18.5t-20 -20t-20.5 -26.5t-15.5 -21q-42 7 -51.5 40t25.5 59q57 43 160 43q157 0 157 -162q0 -37 -3.5 -116.5t-3.5 -114.5q44 -12 76 -23z" />
    <glyph glyph-name="b" unicode="b" horiz-adv-x="555" 
d="M84 38v607q-51 8 -81 24v26q21 11 56.5 21.5t60.5 10.5q28 0 50 -12v-299q55 62 140 62q94 0 147.5 -65t53.5 -158q0 -118 -68.5 -191.5t-178.5 -73.5q-102 0 -180 48zM270 45q67 0 108.5 50.5t41.5 138.5q0 80 -39.5 129t-106.5 49q-61 0 -104 -47v-293q40 -27 100 -27z
" />
    <glyph glyph-name="c" unicode="c" horiz-adv-x="467" 
d="M287 56q61 0 115 48q5 -4 14.5 -15t10.5 -15q-59 -85 -170 -85q-99 0 -158 68t-59 164q0 110 68 183.5t182 73.5q83 0 123 -14q4 -11 4 -39q0 -49 -24 -97h-27q-20 34 -30 87q-26 8 -65 8q-69 0 -104.5 -49t-35.5 -120q0 -95 42.5 -146.5t113.5 -51.5z" />
    <glyph glyph-name="d" unicode="d" horiz-adv-x="575" 
d="M292 57q60 0 95 47v296q-38 23 -96 23q-74 0 -115.5 -52.5t-41.5 -132.5q0 -79 41.5 -130t116.5 -51zM474 715l-1 -617q50 -16 70 -25v-33q-14 -18 -39.5 -33t-45.5 -15q-21 0 -58 71q-48 -74 -141 -74q-96 0 -156 65t-60 166q0 110 70.5 184t186.5 74q50 0 87 -10l1 177
q-51 7 -84 24v26q62 32 120 32q28 0 50 -12z" />
    <glyph glyph-name="e" unicode="e" horiz-adv-x="480" 
d="M407 104q6 -4 15 -15t10 -15q-61 -85 -174 -85q-102 0 -160 68t-58 163q0 120 62.5 189t159.5 69q90 0 134.5 -48.5t44.5 -121.5q0 -28 -3 -60h-307q-3 -78 37.5 -135t119.5 -57q63 0 119 48zM358 298q0 128 -108 128q-53 0 -81.5 -37t-33.5 -91h223z" />
    <glyph glyph-name="f" unicode="f" horiz-adv-x="370" 
d="M201 410v-356q65 -6 100 -18v-36h-268q0 26 15 36t67 20v354q-34 3 -74 15v36q31 4 74 5v27q0 106 59.5 169t160.5 63q89 0 89 -51q0 -31 -25 -44q-5 2 -20.5 9.5t-22 10t-18.5 6.5t-22.5 5.5t-22.5 1.5q-92 0 -92 -111v-86h148v-35q-9 -12 -26 -16.5t-56 -4.5h-66z" />
    <glyph glyph-name="g" unicode="g" horiz-adv-x="535" 
d="M253 192q48 0 77.5 30t29.5 87q0 55 -30.5 86.5t-80.5 31.5q-52 0 -80 -32t-28 -84q0 -60 30.5 -89.5t81.5 -29.5zM259 478q58 0 106 -27q75 29 114 29q20 0 32 -10t12 -28q0 -26 -9 -40q-67 9 -109 18q45 -40 45 -101q0 -91 -59 -134.5t-144 -43.5q-42 0 -78 10
q-28 -12 -28 -42q0 -40 61 -47q33 -3 80.5 -5.5t64.5 -3.5q156 -9 156 -127q0 -78 -68 -126.5t-198 -48.5q-104 0 -160 32.5t-56 89.5q0 81 104 119q-59 27 -59 84q0 55 66 90q-81 42 -81 135q0 80 58 128.5t150 48.5zM328 -30q-141 9 -163 12q-61 -27 -61 -85
q0 -48 44 -69.5t101 -21.5q182 0 182 98q0 60 -103 66z" />
    <glyph glyph-name="h" unicode="h" horiz-adv-x="606" 
d="M500 305v-250q48 -8 80 -19v-36h-248q0 26 15 36t67 20v225q0 65 -28.5 98.5t-81.5 33.5q-38 0 -67.5 -21.5t-44.5 -52.5v-284q48 -8 80 -19v-36h-248q0 26 15 36t67 20v589q-51 8 -81 24v26q21 11 56.5 21.5t60.5 10.5q28 0 50 -12v-318q55 81 148 81q78 0 119 -49.5
t41 -123.5z" />
    <glyph glyph-name="i" unicode="i" horiz-adv-x="307" 
d="M95 630q0 23 16.5 39.5t39.5 16.5t39.5 -16.5t16.5 -39.5t-16.5 -39.5t-39.5 -16.5t-39.5 16.5t-16.5 39.5zM202 465v-410q47 -8 79 -19v-36h-248q0 26 15.5 36t67.5 20v340q-46 9 -72 23v26q59 32 113 32q23 0 45 -12z" />
    <glyph glyph-name="j" unicode="j" horiz-adv-x="279" 
d="M81 630q0 23 16.5 39.5t39.5 16.5t39.5 -16.5t16.5 -39.5t-16.5 -39.5t-39.5 -16.5t-39.5 16.5t-16.5 39.5zM103 396q-46 9 -72 23v26q59 32 113 32q23 0 45 -12v-244l1 -210q0 -124 -52.5 -191t-133.5 -67q-51 0 -77.5 17t-26.5 45q0 31 27 48q74 -37 101 -37
q43 0 59 28t16 107v435z" />
    <glyph glyph-name="k" unicode="k" horiz-adv-x="525" 
d="M192 260l163 153q-34 3 -71 9v33q44 11 82 11h81q40 0 51 -1v-33q-14 -20 -69 -21l-152 -138q34 -44 127 -150q53 -61 99 -84v-31q-24 -19 -55 -19q-29 0 -52 18t-60 64l-144 176v-193q44 -6 80 -18v-36h-248q0 26 15 36t67 20v589q-51 8 -81 24v26q21 11 56.5 21.5
t60.5 10.5q28 0 50 -12v-455z" />
    <glyph glyph-name="l" unicode="l" horiz-adv-x="302" 
d="M194 715v-661q44 -6 80 -18v-36h-248q0 26 15 36t67 20v589q-51 8 -81 24v26q21 11 56.5 21.5t60.5 10.5q28 0 50 -12z" />
    <glyph glyph-name="m" unicode="m" horiz-adv-x="900" 
d="M794 305v-250q48 -8 80 -19v-36h-248q0 26 15 36t67 20v225q0 132 -105 132q-66 0 -105 -73v-285q47 -8 79 -19v-36h-244q0 26 14.5 36.5t64.5 19.5v225q0 65 -27.5 98.5t-77.5 33.5q-69 0 -106 -74v-284q48 -8 80 -19v-36h-248q0 26 15 36t67 20v340q-46 9 -72 23v26
q59 32 113 32q22 0 44 -12v-69q56 82 145 82q102 0 138 -93q58 93 158 93q76 0 114.5 -49t38.5 -124z" />
    <glyph glyph-name="n" unicode="n" horiz-adv-x="615" 
d="M509 305v-250q48 -8 80 -19v-36h-248q0 26 15 36t67 20v225q0 65 -28.5 98.5t-81.5 33.5q-75 0 -112 -74v-284q48 -8 80 -19v-36h-248q0 26 15 36t67 20v340q-46 9 -72 23v26q59 32 113 32q22 0 44 -12v-69q53 82 148 82q78 0 119.5 -49t41.5 -124z" />
    <glyph glyph-name="o" unicode="o" horiz-adv-x="547" 
d="M42 227q0 105 65.5 178t171.5 73q103 0 164.5 -64t61.5 -173q0 -105 -65.5 -178.5t-171.5 -73.5q-103 0 -164.5 65t-61.5 173zM135 234q0 -87 36.5 -139t103.5 -52q64 0 101 52.5t37 138.5q0 87 -36.5 138.5t-103.5 51.5q-63 0 -100.5 -52t-37.5 -138z" />
    <glyph glyph-name="p" unicode="p" horiz-adv-x="568" 
d="M283 45q68 0 109 50.5t41 138.5q0 80 -38.5 129t-105.5 49q-64 0 -105 -47v-294q38 -26 99 -26zM184 1v-183q49 -7 92 -19v-36h-260q0 26 15 36t67 20v577q-46 9 -72 23v26q59 32 113 32q23 0 45 -12v-49q53 62 137 62q96 0 149.5 -65.5t53.5 -157.5q0 -117 -69 -191
t-178 -74q-51 0 -93 11z" />
    <glyph glyph-name="q" unicode="q" horiz-adv-x="557" 
d="M387 -181v230q-47 -59 -134 -59q-96 0 -153 66t-57 158q0 120 72.5 192t183.5 72q99 0 174 -47v-613q47 -8 79 -19v-36h-257q0 26 16.5 36t75.5 20zM288 423q-67 0 -110.5 -50.5t-43.5 -136.5q0 -78 43 -128.5t110 -50.5q59 0 100 47v296q-35 23 -99 23z" />
    <glyph glyph-name="r" unicode="r" horiz-adv-x="395" 
d="M201 465v-94q36 56 62 81.5t57 25.5q21 0 34 -12.5t13 -33.5q0 -28 -17 -50q-37 2 -61 1t-43.5 -12.5t-44.5 -42.5v-273q46 -7 88 -19v-36h-256q0 26 15 36t67 20v340q-46 9 -72 23v26q59 32 113 32q23 0 45 -12z" />
    <glyph glyph-name="s" unicode="s" horiz-adv-x="427" 
d="M210 -11q-98 0 -161 37q-4 13 -4 34q0 44 24 94h27q18 -35 29 -93q32 -21 89 -21q93 0 93 76q0 29 -17 45.5t-57 29.5l-80 28q-96 36 -96 128q0 60 46 95.5t127 35.5q80 0 131 -15q4 -14 4 -34q0 -38 -24 -93h-27q-16 31 -27 81q-26 10 -63 10q-88 0 -88 -64
q0 -47 53 -66q18 -7 46.5 -16t39.5 -13q56 -20 82.5 -49t26.5 -87q0 -65 -47 -104t-127 -39z" />
    <glyph glyph-name="t" unicode="t" horiz-adv-x="388" 
d="M285 410h-105q-2 -200 -2 -268q0 -41 20 -64t57 -23q41 0 93 31q4 -2 12.5 -15.5t10.5 -18.5q-16 -22 -56.5 -42.5t-84.5 -20.5q-138 0 -138 143q0 37 1 139t1 139q-38 4 -71 15v36q26 3 71 5q5 52 17 76.5t26.5 30t45.5 5.5q-2 -48 -3 -112h187v-35q-9 -12 -26 -16.5
t-56 -4.5z" />
    <glyph glyph-name="u" unicode="u" horiz-adv-x="577" 
d="M482 465q-1 -80 -1.5 -202.5t-1.5 -165.5q43 -14 64 -24v-33q-16 -19 -41.5 -33.5t-45.5 -14.5q-24 0 -51 84q-61 -87 -156 -87q-74 0 -114.5 45t-40.5 129q0 98 3 233q-45 9 -71 23v26q59 32 112 32q23 0 45 -12q-3 -159 -3 -287q0 -59 26.5 -91t74.5 -32q72 0 112 73
l3 267q-49 7 -80 24v26q59 32 121 32q23 0 45 -12z" />
    <glyph glyph-name="v" unicode="v" horiz-adv-x="501" 
d="M149 416l116 -353l116 353q-52 2 -68 16v35q32 1 82 1h16q50 0 85 -5v-36q-24 -7 -51 -11l-133 -376q-9 -26 -22 -36t-35 -10h-52l-148 422q-25 4 -50 11v36q37 5 85 5h46q50 0 82 -1v-35q-18 -14 -69 -16z" />
    <glyph glyph-name="w" unicode="w" horiz-adv-x="752" 
d="M149 416l109 -346l96 295l-5 17q-12 38 1 64.5t55 26.5h12l111 -403l107 346q-52 2 -68 16v35q32 1 82 1h14q49 0 84 -5v-36q-21 -7 -51 -11l-118 -372q-10 -29 -23 -39.5t-42 -10.5h-42q-12 32 -26.5 78.5l-34 112.5l-28.5 97l-77 -238q-10 -29 -25 -39t-43 -11h-38
l-144 422q-30 5 -50 11v36q35 5 84 5h47q50 0 82 -1v-35q-18 -14 -69 -16z" />
    <glyph glyph-name="x" unicode="x" horiz-adv-x="548" 
d="M20 0q0 24 13 34.5t55 18.5l144 175l-142 188q-34 4 -57 11v36q35 5 82 5h61q50 0 82 -1v-35q-17 -14 -65 -16l91 -125l103 125q-46 2 -63 16v35q32 1 82 1h44q31 0 66 -5v-36q-23 -7 -58 -11l-141 -170l142 -193q41 -8 69 -17v-36h-236q0 24 13.5 33.5t59.5 18.5
l-100 132l-109 -131q50 -9 73 -17v-36h-209z" />
    <glyph glyph-name="y" unicode="y" horiz-adv-x="499" 
d="M149 416l116 -326l115 326h-1q-53 2 -69 16v35q32 1 82 1h18q49 0 84 -5v-36q-20 -6 -50 -11q-63 -181 -142 -376q-39 -96 -73 -158.5t-61 -88t-45 -33.5t-39 -8q-32 0 -47.5 18.5t-13.5 43.5q9 3 33.5 12.5t30.5 12t23.5 10.5t23.5 14t20 17t22.5 23.5l21 30.5t25.5 41
l-169 441q-28 4 -49 11v36q35 5 83 5h48q50 0 82 -1v-35q-18 -14 -69 -16z" />
    <glyph glyph-name="z" unicode="z" horiz-adv-x="447" 
d="M42 45l263 376h-176q-8 -37 -31 -88h-27q-8 15 -16.5 48t-7.5 51q0 24 5 36h302q23 0 37 -11t17 -21l2 -11l-270 -377h194q11 47 31 92h27q20 -54 20 -100q0 -23 -7 -40h-307q-24 0 -38 11t-16 23z" />
    <glyph glyph-name="braceleft" unicode="{" horiz-adv-x="342" 
d="M55 251v56q46 0 61 21.5t15 58.5q0 27 -9 94t-9 98q0 73 33 112t91 39q47 0 80 -20v-30h-35q-92 0 -92 -91q0 -41 7.5 -102t7.5 -95q0 -90 -70 -111q70 -23 70 -114q0 -35 -7.5 -96t-7.5 -101q0 -49 22 -71.5t70 -22.5h35v-30q-37 -20 -78 -20q-67 0 -96.5 43t-29.5 107
q0 31 9 99.5t9 94.5q0 38 -14.5 59.5t-61.5 21.5z" />
    <glyph glyph-name="bar" unicode="|" horiz-adv-x="349" 
d="M142 645q0 41 3.5 56.5t15.5 25.5h46v-893q0 -41 -3.5 -56.5t-16.5 -25.5h-45v893z" />
    <glyph glyph-name="braceright" unicode="}" horiz-adv-x="342" 
d="M287 307v-56q-47 0 -61.5 -21.5t-14.5 -59.5q0 -26 9 -94.5t9 -99.5q0 -64 -29.5 -107t-96.5 -43q-41 0 -78 20v30h35q48 0 70 22.5t22 71.5q0 40 -7.5 101t-7.5 96q0 91 70 114q-70 21 -70 111q0 34 7.5 95t7.5 102q0 91 -92 91h-35v30q33 20 80 20q58 0 91 -39t33 -112
q0 -31 -9 -98t-9 -94q0 -17 2.5 -29.5t9.5 -25t23 -19t41 -6.5z" />
    <glyph glyph-name="asciitilde" unicode="~" horiz-adv-x="486" 
d="M220 336q-2 2 -13.5 12t-16.5 13.5t-14.5 9.5t-18.5 8.5t-18 2.5q-50 0 -70 -88l-39 10q7 65 37.5 105t81.5 40q34 0 59 -13t58 -40q3 -2 12 -10t13 -11l12.5 -9t14 -8.5t13.5 -5t16 -2.5q50 0 70 88l39 -10q-7 -65 -38 -105t-81 -40q-55 0 -117 53z" />
    <glyph glyph-name="exclamdown" unicode="&#xa1;" horiz-adv-x="283" 
d="M203 439q0 -23 -17 -40.5t-40 -17.5t-40.5 17.5t-17.5 40.5q0 22 17.5 39t40.5 17q22 0 39.5 -17t17.5 -39zM89 -80q0 54 34 377h44q2 -37 9 -141t11.5 -193.5t4.5 -144.5q-30 -2 -35 -2q-20 0 -33.5 6t-20.5 12.5t-10 23.5t-3.5 27.5t-0.5 34.5z" />
    <glyph glyph-name="cent" unicode="&#xa2;" horiz-adv-x="472" 
d="M247 483q0 41 3.5 56.5t16.5 25.5h33v-87q141 0 141 -58q0 -31 -31 -48q-3 2 -22.5 13l-29 16t-27 11.5t-31.5 7.5v-367q31 1 62 16.5t50 32.5q5 -2 15 -12.5t12 -16.5q-53 -69 -139 -81v-7q0 -41 -3.5 -56.5t-16.5 -25.5h-33v87q-95 7 -150 71t-55 168q0 93 55 161
t150 84v9zM132 246q0 -156 115 -187v357q-55 -14 -85 -60t-30 -110z" />
    <glyph glyph-name="sterling" unicode="&#xa3;" horiz-adv-x="577" 
d="M139 351v113q0 97 55.5 151t163.5 54q154 0 154 -82q0 -21 -15 -37t-34 -22q-50 90 -129 90q-57 0 -81 -37.5t-24 -115.5v-114h181v-35q-10 -12 -25.5 -15.5t-56.5 -3.5h-99v-97q0 -88 -52 -120q29 1 105.5 -8t111.5 -9q79 0 123 50l20 -16q-11 -39 -49 -73.5t-106 -34.5
q-33 0 -107.5 8t-120.5 8q-49 0 -89 -16l-15 19q37 51 78 66q11 46 11 162v61h-12q-33 2 -68 14v36q34 4 68 4h12z" />
    <glyph glyph-name="yen" unicode="&#xa5;" horiz-adv-x="642" 
d="M201 604l136 -241l137 241q-56 8 -93 18v36h237q0 -26 -15 -36t-64 -19l-148 -256h139v-32q-10 -13 -25.5 -16.5t-56.5 -3.5h-80v-79h162v-32q-10 -13 -25.5 -16.5t-56.5 -3.5h-80v-107q58 -10 92 -21v-36h-274q0 27 17 37.5t75 20.5v106h-162v33q10 12 25.5 15.5
t56.5 3.5h80v79h-162v33q10 12 25.5 15.5t56.5 3.5h56l-153 256q-48 9 -62.5 19t-14.5 36h270v-36q-37 -10 -93 -18z" />
    <glyph glyph-name="brokenbar" unicode="&#xa6;" horiz-adv-x="265" 
d="M100 648q0 41 3.5 56.5t15.5 25.5h46v-332q0 -41 -3.5 -56.5t-16.5 -25.5h-45v332zM100 -218v351q0 41 3.5 56.5t15.5 25.5h46v-351q0 -41 -3.5 -56.5t-16.5 -25.5h-45z" />
    <glyph glyph-name="section" unicode="&#xa7;" horiz-adv-x="554" 
d="M312 171q72 -35 97 -62q16 26 16 56q0 45 -21.5 74t-79.5 56l-106 49q-43 20 -71 48q-19 -27 -19 -63q0 -40 19.5 -66t64.5 -47l49 -22t51 -23zM447 -2q0 -89 -52.5 -137t-139.5 -48q-85 0 -135 38t-50 93q0 35 22 53t54 16q2 -149 119 -150q48 -1 78 27t30 79
q0 47 -22.5 73t-78.5 52l-83 36q-63 31 -98.5 68.5t-35.5 97.5q0 46 17.5 76t49.5 55q-18 33 -18 78q0 75 52 119t137 44q158 0 158 -84q0 -44 -58 -59q-30 93 -112 93q-50 0 -76.5 -24.5t-26.5 -65.5q0 -39 19 -64t66 -46l103 -48q68 -31 100.5 -66.5t32.5 -101.5
q0 -79 -66 -131q14 -31 14 -73z" />
    <glyph glyph-name="dieresis" unicode="&#xa8;" horiz-adv-x="400" 
d="M247 626q0 22 15.5 37.5t37.5 15.5t38 -15.5t16 -37.5q0 -21 -16 -36.5t-38 -15.5t-37.5 16t-15.5 36zM47 626q0 22 16 37.5t39 15.5q22 0 37 -15.5t15 -37.5q0 -21 -15.5 -36.5t-36.5 -15.5q-22 0 -38.5 16t-16.5 36z" />
    <glyph glyph-name="copyright" unicode="&#xa9;" horiz-adv-x="761" 
d="M50 328q0 149 94.5 244.5t235.5 95.5q142 0 236.5 -95.5t94.5 -244.5q0 -148 -94.5 -243.5t-236.5 -95.5q-141 0 -235.5 95.5t-94.5 243.5zM107 328q0 -127 77 -210t196 -83q120 0 197 82.5t77 210.5q0 129 -76.5 211.5t-197.5 82.5q-119 0 -196 -82.5t-77 -211.5z
M388 137q-82 0 -129.5 52t-47.5 139q0 86 54 142t142 56q67 0 100 -11q3 -10 3 -30q0 -47 -20 -96h-26q-20 37 -26 82q-15 6 -39 6q-51 0 -81 -36.5t-30 -104.5q0 -59 30.5 -99.5t81.5 -40.5q11 0 21 1.5t19 5t15.5 6.5t13.5 8.5t10.5 8t9.5 7.5l6 5q12 -5 26 -22
q-18 -34 -52 -56.5t-81 -22.5z" />
    <glyph glyph-name="ordfeminine" unicode="&#xaa;" horiz-adv-x="439" 
d="M196 333q46 0 67 33l2 80q-70 4 -103 -7.5t-33 -49.5q0 -26 18.5 -41t48.5 -15zM394 339v-24q-9 -14 -26.5 -24.5t-31.5 -10.5q-42 0 -61 55q-34 -56 -107 -56q-54 0 -86 28t-32 76q0 52 45.5 80t131.5 28q12 0 40 -2v39q0 93 -69 93q-15 0 -30 -9.5t-22 -17t-21 -27
t-15 -21.5q-33 5 -43.5 32t18.5 51q44 35 131 35q126 0 126 -128q0 -30 -3 -91t-3 -88q25 -6 58 -18z" />
    <glyph glyph-name="guillemotleft" unicode="&#xab;" horiz-adv-x="503" 
d="M226 67l-186 152q-4 18 -4 31q0 7 1 12t3.5 10.5l4 9t6.5 8.5t6.5 7t8.5 8.5t9 8.5l143 130l30 -31l-127 -158l132 -155zM436 67l-186 152q-4 18 -4 31q0 7 1 12t3.5 10.5l4 9t6.5 8.5t6.5 7t8.5 8.5t9 8.5l143 130l30 -31l-127 -158l132 -155z" />
    <glyph glyph-name="logicalnot" unicode="&#xac;" horiz-adv-x="588" 
d="M121 246q-39 0 -81 13v46q33 6 93 6h407v-212h-43q-29 18 -29 65v82h-347z" />
    <glyph glyph-name="registered" unicode="&#xae;" horiz-adv-x="523" 
d="M41 495q0 95 63 157.5t157 62.5q93 0 157 -61.5t64 -154.5q0 -95 -63.5 -157.5t-156.5 -62.5q-95 0 -158 60.5t-63 155.5zM88 497q0 -79 48 -129.5t126 -50.5q77 0 125 50.5t48 129.5q0 78 -49 129t-126 51q-78 0 -125 -51t-47 -129zM192 418v175q-26 1 -24 27h34
q9 0 31 0.5t33 0.5q84 0 84 -65q0 -23 -12.5 -40t-32.5 -23l33 -46q18 -25 40 -34v-17q-10 -8 -26 -8q-28 0 -50 32l-24 36.5t-17 25.5q-11 -2 -25 0v-64q14 -2 29 -6v-22h-103q1 13 6 18.5t24 9.5zM260 593q-12 0 -24 -1v-79q36 -5 52 8.5t16 35.5q0 36 -44 36z" />
    <glyph glyph-name="macron" unicode="&#xaf;" horiz-adv-x="400" 
d="M73 584v44q10 13 25.5 16.5t56.5 3.5h173v-44q-10 -13 -25.5 -16.5t-56.5 -3.5h-173z" />
    <glyph glyph-name="degree" unicode="&#xb0;" horiz-adv-x="317" 
d="M25 537q0 57 39 94.5t95 37.5q59 0 96 -34t37 -91q0 -56 -37.5 -95t-93.5 -39q-59 0 -97.5 33.5t-38.5 93.5zM85 538q0 -39 22.5 -60t53.5 -21q30 0 50.5 22.5t20.5 61.5q0 40 -21.5 60.5t-53.5 20.5q-31 0 -51.5 -22t-20.5 -62z" />
    <glyph glyph-name="plusminus" unicode="&#xb1;" horiz-adv-x="527" 
d="M301 103q0 -53 -24 -69h-51v191h-95q-39 0 -81 13v46q33 6 93 6h83v112q0 53 24 69h51v-181h176v-41q-16 -24 -69 -24h-107v-122zM408 -80h-277q-39 0 -81 13v38q33 6 93 6h334v-33q-16 -24 -69 -24z" />
    <glyph glyph-name="twosuperior" unicode="&#xb2;" horiz-adv-x="357" 
d="M57 338v42q7 5 23.5 18l32.5 25.5t29 24.5q72 68 72 126q0 22 -12 36.5t-34 14.5q-25 0 -40 -15.5t-25 -50.5q-48 4 -48 38q0 29 32.5 49t84.5 20q56 0 87.5 -26t31.5 -71q0 -52 -41.5 -92.5t-111.5 -82.5h164v-38q-11 -18 -40 -18h-205z" />
    <glyph glyph-name="threesuperior" unicode="&#xb3;" horiz-adv-x="355" 
d="M167 330q-49 0 -80.5 17t-31.5 44q0 20 15 31.5t36 13.5q15 -63 65 -63q24 0 38.5 14t14.5 36q0 33 -23 46t-77 13v40q45 7 65 21.5t20 40.5q0 19 -11 29.5t-29 10.5q-41 0 -59 -57q-22 0 -35 10.5t-13 25.5q0 28 31.5 45.5t76.5 17.5q54 0 84 -20.5t30 -55.5
q0 -30 -22 -48.5t-53 -25.5q39 -3 65 -25.5t26 -59.5q0 -49 -38.5 -75t-94.5 -26z" />
    <glyph glyph-name="acute" unicode="&#xb4;" horiz-adv-x="400" 
d="M111 540l-20 24q82 79 145 159q27 1 42.5 -10t15.5 -31q0 -19 -16.5 -39t-50.5 -40.5t-55 -32t-61 -30.5z" />
    <glyph glyph-name="mu" unicode="&#xb5;" horiz-adv-x="565" 
d="M465 97q43 -14 64 -24v-33q-16 -19 -41.5 -33.5t-45.5 -14.5q-24 0 -51 84q-61 -87 -156 -87q-62 0 -105 41q17 -157 95 -242q-13 -42 -59 -42q-53 0 -69.5 86t-16.5 272l4 355q52 22 89 10q-1 -41 -4 -125.5t-3 -165.5q0 -61 26.5 -92t74.5 -31q72 0 112 73l3 331
q52 22 89 10q-6 -270 -6 -372z" />
    <glyph glyph-name="paragraph" unicode="&#xb6;" horiz-adv-x="528" 
d="M318 658v-593q0 -47 -27 -65h-39v329q-11 -1 -28 -1q-80 0 -131 46.5t-51 123.5t51.5 118.5t143.5 41.5h81zM392 75v518q0 47 27 65h39v-559q0 -112 -53 -171.5t-141 -59.5q-73 0 -116 22.5t-43 56.5q0 40 41 54q49 -75 124 -75q60 0 91 38.5t31 110.5z" />
    <glyph glyph-name="periodcentered" unicode="&#xb7;" horiz-adv-x="242" 
d="M64 239q0 24 16.5 40.5t40.5 16.5t40.5 -16.5t16.5 -40.5t-16.5 -40.5t-40.5 -16.5t-40.5 16.5t-16.5 40.5z" />
    <glyph glyph-name="cedilla" unicode="&#xb8;" horiz-adv-x="400" 
d="M254 0l-41 -58q102 -6 102 -84q0 -42 -32.5 -66.5t-88.5 -24.5q-108 0 -108 57q0 19 16 29.5t37 10.5q11 -32 25 -46t38 -14q19 0 31 14t12 36q0 58 -100 62v21q20 27 67 63h42z" />
    <glyph glyph-name="onesuperior" unicode="&#xb9;" horiz-adv-x="312" 
d="M124 387v226q-25 3 -56 12v23q43 19 81 19q29 0 46 -10v-271q39 -8 62 -17v-31h-202q0 22 13.5 32.5t55.5 16.5z" />
    <glyph glyph-name="ordmasculine" unicode="&#xba;" horiz-adv-x="471" 
d="M50 466q0 83 52.5 140.5t138.5 57.5q83 0 131.5 -50.5t48.5 -136.5q0 -83 -52.5 -140.5t-137.5 -57.5q-84 0 -132.5 50.5t-48.5 136.5zM130 472q0 -66 28.5 -106.5t78.5 -40.5q47 0 76 41t29 106q0 66 -28.5 106.5t-78.5 40.5q-47 0 -76 -41t-29 -106z" />
    <glyph glyph-name="guillemotright" unicode="&#xbb;" horiz-adv-x="503" 
d="M253 218l-186 -152l-27 33l132 155l-127 158l30 31l143 -130q2 -2 7 -6.5t7 -6.5l6 -6t5.5 -6.5t4.5 -6t4 -7t2.5 -7.5t2 -8.5t0.5 -9.5q0 -13 -4 -31zM463 218l-186 -152l-27 33l132 155l-127 158l30 31l143 -130q2 -2 7 -6.5t7 -6.5l6 -6t5.5 -6.5t4.5 -6t4 -7
t2.5 -7.5t2 -8.5t0.5 -9.5q0 -13 -4 -31z" />
    <glyph glyph-name="onequarter" unicode="&#xbc;" horiz-adv-x="746" 
d="M124 387v226q-25 3 -56 12v23q43 19 81 19q29 0 46 -10v-271q39 -8 62 -17v-31h-202q0 22 13.5 32.5t55.5 16.5zM158 0h-33q-11 35 33 92l439 566h33q10 -37 -33 -92zM634 79v-38q30 -5 46 -10v-31h-166q0 35 53 42v37h-159q-2 21 4 36.5t26 43.5l98 137q23 31 50 31h48
v-194h57v-33q-11 -21 -46 -21h-11zM567 266l-93 -133h93v133z" />
    <glyph glyph-name="onehalf" unicode="&#xbd;" horiz-adv-x="763" 
d="M124 387v226q-25 3 -56 12v23q43 19 81 19q29 0 46 -10v-271q39 -8 62 -17v-31h-202q0 22 13.5 32.5t55.5 16.5zM157 0h-33q-11 35 33 92l439 566h33q10 -37 -33 -92zM463 0v42q7 5 23.5 18l32.5 25.5t29 24.5q72 68 72 126q0 22 -12 36.5t-34 14.5q-25 0 -40 -15.5
t-25 -50.5q-48 4 -48 38q0 29 32.5 49t84.5 20q56 0 87.5 -26t31.5 -71q0 -52 -41.5 -92.5t-111.5 -82.5h164v-38q-11 -18 -40 -18h-205z" />
    <glyph glyph-name="threequarters" unicode="&#xbe;" horiz-adv-x="761" 
d="M173 0h-33q-11 35 33 92l439 566h33q10 -37 -33 -92zM167 330q-49 0 -80.5 17t-31.5 44q0 20 15 31.5t36 13.5q15 -63 65 -63q24 0 38.5 14t14.5 36q0 33 -23 46t-77 13v40q45 7 65 21.5t20 40.5q0 19 -11 29.5t-29 10.5q-41 0 -59 -57q-22 0 -35 10.5t-13 25.5
q0 28 31.5 45.5t76.5 17.5q54 0 84 -20.5t30 -55.5q0 -30 -22 -48.5t-53 -25.5q39 -3 65 -25.5t26 -59.5q0 -49 -38.5 -75t-94.5 -26zM649 79v-38q30 -5 46 -10v-31h-166q0 35 53 42v37h-159q-2 21 4 36.5t26 43.5l98 137q23 31 50 31h48v-194h57v-33q-11 -21 -46 -21h-11z
M582 266l-93 -133h93v133z" />
    <glyph glyph-name="questiondown" unicode="&#xbf;" horiz-adv-x="412" 
d="M289 439q0 -25 -16 -41.5t-40 -16.5q-25 0 -41.5 16.5t-16.5 41.5q0 24 16.5 40t41.5 16q24 0 40 -16t16 -40zM397 -85q0 -43 -47 -72.5t-141 -29.5q-90 0 -139.5 40t-49.5 112q0 41 15.5 74t44.5 56.5t58.5 39t69.5 30.5v141h44q39 -51 39 -86q0 -27 -14.5 -46.5
t-50.5 -45.5q-57 -42 -82.5 -76t-25.5 -82q0 -47 24 -75.5t76 -28.5q22 0 41.5 9.5t30.5 18t24.5 31t16 27.5t12.5 27q54 -8 54 -64z" />
    <glyph glyph-name="Agrave" unicode="&#xc0;" horiz-adv-x="686" 
d="M431 741l-11 -26q-206 30 -206 99q0 33 38 43q112 -81 179 -116zM330 599l-104 -316h208zM510 54l-58 175h-244l-57 -175q55 -8 93 -18v-36h-230q0 24 14 34.5t56 20.5l206 611h47q23 0 38 -4.5t24.5 -17t14 -21.5t11.5 -31l177 -538q43 -10 56.5 -19.5t13.5 -34.5h-255
v36q40 11 93 18z" />
    <glyph glyph-name="Aacute" unicode="&#xc1;" horiz-adv-x="686" 
d="M253 715l-11 26q70 37 178 116q38 -9 38 -43q0 -37 -57.5 -62t-147.5 -37zM330 599l-104 -316h208zM510 54l-58 175h-244l-57 -175q55 -8 93 -18v-36h-230q0 24 14 34.5t56 20.5l206 611h47q23 0 38 -4.5t24.5 -17t14 -21.5t11.5 -31l177 -538q43 -10 56.5 -19.5
t13.5 -34.5h-255v36q40 11 93 18z" />
    <glyph glyph-name="Acircumflex" unicode="&#xc2;" horiz-adv-x="686" 
d="M375 858q47 -55 102 -129l-28 -24q-53 37 -112 87q-110 -86 -112 -87l-28 24q33 42 82 97q20 22 32.5 29t33.5 7q16 0 30 -4zM330 599l-104 -316h208zM510 54l-58 175h-244l-57 -175q55 -8 93 -18v-36h-230q0 24 14 34.5t56 20.5l206 611h47q23 0 38 -4.5t24.5 -17
t14 -21.5t11.5 -31l177 -538q43 -10 56.5 -19.5t13.5 -34.5h-255v36q40 11 93 18z" />
    <glyph glyph-name="Atilde" unicode="&#xc3;" horiz-adv-x="686" 
d="M409 784q20 0 33.5 10t31.5 32l28 -15q-16 -39 -41 -65t-58 -26q-30 0 -66.5 21.5t-55.5 21.5q-31 0 -65 -41l-29 16q37 90 101 90q28 0 64.5 -22t56.5 -22zM330 599l-104 -316h208zM510 54l-58 175h-244l-57 -175q55 -8 93 -18v-36h-230q0 24 14 34.5t56 20.5l206 611
h47q23 0 38 -4.5t24.5 -17t14 -21.5t11.5 -31l177 -538q43 -10 56.5 -19.5t13.5 -34.5h-255v36q40 11 93 18z" />
    <glyph glyph-name="Adieresis" unicode="&#xc4;" horiz-adv-x="686" 
d="M181 781q0 22 16 38t38 16t37.5 -15.5t15.5 -38.5q0 -20 -15.5 -35.5t-37.5 -15.5t-38 15.5t-16 35.5zM385 781q0 23 15 38.5t37 15.5q23 0 38.5 -15.5t15.5 -38.5q0 -20 -16 -35.5t-38 -15.5q-21 0 -36.5 15.5t-15.5 35.5zM330 599l-104 -316h208zM510 54l-58 175h-244
l-57 -175q55 -8 93 -18v-36h-230q0 24 14 34.5t56 20.5l206 611h47q23 0 38 -4.5t24.5 -17t14 -21.5t11.5 -31l177 -538q43 -10 56.5 -19.5t13.5 -34.5h-255v36q40 11 93 18z" />
    <glyph glyph-name="Aring" unicode="&#xc5;" horiz-adv-x="686" 
d="M338 876q44 0 72.5 -21.5t28.5 -61.5q0 -38 -27.5 -62.5t-72.5 -24.5q-44 0 -73 22t-29 62q0 37 27 61.5t74 24.5zM339 742q23 0 37.5 14.5t14.5 35.5q0 22 -15.5 36t-38.5 14t-37 -14.5t-14 -36.5t15 -35.5t38 -13.5zM330 599l-104 -316h208zM510 54l-58 175h-244
l-57 -175q55 -8 93 -18v-36h-230q0 24 14 34.5t56 20.5l206 611h47q23 0 38 -4.5t24.5 -17t14 -21.5t11.5 -31l177 -538q43 -10 56.5 -19.5t13.5 -34.5h-255v36q40 11 93 18z" />
    <glyph glyph-name="AE" unicode="&#xc6;" horiz-adv-x="908" 
d="M465 612l-187 -340h187v340zM303 658h548q6 -16 6 -45q0 -51 -23 -108h-30q-21 46 -32 99h-217v-227h218v-30q-14 -28 -53 -28h-165v-265h219q11 62 31 105h30q23 -58 23 -111q0 -27 -8 -48h-472q0 28 15.5 38t71.5 20v157h-218l-88 -161q56 -8 93 -18v-36h-236
q0 25 14.5 35.5t59.5 19.5l300 545q-56 10 -71.5 20t-15.5 38z" />
    <glyph glyph-name="Ccedilla" unicode="&#xc7;" horiz-adv-x="622" 
d="M577 100q-68 -104 -202 -111l-33 -47q102 -6 102 -84q0 -42 -32.5 -66.5t-88.5 -24.5q-108 0 -108 57q0 19 16 29.5t37 10.5q11 -32 25 -46t38 -14q19 0 31 14t12 36q0 58 -100 62v21q14 20 55 53q-129 10 -202.5 101t-73.5 231q0 149 92.5 247.5t259.5 98.5
q43 0 93 -5.5t68 -11.5q6 -20 6 -49q0 -49 -27 -115h-30q-23 49 -34 111q-48 15 -101 15q-106 0 -166.5 -71t-60.5 -206q0 -122 61 -201.5t167 -79.5q89 0 170 73q19 -12 26 -28z" />
    <glyph glyph-name="Egrave" unicode="&#xc8;" horiz-adv-x="570" 
d="M395 741l-11 -26q-206 30 -206 99q0 33 38 43q112 -81 179 -116zM512 0h-472q0 28 15.5 38t71.5 20v542q-56 10 -71.5 20t-15.5 38h473q6 -16 6 -45q0 -51 -23 -108h-30q-21 46 -32 99h-217v-227h218v-30q-14 -28 -53 -28h-165v-265h219q11 62 31 105h30q23 -58 23 -111
q0 -27 -8 -48z" />
    <glyph glyph-name="Eacute" unicode="&#xc9;" horiz-adv-x="570" 
d="M206 715l-11 26q70 37 178 116q38 -9 38 -43q0 -37 -57.5 -62t-147.5 -37zM512 0h-472q0 28 15.5 38t71.5 20v542q-56 10 -71.5 20t-15.5 38h473q6 -16 6 -45q0 -51 -23 -108h-30q-21 46 -32 99h-217v-227h218v-30q-14 -28 -53 -28h-165v-265h219q11 62 31 105h30
q23 -58 23 -111q0 -27 -8 -48z" />
    <glyph glyph-name="Ecircumflex" unicode="&#xca;" horiz-adv-x="570" 
d="M330 858q47 -55 102 -129l-28 -24q-53 37 -112 87q-110 -86 -112 -87l-28 24q33 42 82 97q20 22 32.5 29t33.5 7q16 0 30 -4zM512 0h-472q0 28 15.5 38t71.5 20v542q-56 10 -71.5 20t-15.5 38h473q6 -16 6 -45q0 -51 -23 -108h-30q-21 46 -32 99h-217v-227h218v-30
q-14 -28 -53 -28h-165v-265h219q11 62 31 105h30q23 -58 23 -111q0 -27 -8 -48z" />
    <glyph glyph-name="Edieresis" unicode="&#xcb;" horiz-adv-x="570" 
d="M338 781q0 23 15 38.5t37 15.5t38 -15.5t16 -38.5q0 -20 -16 -35.5t-38 -15.5q-21 0 -36.5 15.5t-15.5 35.5zM134 781q0 22 16 38t38 16t37.5 -15.5t15.5 -38.5q0 -20 -15.5 -35.5t-37.5 -15.5t-38 15.5t-16 35.5zM512 0h-472q0 28 15.5 38t71.5 20v542q-56 10 -71.5 20
t-15.5 38h473q6 -16 6 -45q0 -51 -23 -108h-30q-21 46 -32 99h-217v-227h218v-30q-14 -28 -53 -28h-165v-265h219q11 62 31 105h30q23 -58 23 -111q0 -27 -8 -48z" />
    <glyph glyph-name="Igrave" unicode="&#xcc;" horiz-adv-x="354" 
d="M282 741l-11 -26q-206 30 -206 99q0 33 38 43q112 -81 179 -116zM222 601v-544q58 -10 92 -21v-36h-274q0 27 17 37.5t75 20.5v542q-58 10 -75 20.5t-17 37.5h274v-36q-34 -11 -92 -21z" />
    <glyph glyph-name="Iacute" unicode="&#xcd;" horiz-adv-x="354" 
d="M80 715l-11 26q70 37 178 116q38 -9 38 -43q0 -37 -57.5 -62t-147.5 -37zM222 601v-544q58 -10 92 -21v-36h-274q0 27 17 37.5t75 20.5v542q-58 10 -75 20.5t-17 37.5h274v-36q-34 -11 -92 -21z" />
    <glyph glyph-name="Icircumflex" unicode="&#xce;" horiz-adv-x="354" 
d="M215 858q47 -55 102 -129l-28 -24q-53 37 -112 87q-110 -86 -112 -87l-28 24q33 42 82 97q20 22 32.5 29t33.5 7q16 0 30 -4zM222 601v-544q58 -10 92 -21v-36h-274q0 27 17 37.5t75 20.5v542q-58 10 -75 20.5t-17 37.5h274v-36q-34 -11 -92 -21z" />
    <glyph glyph-name="Idieresis" unicode="&#xcf;" horiz-adv-x="354" 
d="M222 781q0 23 15 38.5t37 15.5t38 -15.5t16 -38.5q0 -20 -16 -35.5t-38 -15.5q-21 0 -36.5 15.5t-15.5 35.5zM18 781q0 22 16 38t38 16t37.5 -15.5t15.5 -38.5q0 -20 -15.5 -35.5t-37.5 -15.5t-38 15.5t-16 35.5zM222 601v-544q58 -10 92 -21v-36h-274q0 27 17 37.5
t75 20.5v542q-58 10 -75 20.5t-17 37.5h274v-36q-34 -11 -92 -21z" />
    <glyph glyph-name="Eth" unicode="&#xd0;" horiz-adv-x="741" 
d="M49 310v34q9 12 24 15.5t54 3.5v237q-56 10 -71.5 20t-15.5 38h310q154 0 246 -80t92 -233q0 -155 -89.5 -250t-250.5 -95h-308q0 28 15.5 38t71.5 20v252h-78zM332 604h-115v-241h198v-34q-10 -12 -25.5 -15.5t-56.5 -3.5h-116v-227q0 -16 6.5 -22.5t22.5 -6.5h85
q257 0 257 288q0 120 -63.5 191t-192.5 71z" />
    <glyph glyph-name="Ntilde" unicode="&#xd1;" horiz-adv-x="767" 
d="M464 784q20 0 33.5 10t31.5 32l28 -15q-16 -39 -41 -65t-58 -26q-30 0 -66.5 21.5t-55.5 21.5q-31 0 -65 -41l-29 16q37 90 101 90q28 0 64.5 -22t56.5 -22zM130 57v543q-52 10 -66.5 20t-14.5 38h108q28 0 44 -8t31 -29l344 -502v483q-64 11 -92 20v36h248
q0 -27 -16.5 -37t-73.5 -20v-499q0 -33 -3.5 -54t-18 -38t-41.5 -17h-19l-364 524v-461q66 -11 93 -20v-36h-249q0 27 16.5 37t73.5 20z" />
    <glyph glyph-name="Ograve" unicode="&#xd2;" horiz-adv-x="749" 
d="M479 741l-11 -26q-206 30 -206 99q0 33 38 43q112 -81 179 -116zM53 322q0 153 93 250t233 97q138 0 227.5 -87t89.5 -243q0 -153 -94.5 -251.5t-235.5 -98.5q-137 0 -225 88t-88 245zM153 328q0 -129 61.5 -205t160.5 -76q100 0 160.5 78t60.5 208q0 129 -61.5 204
t-161.5 75t-160 -76.5t-60 -207.5z" />
    <glyph glyph-name="Oacute" unicode="&#xd3;" horiz-adv-x="749" 
d="M291 715l-11 26q70 37 178 116q38 -9 38 -43q0 -37 -57.5 -62t-147.5 -37zM53 322q0 153 93 250t233 97q138 0 227.5 -87t89.5 -243q0 -153 -94.5 -251.5t-235.5 -98.5q-137 0 -225 88t-88 245zM153 328q0 -129 61.5 -205t160.5 -76q100 0 160.5 78t60.5 208
q0 129 -61.5 204t-161.5 75t-160 -76.5t-60 -207.5z" />
    <glyph glyph-name="Ocircumflex" unicode="&#xd4;" horiz-adv-x="749" 
d="M411 858q47 -55 102 -129l-28 -24q-53 37 -112 87q-110 -86 -112 -87l-28 24q33 42 82 97q20 22 32.5 29t33.5 7q16 0 30 -4zM53 322q0 153 93 250t233 97q138 0 227.5 -87t89.5 -243q0 -153 -94.5 -251.5t-235.5 -98.5q-137 0 -225 88t-88 245zM153 328
q0 -129 61.5 -205t160.5 -76q100 0 160.5 78t60.5 208q0 129 -61.5 204t-161.5 75t-160 -76.5t-60 -207.5z" />
    <glyph glyph-name="Otilde" unicode="&#xd5;" horiz-adv-x="749" 
d="M440 784q20 0 33.5 10t31.5 32l28 -15q-16 -39 -41 -65t-58 -26q-30 0 -66.5 21.5t-55.5 21.5q-31 0 -65 -41l-29 16q37 90 101 90q28 0 64.5 -22t56.5 -22zM53 322q0 153 93 250t233 97q138 0 227.5 -87t89.5 -243q0 -153 -94.5 -251.5t-235.5 -98.5q-137 0 -225 88
t-88 245zM153 328q0 -129 61.5 -205t160.5 -76q100 0 160.5 78t60.5 208q0 129 -61.5 204t-161.5 75t-160 -76.5t-60 -207.5z" />
    <glyph glyph-name="Odieresis" unicode="&#xd6;" horiz-adv-x="749" 
d="M430 781q0 23 15 38.5t37 15.5t38 -15.5t16 -38.5q0 -20 -16 -35.5t-38 -15.5q-21 0 -36.5 15.5t-15.5 35.5zM226 781q0 22 16 38t38 16t37.5 -15.5t15.5 -38.5q0 -20 -15.5 -35.5t-37.5 -15.5t-38 15.5t-16 35.5zM53 322q0 153 93 250t233 97q138 0 227.5 -87t89.5 -243
q0 -153 -94.5 -251.5t-235.5 -98.5q-137 0 -225 88t-88 245zM153 328q0 -129 61.5 -205t160.5 -76q100 0 160.5 78t60.5 208q0 129 -61.5 204t-161.5 75t-160 -76.5t-60 -207.5z" />
    <glyph glyph-name="multiply" unicode="&#xd7;" horiz-adv-x="437" 
d="M84 159l88 90l-84 86q-38 39 -32 65l31 31l132 -135l133 135l30 -30q6 -26 -32 -65l-85 -86l88 -90q38 -39 32 -66l-29 -30l-138 139l-137 -139l-29 29q-6 27 32 66z" />
    <glyph glyph-name="Oslash" unicode="&#xd8;" horiz-adv-x="749" 
d="M153 328q0 -101 35 -169l334 394q-59 59 -149 59q-100 0 -160 -76.5t-60 -207.5zM596 333q0 100 -37 169l-334 -395q58 -60 150 -60q100 0 160.5 78t60.5 208zM625 580l-9 -11q80 -90 80 -230q0 -153 -94.5 -251.5t-235.5 -98.5q-111 0 -190 60l-12 -14q-25 -29 -59 -49
l-33 27q22 34 47 64l12 14q-78 89 -78 231q0 153 93 250t233 97q111 0 191 -59l10 12q24 29 60 49l33 -27q-17 -27 -48 -64z" />
    <glyph glyph-name="Ugrave" unicode="&#xd9;" horiz-adv-x="771" 
d="M488 741l-11 -26q-206 30 -206 99q0 33 38 43q112 -81 179 -116zM580 268v334q-77 11 -100 20v36h260q0 -27 -16.5 -37t-73.5 -20l-1 -340q0 -124 -69 -198.5t-186 -74.5q-134 0 -203.5 65t-69.5 208v340q-57 10 -73.5 20t-16.5 37h280v-36q-23 -9 -100 -20v-334
q0 -104 45 -159t146 -55q178 0 178 214z" />
    <glyph glyph-name="Uacute" unicode="&#xda;" horiz-adv-x="771" 
d="M313 715l-11 26q70 37 178 116q38 -9 38 -43q0 -37 -57.5 -62t-147.5 -37zM580 268v334q-77 11 -100 20v36h260q0 -27 -16.5 -37t-73.5 -20l-1 -340q0 -124 -69 -198.5t-186 -74.5q-134 0 -203.5 65t-69.5 208v340q-57 10 -73.5 20t-16.5 37h280v-36q-23 -9 -100 -20
v-334q0 -104 45 -159t146 -55q178 0 178 214z" />
    <glyph glyph-name="Ucircumflex" unicode="&#xdb;" horiz-adv-x="771" 
d="M438 858q47 -55 102 -129l-28 -24q-53 37 -112 87q-110 -86 -112 -87l-28 24q33 42 82 97q20 22 32.5 29t33.5 7q16 0 30 -4zM580 268v334q-77 11 -100 20v36h260q0 -27 -16.5 -37t-73.5 -20l-1 -340q0 -124 -69 -198.5t-186 -74.5q-134 0 -203.5 65t-69.5 208v340
q-57 10 -73.5 20t-16.5 37h280v-36q-23 -9 -100 -20v-334q0 -104 45 -159t146 -55q178 0 178 214z" />
    <glyph glyph-name="Udieresis" unicode="&#xdc;" horiz-adv-x="771" 
d="M240 781q0 22 16 38t38 16t37.5 -15.5t15.5 -38.5q0 -20 -15.5 -35.5t-37.5 -15.5t-38 15.5t-16 35.5zM444 781q0 23 15 38.5t37 15.5t38 -15.5t16 -38.5q0 -20 -16 -35.5t-38 -15.5q-21 0 -36.5 15.5t-15.5 35.5zM580 268v334q-77 11 -100 20v36h260q0 -27 -16.5 -37
t-73.5 -20l-1 -340q0 -124 -69 -198.5t-186 -74.5q-134 0 -203.5 65t-69.5 208v340q-57 10 -73.5 20t-16.5 37h280v-36q-23 -9 -100 -20v-334q0 -104 45 -159t146 -55q178 0 178 214z" />
    <glyph glyph-name="Yacute" unicode="&#xdd;" horiz-adv-x="618" 
d="M238 715l-11 26q70 37 178 116q38 -9 38 -43q0 -37 -57.5 -62t-147.5 -37zM327 328l139 276q-77 13 -93 18v36h226q0 -25 -13.5 -35.5t-55.5 -19.5l-170 -325v-221q58 -10 92 -21v-36h-274q0 27 17 37.5t75 20.5v200l-181 345q-42 9 -56 19.5t-14 35.5h264v-36
q-17 -6 -92 -18z" />
    <glyph glyph-name="Thorn" unicode="&#xde;" horiz-adv-x="599" 
d="M220 452v-222q28 -4 84 -4q88 0 126 33.5t38 82.5q0 64 -38.5 88t-123.5 24q-50 0 -86 -2zM312 0h-272q0 27 16.5 37t73.5 20v543q-56 10 -71.5 20t-15.5 38h269v-36q-34 -11 -92 -21v-99q48 3 108 3q121 0 179.5 -37t58.5 -121q0 -78 -69 -125.5t-193 -47.5q-46 0 -84 4
v-121q58 -10 92 -21v-36z" />
    <glyph glyph-name="germandbls" unicode="&#xdf;" horiz-adv-x="604" 
d="M201 539v-539h-168q0 26 15 36t67 20v354q-34 3 -74 15v36q31 4 74 5v28q0 105 61 168t157 63q86 0 130 -38t44 -94q0 -40 -22 -73t-48 -51.5t-48 -43.5t-22 -52q0 -28 18 -43.5t73 -43.5q67 -34 91.5 -67.5t24.5 -86.5q0 -64 -47 -103.5t-117 -39.5q-73 0 -109.5 23.5
t-36.5 58.5q0 23 16 36t37 16q1 -2 6.5 -11.5l7.5 -13l7 -12t9 -12.5t10 -11t11.5 -10l13 -7t16 -5.5t17.5 -1.5q39 0 60.5 21t21.5 57q0 33 -18.5 53.5t-69.5 44.5q-60 28 -90.5 58t-30.5 83q0 27 13.5 51t33 43.5l39 38.5t33 44.5t13.5 53.5q0 38 -25.5 59t-72.5 21
q-121 0 -121 -128z" />
    <glyph glyph-name="agrave" unicode="&#xe0;" horiz-adv-x="494" 
d="M304 565l-21 -25l-61 30.5t-55 32t-49.5 40.5t-16.5 39q0 20 15.5 31t42.5 10q59 -76 145 -158zM223 54q29 0 54 13.5t36 34.5l2 101q-91 5 -136.5 -10t-45.5 -65q0 -36 24.5 -55t65.5 -19zM472 62v-31q-30 -41 -75 -41q-52 0 -73 70q-45 -71 -133 -71q-70 0 -109.5 36.5
t-39.5 91.5q0 68 58 103.5t161 35.5q22 0 56 -2q1 35 1 51q0 58 -24.5 90t-68.5 32q-16 0 -29.5 -5t-27.5 -18.5t-20 -20t-20.5 -26.5t-15.5 -21q-42 7 -51.5 40t25.5 59q57 43 160 43q157 0 157 -162q0 -37 -3.5 -116.5t-3.5 -114.5q44 -12 76 -23z" />
    <glyph glyph-name="aacute" unicode="&#xe1;" horiz-adv-x="494" 
d="M165 540l-20 24q82 79 145 159q27 1 42.5 -10t15.5 -31q0 -19 -16.5 -39t-50.5 -40.5t-55 -32t-61 -30.5zM223 54q29 0 54 13.5t36 34.5l2 101q-91 5 -136.5 -10t-45.5 -65q0 -36 24.5 -55t65.5 -19zM472 62v-31q-30 -41 -75 -41q-52 0 -73 70q-45 -71 -133 -71
q-70 0 -109.5 36.5t-39.5 91.5q0 68 58 103.5t161 35.5q22 0 56 -2q1 35 1 51q0 58 -24.5 90t-68.5 32q-16 0 -29.5 -5t-27.5 -18.5t-20 -20t-20.5 -26.5t-15.5 -21q-42 7 -51.5 40t25.5 59q57 43 160 43q157 0 157 -162q0 -37 -3.5 -116.5t-3.5 -114.5q44 -12 76 -23z" />
    <glyph glyph-name="acircumflex" unicode="&#xe2;" horiz-adv-x="494" 
d="M262 721q41 -64 99 -164l-29 -22l-108 115l-106 -115l-29 21q48 84 78 130q15 22 27.5 29.5t37.5 7.5q18 0 30 -2zM223 54q29 0 54 13.5t36 34.5l2 101q-91 5 -136.5 -10t-45.5 -65q0 -36 24.5 -55t65.5 -19zM472 62v-31q-30 -41 -75 -41q-52 0 -73 70q-45 -71 -133 -71
q-70 0 -109.5 36.5t-39.5 91.5q0 68 58 103.5t161 35.5q22 0 56 -2q1 35 1 51q0 58 -24.5 90t-68.5 32q-16 0 -29.5 -5t-27.5 -18.5t-20 -20t-20.5 -26.5t-15.5 -21q-42 7 -51.5 40t25.5 59q57 43 160 43q157 0 157 -162q0 -37 -3.5 -116.5t-3.5 -114.5q44 -12 76 -23z" />
    <glyph glyph-name="atilde" unicode="&#xe3;" horiz-adv-x="494" 
d="M289 628q14 0 26 7t17.5 13t18.5 22l28 -15q-36 -91 -96 -91q-29 0 -65 21t-55 21q-14 0 -27.5 -8t-17.5 -12.5t-17 -20.5l-29 16q37 90 98 90q27 0 63.5 -21.5t55.5 -21.5zM223 54q29 0 54 13.5t36 34.5l2 101q-91 5 -136.5 -10t-45.5 -65q0 -36 24.5 -55t65.5 -19z
M472 62v-31q-30 -41 -75 -41q-52 0 -73 70q-45 -71 -133 -71q-70 0 -109.5 36.5t-39.5 91.5q0 68 58 103.5t161 35.5q22 0 56 -2q1 35 1 51q0 58 -24.5 90t-68.5 32q-16 0 -29.5 -5t-27.5 -18.5t-20 -20t-20.5 -26.5t-15.5 -21q-42 7 -51.5 40t25.5 59q57 43 160 43
q157 0 157 -162q0 -37 -3.5 -116.5t-3.5 -114.5q44 -12 76 -23z" />
    <glyph glyph-name="adieresis" unicode="&#xe4;" horiz-adv-x="494" 
d="M275 626q0 22 15.5 37.5t37.5 15.5t38 -15.5t16 -37.5q0 -21 -16 -36.5t-38 -15.5t-37.5 16t-15.5 36zM75 626q0 22 16 37.5t39 15.5q22 0 37 -15.5t15 -37.5q0 -21 -15.5 -36.5t-36.5 -15.5q-22 0 -38.5 16t-16.5 36zM223 54q29 0 54 13.5t36 34.5l2 101
q-91 5 -136.5 -10t-45.5 -65q0 -36 24.5 -55t65.5 -19zM472 62v-31q-30 -41 -75 -41q-52 0 -73 70q-45 -71 -133 -71q-70 0 -109.5 36.5t-39.5 91.5q0 68 58 103.5t161 35.5q22 0 56 -2q1 35 1 51q0 58 -24.5 90t-68.5 32q-16 0 -29.5 -5t-27.5 -18.5t-20 -20t-20.5 -26.5
t-15.5 -21q-42 7 -51.5 40t25.5 59q57 43 160 43q157 0 157 -162q0 -37 -3.5 -116.5t-3.5 -114.5q44 -12 76 -23z" />
    <glyph glyph-name="aring" unicode="&#xe5;" horiz-adv-x="494" 
d="M227 725q46 0 76 -24t30 -69q0 -43 -29.5 -71.5t-76.5 -28.5q-45 0 -76 24t-31 69q0 43 29 71.5t78 28.5zM228 570q25 0 39.5 16.5t14.5 42.5q0 25 -16 42t-40 17q-25 0 -39.5 -17t-14.5 -43q0 -25 16 -41.5t40 -16.5zM223 54q29 0 54 13.5t36 34.5l2 101
q-91 5 -136.5 -10t-45.5 -65q0 -36 24.5 -55t65.5 -19zM472 62v-31q-30 -41 -75 -41q-52 0 -73 70q-45 -71 -133 -71q-70 0 -109.5 36.5t-39.5 91.5q0 68 58 103.5t161 35.5q22 0 56 -2q1 35 1 51q0 58 -24.5 90t-68.5 32q-16 0 -29.5 -5t-27.5 -18.5t-20 -20t-20.5 -26.5
t-15.5 -21q-42 7 -51.5 40t25.5 59q57 43 160 43q157 0 157 -162q0 -37 -3.5 -116.5t-3.5 -114.5q44 -12 76 -23z" />
    <glyph glyph-name="ae" unicode="&#xe6;" horiz-adv-x="754" 
d="M248 478q96 0 133 -72q62 72 156 72q90 0 134 -51.5t44 -139.5q0 -27 -3 -58h-302q-2 -74 35.5 -123.5t117.5 -49.5q62 0 117 45q6 -3 15 -14t11 -16q-61 -82 -174 -82q-115 0 -174 83q-57 -83 -160 -83q-74 0 -115 39t-41 97q0 154 236 154h41q1 21 1 37q0 111 -87 111
q-17 0 -32 -5.5t-28.5 -18t-21 -20.5t-20.5 -26t-16 -21q-42 7 -52 39.5t25 58.5q59 44 160 44zM631 279q0 76 -25.5 112t-80.5 36q-54 0 -82 -42.5t-29 -105.5h217zM226 52q74 0 110 62q-18 45 -18 102v12h-37q-147 0 -147 -91q0 -39 23.5 -62t68.5 -23z" />
    <glyph glyph-name="ccedilla" unicode="&#xe7;" horiz-adv-x="467" 
d="M287 56q61 0 115 48q5 -4 14.5 -15t10.5 -15q-47 -66 -124 -81l-36 -51q102 -6 102 -84q0 -42 -32.5 -66.5t-88.5 -24.5q-108 0 -108 57q0 19 16 29.5t37 10.5q11 -32 25 -46t38 -14q19 0 31 14t12 36q0 58 -100 62v21q11 15 54 52q-98 2 -155.5 69.5t-57.5 162.5
q0 110 68 183.5t182 73.5q83 0 123 -14q4 -11 4 -39q0 -49 -24 -97h-27q-20 34 -30 87q-26 8 -65 8q-69 0 -104.5 -49t-35.5 -120q0 -95 42.5 -146.5t113.5 -51.5z" />
    <glyph glyph-name="egrave" unicode="&#xe8;" horiz-adv-x="480" 
d="M331 565l-21 -25l-61 30.5t-55 32t-49.5 40.5t-16.5 39q0 20 15.5 31t42.5 10q59 -76 145 -158zM407 104q6 -4 15 -15t10 -15q-61 -85 -174 -85q-102 0 -160 68t-58 163q0 120 62.5 189t159.5 69q90 0 134.5 -48.5t44.5 -121.5q0 -28 -3 -60h-307q-3 -78 37.5 -135
t119.5 -57q63 0 119 48zM358 298q0 128 -108 128q-53 0 -81.5 -37t-33.5 -91h223z" />
    <glyph glyph-name="eacute" unicode="&#xe9;" horiz-adv-x="480" 
d="M179 540l-20 24q82 79 145 159q27 1 42.5 -10t15.5 -31q0 -19 -16.5 -39t-50.5 -40.5t-55 -32t-61 -30.5zM407 104q6 -4 15 -15t10 -15q-61 -85 -174 -85q-102 0 -160 68t-58 163q0 120 62.5 189t159.5 69q90 0 134.5 -48.5t44.5 -121.5q0 -28 -3 -60h-307
q-3 -78 37.5 -135t119.5 -57q63 0 119 48zM358 298q0 128 -108 128q-53 0 -81.5 -37t-33.5 -91h223z" />
    <glyph glyph-name="ecircumflex" unicode="&#xea;" horiz-adv-x="480" 
d="M287 721q41 -64 99 -164l-29 -22l-108 115l-106 -115l-29 21q48 84 78 130q15 22 27.5 29.5t37.5 7.5q18 0 30 -2zM407 104q6 -4 15 -15t10 -15q-61 -85 -174 -85q-102 0 -160 68t-58 163q0 120 62.5 189t159.5 69q90 0 134.5 -48.5t44.5 -121.5q0 -28 -3 -60h-307
q-3 -78 37.5 -135t119.5 -57q63 0 119 48zM358 298q0 128 -108 128q-53 0 -81.5 -37t-33.5 -91h223z" />
    <glyph glyph-name="edieresis" unicode="&#xeb;" horiz-adv-x="480" 
d="M300 626q0 22 15.5 37.5t37.5 15.5t38 -15.5t16 -37.5q0 -21 -16 -36.5t-38 -15.5q-21 0 -37 16t-16 36zM100 626q0 22 16 37.5t39 15.5q22 0 37 -15.5t15 -37.5q0 -21 -15.5 -36.5t-36.5 -15.5q-22 0 -38.5 16t-16.5 36zM407 104q6 -4 15 -15t10 -15q-61 -85 -174 -85
q-102 0 -160 68t-58 163q0 120 62.5 189t159.5 69q90 0 134.5 -48.5t44.5 -121.5q0 -28 -3 -60h-307q-3 -78 37.5 -135t119.5 -57q63 0 119 48zM358 298q0 128 -108 128q-53 0 -81.5 -37t-33.5 -91h223z" />
    <glyph glyph-name="igrave" unicode="&#xec;" horiz-adv-x="307" 
d="M229 565l-21 -25l-61 30.5t-55 32t-49.5 40.5t-16.5 39q0 20 15.5 31t42.5 10q59 -76 145 -158zM202 465v-410q47 -8 79 -19v-36h-248q0 26 15.5 36t67.5 20v340q-46 9 -72 23v26q59 32 113 32q23 0 45 -12z" />
    <glyph glyph-name="iacute" unicode="&#xed;" horiz-adv-x="307" 
d="M70 540l-20 24q82 79 145 159q27 1 42.5 -10t15.5 -31q0 -19 -16.5 -39t-50.5 -40.5t-55 -32t-61 -30.5zM202 465v-410q47 -8 79 -19v-36h-248q0 26 15.5 36t67.5 20v340q-46 9 -72 23v26q59 32 113 32q23 0 45 -12z" />
    <glyph glyph-name="icircumflex" unicode="&#xee;" horiz-adv-x="307" 
d="M179 721q41 -64 99 -164l-29 -22l-108 115l-106 -115l-29 21q48 84 78 130q15 22 27.5 29.5t37.5 7.5q18 0 30 -2zM202 465v-410q47 -8 79 -19v-36h-248q0 26 15.5 36t67.5 20v340q-46 9 -72 23v26q59 32 113 32q23 0 45 -12z" />
    <glyph glyph-name="idieresis" unicode="&#xef;" horiz-adv-x="307" 
d="M184 626q0 22 15.5 37.5t37.5 15.5t38 -15.5t16 -37.5q0 -21 -16 -36.5t-38 -15.5q-21 0 -37 16t-16 36zM2 626q0 22 16 37.5t39 15.5q22 0 37 -15.5t15 -37.5q0 -21 -15.5 -36.5t-36.5 -15.5q-22 0 -38.5 16t-16.5 36zM202 465v-410q47 -8 79 -19v-36h-248q0 26 15.5 36
t67.5 20v340q-46 9 -72 23v26q59 32 113 32q23 0 45 -12z" />
    <glyph glyph-name="eth" unicode="&#xf0;" horiz-adv-x="552" 
d="M317 648l121 67l15 -20q-2 -18 -11 -29.5t-34 -25.5l-45 -25q140 -114 140 -319q0 -146 -61.5 -226.5t-165.5 -80.5q-101 0 -165 69.5t-64 184.5q0 97 59.5 165.5t159.5 68.5q82 0 127 -47q-28 88 -96 149l-151 -84l-15 18q1 21 13 33.5t41 28.5l68 38q-73 48 -172 68
q0 25 7 39q131 -12 229 -72zM280 422q-68 0 -104 -51.5t-36 -124.5q0 -89 40.5 -147t102.5 -58q64 0 98.5 64t34.5 177q0 48 -7 84q-44 56 -129 56z" />
    <glyph glyph-name="ntilde" unicode="&#xf1;" horiz-adv-x="615" 
d="M371 628q14 0 26 7t17.5 13t18.5 22l28 -15q-36 -91 -96 -91q-29 0 -65 21t-55 21q-14 0 -27.5 -8t-17.5 -12.5t-17 -20.5l-29 16q37 90 98 90q27 0 63.5 -21.5t55.5 -21.5zM509 305v-250q48 -8 80 -19v-36h-248q0 26 15 36t67 20v225q0 65 -28.5 98.5t-81.5 33.5
q-75 0 -112 -74v-284q48 -8 80 -19v-36h-248q0 26 15 36t67 20v340q-46 9 -72 23v26q59 32 113 32q22 0 44 -12v-69q53 82 148 82q78 0 119.5 -49t41.5 -124z" />
    <glyph glyph-name="ograve" unicode="&#xf2;" horiz-adv-x="547" 
d="M371 565l-21 -25l-61 30.5t-55 32t-49.5 40.5t-16.5 39q0 20 15.5 31t42.5 10q59 -76 145 -158zM42 227q0 105 65.5 178t171.5 73q103 0 164.5 -64t61.5 -173q0 -105 -65.5 -178.5t-171.5 -73.5q-103 0 -164.5 65t-61.5 173zM135 234q0 -87 36.5 -139t103.5 -52
q64 0 101 52.5t37 138.5q0 87 -36.5 138.5t-103.5 51.5q-63 0 -100.5 -52t-37.5 -138z" />
    <glyph glyph-name="oacute" unicode="&#xf3;" horiz-adv-x="547" 
d="M189 540l-20 24q82 79 145 159q27 1 42.5 -10t15.5 -31q0 -19 -16.5 -39t-50.5 -40.5t-55 -32t-61 -30.5zM42 227q0 105 65.5 178t171.5 73q103 0 164.5 -64t61.5 -173q0 -105 -65.5 -178.5t-171.5 -73.5q-103 0 -164.5 65t-61.5 173zM135 234q0 -87 36.5 -139t103.5 -52
q64 0 101 52.5t37 138.5q0 87 -36.5 138.5t-103.5 51.5q-63 0 -100.5 -52t-37.5 -138z" />
    <glyph glyph-name="ocircumflex" unicode="&#xf4;" horiz-adv-x="547" 
d="M311 721q41 -64 99 -164l-29 -22l-108 115l-106 -115l-29 21q48 84 78 130q15 22 27.5 29.5t37.5 7.5q18 0 30 -2zM42 227q0 105 65.5 178t171.5 73q103 0 164.5 -64t61.5 -173q0 -105 -65.5 -178.5t-171.5 -73.5q-103 0 -164.5 65t-61.5 173zM135 234q0 -87 36.5 -139
t103.5 -52q64 0 101 52.5t37 138.5q0 87 -36.5 138.5t-103.5 51.5q-63 0 -100.5 -52t-37.5 -138z" />
    <glyph glyph-name="otilde" unicode="&#xf5;" horiz-adv-x="547" 
d="M342 628q14 0 26 7t17.5 13t18.5 22l28 -15q-36 -91 -96 -91q-29 0 -65 21t-55 21q-14 0 -27.5 -8t-17.5 -12.5t-17 -20.5l-29 16q37 90 98 90q27 0 63.5 -21.5t55.5 -21.5zM42 227q0 105 65.5 178t171.5 73q103 0 164.5 -64t61.5 -173q0 -105 -65.5 -178.5t-171.5 -73.5
q-103 0 -164.5 65t-61.5 173zM135 234q0 -87 36.5 -139t103.5 -52q64 0 101 52.5t37 138.5q0 87 -36.5 138.5t-103.5 51.5q-63 0 -100.5 -52t-37.5 -138z" />
    <glyph glyph-name="odieresis" unicode="&#xf6;" horiz-adv-x="547" 
d="M323 626q0 22 15.5 37.5t37.5 15.5t38 -15.5t16 -37.5q0 -21 -16 -36.5t-38 -15.5t-37.5 16t-15.5 36zM123 626q0 22 16 37.5t39 15.5q22 0 37 -15.5t15 -37.5q0 -21 -15.5 -36.5t-36.5 -15.5q-22 0 -38.5 16t-16.5 36zM42 227q0 105 65.5 178t171.5 73q103 0 164.5 -64
t61.5 -173q0 -105 -65.5 -178.5t-171.5 -73.5q-103 0 -164.5 65t-61.5 173zM135 234q0 -87 36.5 -139t103.5 -52q64 0 101 52.5t37 138.5q0 87 -36.5 138.5t-103.5 51.5q-63 0 -100.5 -52t-37.5 -138z" />
    <glyph glyph-name="divide" unicode="&#xf7;" horiz-adv-x="522" 
d="M204 407q0 23 17 39.5t39 16.5t39 -16.5t17 -39.5t-17 -39.5t-39 -16.5t-39 16.5t-17 39.5zM405 225h-276q-39 0 -81 13v46q33 6 93 6h333v-41q-16 -24 -69 -24zM204 103q0 23 17 39.5t39 16.5t39 -16.5t17 -39.5t-17 -39.5t-39 -16.5t-39 16.5t-17 39.5z" />
    <glyph glyph-name="oslash" unicode="&#xf8;" horiz-adv-x="547" 
d="M135 235q0 -63 15 -106l216 259q-36 36 -93 36q-64 0 -101 -51.5t-37 -137.5zM413 235q0 61 -17 104l-216 -259q34 -37 95 -37q63 0 100.5 53t37.5 139zM451 404l-1 -1q55 -64 55 -163q0 -105 -66 -178t-173 -73q-73 0 -129 39l-3 -3q-25 -28 -54 -44l-29 24q16 26 43 57
l3 3q-55 66 -55 162q0 105 65.5 178t171.5 73q74 0 130 -39l2 2q23 29 52 43l30 -24q-15 -25 -42 -56z" />
    <glyph glyph-name="ugrave" unicode="&#xf9;" horiz-adv-x="577" 
d="M366 565l-21 -25l-61 30.5t-55 32t-49.5 40.5t-16.5 39q0 20 15.5 31t42.5 10q59 -76 145 -158zM482 465q-1 -80 -1.5 -202.5t-1.5 -165.5q43 -14 64 -24v-33q-16 -19 -41.5 -33.5t-45.5 -14.5q-24 0 -51 84q-61 -87 -156 -87q-74 0 -114.5 45t-40.5 129q0 98 3 233
q-45 9 -71 23v26q59 32 112 32q23 0 45 -12q-3 -159 -3 -287q0 -59 26.5 -91t74.5 -32q72 0 112 73l3 267q-49 7 -80 24v26q59 32 121 32q23 0 45 -12z" />
    <glyph glyph-name="uacute" unicode="&#xfa;" horiz-adv-x="577" 
d="M216 540l-20 24q82 79 145 159q27 1 42.5 -10t15.5 -31q0 -19 -16.5 -39t-50.5 -40.5t-55 -32t-61 -30.5zM482 465q-1 -80 -1.5 -202.5t-1.5 -165.5q43 -14 64 -24v-33q-16 -19 -41.5 -33.5t-45.5 -14.5q-24 0 -51 84q-61 -87 -156 -87q-74 0 -114.5 45t-40.5 129
q0 98 3 233q-45 9 -71 23v26q59 32 112 32q23 0 45 -12q-3 -159 -3 -287q0 -59 26.5 -91t74.5 -32q72 0 112 73l3 267q-49 7 -80 24v26q59 32 121 32q23 0 45 -12z" />
    <glyph glyph-name="ucircumflex" unicode="&#xfb;" horiz-adv-x="577" 
d="M314 721q41 -64 99 -164l-29 -22l-108 115l-106 -115l-29 21q48 84 78 130q15 22 27.5 29.5t37.5 7.5q18 0 30 -2zM482 465q-1 -80 -1.5 -202.5t-1.5 -165.5q43 -14 64 -24v-33q-16 -19 -41.5 -33.5t-45.5 -14.5q-24 0 -51 84q-61 -87 -156 -87q-74 0 -114.5 45
t-40.5 129q0 98 3 233q-45 9 -71 23v26q59 32 112 32q23 0 45 -12q-3 -159 -3 -287q0 -59 26.5 -91t74.5 -32q72 0 112 73l3 267q-49 7 -80 24v26q59 32 121 32q23 0 45 -12z" />
    <glyph glyph-name="udieresis" unicode="&#xfc;" horiz-adv-x="577" 
d="M320 626q0 22 15.5 37.5t37.5 15.5t38 -15.5t16 -37.5q0 -21 -16 -36.5t-38 -15.5q-21 0 -37 16t-16 36zM120 626q0 22 16 37.5t39 15.5q22 0 37 -15.5t15 -37.5q0 -21 -15.5 -36.5t-36.5 -15.5q-22 0 -38.5 16t-16.5 36zM482 465q-1 -80 -1.5 -202.5t-1.5 -165.5
q43 -14 64 -24v-33q-16 -19 -41.5 -33.5t-45.5 -14.5q-24 0 -51 84q-61 -87 -156 -87q-74 0 -114.5 45t-40.5 129q0 98 3 233q-45 9 -71 23v26q59 32 112 32q23 0 45 -12q-3 -159 -3 -287q0 -59 26.5 -91t74.5 -32q72 0 112 73l3 267q-49 7 -80 24v26q59 32 121 32
q23 0 45 -12z" />
    <glyph glyph-name="yacute" unicode="&#xfd;" horiz-adv-x="499" 
d="M187 540l-20 24q82 79 145 159q27 1 42.5 -10t15.5 -31q0 -19 -16.5 -39t-50.5 -40.5t-55 -32t-61 -30.5zM149 416l116 -326l115 326h-1q-53 2 -69 16v35q32 1 82 1h18q49 0 84 -5v-36q-20 -6 -50 -11q-63 -181 -142 -376q-39 -96 -73 -158.5t-61 -88t-45 -33.5t-39 -8
q-32 0 -47.5 18.5t-13.5 43.5q9 3 33.5 12.5t30.5 12t23.5 10.5t23.5 14t20 17t22.5 23.5l21 30.5t25.5 41l-169 441q-28 4 -49 11v36q35 5 83 5h48q50 0 82 -1v-35q-18 -14 -69 -16z" />
    <glyph glyph-name="thorn" unicode="&#xfe;" horiz-adv-x="554" 
d="M269 45q68 0 109 50.5t41 138.5q0 80 -38.5 129t-105.5 49q-64 0 -105 -47v-294q38 -26 99 -26zM170 715v-299q53 62 137 62q96 0 149.5 -65.5t53.5 -157.5q0 -117 -69 -191t-178 -74q-51 0 -93 11v-183q49 -7 92 -19v-36h-260q0 26 15 36t67 20v826q-51 8 -81 24v26
q21 11 56.5 21.5t60.5 10.5q28 0 50 -12z" />
    <glyph glyph-name="ydieresis" unicode="&#xff;" horiz-adv-x="499" 
d="M305 626q0 22 15.5 37.5t37.5 15.5t38 -15.5t16 -37.5q0 -21 -16 -36.5t-38 -15.5t-37.5 16t-15.5 36zM105 626q0 22 16 37.5t39 15.5q22 0 37 -15.5t15 -37.5q0 -21 -15.5 -36.5t-36.5 -15.5q-22 0 -38.5 16t-16.5 36zM149 416l116 -326l115 326h-1q-53 2 -69 16v35
q32 1 82 1h18q49 0 84 -5v-36q-20 -6 -50 -11q-63 -181 -142 -376q-39 -96 -73 -158.5t-61 -88t-45 -33.5t-39 -8q-32 0 -47.5 18.5t-13.5 43.5q9 3 33.5 12.5t30.5 12t23.5 10.5t23.5 14t20 17t22.5 23.5l21 30.5t25.5 41l-169 441q-28 4 -49 11v36q35 5 83 5h48
q50 0 82 -1v-35q-18 -14 -69 -16z" />
    <glyph glyph-name="Amacron" unicode="&#x100;" horiz-adv-x="686" 
d="M213 733v44q10 13 25.5 16.5t56.5 3.5h173v-44q-10 -13 -25.5 -16.5t-56.5 -3.5h-173zM330 599l-104 -316h208zM510 54l-58 175h-244l-57 -175q55 -8 93 -18v-36h-230q0 24 14 34.5t56 20.5l206 611h47q23 0 38 -4.5t24.5 -17t14 -21.5t11.5 -31l177 -538
q43 -10 56.5 -19.5t13.5 -34.5h-255v36q40 11 93 18z" />
    <glyph glyph-name="amacron" unicode="&#x101;" horiz-adv-x="494" 
d="M104 573v44q10 13 25.5 16.5t56.5 3.5h173v-44q-10 -13 -25.5 -16.5t-56.5 -3.5h-173zM223 54q29 0 54 13.5t36 34.5l2 101q-91 5 -136.5 -10t-45.5 -65q0 -36 24.5 -55t65.5 -19zM472 62v-31q-30 -41 -75 -41q-52 0 -73 70q-45 -71 -133 -71q-70 0 -109.5 36.5
t-39.5 91.5q0 68 58 103.5t161 35.5q22 0 56 -2q1 35 1 51q0 58 -24.5 90t-68.5 32q-16 0 -29.5 -5t-27.5 -18.5t-20 -20t-20.5 -26.5t-15.5 -21q-42 7 -51.5 40t25.5 59q57 43 160 43q157 0 157 -162q0 -37 -3.5 -116.5t-3.5 -114.5q44 -12 76 -23z" />
    <glyph glyph-name="Abreve" unicode="&#x102;" horiz-adv-x="686" 
d="M340 708q-63 0 -91.5 38t-25.5 90h40q9 -68 77 -68q69 0 78 68h40q3 -52 -25.5 -90t-92.5 -38zM330 599l-104 -316h208zM510 54l-58 175h-244l-57 -175q55 -8 93 -18v-36h-230q0 24 14 34.5t56 20.5l206 611h47q23 0 38 -4.5t24.5 -17t14 -21.5t11.5 -31l177 -538
q43 -10 56.5 -19.5t13.5 -34.5h-255v36q40 11 93 18z" />
    <glyph glyph-name="abreve" unicode="&#x103;" horiz-adv-x="494" 
d="M231 555q-64 0 -91.5 39t-20.5 97h40q0 -76 72 -76t72 76h40q7 -58 -20.5 -97t-91.5 -39zM223 54q29 0 54 13.5t36 34.5l2 101q-91 5 -136.5 -10t-45.5 -65q0 -36 24.5 -55t65.5 -19zM472 62v-31q-30 -41 -75 -41q-52 0 -73 70q-45 -71 -133 -71q-70 0 -109.5 36.5
t-39.5 91.5q0 68 58 103.5t161 35.5q22 0 56 -2q1 35 1 51q0 58 -24.5 90t-68.5 32q-16 0 -29.5 -5t-27.5 -18.5t-20 -20t-20.5 -26.5t-15.5 -21q-42 7 -51.5 40t25.5 59q57 43 160 43q157 0 157 -162q0 -37 -3.5 -116.5t-3.5 -114.5q44 -12 76 -23z" />
    <glyph glyph-name="Aogonek" unicode="&#x104;" horiz-adv-x="686" 
d="M330 599l-104 -316h208zM586 0h-169v36q40 11 93 18l-58 175h-244l-57 -175q55 -8 93 -18v-36h-230q0 24 14 34.5t56 20.5l206 611h47q23 0 38 -4.5t24.5 -17t14 -21.5t11.5 -31l177 -538q43 -10 56.5 -19.5t13.5 -34.5h-36q-83 -51 -83 -113q0 -70 119 -70
q3 -31 -14 -48t-55 -17q-60 0 -92.5 32t-32.5 75q0 47 36 86.5t72 54.5z" />
    <glyph glyph-name="aogonek" unicode="&#x105;" horiz-adv-x="494" 
d="M403 -248q-60 0 -92.5 32t-32.5 75t30.5 79.5t65.5 55.5q-33 13 -50 66q-45 -71 -133 -71q-70 0 -109.5 36.5t-39.5 91.5q0 68 58 103.5t161 35.5q22 0 56 -2q1 35 1 51q0 58 -24.5 90t-68.5 32q-16 0 -29.5 -5t-27.5 -18.5t-20 -20t-20.5 -26.5t-15.5 -21
q-42 7 -51.5 40t25.5 59q57 43 160 43q157 0 157 -162q0 -37 -3.5 -116.5t-3.5 -114.5q44 -12 76 -23v-31q-15 -21 -39 -32q-80 -52 -80 -112q0 -70 119 -70q3 -31 -14 -48t-55 -17zM223 54q29 0 54 13.5t36 34.5l2 101q-91 5 -136.5 -10t-45.5 -65q0 -36 24.5 -55t65.5 -19
z" />
    <glyph glyph-name="Cacute" unicode="&#x106;" horiz-adv-x="622" 
d="M255 717l-11 26q70 37 178 116q38 -9 38 -43q0 -37 -57.5 -62t-147.5 -37zM359 -11q-142 0 -224 92.5t-82 240.5q0 149 92.5 247.5t259.5 98.5q43 0 93 -5.5t68 -11.5q6 -20 6 -49q0 -49 -27 -115h-30q-23 49 -34 111q-48 15 -101 15q-106 0 -166.5 -71t-60.5 -206
q0 -122 61 -201.5t167 -79.5q89 0 170 73q19 -12 26 -28q-29 -45 -83.5 -78t-134.5 -33z" />
    <glyph glyph-name="cacute" unicode="&#x107;" horiz-adv-x="467" 
d="M173 540l-20 24q82 79 145 159q27 1 42.5 -10t15.5 -31q0 -19 -16.5 -39t-50.5 -40.5t-55 -32t-61 -30.5zM287 56q61 0 115 48q5 -4 14.5 -15t10.5 -15q-59 -85 -170 -85q-99 0 -158 68t-59 164q0 110 68 183.5t182 73.5q83 0 123 -14q4 -11 4 -39q0 -49 -24 -97h-27
q-20 34 -30 87q-26 8 -65 8q-69 0 -104.5 -49t-35.5 -120q0 -95 42.5 -146.5t113.5 -51.5z" />
    <glyph glyph-name="Ccircumflex" unicode="&#x108;" horiz-adv-x="622" 
d="M390 860q47 -55 102 -129l-28 -24q-53 37 -112 87q-110 -85 -112 -87l-28 24q33 42 82 97q20 22 32.5 29t33.5 7q16 0 30 -4zM359 -11q-142 0 -224 92.5t-82 240.5q0 149 92.5 247.5t259.5 98.5q43 0 93 -5.5t68 -11.5q6 -20 6 -49q0 -49 -27 -115h-30q-23 49 -34 111
q-48 15 -101 15q-106 0 -166.5 -71t-60.5 -206q0 -122 61 -201.5t167 -79.5q89 0 170 73q19 -12 26 -28q-29 -45 -83.5 -78t-134.5 -33z" />
    <glyph glyph-name="ccircumflex" unicode="&#x109;" horiz-adv-x="467" 
d="M291 721q41 -64 99 -164l-29 -22l-108 115l-106 -115l-29 21q48 84 78 130q15 22 27.5 29.5t37.5 7.5q18 0 30 -2zM287 56q61 0 115 48q5 -4 14.5 -15t10.5 -15q-59 -85 -170 -85q-99 0 -158 68t-59 164q0 110 68 183.5t182 73.5q83 0 123 -14q4 -11 4 -39q0 -49 -24 -97
h-27q-20 34 -30 87q-26 8 -65 8q-69 0 -104.5 -49t-35.5 -120q0 -95 42.5 -146.5t113.5 -51.5z" />
    <glyph glyph-name="Cdotaccent" unicode="&#x10a;" horiz-adv-x="622" 
d="M316 802q0 23 16.5 39.5t39.5 16.5t39.5 -16.5t16.5 -39.5t-16.5 -39.5t-39.5 -16.5t-39.5 16.5t-16.5 39.5zM359 -11q-142 0 -224 92.5t-82 240.5q0 149 92.5 247.5t259.5 98.5q43 0 93 -5.5t68 -11.5q6 -20 6 -49q0 -49 -27 -115h-30q-23 49 -34 111q-48 15 -101 15
q-106 0 -166.5 -71t-60.5 -206q0 -122 61 -201.5t167 -79.5q89 0 170 73q19 -12 26 -28q-29 -45 -83.5 -78t-134.5 -33z" />
    <glyph glyph-name="cdotaccent" unicode="&#x10b;" horiz-adv-x="467" 
d="M216 634q0 23 16.5 39.5t39.5 16.5t39.5 -16.5t16.5 -39.5t-16.5 -39.5t-39.5 -16.5t-39.5 16.5t-16.5 39.5zM287 56q61 0 115 48q5 -4 14.5 -15t10.5 -15q-59 -85 -170 -85q-99 0 -158 68t-59 164q0 110 68 183.5t182 73.5q83 0 123 -14q4 -11 4 -39q0 -49 -24 -97h-27
q-20 34 -30 87q-26 8 -65 8q-69 0 -104.5 -49t-35.5 -120q0 -95 42.5 -146.5t113.5 -51.5z" />
    <glyph glyph-name="Ccaron" unicode="&#x10c;" horiz-adv-x="622" 
d="M319 713l-107 128l29 26l114 -89l108 89l29 -26l-80 -96q-19 -22 -31 -29t-33 -7q-15 0 -29 4zM359 -11q-142 0 -224 92.5t-82 240.5q0 149 92.5 247.5t259.5 98.5q43 0 93 -5.5t68 -11.5q6 -20 6 -49q0 -49 -27 -115h-30q-23 49 -34 111q-48 15 -101 15
q-106 0 -166.5 -71t-60.5 -206q0 -122 61 -201.5t167 -79.5q89 0 170 73q19 -12 26 -28q-29 -45 -83.5 -78t-134.5 -33z" />
    <glyph glyph-name="ccaron" unicode="&#x10d;" horiz-adv-x="467" 
d="M291 538q-12 -3 -30 -3q-25 0 -38 7.5t-27 29.5q-31 48 -78 129l29 22l109 -115l105 115l29 -21zM287 56q61 0 115 48q5 -4 14.5 -15t10.5 -15q-59 -85 -170 -85q-99 0 -158 68t-59 164q0 110 68 183.5t182 73.5q83 0 123 -14q4 -11 4 -39q0 -49 -24 -97h-27
q-20 34 -30 87q-26 8 -65 8q-69 0 -104.5 -49t-35.5 -120q0 -95 42.5 -146.5t113.5 -51.5z" />
    <glyph glyph-name="Dcaron" unicode="&#x10e;" horiz-adv-x="741" 
d="M306 713l-107 128l29 26l114 -89l108 89l29 -26l-80 -96q-19 -22 -31 -29t-33 -7q-15 0 -29 4zM40 658h310q154 0 246 -80t92 -233q0 -155 -89.5 -250t-250.5 -95h-308q0 28 15.5 38t71.5 20v542q-56 10 -71.5 20t-15.5 38zM332 604h-115v-521q0 -16 6.5 -22.5t22.5 -6.5
h85q257 0 257 288q0 120 -63.5 191t-192.5 71z" />
    <glyph glyph-name="dcaron" unicode="&#x10f;" horiz-adv-x="617" 
d="M567 547q-15 9 -24 18q39 74 47 158q14 4 28 4q37 0 37 -43q0 -36 -18.5 -63.5t-69.5 -73.5zM292 57q60 0 95 47v296q-38 23 -96 23q-74 0 -115.5 -52.5t-41.5 -132.5q0 -79 41.5 -130t116.5 -51zM474 715l-1 -617q50 -16 70 -25v-33q-14 -18 -39.5 -33t-45.5 -15
q-21 0 -58 71q-48 -74 -141 -74q-96 0 -156 65t-60 166q0 110 70.5 184t186.5 74q50 0 87 -10l1 177q-51 7 -84 24v26q62 32 120 32q28 0 50 -12z" />
    <glyph glyph-name="Dcroat" unicode="&#x110;" horiz-adv-x="741" 
d="M49 310v34q9 12 24 15.5t54 3.5v237q-56 10 -71.5 20t-15.5 38h310q154 0 246 -80t92 -233q0 -155 -89.5 -250t-250.5 -95h-308q0 28 15.5 38t71.5 20v252h-78zM332 604h-115v-241h198v-34q-10 -12 -25.5 -15.5t-56.5 -3.5h-116v-227q0 -16 6.5 -22.5t22.5 -6.5h85
q257 0 257 288q0 120 -63.5 191t-192.5 71z" />
    <glyph glyph-name="dcroat" unicode="&#x111;" horiz-adv-x="575" 
d="M292 57q60 0 95 47v296q-38 23 -96 23q-74 0 -115.5 -52.5t-41.5 -132.5q0 -79 41.5 -130t116.5 -51zM400 63q-48 -74 -141 -74q-96 0 -156 65t-60 166q0 110 70.5 184t186.5 74q50 0 87 -10v71h-131v39q12 13 68 13h64v54q-51 7 -84 24v26q62 32 120 32q28 0 50 -12
v-124h101v-36q-15 -15 -65 -16h-36l-1 -441q50 -16 70 -25v-33q-14 -18 -39.5 -33t-45.5 -15q-21 0 -58 71z" />
    <glyph glyph-name="Emacron" unicode="&#x112;" horiz-adv-x="570" 
d="M183 737v44q10 13 25.5 16.5t56.5 3.5h173v-44q-10 -13 -25.5 -16.5t-56.5 -3.5h-173zM512 0h-472q0 28 15.5 38t71.5 20v542q-56 10 -71.5 20t-15.5 38h473q6 -16 6 -45q0 -51 -23 -108h-30q-21 46 -32 99h-217v-227h218v-30q-14 -28 -53 -28h-165v-265h219
q11 62 31 105h30q23 -58 23 -111q0 -27 -8 -48z" />
    <glyph glyph-name="emacron" unicode="&#x113;" horiz-adv-x="480" 
d="M127 573v44q10 13 25.5 16.5t56.5 3.5h173v-44q-10 -13 -25.5 -16.5t-56.5 -3.5h-173zM407 104q6 -4 15 -15t10 -15q-61 -85 -174 -85q-102 0 -160 68t-58 163q0 120 62.5 189t159.5 69q90 0 134.5 -48.5t44.5 -121.5q0 -28 -3 -60h-307q-3 -78 37.5 -135t119.5 -57
q63 0 119 48zM358 298q0 128 -108 128q-53 0 -81.5 -37t-33.5 -91h223z" />
    <glyph glyph-name="Ebreve" unicode="&#x114;" horiz-adv-x="570" 
d="M310 712q-63 0 -91.5 38t-25.5 90h40q9 -68 77 -68q69 0 78 68h40q3 -52 -25.5 -90t-92.5 -38zM512 0h-472q0 28 15.5 38t71.5 20v542q-56 10 -71.5 20t-15.5 38h473q6 -16 6 -45q0 -51 -23 -108h-30q-21 46 -32 99h-217v-227h218v-30q-14 -28 -53 -28h-165v-265h219
q11 62 31 105h30q23 -58 23 -111q0 -27 -8 -48z" />
    <glyph glyph-name="ebreve" unicode="&#x115;" horiz-adv-x="480" 
d="M254 555q-64 0 -91.5 39t-20.5 97h40q0 -76 72 -76t72 76h40q7 -58 -20.5 -97t-91.5 -39zM407 104q6 -4 15 -15t10 -15q-61 -85 -174 -85q-102 0 -160 68t-58 163q0 120 62.5 189t159.5 69q90 0 134.5 -48.5t44.5 -121.5q0 -28 -3 -60h-307q-3 -78 37.5 -135t119.5 -57
q63 0 119 48zM358 298q0 128 -108 128q-53 0 -81.5 -37t-33.5 -91h223z" />
    <glyph glyph-name="Edotaccent" unicode="&#x116;" horiz-adv-x="570" 
d="M247 802q0 23 16.5 39.5t39.5 16.5t39.5 -16.5t16.5 -39.5t-16.5 -39.5t-39.5 -16.5t-39.5 16.5t-16.5 39.5zM512 0h-472q0 28 15.5 38t71.5 20v542q-56 10 -71.5 20t-15.5 38h473q6 -16 6 -45q0 -51 -23 -108h-30q-21 46 -32 99h-217v-227h218v-30q-14 -28 -53 -28h-165
v-265h219q11 62 31 105h30q23 -58 23 -111q0 -27 -8 -48z" />
    <glyph glyph-name="edotaccent" unicode="&#x117;" horiz-adv-x="480" 
d="M196 634q0 23 16.5 39.5t39.5 16.5t39.5 -16.5t16.5 -39.5t-16.5 -39.5t-39.5 -16.5t-39.5 16.5t-16.5 39.5zM407 104q6 -4 15 -15t10 -15q-61 -85 -174 -85q-102 0 -160 68t-58 163q0 120 62.5 189t159.5 69q90 0 134.5 -48.5t44.5 -121.5q0 -28 -3 -60h-307
q-3 -78 37.5 -135t119.5 -57q63 0 119 48zM358 298q0 128 -108 128q-53 0 -81.5 -37t-33.5 -91h223z" />
    <glyph glyph-name="Eogonek" unicode="&#x118;" horiz-adv-x="570" 
d="M434 0h-394q0 28 15.5 38t71.5 20v542q-56 10 -71.5 20t-15.5 38h473q6 -16 6 -45q0 -51 -23 -108h-30q-21 46 -32 99h-217v-227h218v-30q-14 -28 -53 -28h-165v-265h219q11 62 31 105h30q23 -58 23 -111q0 -27 -8 -48h-28q-83 -51 -83 -113q0 -70 119 -70q3 -31 -14 -48
t-55 -17q-60 0 -92.5 32t-32.5 75q0 47 36 86.5t72 54.5z" />
    <glyph glyph-name="eogonek" unicode="&#x119;" horiz-adv-x="480" 
d="M299 -248q-60 0 -92.5 32t-32.5 75q0 40 26.5 74.5t60.5 55.5h-3q-102 0 -160 68t-58 163q0 120 62.5 189t159.5 69q90 0 134.5 -48.5t44.5 -121.5q0 -28 -3 -60h-307q-3 -78 37.5 -135t119.5 -57q63 0 119 48q6 -4 15 -15t10 -15q-38 -54 -100 -74q-83 -51 -83 -113
q0 -70 119 -70q3 -31 -14 -48t-55 -17zM358 298q0 128 -108 128q-53 0 -81.5 -37t-33.5 -91h223z" />
    <glyph glyph-name="Ecaron" unicode="&#x11a;" horiz-adv-x="570" 
d="M277 713l-107 128l29 26l114 -89l108 89l29 -26l-80 -96q-19 -22 -31 -29t-33 -7q-15 0 -29 4zM512 0h-472q0 28 15.5 38t71.5 20v542q-56 10 -71.5 20t-15.5 38h473q6 -16 6 -45q0 -51 -23 -108h-30q-21 46 -32 99h-217v-227h218v-30q-14 -28 -53 -28h-165v-265h219
q11 62 31 105h30q23 -58 23 -111q0 -27 -8 -48z" />
    <glyph glyph-name="ecaron" unicode="&#x11b;" horiz-adv-x="480" 
d="M291 538q-12 -3 -30 -3q-25 0 -38 7.5t-27 29.5q-31 48 -78 129l29 22l109 -115l105 115l29 -21zM407 104q6 -4 15 -15t10 -15q-61 -85 -174 -85q-102 0 -160 68t-58 163q0 120 62.5 189t159.5 69q90 0 134.5 -48.5t44.5 -121.5q0 -28 -3 -60h-307q-3 -78 37.5 -135
t119.5 -57q63 0 119 48zM358 298q0 128 -108 128q-53 0 -81.5 -37t-33.5 -91h223z" />
    <glyph glyph-name="Gcircumflex" unicode="&#x11c;" horiz-adv-x="677" 
d="M410 860q47 -55 102 -129l-28 -24q-53 37 -112 87q-110 -85 -112 -87l-28 24q33 42 82 97q20 22 32.5 29t33.5 7q16 0 30 -4zM587 651q6 -20 6 -49q0 -49 -27 -115h-30q-23 49 -34 111q-43 15 -117 15q-108 0 -170 -78t-62 -197q0 -74 20 -131t54 -90.5t75.5 -50
t88.5 -16.5q73 0 130 19v176q-58 5 -97 19v29q60 22 108 22q55 0 76 -23v-229q-86 -73 -231 -73q-156 0 -240 92.5t-84 230.5q0 73 22.5 136t65.5 112.5t113 78t159 28.5q116 0 174 -17z" />
    <glyph glyph-name="gcircumflex" unicode="&#x11d;" horiz-adv-x="535" 
d="M309 721q41 -64 99 -164l-29 -22l-108 115l-106 -115l-29 21q48 84 78 130q15 22 27.5 29.5t37.5 7.5q18 0 30 -2zM253 192q48 0 77.5 30t29.5 87q0 55 -30.5 86.5t-80.5 31.5q-52 0 -80 -32t-28 -84q0 -60 30.5 -89.5t81.5 -29.5zM259 478q58 0 106 -27q75 29 114 29
q20 0 32 -10t12 -28q0 -26 -9 -40q-67 9 -109 18q45 -40 45 -101q0 -91 -59 -134.5t-144 -43.5q-42 0 -78 10q-28 -12 -28 -42q0 -40 61 -47q33 -3 80.5 -5.5t64.5 -3.5q156 -9 156 -127q0 -78 -68 -126.5t-198 -48.5q-104 0 -160 32.5t-56 89.5q0 81 104 119q-59 27 -59 84
q0 55 66 90q-81 42 -81 135q0 80 58 128.5t150 48.5zM328 -30q-141 9 -163 12q-61 -27 -61 -85q0 -48 44 -69.5t101 -21.5q182 0 182 98q0 60 -103 66z" />
    <glyph glyph-name="Gbreve" unicode="&#x11e;" horiz-adv-x="677" 
d="M356 712q-63 0 -91.5 38t-25.5 90h40q9 -68 77 -68q69 0 78 68h40q3 -52 -25.5 -90t-92.5 -38zM587 651q6 -20 6 -49q0 -49 -27 -115h-30q-23 49 -34 111q-43 15 -117 15q-108 0 -170 -78t-62 -197q0 -74 20 -131t54 -90.5t75.5 -50t88.5 -16.5q73 0 130 19v176
q-58 5 -97 19v29q60 22 108 22q55 0 76 -23v-229q-86 -73 -231 -73q-156 0 -240 92.5t-84 230.5q0 73 22.5 136t65.5 112.5t113 78t159 28.5q116 0 174 -17z" />
    <glyph glyph-name="gbreve" unicode="&#x11f;" horiz-adv-x="535" 
d="M257 555q-64 0 -91.5 39t-20.5 97h40q0 -76 72 -76t72 76h40q7 -58 -20.5 -97t-91.5 -39zM253 192q48 0 77.5 30t29.5 87q0 55 -30.5 86.5t-80.5 31.5q-52 0 -80 -32t-28 -84q0 -60 30.5 -89.5t81.5 -29.5zM259 478q58 0 106 -27q75 29 114 29q20 0 32 -10t12 -28
q0 -26 -9 -40q-67 9 -109 18q45 -40 45 -101q0 -91 -59 -134.5t-144 -43.5q-42 0 -78 10q-28 -12 -28 -42q0 -40 61 -47q33 -3 80.5 -5.5t64.5 -3.5q156 -9 156 -127q0 -78 -68 -126.5t-198 -48.5q-104 0 -160 32.5t-56 89.5q0 81 104 119q-59 27 -59 84q0 55 66 90
q-81 42 -81 135q0 80 58 128.5t150 48.5zM328 -30q-141 9 -163 12q-61 -27 -61 -85q0 -48 44 -69.5t101 -21.5q182 0 182 98q0 60 -103 66z" />
    <glyph glyph-name="Gdotaccent" unicode="&#x120;" horiz-adv-x="677" 
d="M300 802q0 23 16.5 39.5t39.5 16.5t39.5 -16.5t16.5 -39.5t-16.5 -39.5t-39.5 -16.5t-39.5 16.5t-16.5 39.5zM587 651q6 -20 6 -49q0 -49 -27 -115h-30q-23 49 -34 111q-43 15 -117 15q-108 0 -170 -78t-62 -197q0 -74 20 -131t54 -90.5t75.5 -50t88.5 -16.5q73 0 130 19
v176q-58 5 -97 19v29q60 22 108 22q55 0 76 -23v-229q-86 -73 -231 -73q-156 0 -240 92.5t-84 230.5q0 73 22.5 136t65.5 112.5t113 78t159 28.5q116 0 174 -17z" />
    <glyph glyph-name="gdotaccent" unicode="&#x121;" horiz-adv-x="535" 
d="M216 634q0 23 16.5 39.5t39.5 16.5t39.5 -16.5t16.5 -39.5t-16.5 -39.5t-39.5 -16.5t-39.5 16.5t-16.5 39.5zM253 192q48 0 77.5 30t29.5 87q0 55 -30.5 86.5t-80.5 31.5q-52 0 -80 -32t-28 -84q0 -60 30.5 -89.5t81.5 -29.5zM259 478q58 0 106 -27q75 29 114 29
q20 0 32 -10t12 -28q0 -26 -9 -40q-67 9 -109 18q45 -40 45 -101q0 -91 -59 -134.5t-144 -43.5q-42 0 -78 10q-28 -12 -28 -42q0 -40 61 -47q33 -3 80.5 -5.5t64.5 -3.5q156 -9 156 -127q0 -78 -68 -126.5t-198 -48.5q-104 0 -160 32.5t-56 89.5q0 81 104 119q-59 27 -59 84
q0 55 66 90q-81 42 -81 135q0 80 58 128.5t150 48.5zM328 -30q-141 9 -163 12q-61 -27 -61 -85q0 -48 44 -69.5t101 -21.5q182 0 182 98q0 60 -103 66z" />
    <glyph glyph-name="Gcommaaccent" unicode="&#x122;" horiz-adv-x="677" 
d="M587 651q6 -20 6 -49q0 -49 -27 -115h-30q-23 49 -34 111q-43 15 -117 15q-108 0 -170 -78t-62 -197q0 -74 20 -131t54 -90.5t75.5 -50t88.5 -16.5q73 0 130 19v176q-58 5 -97 19v29q60 22 108 22q55 0 76 -23v-229q-86 -73 -231 -73q-156 0 -240 92.5t-84 230.5
q0 73 22.5 136t65.5 112.5t113 78t159 28.5q116 0 174 -17zM324 -241q-15 9 -24 18q39 74 47 158q14 4 28 4q37 0 37 -43q0 -36 -18.5 -63.5t-69.5 -73.5z" />
    <glyph glyph-name="gcommaaccent" unicode="&#x123;" horiz-adv-x="535" 
d="M293 733q15 -9 24 -18q-39 -74 -47 -158q-14 -4 -28 -4q-37 0 -37 43q0 36 18.5 63.5t69.5 73.5zM253 192q48 0 77.5 30t29.5 87q0 55 -30.5 86.5t-80.5 31.5q-52 0 -80 -32t-28 -84q0 -60 30.5 -89.5t81.5 -29.5zM259 478q58 0 106 -27q75 29 114 29q20 0 32 -10t12 -28
q0 -26 -9 -40q-67 9 -109 18q45 -40 45 -101q0 -91 -59 -134.5t-144 -43.5q-42 0 -78 10q-28 -12 -28 -42q0 -40 61 -47q33 -3 80.5 -5.5t64.5 -3.5q156 -9 156 -127q0 -78 -68 -126.5t-198 -48.5q-104 0 -160 32.5t-56 89.5q0 81 104 119q-59 27 -59 84q0 55 66 90
q-81 42 -81 135q0 80 58 128.5t150 48.5zM328 -30q-141 9 -163 12q-61 -27 -61 -85q0 -48 44 -69.5t101 -21.5q182 0 182 98q0 60 -103 66z" />
    <glyph glyph-name="Hcircumflex" unicode="&#x124;" horiz-adv-x="778" 
d="M427 860q47 -55 102 -129l-28 -24q-53 37 -112 87q-110 -85 -112 -87l-28 24q33 42 82 97q20 22 32.5 29t33.5 7q16 0 30 -4zM220 602v-233h338v233q-64 11 -92 20v36h272q0 -27 -16.5 -37t-73.5 -20v-544q57 -10 73.5 -20t16.5 -37h-272v36q28 9 92 20v257h-338v-257
q64 -11 92 -20v-36h-272q0 27 16.5 37t73.5 20v544q-57 10 -73.5 20t-16.5 37h272v-36q-28 -9 -92 -20z" />
    <glyph glyph-name="hcircumflex" unicode="&#x125;" horiz-adv-x="606" 
d="M379 721q41 -64 99 -164l-29 -22l-108 115l-96 -104h-5v68q22 38 44 72q15 22 27.5 29.5t37.5 7.5q18 0 30 -2zM500 305v-250q48 -8 80 -19v-36h-248q0 26 15 36t67 20v225q0 65 -28.5 98.5t-81.5 33.5q-38 0 -67.5 -21.5t-44.5 -52.5v-284q48 -8 80 -19v-36h-248
q0 26 15 36t67 20v589q-51 8 -81 24v26q21 11 56.5 21.5t60.5 10.5q28 0 50 -12v-318q55 81 148 81q78 0 119 -49.5t41 -123.5z" />
    <glyph glyph-name="Hbar" unicode="&#x126;" horiz-adv-x="778" 
d="M220 369h338v90h-338v-90zM312 36v-36h-272q0 27 16.5 37t73.5 20v402h-107v39q12 13 68 13h39v90q-57 10 -73.5 20t-16.5 37h272v-36q-28 -9 -92 -20v-91h338v91q-64 11 -92 20v36h272q0 -27 -16.5 -37t-73.5 -20v-90h109v-36q-15 -15 -65 -16h-44v-402q57 -10 73.5 -20
t16.5 -37h-272v36q28 9 92 20v257h-338v-257q64 -11 92 -20z" />
    <glyph glyph-name="hbar" unicode="&#x127;" horiz-adv-x="606" 
d="M272 36v-36h-248q0 26 15 36t67 20v474h-86v39q12 13 68 13h18v63q-51 8 -81 24v26q21 11 56.5 21.5t60.5 10.5q28 0 50 -12v-133h123v-36q-15 -15 -65 -16h-58v-133q55 81 148 81q78 0 119 -49.5t41 -123.5v-250q48 -8 80 -19v-36h-248q0 26 15 36t67 20v225
q0 65 -28.5 98.5t-81.5 33.5q-38 0 -67.5 -21.5t-44.5 -52.5v-284q48 -8 80 -19z" />
    <glyph glyph-name="Itilde" unicode="&#x128;" horiz-adv-x="354" 
d="M242 786q20 0 33.5 10t31.5 32l28 -15q-16 -39 -41 -65t-58 -26q-30 0 -66.5 21.5t-55.5 21.5q-31 0 -65 -41l-29 16q37 90 101 90q28 0 64.5 -22t56.5 -22zM222 601v-544q58 -10 92 -21v-36h-274q0 27 17 37.5t75 20.5v542q-58 10 -75 20.5t-17 37.5h274v-36
q-34 -11 -92 -21z" />
    <glyph glyph-name="itilde" unicode="&#x129;" horiz-adv-x="307" 
d="M221 628q14 0 26 7t17.5 13t18.5 22l28 -15q-36 -91 -96 -91q-29 0 -65 21t-55 21q-14 0 -27.5 -8t-17.5 -12.5t-17 -20.5l-29 16q37 90 98 90q27 0 63.5 -21.5t55.5 -21.5zM202 465v-410q47 -8 79 -19v-36h-248q0 26 15.5 36t67.5 20v340q-46 9 -72 23v26q59 32 113 32
q23 0 45 -12z" />
    <glyph glyph-name="Imacron" unicode="&#x12a;" horiz-adv-x="354" 
d="M50 737v44q10 13 25.5 16.5t56.5 3.5h173v-44q-10 -13 -25.5 -16.5t-56.5 -3.5h-173zM222 601v-544q58 -10 92 -21v-36h-274q0 27 17 37.5t75 20.5v542q-58 10 -75 20.5t-17 37.5h274v-36q-34 -11 -92 -21z" />
    <glyph glyph-name="imacron" unicode="&#x12b;" horiz-adv-x="307" 
d="M16 573v44q10 13 25.5 16.5t56.5 3.5h173v-44q-10 -13 -25.5 -16.5t-56.5 -3.5h-173zM202 465v-410q47 -8 79 -19v-36h-248q0 26 15.5 36t67.5 20v340q-46 9 -72 23v26q59 32 113 32q23 0 45 -12z" />
    <glyph glyph-name="Ibreve" unicode="&#x12c;" horiz-adv-x="354" 
d="M177 712q-63 0 -91.5 38t-25.5 90h40q9 -68 77 -68q69 0 78 68h40q3 -52 -25.5 -90t-92.5 -38zM222 601v-544q58 -10 92 -21v-36h-274q0 27 17 37.5t75 20.5v542q-58 10 -75 20.5t-17 37.5h274v-36q-34 -11 -92 -21z" />
    <glyph glyph-name="ibreve" unicode="&#x12d;" horiz-adv-x="307" 
d="M157 555q-64 0 -91.5 39t-20.5 97h40q0 -76 72 -76t72 76h40q7 -58 -20.5 -97t-91.5 -39zM202 465v-410q47 -8 79 -19v-36h-248q0 26 15.5 36t67.5 20v340q-46 9 -72 23v26q59 32 113 32q23 0 45 -12z" />
    <glyph glyph-name="Iogonek" unicode="&#x12e;" horiz-adv-x="354" 
d="M228 0h-188q0 27 17 37.5t75 20.5v542q-58 10 -75 20.5t-17 37.5h274v-36q-34 -11 -92 -21v-544q58 -10 92 -21v-36h-36q-83 -51 -83 -113q0 -70 119 -70q3 -31 -14 -48t-55 -17q-60 0 -92.5 32t-32.5 75q0 47 36 86.5t72 54.5z" />
    <glyph glyph-name="iogonek" unicode="&#x12f;" horiz-adv-x="307" 
d="M95 630q0 23 16.5 39.5t39.5 16.5t39.5 -16.5t16.5 -39.5t-16.5 -39.5t-39.5 -16.5t-39.5 16.5t-16.5 39.5zM168 0h-135q0 26 15.5 36t67.5 20v340q-46 9 -72 23v26q59 32 113 32q23 0 45 -12v-410q47 -8 79 -19v-36h-63q-83 -51 -83 -113q0 -70 119 -70q3 -31 -14 -48
t-55 -17q-60 0 -92.5 32t-32.5 75q0 47 36 86.5t72 54.5z" />
    <glyph glyph-name="Idotaccent" unicode="&#x130;" horiz-adv-x="354" 
d="M121 802q0 23 16.5 39.5t39.5 16.5t39.5 -16.5t16.5 -39.5t-16.5 -39.5t-39.5 -16.5t-39.5 16.5t-16.5 39.5zM222 601v-544q58 -10 92 -21v-36h-274q0 27 17 37.5t75 20.5v542q-58 10 -75 20.5t-17 37.5h274v-36q-34 -11 -92 -21z" />
    <glyph glyph-name="dotlessi" unicode="&#x131;" horiz-adv-x="307" 
d="M202 465v-410q47 -8 79 -19v-36h-248q0 26 15.5 36t67.5 20v340q-46 9 -72 23v26q59 32 113 32q23 0 45 -12z" />
    <glyph glyph-name="IJ" unicode="&#x132;" horiz-adv-x="701" 
d="M222 601v-544q58 -10 92 -21v-36h-274q0 27 17 37.5t75 20.5v542q-58 10 -75 20.5t-17 37.5h274v-36q-34 -11 -92 -21zM574 601v-493q0 -81 -20.5 -141.5t-53.5 -91.5t-66.5 -45.5t-66.5 -14.5q-43 0 -71.5 16.5t-28.5 44.5q0 33 26 51q80 -40 112 -40q42 0 60.5 37.5
t18.5 126.5v549q-58 10 -75 20.5t-17 37.5h274v-36q-34 -11 -92 -21z" />
    <glyph glyph-name="ij" unicode="&#x133;" horiz-adv-x="586" 
d="M95 630q0 23 16.5 39.5t39.5 16.5t39.5 -16.5t16.5 -39.5t-16.5 -39.5t-39.5 -16.5t-39.5 16.5t-16.5 39.5zM388 630q0 23 16.5 39.5t39.5 16.5t39.5 -16.5t16.5 -39.5t-16.5 -39.5t-39.5 -16.5t-39.5 16.5t-16.5 39.5zM202 465v-410q47 -8 79 -19v-36h-248q0 26 15.5 36
t67.5 20v340q-46 9 -72 23v26q59 32 113 32q23 0 45 -12zM410 396q-46 9 -72 23v26q59 32 113 32q23 0 45 -12v-244l1 -210q0 -124 -52.5 -191t-133.5 -67q-51 0 -77.5 17t-26.5 45q0 31 27 48q74 -37 101 -37q43 0 59 28t16 107v435z" />
    <glyph glyph-name="Jcircumflex" unicode="&#x134;" horiz-adv-x="347" 
d="M212 860q47 -55 102 -129l-28 -24q-53 37 -112 87q-110 -85 -112 -87l-28 24q33 42 82 97q20 22 32.5 29t33.5 7q16 0 30 -4zM220 601v-493q0 -81 -20.5 -141.5t-53.5 -91.5t-66.5 -45.5t-66.5 -14.5q-43 0 -71.5 16.5t-28.5 44.5q0 33 26 51q80 -40 112 -40
q42 0 60.5 37.5t18.5 126.5v549q-58 10 -75 20.5t-17 37.5h274v-36q-34 -11 -92 -21z" />
    <glyph glyph-name="jcircumflex" unicode="&#x135;" horiz-adv-x="279" 
d="M171 721q41 -64 99 -164l-29 -22l-108 115l-106 -115l-29 21q48 84 78 130q15 22 27.5 29.5t37.5 7.5q18 0 30 -2zM103 396q-46 9 -72 23v26q59 32 113 32q23 0 45 -12v-244l1 -210q0 -124 -52.5 -191t-133.5 -67q-51 0 -77.5 17t-26.5 45q0 31 27 48q74 -37 101 -37
q43 0 59 28t16 107v435z" />
    <glyph glyph-name="Kcommaaccent" unicode="&#x136;" horiz-adv-x="661" 
d="M220 602v-259l248 261q-45 9 -73 18v36h235q0 -26 -15.5 -36.5t-65.5 -19.5l-234 -242l187 -220q65 -77 126 -104v-31q-22 -16 -57 -16q-40 0 -69.5 22.5t-76.5 78.5l-205 244v-278q64 -11 92 -20v-36h-272q0 27 16.5 37t73.5 20v544q-57 10 -73.5 20t-16.5 37h264v-36
q-34 -11 -84 -20zM353 -242q-15 9 -24 18q39 74 47 158q14 4 28 4q37 0 37 -43q0 -36 -18.5 -63.5t-69.5 -73.5z" />
    <glyph glyph-name="kcommaaccent" unicode="&#x137;" horiz-adv-x="525" 
d="M192 260l163 153q-34 3 -71 9v33q44 11 82 11h81q40 0 51 -1v-33q-14 -20 -69 -21l-152 -138q34 -44 127 -150q53 -61 99 -84v-31q-24 -19 -55 -19q-29 0 -52 18t-60 64l-144 176v-193q44 -6 80 -18v-36h-248q0 26 15 36t67 20v589q-51 8 -81 24v26q21 11 56.5 21.5
t60.5 10.5q28 0 50 -12v-455zM249 -242q-15 9 -24 18q39 74 47 158q14 4 28 4q37 0 37 -43q0 -36 -18.5 -63.5t-69.5 -73.5z" />
    <glyph glyph-name="Lacute" unicode="&#x139;" horiz-adv-x="573" 
d="M89 717l-11 26q70 37 178 116q38 -9 38 -43q0 -37 -57.5 -62t-147.5 -37zM524 0h-481q0 27 16 37.5t71 19.5v544q-56 10 -71.5 20t-15.5 37h269v-36q-28 -9 -92 -20v-548h228q12 67 31 108h30q23 -58 23 -114q0 -27 -8 -48z" />
    <glyph glyph-name="lacute" unicode="&#x13a;" horiz-adv-x="302" 
d="M69 773l-20 24q82 79 145 159q27 1 42.5 -10t15.5 -31q0 -19 -16.5 -39t-50.5 -40.5t-55 -32t-61 -30.5zM194 715v-661q44 -6 80 -18v-36h-248q0 26 15 36t67 20v589q-51 8 -81 24v26q21 11 56.5 21.5t60.5 10.5q28 0 50 -12z" />
    <glyph glyph-name="Lcommaaccent" unicode="&#x13b;" horiz-adv-x="573" 
d="M524 0h-481q0 27 16 37.5t71 19.5v544q-56 10 -71.5 20t-15.5 37h269v-36q-28 -9 -92 -20v-548h228q12 67 31 108h30q23 -58 23 -114q0 -27 -8 -48zM256 -231q-15 9 -24 18q39 74 47 158q14 4 28 4q37 0 37 -43q0 -36 -18.5 -63.5t-69.5 -73.5z" />
    <glyph glyph-name="lcommaaccent" unicode="&#x13c;" horiz-adv-x="302" 
d="M194 715v-661q44 -6 80 -18v-36h-248q0 26 15 36t67 20v589q-51 8 -81 24v26q21 11 56.5 21.5t60.5 10.5q28 0 50 -12zM107 -231q-15 9 -24 18q39 74 47 158q14 4 28 4q37 0 37 -43q0 -36 -18.5 -63.5t-69.5 -73.5z" />
    <glyph glyph-name="Lcaron" unicode="&#x13d;" horiz-adv-x="573" 
d="M390 489q-15 9 -24 18q39 74 47 158q14 4 28 4q37 0 37 -43q0 -36 -18.5 -63.5t-69.5 -73.5zM524 0h-481q0 27 16 37.5t71 19.5v544q-56 10 -71.5 20t-15.5 37h269v-36q-28 -9 -92 -20v-548h228q12 67 31 108h30q23 -58 23 -114q0 -27 -8 -48z" />
    <glyph glyph-name="lcaron" unicode="&#x13e;" horiz-adv-x="348" 
d="M298 547q-15 9 -24 18q39 74 47 158q14 4 28 4q37 0 37 -43q0 -36 -18.5 -63.5t-69.5 -73.5zM194 715v-661q44 -6 80 -18v-36h-248q0 26 15 36t67 20v589q-51 8 -81 24v26q21 11 56.5 21.5t60.5 10.5q28 0 50 -12z" />
    <glyph glyph-name="Ldot" unicode="&#x13f;" horiz-adv-x="573" 
d="M524 0h-481q0 27 16 37.5t71 19.5v544q-56 10 -71.5 20t-15.5 37h269v-36q-28 -9 -92 -20v-548h228q12 67 31 108h30q23 -58 23 -114q0 -27 -8 -48zM314 358q0 24 16.5 40.5t40.5 16.5t40.5 -16.5t16.5 -40.5t-16.5 -40.5t-40.5 -16.5t-40.5 16.5t-16.5 40.5z" />
    <glyph glyph-name="ldot" unicode="&#x140;" horiz-adv-x="378" 
d="M194 715v-661q44 -6 80 -18v-36h-248q0 26 15 36t67 20v589q-51 8 -81 24v26q21 11 56.5 21.5t60.5 10.5q28 0 50 -12zM253 364q0 24 16.5 40.5t40.5 16.5t40.5 -16.5t16.5 -40.5t-16.5 -40.5t-40.5 -16.5t-40.5 16.5t-16.5 40.5z" />
    <glyph glyph-name="Lslash" unicode="&#x141;" horiz-adv-x="573" 
d="M524 0h-481q0 27 16 37.5t71 19.5v155l-90 -40l-16 24q2 17 12.5 27.5t38.5 23.5l55 25v329q-56 10 -71.5 20t-15.5 37h269v-36q-28 -9 -92 -20v-289l178 81l17 -27q-4 -30 -50 -51l-145 -64v-198h228q12 67 31 108h30q23 -58 23 -114q0 -27 -8 -48z" />
    <glyph glyph-name="lslash" unicode="&#x142;" horiz-adv-x="322" 
d="M204 715v-295l91 54l21 -26q-1 -30 -46 -55l-66 -39v-300q44 -6 80 -18v-36h-248q0 26 15 36t67 20v248l-92 -53l-19 24q1 29 45 55l66 39v276q-51 8 -81 24v26q21 11 56.5 21.5t60.5 10.5q28 0 50 -12z" />
    <glyph glyph-name="Nacute" unicode="&#x143;" horiz-adv-x="767" 
d="M291 717l-11 26q70 37 178 116q38 -9 38 -43q0 -37 -57.5 -62t-147.5 -37zM130 57v543q-52 10 -66.5 20t-14.5 38h108q28 0 44 -8t31 -29l344 -502v483q-64 11 -92 20v36h248q0 -27 -16.5 -37t-73.5 -20v-499q0 -33 -3.5 -54t-18 -38t-41.5 -17h-19l-364 524v-461
q66 -11 93 -20v-36h-249q0 27 16.5 37t73.5 20z" />
    <glyph glyph-name="nacute" unicode="&#x144;" horiz-adv-x="615" 
d="M230 540l-20 24q82 79 145 159q27 1 42.5 -10t15.5 -31q0 -19 -16.5 -39t-50.5 -40.5t-55 -32t-61 -30.5zM509 305v-250q48 -8 80 -19v-36h-248q0 26 15 36t67 20v225q0 65 -28.5 98.5t-81.5 33.5q-75 0 -112 -74v-284q48 -8 80 -19v-36h-248q0 26 15 36t67 20v340
q-46 9 -72 23v26q59 32 113 32q22 0 44 -12v-69q53 82 148 82q78 0 119.5 -49t41.5 -124z" />
    <glyph glyph-name="Ncommaaccent" unicode="&#x145;" horiz-adv-x="767" 
d="M130 57v543q-52 10 -66.5 20t-14.5 38h108q28 0 44 -8t31 -29l344 -502v483q-64 11 -92 20v36h248q0 -27 -16.5 -37t-73.5 -20v-499q0 -33 -3.5 -54t-18 -38t-41.5 -17h-19l-364 524v-461q66 -11 93 -20v-36h-249q0 27 16.5 37t73.5 20zM356 -238q-15 9 -24 18
q39 74 47 158q14 4 28 4q37 0 37 -43q0 -36 -18.5 -63.5t-69.5 -73.5z" />
    <glyph glyph-name="ncommaaccent" unicode="&#x146;" horiz-adv-x="615" 
d="M509 305v-250q48 -8 80 -19v-36h-248q0 26 15 36t67 20v225q0 65 -28.5 98.5t-81.5 33.5q-75 0 -112 -74v-284q48 -8 80 -19v-36h-248q0 26 15 36t67 20v340q-46 9 -72 23v26q59 32 113 32q22 0 44 -12v-69q53 82 148 82q78 0 119.5 -49t41.5 -124zM279 -231
q-15 9 -24 18q39 74 47 158q14 4 28 4q37 0 37 -43q0 -36 -18.5 -63.5t-69.5 -73.5z" />
    <glyph glyph-name="Ncaron" unicode="&#x147;" horiz-adv-x="767" 
d="M355 713l-107 128l29 26l114 -89l108 89l29 -26l-80 -96q-19 -22 -31 -29t-33 -7q-15 0 -29 4zM130 57v543q-52 10 -66.5 20t-14.5 38h108q28 0 44 -8t31 -29l344 -502v483q-64 11 -92 20v36h248q0 -27 -16.5 -37t-73.5 -20v-499q0 -33 -3.5 -54t-18 -38t-41.5 -17h-19
l-364 524v-461q66 -11 93 -20v-36h-249q0 27 16.5 37t73.5 20z" />
    <glyph glyph-name="ncaron" unicode="&#x148;" horiz-adv-x="615" 
d="M348 538q-12 -3 -30 -3q-25 0 -38 7.5t-27 29.5q-31 48 -78 129l29 22l109 -115l105 115l29 -21zM509 305v-250q48 -8 80 -19v-36h-248q0 26 15 36t67 20v225q0 65 -28.5 98.5t-81.5 33.5q-75 0 -112 -74v-284q48 -8 80 -19v-36h-248q0 26 15 36t67 20v340q-46 9 -72 23
v26q59 32 113 32q22 0 44 -12v-69q53 82 148 82q78 0 119.5 -49t41.5 -124z" />
    <glyph glyph-name="Eng" unicode="&#x14a;" horiz-adv-x="767" 
d="M457 -247q-51 0 -77.5 17t-26.5 45q0 31 27 48q74 -37 101 -37q47 0 71 29.5t24 105.5v9l-380 547v-461q66 -11 93 -20v-36h-249q0 27 16.5 37t73.5 20v543q-52 10 -66.5 20t-14.5 38h108q28 0 44 -8t31 -29l344 -502v483q-64 11 -92 20v36h248q0 -27 -16.5 -37
t-73.5 -20v-590q0 -124 -52 -191t-133 -67z" />
    <glyph glyph-name="eng" unicode="&#x14b;" horiz-adv-x="597" 
d="M324 -247q-51 0 -77.5 17t-26.5 45q0 31 27 48q74 -37 101 -37q43 0 59 28t16 107v320q0 65 -28.5 98.5t-81.5 33.5q-75 0 -112 -74v-284q48 -8 80 -19v-36h-248q0 26 15 36t67 20v340q-46 9 -72 23v26q59 32 113 32q22 0 44 -12v-69q53 82 148 82q78 0 119.5 -49
t41.5 -124v-294q0 -124 -52 -191t-133 -67z" />
    <glyph glyph-name="Omacron" unicode="&#x14c;" horiz-adv-x="749" 
d="M247 737v44q10 13 25.5 16.5t56.5 3.5h173v-44q-10 -13 -25.5 -16.5t-56.5 -3.5h-173zM53 322q0 153 93 250t233 97q138 0 227.5 -87t89.5 -243q0 -153 -94.5 -251.5t-235.5 -98.5q-137 0 -225 88t-88 245zM153 328q0 -129 61.5 -205t160.5 -76q100 0 160.5 78t60.5 208
q0 129 -61.5 204t-161.5 75t-160 -76.5t-60 -207.5z" />
    <glyph glyph-name="omacron" unicode="&#x14d;" horiz-adv-x="547" 
d="M146 573v44q10 13 25.5 16.5t56.5 3.5h173v-44q-10 -13 -25.5 -16.5t-56.5 -3.5h-173zM42 227q0 105 65.5 178t171.5 73q103 0 164.5 -64t61.5 -173q0 -105 -65.5 -178.5t-171.5 -73.5q-103 0 -164.5 65t-61.5 173zM135 234q0 -87 36.5 -139t103.5 -52q64 0 101 52.5
t37 138.5q0 87 -36.5 138.5t-103.5 51.5q-63 0 -100.5 -52t-37.5 -138z" />
    <glyph glyph-name="Obreve" unicode="&#x14e;" horiz-adv-x="749" 
d="M370 708q-63 0 -91.5 38t-25.5 90h40q9 -68 77 -68q69 0 78 68h40q3 -52 -25.5 -90t-92.5 -38zM53 322q0 153 93 250t233 97q138 0 227.5 -87t89.5 -243q0 -153 -94.5 -251.5t-235.5 -98.5q-137 0 -225 88t-88 245zM153 328q0 -129 61.5 -205t160.5 -76q100 0 160.5 78
t60.5 208q0 129 -61.5 204t-161.5 75t-160 -76.5t-60 -207.5z" />
    <glyph glyph-name="obreve" unicode="&#x14f;" horiz-adv-x="547" 
d="M285 555q-64 0 -91.5 39t-20.5 97h40q0 -76 72 -76t72 76h40q7 -58 -20.5 -97t-91.5 -39zM42 227q0 105 65.5 178t171.5 73q103 0 164.5 -64t61.5 -173q0 -105 -65.5 -178.5t-171.5 -73.5q-103 0 -164.5 65t-61.5 173zM135 234q0 -87 36.5 -139t103.5 -52q64 0 101 52.5
t37 138.5q0 87 -36.5 138.5t-103.5 51.5q-63 0 -100.5 -52t-37.5 -138z" />
    <glyph glyph-name="Ohungarumlaut" unicode="&#x150;" horiz-adv-x="749" 
d="M247 707l-19 25q101 89 131 127q19 -1 32 -11t13 -29q0 -29 -33.5 -51t-123.5 -61zM425 707l-19 25q5 5 31 28l37.5 33.5t30 29.5t31.5 36q19 -1 32 -11t13 -29q0 -29 -33 -51t-123 -61zM53 322q0 153 93 250t233 97q138 0 227.5 -87t89.5 -243q0 -153 -94.5 -251.5
t-235.5 -98.5q-137 0 -225 88t-88 245zM153 328q0 -129 61.5 -205t160.5 -76q100 0 160.5 78t60.5 208q0 129 -61.5 204t-161.5 75t-160 -76.5t-60 -207.5z" />
    <glyph glyph-name="ohungarumlaut" unicode="&#x151;" horiz-adv-x="547" 
d="M138 546l-24 22q52 66 102 166q7 1 14 1q39 0 39 -38q0 -34 -31 -67t-100 -84zM302 546l-24 22q52 66 102 166q7 1 14 1q39 0 39 -38q0 -34 -31 -67t-100 -84zM42 227q0 105 65.5 178t171.5 73q103 0 164.5 -64t61.5 -173q0 -105 -65.5 -178.5t-171.5 -73.5
q-103 0 -164.5 65t-61.5 173zM135 234q0 -87 36.5 -139t103.5 -52q64 0 101 52.5t37 138.5q0 87 -36.5 138.5t-103.5 51.5q-63 0 -100.5 -52t-37.5 -138z" />
    <glyph glyph-name="OE" unicode="&#x152;" horiz-adv-x="896" 
d="M385 48q34 0 68 8v547q-34 10 -75 10q-107 0 -166 -79t-59 -206q0 -130 62 -205t170 -75zM468 658h371q6 -16 6 -45q0 -51 -23 -108h-30q-21 46 -32 99h-217v-227h218v-30q-14 -28 -53 -28h-165v-265h219q11 62 31 105h30q23 -58 23 -111q0 -27 -8 -48h-378
q-55 -11 -91 -11q-142 0 -229 89t-87 243t92.5 251t232.5 97q50 0 90 -11z" />
    <glyph glyph-name="oe" unicode="&#x153;" horiz-adv-x="852" 
d="M778 101q6 -3 15 -14t11 -16q-61 -82 -170 -82q-132 0 -182 96q-59 -96 -184 -96q-103 0 -164.5 65t-61.5 173q0 105 66 178t173 73q127 0 184 -97q25 44 68.5 70.5t100.5 26.5q92 0 135.5 -50.5t43.5 -139.5q0 -19 -2 -61h-305q-2 -74 36 -122.5t118 -48.5q63 0 118 45z
M730 277q0 77 -25.5 113.5t-82.5 36.5q-54 0 -82.5 -43.5t-29.5 -106.5h220zM136 235q0 -87 37 -139t104 -52q63 0 100 52.5t37 138.5q0 87 -37 138.5t-104 51.5q-63 0 -100 -52t-37 -138z" />
    <glyph glyph-name="Racute" unicode="&#x154;" horiz-adv-x="663" 
d="M222 717l-11 26q70 37 178 116q38 -9 38 -43q0 -37 -57.5 -62t-147.5 -37zM220 288v-232q64 -11 92 -20v-36h-272q0 27 16.5 37t73.5 20v543q-56 10 -71.5 20t-15.5 38h124q23 0 88 1.5t78 1.5q104 0 160.5 -44t56.5 -129q0 -57 -35.5 -106t-99.5 -74l104 -153
q32 -48 59.5 -75.5t64.5 -43.5v-31q-23 -16 -55 -16q-36 0 -63.5 21t-68.5 81l-132 196q-49 -6 -104 1zM306 610q-63 0 -86 -3v-266q58 -11 99 -3.5t67 20t40.5 35.5t20 43.5t5.5 43.5q0 130 -146 130z" />
    <glyph glyph-name="racute" unicode="&#x155;" horiz-adv-x="395" 
d="M138 540l-20 24q82 79 145 159q27 1 42.5 -10t15.5 -31q0 -19 -16.5 -39t-50.5 -40.5t-55 -32t-61 -30.5zM201 465v-94q36 56 62 81.5t57 25.5q21 0 34 -12.5t13 -33.5q0 -28 -17 -50q-37 2 -61 1t-43.5 -12.5t-44.5 -42.5v-273q46 -7 88 -19v-36h-256q0 26 15 36t67 20
v340q-46 9 -72 23v26q59 32 113 32q23 0 45 -12z" />
    <glyph glyph-name="Rcommaaccent" unicode="&#x156;" horiz-adv-x="663" 
d="M220 288v-232q64 -11 92 -20v-36h-272q0 27 16.5 37t73.5 20v543q-56 10 -71.5 20t-15.5 38h124q23 0 88 1.5t78 1.5q104 0 160.5 -44t56.5 -129q0 -57 -35.5 -106t-99.5 -74l104 -153q32 -48 59.5 -75.5t64.5 -43.5v-31q-23 -16 -55 -16q-36 0 -63.5 21t-68.5 81
l-132 196q-49 -6 -104 1zM306 610q-63 0 -86 -3v-266q58 -11 99 -3.5t67 20t40.5 35.5t20 43.5t5.5 43.5q0 130 -146 130zM333 -242q-15 9 -24 18q39 74 47 158q14 4 28 4q37 0 37 -43q0 -36 -18.5 -63.5t-69.5 -73.5z" />
    <glyph glyph-name="rcommaaccent" unicode="&#x157;" horiz-adv-x="395" 
d="M201 465v-94q36 56 62 81.5t57 25.5q21 0 34 -12.5t13 -33.5q0 -28 -17 -50q-37 2 -61 1t-43.5 -12.5t-44.5 -42.5v-273q46 -7 88 -19v-36h-256q0 26 15 36t67 20v340q-46 9 -72 23v26q59 32 113 32q23 0 45 -12zM115 -231q-15 9 -24 18q39 74 47 158q14 4 28 4
q37 0 37 -43q0 -36 -18.5 -63.5t-69.5 -73.5z" />
    <glyph glyph-name="Rcaron" unicode="&#x158;" horiz-adv-x="663" 
d="M265 713l-107 128l29 26l114 -89l108 89l29 -26l-80 -96q-19 -22 -31 -29t-33 -7q-15 0 -29 4zM220 288v-232q64 -11 92 -20v-36h-272q0 27 16.5 37t73.5 20v543q-56 10 -71.5 20t-15.5 38h124q23 0 88 1.5t78 1.5q104 0 160.5 -44t56.5 -129q0 -57 -35.5 -106t-99.5 -74
l104 -153q32 -48 59.5 -75.5t64.5 -43.5v-31q-23 -16 -55 -16q-36 0 -63.5 21t-68.5 81l-132 196q-49 -6 -104 1zM306 610q-63 0 -86 -3v-266q58 -11 99 -3.5t67 20t40.5 35.5t20 43.5t5.5 43.5q0 130 -146 130z" />
    <glyph glyph-name="rcaron" unicode="&#x159;" horiz-adv-x="395" 
d="M256 538q-12 -3 -30 -3q-25 0 -38 7.5t-27 29.5q-31 48 -78 129l29 22l109 -115l105 115l29 -21zM201 465v-94q36 56 62 81.5t57 25.5q21 0 34 -12.5t13 -33.5q0 -28 -17 -50q-37 2 -61 1t-43.5 -12.5t-44.5 -42.5v-273q46 -7 88 -19v-36h-256q0 26 15 36t67 20v340
q-46 9 -72 23v26q59 32 113 32q23 0 45 -12z" />
    <glyph glyph-name="Sacute" unicode="&#x15a;" horiz-adv-x="539" 
d="M182 717l-11 26q70 37 178 116q38 -9 38 -43q0 -37 -57.5 -62t-147.5 -37zM69 501q0 78 56.5 122.5t166.5 44.5q90 0 165 -16q18 -54 -17 -154h-30q-23 41 -34 101q-43 13 -95 13q-61 0 -93.5 -26t-32.5 -74q0 -67 80 -103q23 -11 100 -39q76 -28 114.5 -71.5
t38.5 -115.5q0 -96 -62 -145t-169 -49q-122 0 -203 50q-8 39 -0.5 81t24.5 77h31q23 -52 30 -117q49 -33 124 -33q63 0 99.5 31t36.5 83q0 49 -24 75.5t-72 45.5q-22 9 -47.5 18.5l-43 16.5t-40.5 19q-103 52 -103 165z" />
    <glyph glyph-name="sacute" unicode="&#x15b;" horiz-adv-x="427" 
d="M147 540l-20 24q82 79 145 159q27 1 42.5 -10t15.5 -31q0 -19 -16.5 -39t-50.5 -40.5t-55 -32t-61 -30.5zM210 -11q-98 0 -161 37q-4 13 -4 34q0 44 24 94h27q18 -35 29 -93q32 -21 89 -21q93 0 93 76q0 29 -17 45.5t-57 29.5l-80 28q-96 36 -96 128q0 60 46 95.5
t127 35.5q80 0 131 -15q4 -14 4 -34q0 -38 -24 -93h-27q-16 31 -27 81q-26 10 -63 10q-88 0 -88 -64q0 -47 53 -66q18 -7 46.5 -16t39.5 -13q56 -20 82.5 -49t26.5 -87q0 -65 -47 -104t-127 -39z" />
    <glyph glyph-name="Scircumflex" unicode="&#x15c;" horiz-adv-x="539" 
d="M317 860q47 -55 102 -129l-28 -24q-53 37 -112 87q-110 -85 -112 -87l-28 24q33 42 82 97q20 22 32.5 29t33.5 7q16 0 30 -4zM69 501q0 78 56.5 122.5t166.5 44.5q90 0 165 -16q18 -54 -17 -154h-30q-23 41 -34 101q-43 13 -95 13q-61 0 -93.5 -26t-32.5 -74
q0 -67 80 -103q23 -11 100 -39q76 -28 114.5 -71.5t38.5 -115.5q0 -96 -62 -145t-169 -49q-122 0 -203 50q-8 39 -0.5 81t24.5 77h31q23 -52 30 -117q49 -33 124 -33q63 0 99.5 31t36.5 83q0 49 -24 75.5t-72 45.5q-22 9 -47.5 18.5l-43 16.5t-40.5 19q-103 52 -103 165z
" />
    <glyph glyph-name="scircumflex" unicode="&#x15d;" horiz-adv-x="427" 
d="M265 721q41 -64 99 -164l-29 -22l-108 115l-106 -115l-29 21q48 84 78 130q15 22 27.5 29.5t37.5 7.5q18 0 30 -2zM210 -11q-98 0 -161 37q-4 13 -4 34q0 44 24 94h27q18 -35 29 -93q32 -21 89 -21q93 0 93 76q0 29 -17 45.5t-57 29.5l-80 28q-96 36 -96 128
q0 60 46 95.5t127 35.5q80 0 131 -15q4 -14 4 -34q0 -38 -24 -93h-27q-16 31 -27 81q-26 10 -63 10q-88 0 -88 -64q0 -47 53 -66q18 -7 46.5 -16t39.5 -13q56 -20 82.5 -49t26.5 -87q0 -65 -47 -104t-127 -39z" />
    <glyph glyph-name="Scedilla" unicode="&#x15e;" horiz-adv-x="539" 
d="M247 -233q-108 0 -108 57q0 19 16 29.5t37 10.5q11 -32 25 -46t38 -14q19 0 31 14t12 36q0 58 -100 62v21q14 19 54 52q-121 1 -198 50q-8 39 -0.5 81t24.5 77h31q23 -52 30 -117q49 -33 124 -33q63 0 99.5 31t36.5 83q0 49 -24 75.5t-72 45.5q-22 9 -47.5 18.5l-43 16.5
t-40.5 19q-103 52 -103 165q0 78 56.5 122.5t166.5 44.5q90 0 165 -16q18 -54 -17 -154h-30q-23 41 -34 101q-43 13 -95 13q-61 0 -93.5 -26t-32.5 -74q0 -67 80 -103q23 -11 100 -39q76 -28 114.5 -71.5t38.5 -115.5q0 -85 -49.5 -133.5t-137.5 -58.5l-35 -49
q102 -6 102 -84q0 -42 -32.5 -66.5t-88.5 -24.5z" />
    <glyph glyph-name="scedilla" unicode="&#x15f;" horiz-adv-x="427" 
d="M196 -233q-108 0 -108 57q0 19 16 29.5t37 10.5q11 -32 25 -46t38 -14q19 0 31 14t12 36q0 58 -100 62v21q11 15 54 52q-94 3 -152 37q-4 13 -4 34q0 44 24 94h27q18 -35 29 -93q32 -21 89 -21q93 0 93 76q0 29 -17 45.5t-57 29.5l-80 28q-96 36 -96 128q0 60 46 95.5
t127 35.5q80 0 131 -15q4 -14 4 -34q0 -38 -24 -93h-27q-16 31 -27 81q-26 10 -63 10q-88 0 -88 -64q0 -47 53 -66q18 -7 46.5 -16t39.5 -13q56 -20 82.5 -49t26.5 -87q0 -57 -35.5 -94t-98.5 -46l-35 -50q102 -6 102 -84q0 -42 -32.5 -66.5t-88.5 -24.5z" />
    <glyph glyph-name="Scaron" unicode="&#x160;" horiz-adv-x="539" 
d="M249 711l-107 128l29 26l114 -89l108 89l29 -26l-80 -96q-19 -22 -31 -29t-33 -7q-15 0 -29 4zM69 501q0 78 56.5 122.5t166.5 44.5q90 0 165 -16q18 -54 -17 -154h-30q-23 41 -34 101q-43 13 -95 13q-61 0 -93.5 -26t-32.5 -74q0 -67 80 -103q23 -11 100 -39
q76 -28 114.5 -71.5t38.5 -115.5q0 -96 -62 -145t-169 -49q-122 0 -203 50q-8 39 -0.5 81t24.5 77h31q23 -52 30 -117q49 -33 124 -33q63 0 99.5 31t36.5 83q0 49 -24 75.5t-72 45.5q-22 9 -47.5 18.5l-43 16.5t-40.5 19q-103 52 -103 165z" />
    <glyph glyph-name="scaron" unicode="&#x161;" horiz-adv-x="427" 
d="M247 538q-12 -3 -30 -3q-25 0 -38 7.5t-27 29.5q-31 48 -78 129l29 22l109 -115l105 115l29 -21zM210 -11q-98 0 -161 37q-4 13 -4 34q0 44 24 94h27q18 -35 29 -93q32 -21 89 -21q93 0 93 76q0 29 -17 45.5t-57 29.5l-80 28q-96 36 -96 128q0 60 46 95.5t127 35.5
q80 0 131 -15q4 -14 4 -34q0 -38 -24 -93h-27q-16 31 -27 81q-26 10 -63 10q-88 0 -88 -64q0 -47 53 -66q18 -7 46.5 -16t39.5 -13q56 -20 82.5 -49t26.5 -87q0 -65 -47 -104t-127 -39z" />
    <glyph glyph-name="Tcommaaccent" unicode="&#x162;" horiz-adv-x="632" 
d="M272 604h-152q-12 -61 -32 -105h-30q-23 57 -23 112q0 31 6 47h550q6 -16 6 -47q0 -55 -23 -112h-30q-20 44 -32 105h-150v-549q55 -7 88 -17v-38h-273q1 27 20 39t75 18v547zM271 -231q-15 9 -24 18q39 74 47 158q14 4 28 4q37 0 37 -43q0 -36 -18.5 -63.5t-69.5 -73.5z
" />
    <glyph glyph-name="tcommaaccent" unicode="&#x163;" horiz-adv-x="388" 
d="M285 410h-105q-2 -200 -2 -268q0 -41 20 -64t57 -23q41 0 93 31q4 -2 12.5 -15.5t10.5 -18.5q-16 -22 -56.5 -42.5t-84.5 -20.5q-138 0 -138 143q0 37 1 139t1 139q-38 4 -71 15v36q26 3 71 5q5 52 17 76.5t26.5 30t45.5 5.5q-2 -48 -3 -112h187v-35q-9 -12 -26 -16.5
t-56 -4.5zM165 -242q-15 9 -24 18q39 74 47 158q14 4 28 4q37 0 37 -43q0 -36 -18.5 -63.5t-69.5 -73.5z" />
    <glyph glyph-name="Tcaron" unicode="&#x164;" horiz-adv-x="632" 
d="M283 713l-107 128l29 26l114 -89l108 89l29 -26l-80 -96q-19 -22 -31 -29t-33 -7q-15 0 -29 4zM272 604h-152q-12 -61 -32 -105h-30q-23 57 -23 112q0 31 6 47h550q6 -16 6 -47q0 -55 -23 -112h-30q-20 44 -32 105h-150v-549q55 -7 88 -17v-38h-273q1 27 20 39t75 18v547
z" />
    <glyph glyph-name="tcaron" unicode="&#x165;" horiz-adv-x="416" 
d="M225 410h-45q-2 -200 -2 -268q0 -41 20 -64t57 -23q41 0 93 31q4 -2 12.5 -15.5t10.5 -18.5q-16 -22 -56.5 -42.5t-84.5 -20.5q-138 0 -138 143q0 37 1 139t1 139q-38 4 -71 15v36q26 3 71 5q5 52 17 76.5t26.5 30t45.5 5.5q-2 -48 -3 -112h127v-35q-9 -12 -26 -16.5
t-56 -4.5zM353 398q-15 9 -24 18q39 74 47 158q14 4 28 4q37 0 37 -43q0 -36 -18.5 -63.5t-69.5 -73.5z" />
    <glyph glyph-name="Tbar" unicode="&#x166;" horiz-adv-x="632" 
d="M450 38v-38h-273q1 27 20 39t75 18v251h-131v39q12 13 68 13h63v244h-152q-12 -61 -32 -105h-30q-23 57 -23 112q0 31 6 47h550q6 -16 6 -47q0 -55 -23 -112h-30q-20 44 -32 105h-150v-244h130v-36q-15 -15 -65 -16h-65v-253q55 -7 88 -17z" />
    <glyph glyph-name="tbar" unicode="&#x167;" horiz-adv-x="388" 
d="M371 52q-16 -22 -56.5 -42.5t-84.5 -20.5q-138 0 -138 143q0 75 1 119h-70v39q12 13 68 13h2q1 40 1 107q-38 4 -71 15v36q26 3 71 5q5 52 17 76.5t26.5 30t45.5 5.5q-2 -48 -3 -112h187v-35q-9 -12 -26 -16.5t-56 -4.5h-105q0 -18 -0.5 -54t-0.5 -53h169v-36
q-15 -15 -65 -16h-104q-1 -46 -1 -109q0 -41 20 -64t57 -23q41 0 93 31q4 -2 12.5 -15.5t10.5 -18.5z" />
    <glyph glyph-name="Utilde" unicode="&#x168;" horiz-adv-x="771" 
d="M464 786q20 0 33.5 10t31.5 32l28 -15q-16 -39 -41 -65t-58 -26q-30 0 -66.5 21.5t-55.5 21.5q-31 0 -65 -41l-29 16q37 90 101 90q28 0 64.5 -22t56.5 -22zM580 268v334q-77 11 -100 20v36h260q0 -27 -16.5 -37t-73.5 -20l-1 -340q0 -124 -69 -198.5t-186 -74.5
q-134 0 -203.5 65t-69.5 208v340q-57 10 -73.5 20t-16.5 37h280v-36q-23 -9 -100 -20v-334q0 -104 45 -159t146 -55q178 0 178 214z" />
    <glyph glyph-name="utilde" unicode="&#x169;" horiz-adv-x="577" 
d="M344 628q14 0 26 7t17.5 13t18.5 22l28 -15q-36 -91 -96 -91q-29 0 -65 21t-55 21q-14 0 -27.5 -8t-17.5 -12.5t-17 -20.5l-29 16q37 90 98 90q27 0 63.5 -21.5t55.5 -21.5zM482 465q-1 -80 -1.5 -202.5t-1.5 -165.5q43 -14 64 -24v-33q-16 -19 -41.5 -33.5t-45.5 -14.5
q-24 0 -51 84q-61 -87 -156 -87q-74 0 -114.5 45t-40.5 129q0 98 3 233q-45 9 -71 23v26q59 32 112 32q23 0 45 -12q-3 -159 -3 -287q0 -59 26.5 -91t74.5 -32q72 0 112 73l3 267q-49 7 -80 24v26q59 32 121 32q23 0 45 -12z" />
    <glyph glyph-name="Umacron" unicode="&#x16a;" horiz-adv-x="771" 
d="M272 737v44q10 13 25.5 16.5t56.5 3.5h173v-44q-10 -13 -25.5 -16.5t-56.5 -3.5h-173zM580 268v334q-77 11 -100 20v36h260q0 -27 -16.5 -37t-73.5 -20l-1 -340q0 -124 -69 -198.5t-186 -74.5q-134 0 -203.5 65t-69.5 208v340q-57 10 -73.5 20t-16.5 37h280v-36
q-23 -9 -100 -20v-334q0 -104 45 -159t146 -55q178 0 178 214z" />
    <glyph glyph-name="umacron" unicode="&#x16b;" horiz-adv-x="577" 
d="M153 573v44q10 13 25.5 16.5t56.5 3.5h173v-44q-10 -13 -25.5 -16.5t-56.5 -3.5h-173zM482 465q-1 -80 -1.5 -202.5t-1.5 -165.5q43 -14 64 -24v-33q-16 -19 -41.5 -33.5t-45.5 -14.5q-24 0 -51 84q-61 -87 -156 -87q-74 0 -114.5 45t-40.5 129q0 98 3 233q-45 9 -71 23
v26q59 32 112 32q23 0 45 -12q-3 -159 -3 -287q0 -59 26.5 -91t74.5 -32q72 0 112 73l3 267q-49 7 -80 24v26q59 32 121 32q23 0 45 -12z" />
    <glyph glyph-name="Ubreve" unicode="&#x16c;" horiz-adv-x="771" 
d="M399 712q-63 0 -91.5 38t-25.5 90h40q9 -68 77 -68q69 0 78 68h40q3 -52 -25.5 -90t-92.5 -38zM580 268v334q-77 11 -100 20v36h260q0 -27 -16.5 -37t-73.5 -20l-1 -340q0 -124 -69 -198.5t-186 -74.5q-134 0 -203.5 65t-69.5 208v340q-57 10 -73.5 20t-16.5 37h280v-36
q-23 -9 -100 -20v-334q0 -104 45 -159t146 -55q178 0 178 214z" />
    <glyph glyph-name="ubreve" unicode="&#x16d;" horiz-adv-x="577" 
d="M280 555q-64 0 -91.5 39t-20.5 97h40q0 -76 72 -76t72 76h40q7 -58 -20.5 -97t-91.5 -39zM482 465q-1 -80 -1.5 -202.5t-1.5 -165.5q43 -14 64 -24v-33q-16 -19 -41.5 -33.5t-45.5 -14.5q-24 0 -51 84q-61 -87 -156 -87q-74 0 -114.5 45t-40.5 129q0 98 3 233
q-45 9 -71 23v26q59 32 112 32q23 0 45 -12q-3 -159 -3 -287q0 -59 26.5 -91t74.5 -32q72 0 112 73l3 267q-49 7 -80 24v26q59 32 121 32q23 0 45 -12z" />
    <glyph glyph-name="Uring" unicode="&#x16e;" horiz-adv-x="771" 
d="M399 878q44 0 72.5 -21.5t28.5 -61.5q0 -38 -27.5 -62.5t-72.5 -24.5q-44 0 -73 22t-29 62q0 37 27 61.5t74 24.5zM400 744q23 0 37.5 14.5t14.5 35.5q0 22 -15 36t-39 14q-23 0 -37 -14.5t-14 -36.5t15 -35.5t38 -13.5zM580 268v334q-77 11 -100 20v36h260
q0 -27 -16.5 -37t-73.5 -20l-1 -340q0 -124 -69 -198.5t-186 -74.5q-134 0 -203.5 65t-69.5 208v340q-57 10 -73.5 20t-16.5 37h280v-36q-23 -9 -100 -20v-334q0 -104 45 -159t146 -55q178 0 178 214z" />
    <glyph glyph-name="uring" unicode="&#x16f;" horiz-adv-x="577" 
d="M281 725q46 0 76 -24t30 -69q0 -43 -29.5 -71.5t-76.5 -28.5q-45 0 -76 24t-31 69q0 43 29 71.5t78 28.5zM282 570q25 0 39.5 16.5t14.5 42.5q0 25 -16 42t-40 17q-25 0 -39.5 -17t-14.5 -43q0 -25 16 -41.5t40 -16.5zM482 465q-1 -80 -1.5 -202.5t-1.5 -165.5
q43 -14 64 -24v-33q-16 -19 -41.5 -33.5t-45.5 -14.5q-24 0 -51 84q-61 -87 -156 -87q-74 0 -114.5 45t-40.5 129q0 98 3 233q-45 9 -71 23v26q59 32 112 32q23 0 45 -12q-3 -159 -3 -287q0 -59 26.5 -91t74.5 -32q72 0 112 73l3 267q-49 7 -80 24v26q59 32 121 32
q23 0 45 -12z" />
    <glyph glyph-name="Uhungarumlaut" unicode="&#x170;" horiz-adv-x="771" 
d="M271 707l-19 25q101 89 131 127q19 -1 32 -11t13 -29q0 -29 -33.5 -51t-123.5 -61zM449 707l-19 25q5 5 31 28l37.5 33.5t30 29.5t31.5 36q19 -1 32 -11t13 -29q0 -29 -33 -51t-123 -61zM580 268v334q-77 11 -100 20v36h260q0 -27 -16.5 -37t-73.5 -20l-1 -340
q0 -124 -69 -198.5t-186 -74.5q-134 0 -203.5 65t-69.5 208v340q-57 10 -73.5 20t-16.5 37h280v-36q-23 -9 -100 -20v-334q0 -104 45 -159t146 -55q178 0 178 214z" />
    <glyph glyph-name="uhungarumlaut" unicode="&#x171;" horiz-adv-x="577" 
d="M163 546l-24 22q52 66 102 166q7 1 14 1q39 0 39 -38q0 -34 -31 -67t-100 -84zM327 546l-24 22q52 66 102 166q7 1 14 1q39 0 39 -38q0 -34 -31 -67t-100 -84zM482 465q-1 -80 -1.5 -202.5t-1.5 -165.5q43 -14 64 -24v-33q-16 -19 -41.5 -33.5t-45.5 -14.5q-24 0 -51 84
q-61 -87 -156 -87q-74 0 -114.5 45t-40.5 129q0 98 3 233q-45 9 -71 23v26q59 32 112 32q23 0 45 -12q-3 -159 -3 -287q0 -59 26.5 -91t74.5 -32q72 0 112 73l3 267q-49 7 -80 24v26q59 32 121 32q23 0 45 -12z" />
    <glyph glyph-name="Uogonek" unicode="&#x172;" horiz-adv-x="771" 
d="M446 -248q-60 0 -92.5 32t-32.5 75q0 39 26 73.5t60 55.5h-13q-134 0 -203.5 65t-69.5 208v340q-57 10 -73.5 20t-16.5 37h280v-36q-23 -9 -100 -20v-334q0 -104 45 -159t146 -55q178 0 178 214v334q-77 11 -100 20v36h260q0 -27 -16.5 -37t-73.5 -20l-1 -340
q0 -100 -45 -168.5t-125 -92.5q-83 -51 -83 -113q0 -70 119 -70q3 -31 -14 -48t-55 -17z" />
    <glyph glyph-name="uogonek" unicode="&#x173;" horiz-adv-x="577" 
d="M456 -248q-60 0 -92.5 32t-32.5 75q0 47 36 86.5t72 54.5h3q-17 17 -37 76q-61 -87 -156 -87q-74 0 -114.5 45t-40.5 129q0 98 3 233q-45 9 -71 23v26q59 32 112 32q23 0 45 -12q-3 -159 -3 -287q0 -59 26.5 -91t74.5 -32q72 0 112 73l3 267q-49 7 -80 24v26
q59 32 121 32q23 0 45 -12q-1 -80 -1.5 -202.5t-1.5 -165.5q43 -14 64 -24v-33q-20 -25 -54 -40q-83 -51 -83 -113q0 -70 119 -70q3 -31 -14 -48t-55 -17z" />
    <glyph glyph-name="Wcircumflex" unicode="&#x174;" horiz-adv-x="995" 
d="M536 860q47 -55 102 -129l-28 -24q-53 37 -112 87q-110 -85 -112 -87l-28 24q33 42 82 97q20 22 32.5 29t33.5 7q16 0 30 -4zM638 -7l-132 447l-120 -376q-14 -43 -29.5 -57t-45.5 -14h-31l-191 611q-42 9 -56 19.5t-14 34.5h263v-36q-16 -5 -93 -18l149 -502l138 440
l-12 43q-10 32 0.5 52.5t41.5 20.5h32l156 -556l147 502q-77 13 -93 18v36h228q0 -25 -14 -35.5t-56 -19.5l-163 -539q-12 -40 -28.5 -55.5t-45.5 -15.5h-31z" />
    <glyph glyph-name="wcircumflex" unicode="&#x175;" horiz-adv-x="752" 
d="M413 721q41 -64 99 -164l-29 -22l-108 115l-106 -115l-29 21q48 84 78 130q15 22 27.5 29.5t37.5 7.5q18 0 30 -2zM149 416l109 -346l96 295l-5 17q-12 38 1 64.5t55 26.5h12l111 -403l107 346q-52 2 -68 16v35q32 1 82 1h14q49 0 84 -5v-36q-21 -7 -51 -11l-118 -372
q-10 -29 -23 -39.5t-42 -10.5h-42q-12 32 -26.5 78.5l-34 112.5l-28.5 97l-77 -238q-10 -29 -25 -39t-43 -11h-38l-144 422q-30 5 -50 11v36q35 5 84 5h47q50 0 82 -1v-35q-18 -14 -69 -16z" />
    <glyph glyph-name="Ycircumflex" unicode="&#x176;" horiz-adv-x="618" 
d="M361 860q47 -55 102 -129l-28 -24q-53 37 -112 87q-110 -85 -112 -87l-28 24q33 42 82 97q20 22 32.5 29t33.5 7q16 0 30 -4zM327 328l139 276q-77 13 -93 18v36h226q0 -25 -13.5 -35.5t-55.5 -19.5l-170 -325v-221q58 -10 92 -21v-36h-274q0 27 17 37.5t75 20.5v200
l-181 345q-42 9 -56 19.5t-14 35.5h264v-36q-17 -6 -92 -18z" />
    <glyph glyph-name="ycircumflex" unicode="&#x177;" horiz-adv-x="499" 
d="M287 721q41 -64 99 -164l-29 -22l-108 115l-106 -115l-29 21q48 84 78 130q15 22 27.5 29.5t37.5 7.5q18 0 30 -2zM149 416l116 -326l115 326h-1q-53 2 -69 16v35q32 1 82 1h18q49 0 84 -5v-36q-20 -6 -50 -11q-63 -181 -142 -376q-39 -96 -73 -158.5t-61 -88t-45 -33.5
t-39 -8q-32 0 -47.5 18.5t-13.5 43.5q9 3 33.5 12.5t30.5 12t23.5 10.5t23.5 14t20 17t22.5 23.5l21 30.5t25.5 41l-169 441q-28 4 -49 11v36q35 5 83 5h48q50 0 82 -1v-35q-18 -14 -69 -16z" />
    <glyph glyph-name="Ydieresis" unicode="&#x178;" horiz-adv-x="618" 
d="M170 781q0 22 16 38t38 16t37.5 -15.5t15.5 -38.5q0 -20 -15.5 -35.5t-37.5 -15.5t-38 15.5t-16 35.5zM374 781q0 23 15 38.5t37 15.5t38 -15.5t16 -38.5q0 -20 -16 -35.5t-38 -15.5q-21 0 -36.5 15.5t-15.5 35.5zM327 328l139 276q-77 13 -93 18v36h226
q0 -25 -13.5 -35.5t-55.5 -19.5l-170 -325v-221q58 -10 92 -21v-36h-274q0 27 17 37.5t75 20.5v200l-181 345q-42 9 -56 19.5t-14 35.5h264v-36q-17 -6 -92 -18z" />
    <glyph glyph-name="Zacute" unicode="&#x179;" horiz-adv-x="583" 
d="M194 717l-11 26q70 37 178 116q38 -9 38 -43q0 -37 -57.5 -62t-147.5 -37zM533 0h-412q-39 0 -58 17.5t-23 39.5l385 547h-282q-14 -64 -32 -105h-30q-23 57 -23 112q0 31 6 47h386q33 0 53 -14t24 -28l4 -15l-391 -547h317q11 62 31 105h30q23 -58 23 -111q0 -27 -8 -48
z" />
    <glyph glyph-name="zacute" unicode="&#x17a;" horiz-adv-x="447" 
d="M146 540l-20 24q82 79 145 159q27 1 42.5 -10t15.5 -31q0 -19 -16.5 -39t-50.5 -40.5t-55 -32t-61 -30.5zM42 45l263 376h-176q-8 -37 -31 -88h-27q-8 15 -16.5 48t-7.5 51q0 24 5 36h302q23 0 37 -11t17 -21l2 -11l-270 -377h194q11 47 31 92h27q20 -54 20 -100
q0 -23 -7 -40h-307q-24 0 -38 11t-16 23z" />
    <glyph glyph-name="Zdotaccent" unicode="&#x17b;" horiz-adv-x="583" 
d="M270 802q0 23 16.5 39.5t39.5 16.5t39.5 -16.5t16.5 -39.5t-16.5 -39.5t-39.5 -16.5t-39.5 16.5t-16.5 39.5zM533 0h-412q-39 0 -58 17.5t-23 39.5l385 547h-282q-14 -64 -32 -105h-30q-23 57 -23 112q0 31 6 47h386q33 0 53 -14t24 -28l4 -15l-391 -547h317
q11 62 31 105h30q23 -58 23 -111q0 -27 -8 -48z" />
    <glyph glyph-name="zdotaccent" unicode="&#x17c;" horiz-adv-x="447" 
d="M171 634q0 23 16.5 39.5t39.5 16.5t39.5 -16.5t16.5 -39.5t-16.5 -39.5t-39.5 -16.5t-39.5 16.5t-16.5 39.5zM42 45l263 376h-176q-8 -37 -31 -88h-27q-8 15 -16.5 48t-7.5 51q0 24 5 36h302q23 0 37 -11t17 -21l2 -11l-270 -377h194q11 47 31 92h27q20 -54 20 -100
q0 -23 -7 -40h-307q-24 0 -38 11t-16 23z" />
    <glyph glyph-name="Zcaron" unicode="&#x17d;" horiz-adv-x="583" 
d="M257 711l-107 128l29 26l114 -89l108 89l29 -26l-80 -96q-19 -22 -31 -29t-33 -7q-15 0 -29 4zM533 0h-412q-39 0 -58 17.5t-23 39.5l385 547h-282q-14 -64 -32 -105h-30q-23 57 -23 112q0 31 6 47h386q33 0 53 -14t24 -28l4 -15l-391 -547h317q11 62 31 105h30
q23 -58 23 -111q0 -27 -8 -48z" />
    <glyph glyph-name="zcaron" unicode="&#x17e;" horiz-adv-x="447" 
d="M263 538q-12 -3 -30 -3q-25 0 -38 7.5t-27 29.5q-31 48 -78 129l29 22l109 -115l105 115l29 -21zM42 45l263 376h-176q-8 -37 -31 -88h-27q-8 15 -16.5 48t-7.5 51q0 24 5 36h302q23 0 37 -11t17 -21l2 -11l-270 -377h194q11 47 31 92h27q20 -54 20 -100q0 -23 -7 -40
h-307q-24 0 -38 11t-16 23z" />
    <glyph glyph-name="florin" unicode="&#x192;" horiz-adv-x="494" 
d="M150 390h26l4 32q16 127 61 187t132 60q101 0 101 -54q0 -30 -35 -46q-47 44 -86 44q-23 0 -38 -12t-23 -35.5t-13 -50.5t-9 -65q-2 -18 -3 -28l-4 -32h143l-4 -33q-19 -23 -77 -23h-69q-11 -86 -19 -168q-16 -150 -42 -232.5t-63 -114t-97 -31.5q-47 0 -75.5 16.5
t-28.5 41.5q0 35 38 50q2 -1 18 -15.5t22.5 -19t20 -11t25.5 -6.5q48 0 65 98q12 69 30 225q4 32 8.5 78t9.5 89h-15q-36 1 -80 16l5 33q29 7 72 7z" />
    <glyph glyph-name="Ohorn" unicode="&#x1a0;" horiz-adv-x="754" 
d="M366 -11q-137 0 -225 88t-88 245q0 153 93 250t233 97q170 0 257 -122q33 8 55 28.5t22 44.5q0 14 -9.5 22.5t-22.5 8.5q-20 0 -29 -9q-10 8 -10 27q0 20 16 35t45 15q27 0 46.5 -20t19.5 -52q0 -48 -32.5 -83.5t-80.5 -49.5q40 -74 40 -175q0 -153 -94.5 -251.5
t-235.5 -98.5zM153 328q0 -129 61.5 -205t160.5 -76q100 0 160.5 78t60.5 208q0 129 -61.5 204t-161.5 75t-160 -76.5t-60 -207.5z" />
    <glyph glyph-name="ohorn" unicode="&#x1a1;" horiz-adv-x="572" 
d="M268 -11q-103 0 -164.5 65t-61.5 173q0 105 65.5 178t171.5 73q125 0 185 -90q28 10 46 29t18 40q0 14 -9.5 22.5t-22.5 8.5q-20 0 -29 -9q-10 8 -10 27q0 20 16 35t45 15q27 0 46.5 -20t19.5 -52q0 -45 -29 -79t-72 -50q22 -52 22 -114q0 -105 -65.5 -178.5
t-171.5 -73.5zM135 234q0 -87 36.5 -139t103.5 -52q64 0 101 52.5t37 138.5q0 87 -36.5 138.5t-103.5 51.5q-63 0 -100.5 -52t-37.5 -138z" />
    <glyph glyph-name="Uhorn" unicode="&#x1af;" horiz-adv-x="778" 
d="M394 -12q-134 0 -203.5 65t-69.5 208v340q-57 10 -73.5 20t-16.5 37h280v-36q-23 -9 -100 -20v-334q0 -104 45 -159t146 -55q178 0 178 214v334q-77 11 -100 20v36h169q39 0 64.5 19.5t25.5 49.5q0 37 -42 37q-20 0 -29 -9q-10 8 -10 27q0 20 16 35t45 15q28 0 47 -21.5
t19 -60.5q0 -62 -37 -99.5t-98 -49.5l-1 -340q0 -124 -69 -198.5t-186 -74.5z" />
    <glyph glyph-name="uhorn" unicode="&#x1b0;" horiz-adv-x="577" 
d="M405 76q-61 -87 -156 -87q-74 0 -114.5 45t-40.5 129q0 98 3 233q-45 9 -71 23v26q59 32 112 32q23 0 45 -12q-3 -159 -3 -287q0 -59 26.5 -91t74.5 -32q72 0 112 73l3 267q-49 7 -80 24v26q59 32 121 32q23 0 45 -12q27 10 44 28.5t17 39.5q0 14 -9.5 22.5t-22.5 8.5
q-20 0 -29 -9q-10 8 -10 27q0 20 16 35t45 15q27 0 46.5 -20t19.5 -52q0 -49 -34 -85t-83 -49q-1 -70 -1.5 -179.5t-1.5 -149.5q43 -14 64 -24v-33q-16 -19 -41.5 -33.5t-45.5 -14.5q-24 0 -51 84z" />
    <glyph glyph-name="Aringacute" unicode="&#x1fa;" horiz-adv-x="686" 
d="M266 921l-11 26q70 37 178 116q38 -9 38 -43q0 -37 -57.5 -62t-147.5 -37zM340 874q44 0 72.5 -21.5t28.5 -61.5q0 -38 -27.5 -62.5t-72.5 -24.5q-44 0 -73 22t-29 62q0 37 27 61.5t74 24.5zM341 740q23 0 37.5 14.5t14.5 35.5q0 22 -15.5 36t-38.5 14t-37 -14.5
t-14 -36.5t15 -35.5t38 -13.5zM330 599l-104 -316h208zM510 54l-58 175h-244l-57 -175q55 -8 93 -18v-36h-230q0 24 14 34.5t56 20.5l206 611h47q23 0 38 -4.5t24.5 -17t14 -21.5t11.5 -31l177 -538q43 -10 56.5 -19.5t13.5 -34.5h-255v36q40 11 93 18z" />
    <glyph glyph-name="aringacute" unicode="&#x1fb;" horiz-adv-x="494" 
d="M150 749l-20 24q82 79 145 159q27 1 42.5 -10t15.5 -31q0 -19 -16.5 -39t-50.5 -40.5t-55 -32t-61 -30.5zM232 725q46 0 76 -24t30 -69q0 -43 -29.5 -71.5t-76.5 -28.5q-45 0 -76 24t-31 69q0 43 29 71.5t78 28.5zM233 570q25 0 39.5 16.5t14.5 42.5q0 25 -16 42t-40 17
q-25 0 -39.5 -17t-14.5 -43q0 -25 16 -41.5t40 -16.5zM223 54q29 0 54 13.5t36 34.5l2 101q-91 5 -136.5 -10t-45.5 -65q0 -36 24.5 -55t65.5 -19zM472 62v-31q-30 -41 -75 -41q-52 0 -73 70q-45 -71 -133 -71q-70 0 -109.5 36.5t-39.5 91.5q0 68 58 103.5t161 35.5
q22 0 56 -2q1 35 1 51q0 58 -24.5 90t-68.5 32q-16 0 -29.5 -5t-27.5 -18.5t-20 -20t-20.5 -26.5t-15.5 -21q-42 7 -51.5 40t25.5 59q57 43 160 43q157 0 157 -162q0 -37 -3.5 -116.5t-3.5 -114.5q44 -12 76 -23z" />
    <glyph glyph-name="AEacute" unicode="&#x1fc;" horiz-adv-x="908" 
d="M422 713l-11 26q70 37 178 116q38 -9 38 -43q0 -37 -57.5 -62t-147.5 -37zM465 612l-187 -340h187v340zM303 658h548q6 -16 6 -45q0 -51 -23 -108h-30q-21 46 -32 99h-217v-227h218v-30q-14 -28 -53 -28h-165v-265h219q11 62 31 105h30q23 -58 23 -111q0 -27 -8 -48h-472
q0 28 15.5 38t71.5 20v157h-218l-88 -161q56 -8 93 -18v-36h-236q0 25 14.5 35.5t59.5 19.5l300 545q-56 10 -71.5 20t-15.5 38z" />
    <glyph glyph-name="aeacute" unicode="&#x1fd;" horiz-adv-x="754" 
d="M308 540l-20 24q82 79 145 159q27 1 42.5 -10t15.5 -31q0 -19 -16.5 -39t-50.5 -40.5t-55 -32t-61 -30.5zM248 478q96 0 133 -72q62 72 156 72q90 0 134 -51.5t44 -139.5q0 -27 -3 -58h-302q-2 -74 35.5 -123.5t117.5 -49.5q62 0 117 45q6 -3 15 -14t11 -16
q-61 -82 -174 -82q-115 0 -174 83q-57 -83 -160 -83q-74 0 -115 39t-41 97q0 154 236 154h41q1 21 1 37q0 111 -87 111q-17 0 -32 -5.5t-28.5 -18t-21 -20.5t-20.5 -26t-16 -21q-42 7 -52 39.5t25 58.5q59 44 160 44zM631 279q0 76 -25.5 112t-80.5 36q-54 0 -82 -42.5
t-29 -105.5h217zM226 52q74 0 110 62q-18 45 -18 102v12h-37q-147 0 -147 -91q0 -39 23.5 -62t68.5 -23z" />
    <glyph glyph-name="Oslashacute" unicode="&#x1fe;" horiz-adv-x="749" 
d="M278 717l-11 26q70 37 178 116q38 -9 38 -43q0 -37 -57.5 -62t-147.5 -37zM153 328q0 -101 35 -169l334 394q-59 59 -149 59q-100 0 -160 -76.5t-60 -207.5zM596 333q0 100 -37 169l-334 -395q58 -60 150 -60q100 0 160.5 78t60.5 208zM625 580l-9 -11q80 -90 80 -230
q0 -153 -94.5 -251.5t-235.5 -98.5q-111 0 -190 60l-12 -14q-25 -29 -59 -49l-33 27q22 34 47 64l12 14q-78 89 -78 231q0 153 93 250t233 97q111 0 191 -59l10 12q24 29 60 49l33 -27q-17 -27 -48 -64z" />
    <glyph glyph-name="oslashacute" unicode="&#x1ff;" horiz-adv-x="547" 
d="M192 540l-20 24q82 79 145 159q27 1 42.5 -10t15.5 -31q0 -19 -16.5 -39t-50.5 -40.5t-55 -32t-61 -30.5zM135 235q0 -63 15 -106l216 259q-36 36 -93 36q-64 0 -101 -51.5t-37 -137.5zM413 235q0 61 -17 104l-216 -259q34 -37 95 -37q63 0 100.5 53t37.5 139zM451 404
l-1 -1q55 -64 55 -163q0 -105 -66 -178t-173 -73q-73 0 -129 39l-3 -3q-25 -28 -54 -44l-29 24q16 26 43 57l3 3q-55 66 -55 162q0 105 65.5 178t171.5 73q74 0 130 -39l2 2q23 29 52 43l30 -24q-15 -25 -42 -56z" />
    <glyph glyph-name="Scommaaccent" unicode="&#x218;" horiz-adv-x="539" 
d="M69 501q0 78 56.5 122.5t166.5 44.5q90 0 165 -16q18 -54 -17 -154h-30q-23 41 -34 101q-43 13 -95 13q-61 0 -93.5 -26t-32.5 -74q0 -67 80 -103q23 -11 100 -39q76 -28 114.5 -71.5t38.5 -115.5q0 -96 -62 -145t-169 -49q-122 0 -203 50q-8 39 -0.5 81t24.5 77h31
q23 -52 30 -117q49 -33 124 -33q63 0 99.5 31t36.5 83q0 49 -24 75.5t-72 45.5q-22 9 -47.5 18.5l-43 16.5t-40.5 19q-103 52 -103 165zM237 -242q-15 9 -24 18q39 74 47 158q14 4 28 4q37 0 37 -43q0 -36 -18.5 -63.5t-69.5 -73.5z" />
    <glyph glyph-name="scommaaccent" unicode="&#x219;" horiz-adv-x="427" 
d="M210 -11q-98 0 -161 37q-4 13 -4 34q0 44 24 94h27q18 -35 29 -93q32 -21 89 -21q93 0 93 76q0 29 -17 45.5t-57 29.5l-80 28q-96 36 -96 128q0 60 46 95.5t127 35.5q80 0 131 -15q4 -14 4 -34q0 -38 -24 -93h-27q-16 31 -27 81q-26 10 -63 10q-88 0 -88 -64
q0 -47 53 -66q18 -7 46.5 -16t39.5 -13q56 -20 82.5 -49t26.5 -87q0 -65 -47 -104t-127 -39zM183 -242q-15 9 -24 18q39 74 47 158q14 4 28 4q37 0 37 -43q0 -36 -18.5 -63.5t-69.5 -73.5z" />
    <glyph glyph-name="uni0237" unicode="&#x237;" horiz-adv-x="0" 
 />
    <glyph glyph-name="circumflex" unicode="&#x2c6;" horiz-adv-x="400" 
d="M237 721q41 -64 99 -164l-29 -22l-108 115l-106 -115l-29 21q48 84 78 130q15 22 27.5 29.5t37.5 7.5q18 0 30 -2z" />
    <glyph glyph-name="caron" unicode="&#x2c7;" horiz-adv-x="400" 
d="M237 538q-12 -3 -30 -3q-25 0 -38 7.5t-27 29.5q-31 48 -78 129l29 22l109 -115l105 115l29 -21z" />
    <glyph glyph-name="breve" unicode="&#x2d8;" horiz-adv-x="400" 
d="M200 545q-64 0 -91.5 39t-20.5 97h40q0 -76 72 -76t72 76h40q7 -58 -20.5 -97t-91.5 -39z" />
    <glyph glyph-name="dotaccent" unicode="&#x2d9;" horiz-adv-x="400" 
d="M144 630q0 23 16.5 39.5t39.5 16.5t39.5 -16.5t16.5 -39.5t-16.5 -39.5t-39.5 -16.5t-39.5 16.5t-16.5 39.5z" />
    <glyph glyph-name="ring" unicode="&#x2da;" horiz-adv-x="400" 
d="M200 725q46 0 76 -24t30 -69q0 -43 -29.5 -71.5t-76.5 -28.5q-45 0 -76 24t-31 69q0 43 29 71.5t78 28.5zM201 570q25 0 39.5 16.5t14.5 42.5q0 25 -16 42t-40 17q-25 0 -39.5 -17t-14.5 -43q0 -25 16 -41.5t40 -16.5z" />
    <glyph glyph-name="ogonek" unicode="&#x2db;" horiz-adv-x="400" 
d="M210 0h50q-83 -51 -83 -113q0 -70 119 -70q3 -31 -14 -48t-55 -17q-60 0 -92.5 32t-32.5 75q0 47 36 86.5t72 54.5z" />
    <glyph glyph-name="tilde" unicode="&#x2dc;" horiz-adv-x="400" 
d="M263 628q14 0 26 7t17.5 13t18.5 22l28 -15q-36 -91 -96 -91q-29 0 -65 21t-55 21q-14 0 -27.5 -8t-17.5 -12.5t-17 -20.5l-29 16q37 90 98 90q27 0 63.5 -21.5t55.5 -21.5z" />
    <glyph glyph-name="hungarumlaut" unicode="&#x2dd;" horiz-adv-x="400" 
d="M64 542l-24 22q52 66 102 166q7 1 14 1q39 0 39 -38q0 -34 -31 -67t-100 -84zM228 542l-24 22q52 66 102 166q7 1 14 1q39 0 39 -38q0 -34 -31 -67t-100 -84z" />
    <glyph glyph-name="pi" unicode="&#x3c0;" horiz-adv-x="611" 
d="M472 -11q-46 0 -70.5 29.5t-24.5 85.5v295h-182v-290q0 -120 -69 -120q-34 0 -50 29q1 2 11.5 18t15.5 25.5l13 25t12 28.5t4 24v260h-18q-35 0 -82 15v49q40 5 75 5h453v-43q-11 -15 -31.5 -20.5t-68.5 -5.5v-293q0 -58 45 -58q31 0 61 35q14 -9 25 -22
q-43 -72 -119 -72z" />
    <glyph glyph-name="Wgrave" unicode="&#x1e80;" horiz-adv-x="995" 
d="M606 743l-11 -26q-206 30 -206 99q0 33 38 43q112 -81 179 -116zM638 -7l-132 447l-120 -376q-14 -43 -29.5 -57t-45.5 -14h-31l-191 611q-42 9 -56 19.5t-14 34.5h263v-36q-16 -5 -93 -18l149 -502l138 440l-12 43q-10 32 0.5 52.5t41.5 20.5h32l156 -556l147 502
q-77 13 -93 18v36h228q0 -25 -14 -35.5t-56 -19.5l-163 -539q-12 -40 -28.5 -55.5t-45.5 -15.5h-31z" />
    <glyph glyph-name="wgrave" unicode="&#x1e81;" horiz-adv-x="752" 
d="M478 565l-21 -25l-61 30.5t-55 32t-49.5 40.5t-16.5 39q0 20 15.5 31t42.5 10q59 -76 145 -158zM149 416l109 -346l96 295l-5 17q-12 38 1 64.5t55 26.5h12l111 -403l107 346q-52 2 -68 16v35q32 1 82 1h14q49 0 84 -5v-36q-21 -7 -51 -11l-118 -372q-10 -29 -23 -39.5
t-42 -10.5h-42q-12 32 -26.5 78.5l-34 112.5l-28.5 97l-77 -238q-10 -29 -25 -39t-43 -11h-38l-144 422q-30 5 -50 11v36q35 5 84 5h47q50 0 82 -1v-35q-18 -14 -69 -16z" />
    <glyph glyph-name="Wacute" unicode="&#x1e82;" horiz-adv-x="995" 
d="M401 717l-11 26q70 37 178 116q38 -9 38 -43q0 -37 -57.5 -62t-147.5 -37zM638 -7l-132 447l-120 -376q-14 -43 -29.5 -57t-45.5 -14h-31l-191 611q-42 9 -56 19.5t-14 34.5h263v-36q-16 -5 -93 -18l149 -502l138 440l-12 43q-10 32 0.5 52.5t41.5 20.5h32l156 -556
l147 502q-77 13 -93 18v36h228q0 -25 -14 -35.5t-56 -19.5l-163 -539q-12 -40 -28.5 -55.5t-45.5 -15.5h-31z" />
    <glyph glyph-name="wacute" unicode="&#x1e83;" horiz-adv-x="752" 
d="M295 540l-20 24q82 79 145 159q27 1 42.5 -10t15.5 -31q0 -19 -16.5 -39t-50.5 -40.5t-55 -32t-61 -30.5zM149 416l109 -346l96 295l-5 17q-12 38 1 64.5t55 26.5h12l111 -403l107 346q-52 2 -68 16v35q32 1 82 1h14q49 0 84 -5v-36q-21 -7 -51 -11l-118 -372
q-10 -29 -23 -39.5t-42 -10.5h-42q-12 32 -26.5 78.5l-34 112.5l-28.5 97l-77 -238q-10 -29 -25 -39t-43 -11h-38l-144 422q-30 5 -50 11v36q35 5 84 5h47q50 0 82 -1v-35q-18 -14 -69 -16z" />
    <glyph glyph-name="Wdieresis" unicode="&#x1e84;" horiz-adv-x="995" 
d="M547 783q0 23 15 38.5t37 15.5q23 0 38.5 -15.5t15.5 -38.5q0 -20 -16 -35.5t-38 -15.5q-21 0 -36.5 15.5t-15.5 35.5zM343 783q0 22 16 38t38 16t37.5 -15.5t15.5 -38.5q0 -20 -15.5 -35.5t-37.5 -15.5t-38 15.5t-16 35.5zM638 -7l-132 447l-120 -376q-14 -43 -29.5 -57
t-45.5 -14h-31l-191 611q-42 9 -56 19.5t-14 34.5h263v-36q-16 -5 -93 -18l149 -502l138 440l-12 43q-10 32 0.5 52.5t41.5 20.5h32l156 -556l147 502q-77 13 -93 18v36h228q0 -25 -14 -35.5t-56 -19.5l-163 -539q-12 -40 -28.5 -55.5t-45.5 -15.5h-31z" />
    <glyph glyph-name="wdieresis" unicode="&#x1e85;" horiz-adv-x="752" 
d="M423 626q0 22 15.5 37.5t37.5 15.5t38 -15.5t16 -37.5q0 -21 -16 -36.5t-38 -15.5t-37.5 16t-15.5 36zM223 626q0 22 16 37.5t39 15.5q22 0 37 -15.5t15 -37.5q0 -21 -15.5 -36.5t-36.5 -15.5q-22 0 -38.5 16t-16.5 36zM149 416l109 -346l96 295l-5 17q-12 38 1 64.5
t55 26.5h12l111 -403l107 346q-52 2 -68 16v35q32 1 82 1h14q49 0 84 -5v-36q-21 -7 -51 -11l-118 -372q-10 -29 -23 -39.5t-42 -10.5h-42q-12 32 -26.5 78.5l-34 112.5l-28.5 97l-77 -238q-10 -29 -25 -39t-43 -11h-38l-144 422q-30 5 -50 11v36q35 5 84 5h47q50 0 82 -1
v-35q-18 -14 -69 -16z" />
    <glyph glyph-name="Adotaccent" unicode="&#x1ea0;" horiz-adv-x="686" 
d="M330 599l-104 -316h208zM510 54l-58 175h-244l-57 -175q55 -8 93 -18v-36h-230q0 24 14 34.5t56 20.5l206 611h47q23 0 38 -4.5t24.5 -17t14 -21.5t11.5 -31l177 -538q43 -10 56.5 -19.5t13.5 -34.5h-255v36q40 11 93 18zM284 -116q0 23 16.5 39.5t39.5 16.5t39.5 -16.5
t16.5 -39.5t-16.5 -39.5t-39.5 -16.5t-39.5 16.5t-16.5 39.5z" />
    <glyph glyph-name="adotaccent" unicode="&#x1ea1;" horiz-adv-x="494" 
d="M223 54q29 0 54 13.5t36 34.5l2 101q-91 5 -136.5 -10t-45.5 -65q0 -36 24.5 -55t65.5 -19zM472 62v-31q-30 -41 -75 -41q-52 0 -73 70q-45 -71 -133 -71q-70 0 -109.5 36.5t-39.5 91.5q0 68 58 103.5t161 35.5q22 0 56 -2q1 35 1 51q0 58 -24.5 90t-68.5 32
q-16 0 -29.5 -5t-27.5 -18.5t-20 -20t-20.5 -26.5t-15.5 -21q-42 7 -51.5 40t25.5 59q57 43 160 43q157 0 157 -162q0 -37 -3.5 -116.5t-3.5 -114.5q44 -12 76 -23zM175 -108q0 23 16.5 39.5t39.5 16.5t39.5 -16.5t16.5 -39.5t-16.5 -39.5t-39.5 -16.5t-39.5 16.5
t-16.5 39.5z" />
    <glyph glyph-name="Ahook" unicode="&#x1ea2;" horiz-adv-x="686" 
d="M318 697q-9 16 -9 33q0 26 36 39q2 1 7 2.5t6.5 2.5t5.5 2.5t5.5 2.5t4 3t3.5 3.5t2.5 4t2 5.5t0.5 7q0 25 -42 25q-43 0 -68 -40q-24 8 -24 35q0 25 25.5 40t69.5 15q46 0 74.5 -20t28.5 -49t-24 -46t-66 -17v-48h-38zM330 599l-104 -316h208zM510 54l-58 175h-244
l-57 -175q55 -8 93 -18v-36h-230q0 24 14 34.5t56 20.5l206 611h47q23 0 38 -4.5t24.5 -17t14 -21.5t11.5 -31l177 -538q43 -10 56.5 -19.5t13.5 -34.5h-255v36q40 11 93 18z" />
    <glyph glyph-name="ahook" unicode="&#x1ea3;" horiz-adv-x="494" 
d="M208 547q-10 18 -10 33q0 21 42 40q35 16 35 41q0 33 -42 33q-38 0 -67 -41q-10 2 -17.5 11.5t-7.5 20.5q0 27 26 42.5t73 15.5q44 0 71.5 -21t27.5 -54t-26 -53t-64 -20v-48h-41zM223 54q29 0 54 13.5t36 34.5l2 101q-91 5 -136.5 -10t-45.5 -65q0 -36 24.5 -55
t65.5 -19zM472 62v-31q-30 -41 -75 -41q-52 0 -73 70q-45 -71 -133 -71q-70 0 -109.5 36.5t-39.5 91.5q0 68 58 103.5t161 35.5q22 0 56 -2q1 35 1 51q0 58 -24.5 90t-68.5 32q-16 0 -29.5 -5t-27.5 -18.5t-20 -20t-20.5 -26.5t-15.5 -21q-42 7 -51.5 40t25.5 59
q57 43 160 43q157 0 157 -162q0 -37 -3.5 -116.5t-3.5 -114.5q44 -12 76 -23z" />
    <glyph glyph-name="Acircumflexacute" unicode="&#x1ea4;" horiz-adv-x="686" 
d="M243 907l-11 26q70 37 178 116q38 -9 38 -43q0 -37 -57.5 -62t-147.5 -37zM378 856q47 -55 102 -129l-28 -24q-53 37 -112 87q-110 -86 -112 -87l-28 24q33 42 82 97q20 22 32.5 29t33.5 7q16 0 30 -4zM330 599l-104 -316h208zM510 54l-58 175h-244l-57 -175
q55 -8 93 -18v-36h-230q0 24 14 34.5t56 20.5l206 611h47q23 0 38 -4.5t24.5 -17t14 -21.5t11.5 -31l177 -538q43 -10 56.5 -19.5t13.5 -34.5h-255v36q40 11 93 18z" />
    <glyph glyph-name="acircumflexacute" unicode="&#x1ea5;" horiz-adv-x="494" 
d="M165 745l-20 24q82 79 145 159q27 1 42.5 -10t15.5 -31q0 -19 -16.5 -39t-50.5 -40.5t-55 -32t-61 -30.5zM268 721q41 -64 99 -164l-29 -22l-108 115l-106 -115l-29 21q48 84 78 130q15 22 27.5 29.5t37.5 7.5q18 0 30 -2zM223 54q29 0 54 13.5t36 34.5l2 101
q-91 5 -136.5 -10t-45.5 -65q0 -36 24.5 -55t65.5 -19zM472 62v-31q-30 -41 -75 -41q-52 0 -73 70q-45 -71 -133 -71q-70 0 -109.5 36.5t-39.5 91.5q0 68 58 103.5t161 35.5q22 0 56 -2q1 35 1 51q0 58 -24.5 90t-68.5 32q-16 0 -29.5 -5t-27.5 -18.5t-20 -20t-20.5 -26.5
t-15.5 -21q-42 7 -51.5 40t25.5 59q57 43 160 43q157 0 157 -162q0 -37 -3.5 -116.5t-3.5 -114.5q44 -12 76 -23z" />
    <glyph glyph-name="Acircumflexgrave" unicode="&#x1ea6;" horiz-adv-x="686" 
d="M449 933l-11 -26q-206 30 -206 99q0 33 38 43q112 -81 179 -116zM378 856q47 -55 102 -129l-28 -24q-53 37 -112 87q-110 -86 -112 -87l-28 24q33 42 82 97q20 22 32.5 29t33.5 7q16 0 30 -4zM330 599l-104 -316h208zM510 54l-58 175h-244l-57 -175q55 -8 93 -18v-36
h-230q0 24 14 34.5t56 20.5l206 611h47q23 0 38 -4.5t24.5 -17t14 -21.5t11.5 -31l177 -538q43 -10 56.5 -19.5t13.5 -34.5h-255v36q40 11 93 18z" />
    <glyph glyph-name="acircumflexgrave" unicode="&#x1ea7;" horiz-adv-x="494" 
d="M333 753l-21 -25l-61 30.5t-55 32t-49.5 40.5t-16.5 39q0 20 15.5 31t42.5 10q59 -76 145 -158zM268 721q41 -64 99 -164l-29 -22l-108 115l-106 -115l-29 21q48 84 78 130q15 22 27.5 29.5t37.5 7.5q18 0 30 -2zM223 54q29 0 54 13.5t36 34.5l2 101q-91 5 -136.5 -10
t-45.5 -65q0 -36 24.5 -55t65.5 -19zM472 62v-31q-30 -41 -75 -41q-52 0 -73 70q-45 -71 -133 -71q-70 0 -109.5 36.5t-39.5 91.5q0 68 58 103.5t161 35.5q22 0 56 -2q1 35 1 51q0 58 -24.5 90t-68.5 32q-16 0 -29.5 -5t-27.5 -18.5t-20 -20t-20.5 -26.5t-15.5 -21
q-42 7 -51.5 40t25.5 59q57 43 160 43q157 0 157 -162q0 -37 -3.5 -116.5t-3.5 -114.5q44 -12 76 -23z" />
    <glyph glyph-name="Acircumflexhook" unicode="&#x1ea8;" horiz-adv-x="686" 
d="M318 891q-9 16 -9 33q0 26 36 39q2 1 7 2.5t6.5 2.5t5.5 2.5t5.5 2.5t4 3t3.5 3.5t2.5 4t2 5.5t0.5 7q0 25 -42 25q-43 0 -68 -40q-24 8 -24 35q0 25 25.5 40t69.5 15q46 0 74.5 -20t28.5 -49t-24 -46t-66 -17v-48h-38zM378 856q47 -55 102 -129l-28 -24q-53 37 -112 87
q-110 -86 -112 -87l-28 24q33 42 82 97q20 22 32.5 29t33.5 7q16 0 30 -4zM330 599l-104 -316h208zM510 54l-58 175h-244l-57 -175q55 -8 93 -18v-36h-230q0 24 14 34.5t56 20.5l206 611h47q23 0 38 -4.5t24.5 -17t14 -21.5t11.5 -31l177 -538q43 -10 56.5 -19.5t13.5 -34.5
h-255v36q40 11 93 18z" />
    <glyph glyph-name="acircumflexhook" unicode="&#x1ea9;" horiz-adv-x="494" 
d="M208 735q-10 18 -10 33q0 21 42 40q35 16 35 41q0 33 -42 33q-38 0 -67 -41q-10 2 -17.5 11.5t-7.5 20.5q0 27 26 42.5t73 15.5q44 0 71.5 -21t27.5 -54t-26 -53t-64 -20v-48h-41zM268 721q41 -64 99 -164l-29 -22l-108 115l-106 -115l-29 21q48 84 78 130
q15 22 27.5 29.5t37.5 7.5q18 0 30 -2zM223 54q29 0 54 13.5t36 34.5l2 101q-91 5 -136.5 -10t-45.5 -65q0 -36 24.5 -55t65.5 -19zM472 62v-31q-30 -41 -75 -41q-52 0 -73 70q-45 -71 -133 -71q-70 0 -109.5 36.5t-39.5 91.5q0 68 58 103.5t161 35.5q22 0 56 -2q1 35 1 51
q0 58 -24.5 90t-68.5 32q-16 0 -29.5 -5t-27.5 -18.5t-20 -20t-20.5 -26.5t-15.5 -21q-42 7 -51.5 40t25.5 59q57 43 160 43q157 0 157 -162q0 -37 -3.5 -116.5t-3.5 -114.5q44 -12 76 -23z" />
    <glyph glyph-name="Acircumflextilde" unicode="&#x1eaa;" horiz-adv-x="686" 
d="M405 976q20 0 33.5 10t31.5 32l28 -15q-16 -39 -41 -65t-58 -26q-30 0 -66.5 21.5t-55.5 21.5q-31 0 -65 -41l-29 16q37 90 101 90q28 0 64.5 -22t56.5 -22zM378 856q47 -55 102 -129l-28 -24q-53 37 -112 87q-110 -86 -112 -87l-28 24q33 42 82 97q20 22 32.5 29t33.5 7
q16 0 30 -4zM330 599l-104 -316h208zM510 54l-58 175h-244l-57 -175q55 -8 93 -18v-36h-230q0 24 14 34.5t56 20.5l206 611h47q23 0 38 -4.5t24.5 -17t14 -21.5t11.5 -31l177 -538q43 -10 56.5 -19.5t13.5 -34.5h-255v36q40 11 93 18z" />
    <glyph glyph-name="acircumlfextilde" unicode="&#x1eab;" horiz-adv-x="494" 
d="M295 816q14 0 26 7t17.5 13t18.5 22l28 -15q-36 -91 -96 -91q-29 0 -65 21t-55 21q-14 0 -27.5 -8t-17.5 -12.5t-17 -20.5l-29 16q37 90 98 90q27 0 63.5 -21.5t55.5 -21.5zM268 721q41 -64 99 -164l-29 -22l-108 115l-106 -115l-29 21q48 84 78 130q15 22 27.5 29.5
t37.5 7.5q18 0 30 -2zM223 54q29 0 54 13.5t36 34.5l2 101q-91 5 -136.5 -10t-45.5 -65q0 -36 24.5 -55t65.5 -19zM472 62v-31q-30 -41 -75 -41q-52 0 -73 70q-45 -71 -133 -71q-70 0 -109.5 36.5t-39.5 91.5q0 68 58 103.5t161 35.5q22 0 56 -2q1 35 1 51q0 58 -24.5 90
t-68.5 32q-16 0 -29.5 -5t-27.5 -18.5t-20 -20t-20.5 -26.5t-15.5 -21q-42 7 -51.5 40t25.5 59q57 43 160 43q157 0 157 -162q0 -37 -3.5 -116.5t-3.5 -114.5q44 -12 76 -23z" />
    <glyph glyph-name="Acircumflexdotaccent" unicode="&#x1eac;" horiz-adv-x="686" 
d="M378 856q47 -55 102 -129l-28 -24q-53 37 -112 87q-110 -86 -112 -87l-28 24q33 42 82 97q20 22 32.5 29t33.5 7q16 0 30 -4zM330 599l-104 -316h208zM510 54l-58 175h-244l-57 -175q55 -8 93 -18v-36h-230q0 24 14 34.5t56 20.5l206 611h47q23 0 38 -4.5t24.5 -17
t14 -21.5t11.5 -31l177 -538q43 -10 56.5 -19.5t13.5 -34.5h-255v36q40 11 93 18zM284 -116q0 23 16.5 39.5t39.5 16.5t39.5 -16.5t16.5 -39.5t-16.5 -39.5t-39.5 -16.5t-39.5 16.5t-16.5 39.5z" />
    <glyph glyph-name="acircumflexdotaccent" unicode="&#x1ead;" horiz-adv-x="494" 
d="M268 721q41 -64 99 -164l-29 -22l-108 115l-106 -115l-29 21q48 84 78 130q15 22 27.5 29.5t37.5 7.5q18 0 30 -2zM223 54q29 0 54 13.5t36 34.5l2 101q-91 5 -136.5 -10t-45.5 -65q0 -36 24.5 -55t65.5 -19zM472 62v-31q-30 -41 -75 -41q-52 0 -73 70q-45 -71 -133 -71
q-70 0 -109.5 36.5t-39.5 91.5q0 68 58 103.5t161 35.5q22 0 56 -2q1 35 1 51q0 58 -24.5 90t-68.5 32q-16 0 -29.5 -5t-27.5 -18.5t-20 -20t-20.5 -26.5t-15.5 -21q-42 7 -51.5 40t25.5 59q57 43 160 43q157 0 157 -162q0 -37 -3.5 -116.5t-3.5 -114.5q44 -12 76 -23z
M175 -108q0 23 16.5 39.5t39.5 16.5t39.5 -16.5t16.5 -39.5t-16.5 -39.5t-39.5 -16.5t-39.5 16.5t-16.5 39.5z" />
    <glyph glyph-name="Abreveacute" unicode="&#x1eae;" horiz-adv-x="686" 
d="M243 885l-11 26q70 37 178 116q38 -9 38 -43q0 -37 -57.5 -62t-147.5 -37zM340 708q-63 0 -91.5 38t-25.5 90h40q9 -68 77 -68q69 0 78 68h40q3 -52 -25.5 -90t-92.5 -38zM330 599l-104 -316h208zM510 54l-58 175h-244l-57 -175q55 -8 93 -18v-36h-230q0 24 14 34.5
t56 20.5l206 611h47q23 0 38 -4.5t24.5 -17t14 -21.5t11.5 -31l177 -538q43 -10 56.5 -19.5t13.5 -34.5h-255v36q40 11 93 18z" />
    <glyph glyph-name="abreveacute" unicode="&#x1eaf;" horiz-adv-x="494" 
d="M150 717l-20 24q82 79 145 159q27 1 42.5 -10t15.5 -31q0 -19 -16.5 -39t-50.5 -40.5t-55 -32t-61 -30.5zM231 555q-64 0 -91.5 39t-20.5 97h40q0 -76 72 -76t72 76h40q7 -58 -20.5 -97t-91.5 -39zM223 54q29 0 54 13.5t36 34.5l2 101q-91 5 -136.5 -10t-45.5 -65
q0 -36 24.5 -55t65.5 -19zM472 62v-31q-30 -41 -75 -41q-52 0 -73 70q-45 -71 -133 -71q-70 0 -109.5 36.5t-39.5 91.5q0 68 58 103.5t161 35.5q22 0 56 -2q1 35 1 51q0 58 -24.5 90t-68.5 32q-16 0 -29.5 -5t-27.5 -18.5t-20 -20t-20.5 -26.5t-15.5 -21q-42 7 -51.5 40
t25.5 59q57 43 160 43q157 0 157 -162q0 -37 -3.5 -116.5t-3.5 -114.5q44 -12 76 -23z" />
    <glyph glyph-name="Abrevegrave" unicode="&#x1eb0;" horiz-adv-x="686" 
d="M449 911l-11 -26q-206 30 -206 99q0 33 38 43q112 -81 179 -116zM340 708q-63 0 -91.5 38t-25.5 90h40q9 -68 77 -68q69 0 78 68h40q3 -52 -25.5 -90t-92.5 -38zM330 599l-104 -316h208zM510 54l-58 175h-244l-57 -175q55 -8 93 -18v-36h-230q0 24 14 34.5t56 20.5
l206 611h47q23 0 38 -4.5t24.5 -17t14 -21.5t11.5 -31l177 -538q43 -10 56.5 -19.5t13.5 -34.5h-255v36q40 11 93 18z" />
    <glyph glyph-name="abrevegrave" unicode="&#x1eb1;" horiz-adv-x="494" 
d="M333 742l-21 -25l-61 30.5t-55 32t-49.5 40.5t-16.5 39q0 20 15.5 31t42.5 10q59 -76 145 -158zM231 555q-64 0 -91.5 39t-20.5 97h40q0 -76 72 -76t72 76h40q7 -58 -20.5 -97t-91.5 -39zM223 54q29 0 54 13.5t36 34.5l2 101q-91 5 -136.5 -10t-45.5 -65q0 -36 24.5 -55
t65.5 -19zM472 62v-31q-30 -41 -75 -41q-52 0 -73 70q-45 -71 -133 -71q-70 0 -109.5 36.5t-39.5 91.5q0 68 58 103.5t161 35.5q22 0 56 -2q1 35 1 51q0 58 -24.5 90t-68.5 32q-16 0 -29.5 -5t-27.5 -18.5t-20 -20t-20.5 -26.5t-15.5 -21q-42 7 -51.5 40t25.5 59
q57 43 160 43q157 0 157 -162q0 -37 -3.5 -116.5t-3.5 -114.5q44 -12 76 -23z" />
    <glyph glyph-name="Abrevehook" unicode="&#x1eb2;" horiz-adv-x="686" 
d="M318 869q-9 16 -9 33q0 26 36 39q2 1 7 2.5t6.5 2.5t5.5 2.5t5.5 2.5t4 3t3.5 3.5t2.5 4t2 5.5t0.5 7q0 25 -42 25q-43 0 -68 -40q-24 8 -24 35q0 25 25.5 40t69.5 15q46 0 74.5 -20t28.5 -49t-24 -46t-66 -17v-48h-38zM340 708q-63 0 -91.5 38t-25.5 90h40q9 -68 77 -68
q69 0 78 68h40q3 -52 -25.5 -90t-92.5 -38zM330 599l-104 -316h208zM510 54l-58 175h-244l-57 -175q55 -8 93 -18v-36h-230q0 24 14 34.5t56 20.5l206 611h47q23 0 38 -4.5t24.5 -17t14 -21.5t11.5 -31l177 -538q43 -10 56.5 -19.5t13.5 -34.5h-255v36q40 11 93 18z" />
    <glyph glyph-name="abrevehook" unicode="&#x1eb3;" horiz-adv-x="494" 
d="M208 724q-10 18 -10 33q0 21 42 40q35 16 35 41q0 33 -42 33q-38 0 -67 -41q-10 2 -17.5 11.5t-7.5 20.5q0 27 26 42.5t73 15.5q44 0 71.5 -21t27.5 -54t-26 -53t-64 -20v-48h-41zM231 555q-64 0 -91.5 39t-20.5 97h40q0 -76 72 -76t72 76h40q7 -58 -20.5 -97t-91.5 -39z
M223 54q29 0 54 13.5t36 34.5l2 101q-91 5 -136.5 -10t-45.5 -65q0 -36 24.5 -55t65.5 -19zM472 62v-31q-30 -41 -75 -41q-52 0 -73 70q-45 -71 -133 -71q-70 0 -109.5 36.5t-39.5 91.5q0 68 58 103.5t161 35.5q22 0 56 -2q1 35 1 51q0 58 -24.5 90t-68.5 32q-16 0 -29.5 -5
t-27.5 -18.5t-20 -20t-20.5 -26.5t-15.5 -21q-42 7 -51.5 40t25.5 59q57 43 160 43q157 0 157 -162q0 -37 -3.5 -116.5t-3.5 -114.5q44 -12 76 -23z" />
    <glyph glyph-name="Abrevetilde" unicode="&#x1eb4;" horiz-adv-x="686" 
d="M405 954q20 0 33.5 10t31.5 32l28 -15q-16 -39 -41 -65t-58 -26q-30 0 -66.5 21.5t-55.5 21.5q-31 0 -65 -41l-29 16q37 90 101 90q28 0 64.5 -22t56.5 -22zM340 708q-63 0 -91.5 38t-25.5 90h40q9 -68 77 -68q69 0 78 68h40q3 -52 -25.5 -90t-92.5 -38zM330 599
l-104 -316h208zM510 54l-58 175h-244l-57 -175q55 -8 93 -18v-36h-230q0 24 14 34.5t56 20.5l206 611h47q23 0 38 -4.5t24.5 -17t14 -21.5t11.5 -31l177 -538q43 -10 56.5 -19.5t13.5 -34.5h-255v36q40 11 93 18z" />
    <glyph glyph-name="abrevetilde" unicode="&#x1eb5;" horiz-adv-x="494" 
d="M295 805q14 0 26 7t17.5 13t18.5 22l28 -15q-36 -91 -96 -91q-29 0 -65 21t-55 21q-14 0 -27.5 -8t-17.5 -12.5t-17 -20.5l-29 16q37 90 98 90q27 0 63.5 -21.5t55.5 -21.5zM231 555q-64 0 -91.5 39t-20.5 97h40q0 -76 72 -76t72 76h40q7 -58 -20.5 -97t-91.5 -39z
M223 54q29 0 54 13.5t36 34.5l2 101q-91 5 -136.5 -10t-45.5 -65q0 -36 24.5 -55t65.5 -19zM472 62v-31q-30 -41 -75 -41q-52 0 -73 70q-45 -71 -133 -71q-70 0 -109.5 36.5t-39.5 91.5q0 68 58 103.5t161 35.5q22 0 56 -2q1 35 1 51q0 58 -24.5 90t-68.5 32q-16 0 -29.5 -5
t-27.5 -18.5t-20 -20t-20.5 -26.5t-15.5 -21q-42 7 -51.5 40t25.5 59q57 43 160 43q157 0 157 -162q0 -37 -3.5 -116.5t-3.5 -114.5q44 -12 76 -23z" />
    <glyph glyph-name="Abrevedotaccent" unicode="&#x1eb6;" horiz-adv-x="686" 
d="M340 708q-63 0 -91.5 38t-25.5 90h40q9 -68 77 -68q69 0 78 68h40q3 -52 -25.5 -90t-92.5 -38zM330 599l-104 -316h208zM510 54l-58 175h-244l-57 -175q55 -8 93 -18v-36h-230q0 24 14 34.5t56 20.5l206 611h47q23 0 38 -4.5t24.5 -17t14 -21.5t11.5 -31l177 -538
q43 -10 56.5 -19.5t13.5 -34.5h-255v36q40 11 93 18zM273 -116q0 23 16.5 39.5t39.5 16.5t39.5 -16.5t16.5 -39.5t-16.5 -39.5t-39.5 -16.5t-39.5 16.5t-16.5 39.5z" />
    <glyph glyph-name="abrevedotaccent" unicode="&#x1eb7;" horiz-adv-x="494" 
d="M231 555q-64 0 -91.5 39t-20.5 97h40q0 -76 72 -76t72 76h40q7 -58 -20.5 -97t-91.5 -39zM223 54q29 0 54 13.5t36 34.5l2 101q-91 5 -136.5 -10t-45.5 -65q0 -36 24.5 -55t65.5 -19zM472 62v-31q-30 -41 -75 -41q-52 0 -73 70q-45 -71 -133 -71q-70 0 -109.5 36.5
t-39.5 91.5q0 68 58 103.5t161 35.5q22 0 56 -2q1 35 1 51q0 58 -24.5 90t-68.5 32q-16 0 -29.5 -5t-27.5 -18.5t-20 -20t-20.5 -26.5t-15.5 -21q-42 7 -51.5 40t25.5 59q57 43 160 43q157 0 157 -162q0 -37 -3.5 -116.5t-3.5 -114.5q44 -12 76 -23zM175 -108
q0 23 16.5 39.5t39.5 16.5t39.5 -16.5t16.5 -39.5t-16.5 -39.5t-39.5 -16.5t-39.5 16.5t-16.5 39.5z" />
    <glyph glyph-name="Edotaccentbelow" unicode="&#x1eb8;" horiz-adv-x="570" 
d="M512 0h-472q0 28 15.5 38t71.5 20v542q-56 10 -71.5 20t-15.5 38h473q6 -16 6 -45q0 -51 -23 -108h-30q-21 46 -32 99h-217v-227h218v-30q-14 -28 -53 -28h-165v-265h219q11 62 31 105h30q23 -58 23 -111q0 -27 -8 -48zM254 -116q0 23 16.5 39.5t39.5 16.5t39.5 -16.5
t16.5 -39.5t-16.5 -39.5t-39.5 -16.5t-39.5 16.5t-16.5 39.5z" />
    <glyph glyph-name="edotaccentbelow" unicode="&#x1eb9;" horiz-adv-x="480" 
d="M407 104q6 -4 15 -15t10 -15q-61 -85 -174 -85q-102 0 -160 68t-58 163q0 120 62.5 189t159.5 69q90 0 134.5 -48.5t44.5 -121.5q0 -28 -3 -60h-307q-3 -78 37.5 -135t119.5 -57q63 0 119 48zM358 298q0 128 -108 128q-53 0 -81.5 -37t-33.5 -91h223zM198 -108
q0 23 16.5 39.5t39.5 16.5t39.5 -16.5t16.5 -39.5t-16.5 -39.5t-39.5 -16.5t-39.5 16.5t-16.5 39.5z" />
    <glyph glyph-name="Ehook" unicode="&#x1eba;" horiz-adv-x="570" 
d="M288 701q-9 16 -9 33q0 26 36 39q2 1 7 2.5t6.5 2.5t5.5 2.5t5.5 2.5t4 3t3.5 3.5t2.5 4t2 5.5t0.5 7q0 25 -42 25q-43 0 -68 -40q-24 8 -24 35q0 25 25.5 40t69.5 15q46 0 74.5 -20t28.5 -49t-24 -46t-66 -17v-48h-38zM512 0h-472q0 28 15.5 38t71.5 20v542
q-56 10 -71.5 20t-15.5 38h473q6 -16 6 -45q0 -51 -23 -108h-30q-21 46 -32 99h-217v-227h218v-30q-14 -28 -53 -28h-165v-265h219q11 62 31 105h30q23 -58 23 -111q0 -27 -8 -48z" />
    <glyph glyph-name="ehook" unicode="&#x1ebb;" horiz-adv-x="480" 
d="M231 547q-10 18 -10 33q0 21 42 40q35 16 35 41q0 33 -42 33q-38 0 -67 -41q-10 2 -17.5 11.5t-7.5 20.5q0 27 26 42.5t73 15.5q44 0 71.5 -21t27.5 -54t-26 -53t-64 -20v-48h-41zM407 104q6 -4 15 -15t10 -15q-61 -85 -174 -85q-102 0 -160 68t-58 163q0 120 62.5 189
t159.5 69q90 0 134.5 -48.5t44.5 -121.5q0 -28 -3 -60h-307q-3 -78 37.5 -135t119.5 -57q63 0 119 48zM358 298q0 128 -108 128q-53 0 -81.5 -37t-33.5 -91h223z" />
    <glyph glyph-name="Etilde" unicode="&#x1ebc;" horiz-adv-x="570" 
d="M375 786q20 0 33.5 10t31.5 32l28 -15q-16 -39 -41 -65t-58 -26q-30 0 -66.5 21.5t-55.5 21.5q-31 0 -65 -41l-29 16q37 90 101 90q28 0 64.5 -22t56.5 -22zM512 0h-472q0 28 15.5 38t71.5 20v542q-56 10 -71.5 20t-15.5 38h473q6 -16 6 -45q0 -51 -23 -108h-30
q-21 46 -32 99h-217v-227h218v-30q-14 -28 -53 -28h-165v-265h219q11 62 31 105h30q23 -58 23 -111q0 -27 -8 -48z" />
    <glyph glyph-name="etilde" unicode="&#x1ebd;" horiz-adv-x="480" 
d="M318 628q14 0 26 7t17.5 13t18.5 22l28 -15q-36 -91 -96 -91q-29 0 -65 21t-55 21q-14 0 -27.5 -8t-17.5 -12.5t-17 -20.5l-29 16q37 90 98 90q27 0 63.5 -21.5t55.5 -21.5zM407 104q6 -4 15 -15t10 -15q-61 -85 -174 -85q-102 0 -160 68t-58 163q0 120 62.5 189
t159.5 69q90 0 134.5 -48.5t44.5 -121.5q0 -28 -3 -60h-307q-3 -78 37.5 -135t119.5 -57q63 0 119 48zM358 298q0 128 -108 128q-53 0 -81.5 -37t-33.5 -91h223z" />
    <glyph glyph-name="Ecircumflexacute" unicode="&#x1ebe;" horiz-adv-x="570" 
d="M213 911l-11 26q70 37 178 116q38 -9 38 -43q0 -37 -57.5 -62t-147.5 -37zM348 860q47 -55 102 -129l-28 -24q-53 37 -112 87q-110 -85 -112 -87l-28 24q33 42 82 97q20 22 32.5 29t33.5 7q16 0 30 -4zM512 0h-472q0 28 15.5 38t71.5 20v542q-56 10 -71.5 20t-15.5 38
h473q6 -16 6 -45q0 -51 -23 -108h-30q-21 46 -32 99h-217v-227h218v-30q-14 -28 -53 -28h-165v-265h219q11 62 31 105h30q23 -58 23 -111q0 -27 -8 -48z" />
    <glyph glyph-name="ecircumflexacute" unicode="&#x1ebf;" horiz-adv-x="480" 
d="M173 728l-20 24q82 79 145 159q27 1 42.5 -10t15.5 -31q0 -19 -16.5 -39t-50.5 -40.5t-55 -32t-61 -30.5zM291 721q41 -64 99 -164l-29 -22l-108 115l-106 -115l-29 21q48 84 78 130q15 22 27.5 29.5t37.5 7.5q18 0 30 -2zM407 104q6 -4 15 -15t10 -15q-61 -85 -174 -85
q-102 0 -160 68t-58 163q0 120 62.5 189t159.5 69q90 0 134.5 -48.5t44.5 -121.5q0 -28 -3 -60h-307q-3 -78 37.5 -135t119.5 -57q63 0 119 48zM358 298q0 128 -108 128q-53 0 -81.5 -37t-33.5 -91h223z" />
    <glyph glyph-name="Ecircumflexgrave" unicode="&#x1ec0;" horiz-adv-x="570" 
d="M419 937l-11 -26q-206 30 -206 99q0 33 38 43q112 -81 179 -116zM348 860q47 -55 102 -129l-28 -24q-53 37 -112 87q-110 -85 -112 -87l-28 24q33 42 82 97q20 22 32.5 29t33.5 7q16 0 30 -4zM512 0h-472q0 28 15.5 38t71.5 20v542q-56 10 -71.5 20t-15.5 38h473
q6 -16 6 -45q0 -51 -23 -108h-30q-21 46 -32 99h-217v-227h218v-30q-14 -28 -53 -28h-165v-265h219q11 62 31 105h30q23 -58 23 -111q0 -27 -8 -48z" />
    <glyph glyph-name="ecircumflexgrave" unicode="&#x1ec1;" horiz-adv-x="480" 
d="M356 753l-21 -25l-61 30.5t-55 32t-49.5 40.5t-16.5 39q0 20 15.5 31t42.5 10q59 -76 145 -158zM291 721q41 -64 99 -164l-29 -22l-108 115l-106 -115l-29 21q48 84 78 130q15 22 27.5 29.5t37.5 7.5q18 0 30 -2zM407 104q6 -4 15 -15t10 -15q-61 -85 -174 -85
q-102 0 -160 68t-58 163q0 120 62.5 189t159.5 69q90 0 134.5 -48.5t44.5 -121.5q0 -28 -3 -60h-307q-3 -78 37.5 -135t119.5 -57q63 0 119 48zM358 298q0 128 -108 128q-53 0 -81.5 -37t-33.5 -91h223z" />
    <glyph glyph-name="Ecircumflexhook" unicode="&#x1ec2;" horiz-adv-x="570" 
d="M288 895q-9 16 -9 33q0 26 36 39q2 1 7 2.5t6.5 2.5t5.5 2.5t5.5 2.5t4 3t3.5 3.5t2.5 4t2 5.5t0.5 7q0 25 -42 25q-43 0 -68 -40q-24 8 -24 35q0 25 25.5 40t69.5 15q46 0 74.5 -20t28.5 -49t-24 -46t-66 -17v-48h-38zM348 860q47 -55 102 -129l-28 -24q-53 37 -112 87
q-110 -85 -112 -87l-28 24q33 42 82 97q20 22 32.5 29t33.5 7q16 0 30 -4zM512 0h-472q0 28 15.5 38t71.5 20v542q-56 10 -71.5 20t-15.5 38h473q6 -16 6 -45q0 -51 -23 -108h-30q-21 46 -32 99h-217v-227h218v-30q-14 -28 -53 -28h-165v-265h219q11 62 31 105h30
q23 -58 23 -111q0 -27 -8 -48z" />
    <glyph glyph-name="ecircumflexhook" unicode="&#x1ec3;" horiz-adv-x="480" 
d="M231 740q-10 18 -10 33q0 21 42 40q35 16 35 41q0 33 -42 33q-38 0 -67 -41q-10 2 -17.5 11.5t-7.5 20.5q0 27 26 42.5t73 15.5q44 0 71.5 -21t27.5 -54t-26 -53t-64 -20v-48h-41zM291 721q41 -64 99 -164l-29 -22l-108 115l-106 -115l-29 21q48 84 78 130
q15 22 27.5 29.5t37.5 7.5q18 0 30 -2zM407 104q6 -4 15 -15t10 -15q-61 -85 -174 -85q-102 0 -160 68t-58 163q0 120 62.5 189t159.5 69q90 0 134.5 -48.5t44.5 -121.5q0 -28 -3 -60h-307q-3 -78 37.5 -135t119.5 -57q63 0 119 48zM358 298q0 128 -108 128q-53 0 -81.5 -37
t-33.5 -91h223z" />
    <glyph glyph-name="Ecircumflextilde" unicode="&#x1ec4;" horiz-adv-x="570" 
d="M375 980q20 0 33.5 10t31.5 32l28 -15q-16 -39 -41 -65t-58 -26q-30 0 -66.5 21.5t-55.5 21.5q-31 0 -65 -41l-29 16q37 90 101 90q28 0 64.5 -22t56.5 -22zM348 860q47 -55 102 -129l-28 -24q-53 37 -112 87q-110 -85 -112 -87l-28 24q33 42 82 97q20 22 32.5 29t33.5 7
q16 0 30 -4zM512 0h-472q0 28 15.5 38t71.5 20v542q-56 10 -71.5 20t-15.5 38h473q6 -16 6 -45q0 -51 -23 -108h-30q-21 46 -32 99h-217v-227h218v-30q-14 -28 -53 -28h-165v-265h219q11 62 31 105h30q23 -58 23 -111q0 -27 -8 -48z" />
    <glyph glyph-name="ecircumflextilde" unicode="&#x1ec5;" horiz-adv-x="480" 
d="M318 816q14 0 26 7t17.5 13t18.5 22l28 -15q-36 -91 -96 -91q-29 0 -65 21t-55 21q-14 0 -27.5 -8t-17.5 -12.5t-17 -20.5l-29 16q37 90 98 90q27 0 63.5 -21.5t55.5 -21.5zM291 721q41 -64 99 -164l-29 -22l-108 115l-106 -115l-29 21q48 84 78 130q15 22 27.5 29.5
t37.5 7.5q18 0 30 -2zM407 104q6 -4 15 -15t10 -15q-61 -85 -174 -85q-102 0 -160 68t-58 163q0 120 62.5 189t159.5 69q90 0 134.5 -48.5t44.5 -121.5q0 -28 -3 -60h-307q-3 -78 37.5 -135t119.5 -57q63 0 119 48zM358 298q0 128 -108 128q-53 0 -81.5 -37t-33.5 -91h223z
" />
    <glyph glyph-name="Ecircumflexdotaccent" unicode="&#x1ec6;" horiz-adv-x="570" 
d="M348 860q47 -55 102 -129l-28 -24q-53 37 -112 87q-110 -85 -112 -87l-28 24q33 42 82 97q20 22 32.5 29t33.5 7q16 0 30 -4zM512 0h-472q0 28 15.5 38t71.5 20v542q-56 10 -71.5 20t-15.5 38h473q6 -16 6 -45q0 -51 -23 -108h-30q-21 46 -32 99h-217v-227h218v-30
q-14 -28 -53 -28h-165v-265h219q11 62 31 105h30q23 -58 23 -111q0 -27 -8 -48zM254 -116q0 23 16.5 39.5t39.5 16.5t39.5 -16.5t16.5 -39.5t-16.5 -39.5t-39.5 -16.5t-39.5 16.5t-16.5 39.5z" />
    <glyph glyph-name="ecircumflexdotaccent" unicode="&#x1ec7;" horiz-adv-x="480" 
d="M291 721q41 -64 99 -164l-29 -22l-108 115l-106 -115l-29 21q48 84 78 130q15 22 27.5 29.5t37.5 7.5q18 0 30 -2zM407 104q6 -4 15 -15t10 -15q-61 -85 -174 -85q-102 0 -160 68t-58 163q0 120 62.5 189t159.5 69q90 0 134.5 -48.5t44.5 -121.5q0 -28 -3 -60h-307
q-3 -78 37.5 -135t119.5 -57q63 0 119 48zM358 298q0 128 -108 128q-53 0 -81.5 -37t-33.5 -91h223zM198 -108q0 23 16.5 39.5t39.5 16.5t39.5 -16.5t16.5 -39.5t-16.5 -39.5t-39.5 -16.5t-39.5 16.5t-16.5 39.5z" />
    <glyph glyph-name="Ihook" unicode="&#x1ec8;" horiz-adv-x="354" 
d="M155 701q-9 16 -9 33q0 26 36 39q2 1 7 2.5t6.5 2.5t5.5 2.5t5.5 2.5t4 3t3.5 3.5t2.5 4t2 5.5t0.5 7q0 25 -42 25q-43 0 -68 -40q-24 8 -24 35q0 25 25.5 40t69.5 15q46 0 74.5 -20t28.5 -49t-24 -46t-66 -17v-48h-38zM222 601v-544q58 -10 92 -21v-36h-274
q0 27 17 37.5t75 20.5v542q-58 10 -75 20.5t-17 37.5h274v-36q-34 -11 -92 -21z" />
    <glyph glyph-name="ihook" unicode="&#x1ec9;" horiz-adv-x="307" 
d="M134 547q-10 18 -10 33q0 21 42 40q35 16 35 41q0 33 -42 33q-38 0 -67 -41q-10 2 -17.5 11.5t-7.5 20.5q0 27 26 42.5t73 15.5q44 0 71.5 -21t27.5 -54t-26 -53t-64 -20v-48h-41zM202 465v-410q47 -8 79 -19v-36h-248q0 26 15.5 36t67.5 20v340q-46 9 -72 23v26
q59 32 113 32q23 0 45 -12z" />
    <glyph glyph-name="Idotaccentbelow" unicode="&#x1eca;" horiz-adv-x="354" 
d="M222 601v-544q58 -10 92 -21v-36h-274q0 27 17 37.5t75 20.5v542q-58 10 -75 20.5t-17 37.5h274v-36q-34 -11 -92 -21zM121 -116q0 23 16.5 39.5t39.5 16.5t39.5 -16.5t16.5 -39.5t-16.5 -39.5t-39.5 -16.5t-39.5 16.5t-16.5 39.5z" />
    <glyph glyph-name="idotaccentbelow" unicode="&#x1ecb;" horiz-adv-x="307" 
d="M95 630q0 23 16.5 39.5t39.5 16.5t39.5 -16.5t16.5 -39.5t-16.5 -39.5t-39.5 -16.5t-39.5 16.5t-16.5 39.5zM202 465v-410q47 -8 79 -19v-36h-248q0 26 15.5 36t67.5 20v340q-46 9 -72 23v26q59 32 113 32q23 0 45 -12zM101 -97q0 23 16.5 39.5t39.5 16.5t39.5 -16.5
t16.5 -39.5t-16.5 -39.5t-39.5 -16.5t-39.5 16.5t-16.5 39.5z" />
    <glyph glyph-name="Odotaccent" unicode="&#x1ecc;" horiz-adv-x="749" 
d="M53 322q0 153 93 250t233 97q138 0 227.5 -87t89.5 -243q0 -153 -94.5 -251.5t-235.5 -98.5q-137 0 -225 88t-88 245zM153 328q0 -129 61.5 -205t160.5 -76q100 0 160.5 78t60.5 208q0 129 -61.5 204t-161.5 75t-160 -76.5t-60 -207.5zM319 -127q0 23 16.5 39.5
t39.5 16.5t39.5 -16.5t16.5 -39.5t-16.5 -39.5t-39.5 -16.5t-39.5 16.5t-16.5 39.5z" />
    <glyph glyph-name="odotaccent" unicode="&#x1ecd;" horiz-adv-x="547" 
d="M42 227q0 105 65.5 178t171.5 73q103 0 164.5 -64t61.5 -173q0 -105 -65.5 -178.5t-171.5 -73.5q-103 0 -164.5 65t-61.5 173zM135 234q0 -87 36.5 -139t103.5 -52q64 0 101 52.5t37 138.5q0 87 -36.5 138.5t-103.5 51.5q-63 0 -100.5 -52t-37.5 -138zM218 -108
q0 23 16.5 39.5t39.5 16.5t39.5 -16.5t16.5 -39.5t-16.5 -39.5t-39.5 -16.5t-39.5 16.5t-16.5 39.5z" />
    <glyph glyph-name="Ohook" unicode="&#x1ece;" horiz-adv-x="749" 
d="M353 701q-9 16 -9 33q0 26 36 39q2 1 7 2.5t6.5 2.5t5.5 2.5t5.5 2.5t4 3t3.5 3.5t2.5 4t2 5.5t0.5 7q0 25 -42 25q-43 0 -68 -40q-24 8 -24 35q0 25 25.5 40t69.5 15q46 0 74.5 -20t28.5 -49t-24 -46t-66 -17v-48h-38zM53 322q0 153 93 250t233 97q138 0 227.5 -87
t89.5 -243q0 -153 -94.5 -251.5t-235.5 -98.5q-137 0 -225 88t-88 245zM153 328q0 -129 61.5 -205t160.5 -76q100 0 160.5 78t60.5 208q0 129 -61.5 204t-161.5 75t-160 -76.5t-60 -207.5z" />
    <glyph glyph-name="ohook" unicode="&#x1ecf;" horiz-adv-x="547" 
d="M251 547q-10 18 -10 33q0 21 42 40q35 16 35 41q0 33 -42 33q-38 0 -67 -41q-10 2 -17.5 11.5t-7.5 20.5q0 27 26 42.5t73 15.5q44 0 71.5 -21t27.5 -54t-26 -53t-64 -20v-48h-41zM42 227q0 105 65.5 178t171.5 73q103 0 164.5 -64t61.5 -173q0 -105 -65.5 -178.5
t-171.5 -73.5q-103 0 -164.5 65t-61.5 173zM135 234q0 -87 36.5 -139t103.5 -52q64 0 101 52.5t37 138.5q0 87 -36.5 138.5t-103.5 51.5q-63 0 -100.5 -52t-37.5 -138z" />
    <glyph glyph-name="Ocircumflexacute" unicode="&#x1ed0;" horiz-adv-x="749" 
d="M278 911l-11 26q70 37 178 116q38 -9 38 -43q0 -37 -57.5 -62t-147.5 -37zM413 860q47 -55 102 -129l-28 -24q-53 37 -112 87q-110 -85 -112 -87l-28 24q33 42 82 97q20 22 32.5 29t33.5 7q16 0 30 -4zM53 322q0 153 93 250t233 97q138 0 227.5 -87t89.5 -243
q0 -153 -94.5 -251.5t-235.5 -98.5q-137 0 -225 88t-88 245zM153 328q0 -129 61.5 -205t160.5 -76q100 0 160.5 78t60.5 208q0 129 -61.5 204t-161.5 75t-160 -76.5t-60 -207.5z" />
    <glyph glyph-name="ocircumflexacute" unicode="&#x1ed1;" horiz-adv-x="547" 
d="M192 749l-20 24q82 79 145 159q27 1 42.5 -10t15.5 -31q0 -19 -16.5 -39t-50.5 -40.5t-55 -32t-61 -30.5zM311 721q41 -64 99 -164l-29 -22l-108 115l-106 -115l-29 21q48 84 78 130q15 22 27.5 29.5t37.5 7.5q18 0 30 -2zM42 227q0 105 65.5 178t171.5 73
q103 0 164.5 -64t61.5 -173q0 -105 -65.5 -178.5t-171.5 -73.5q-103 0 -164.5 65t-61.5 173zM135 234q0 -87 36.5 -139t103.5 -52q64 0 101 52.5t37 138.5q0 87 -36.5 138.5t-103.5 51.5q-63 0 -100.5 -52t-37.5 -138z" />
    <glyph glyph-name="Ocircumflexgrave" unicode="&#x1ed2;" horiz-adv-x="749" 
d="M483 937l-11 -26q-206 30 -206 99q0 33 38 43q112 -81 179 -116zM413 860q47 -55 102 -129l-28 -24q-53 37 -112 87q-110 -85 -112 -87l-28 24q33 42 82 97q20 22 32.5 29t33.5 7q16 0 30 -4zM53 322q0 153 93 250t233 97q138 0 227.5 -87t89.5 -243q0 -153 -94.5 -251.5
t-235.5 -98.5q-137 0 -225 88t-88 245zM153 328q0 -129 61.5 -205t160.5 -76q100 0 160.5 78t60.5 208q0 129 -61.5 204t-161.5 75t-160 -76.5t-60 -207.5z" />
    <glyph glyph-name="ocircumflexgrave" unicode="&#x1ed3;" horiz-adv-x="547" 
d="M375 753l-21 -25l-61 30.5t-55 32t-49.5 40.5t-16.5 39q0 20 15.5 31t42.5 10q59 -76 145 -158zM311 721q41 -64 99 -164l-29 -22l-108 115l-106 -115l-29 21q48 84 78 130q15 22 27.5 29.5t37.5 7.5q18 0 30 -2zM42 227q0 105 65.5 178t171.5 73q103 0 164.5 -64
t61.5 -173q0 -105 -65.5 -178.5t-171.5 -73.5q-103 0 -164.5 65t-61.5 173zM135 234q0 -87 36.5 -139t103.5 -52q64 0 101 52.5t37 138.5q0 87 -36.5 138.5t-103.5 51.5q-63 0 -100.5 -52t-37.5 -138z" />
    <glyph glyph-name="Ocircumflexhook" unicode="&#x1ed4;" horiz-adv-x="749" 
d="M353 895q-9 16 -9 33q0 26 36 39q2 1 7 2.5t6.5 2.5t5.5 2.5t5.5 2.5t4 3t3.5 3.5t2.5 4t2 5.5t0.5 7q0 25 -42 25q-43 0 -68 -40q-24 8 -24 35q0 25 25.5 40t69.5 15q46 0 74.5 -20t28.5 -49t-24 -46t-66 -17v-48h-38zM413 860q47 -55 102 -129l-28 -24q-53 37 -112 87
q-110 -85 -112 -87l-28 24q33 42 82 97q20 22 32.5 29t33.5 7q16 0 30 -4zM53 322q0 153 93 250t233 97q138 0 227.5 -87t89.5 -243q0 -153 -94.5 -251.5t-235.5 -98.5q-137 0 -225 88t-88 245zM153 328q0 -129 61.5 -205t160.5 -76q100 0 160.5 78t60.5 208
q0 129 -61.5 204t-161.5 75t-160 -76.5t-60 -207.5z" />
    <glyph glyph-name="ocircumflexhook" unicode="&#x1ed5;" horiz-adv-x="547" 
d="M251 735q-10 18 -10 33q0 21 42 40q35 16 35 41q0 33 -42 33q-38 0 -67 -41q-10 2 -17.5 11.5t-7.5 20.5q0 27 26 42.5t73 15.5q44 0 71.5 -21t27.5 -54t-26 -53t-64 -20v-48h-41zM311 721q41 -64 99 -164l-29 -22l-108 115l-106 -115l-29 21q48 84 78 130
q15 22 27.5 29.5t37.5 7.5q18 0 30 -2zM42 227q0 105 65.5 178t171.5 73q103 0 164.5 -64t61.5 -173q0 -105 -65.5 -178.5t-171.5 -73.5q-103 0 -164.5 65t-61.5 173zM135 234q0 -87 36.5 -139t103.5 -52q64 0 101 52.5t37 138.5q0 87 -36.5 138.5t-103.5 51.5
q-63 0 -100.5 -52t-37.5 -138z" />
    <glyph glyph-name="Ocircumflextilde" unicode="&#x1ed6;" horiz-adv-x="749" 
d="M439 980q20 0 33.5 10t31.5 32l28 -15q-16 -39 -41 -65t-58 -26q-30 0 -66.5 21.5t-55.5 21.5q-31 0 -65 -41l-29 16q37 90 101 90q28 0 64.5 -22t56.5 -22zM413 860q47 -55 102 -129l-28 -24q-53 37 -112 87q-110 -85 -112 -87l-28 24q33 42 82 97q20 22 32.5 29t33.5 7
q16 0 30 -4zM53 322q0 153 93 250t233 97q138 0 227.5 -87t89.5 -243q0 -153 -94.5 -251.5t-235.5 -98.5q-137 0 -225 88t-88 245zM153 328q0 -129 61.5 -205t160.5 -76q100 0 160.5 78t60.5 208q0 129 -61.5 204t-161.5 75t-160 -76.5t-60 -207.5z" />
    <glyph glyph-name="ocircumflextilde" unicode="&#x1ed7;" horiz-adv-x="547" 
d="M337 816q14 0 26 7t17.5 13t18.5 22l28 -15q-36 -91 -96 -91q-29 0 -65 21t-55 21q-14 0 -27.5 -8t-17.5 -12.5t-17 -20.5l-29 16q37 90 98 90q27 0 63.5 -21.5t55.5 -21.5zM311 721q41 -64 99 -164l-29 -22l-108 115l-106 -115l-29 21q48 84 78 130q15 22 27.5 29.5
t37.5 7.5q18 0 30 -2zM42 227q0 105 65.5 178t171.5 73q103 0 164.5 -64t61.5 -173q0 -105 -65.5 -178.5t-171.5 -73.5q-103 0 -164.5 65t-61.5 173zM135 234q0 -87 36.5 -139t103.5 -52q64 0 101 52.5t37 138.5q0 87 -36.5 138.5t-103.5 51.5q-63 0 -100.5 -52t-37.5 -138z
" />
    <glyph glyph-name="Ocircumflexdotaccent" unicode="&#x1ed8;" horiz-adv-x="749" 
d="M413 860q47 -55 102 -129l-28 -24q-53 37 -112 87q-110 -85 -112 -87l-28 24q33 42 82 97q20 22 32.5 29t33.5 7q16 0 30 -4zM53 322q0 153 93 250t233 97q138 0 227.5 -87t89.5 -243q0 -153 -94.5 -251.5t-235.5 -98.5q-137 0 -225 88t-88 245zM153 328
q0 -129 61.5 -205t160.5 -76q100 0 160.5 78t60.5 208q0 129 -61.5 204t-161.5 75t-160 -76.5t-60 -207.5zM319 -127q0 23 16.5 39.5t39.5 16.5t39.5 -16.5t16.5 -39.5t-16.5 -39.5t-39.5 -16.5t-39.5 16.5t-16.5 39.5z" />
    <glyph glyph-name="ocircumlfexdotaccent" unicode="&#x1ed9;" horiz-adv-x="547" 
d="M311 721q41 -64 99 -164l-29 -22l-108 115l-106 -115l-29 21q48 84 78 130q15 22 27.5 29.5t37.5 7.5q18 0 30 -2zM42 227q0 105 65.5 178t171.5 73q103 0 164.5 -64t61.5 -173q0 -105 -65.5 -178.5t-171.5 -73.5q-103 0 -164.5 65t-61.5 173zM135 234q0 -87 36.5 -139
t103.5 -52q64 0 101 52.5t37 138.5q0 87 -36.5 138.5t-103.5 51.5q-63 0 -100.5 -52t-37.5 -138zM218 -108q0 23 16.5 39.5t39.5 16.5t39.5 -16.5t16.5 -39.5t-16.5 -39.5t-39.5 -16.5t-39.5 16.5t-16.5 39.5z" />
    <glyph glyph-name="Ohornacute" unicode="&#x1eda;" horiz-adv-x="754" 
d="M278 717l-11 26q70 37 178 116q38 -9 38 -43q0 -37 -57.5 -62t-147.5 -37zM366 -11q-137 0 -225 88t-88 245q0 153 93 250t233 97q170 0 257 -122q33 8 55 28.5t22 44.5q0 14 -9.5 22.5t-22.5 8.5q-20 0 -29 -9q-10 8 -10 27q0 20 16 35t45 15q27 0 46.5 -20t19.5 -52
q0 -48 -32.5 -83.5t-80.5 -49.5q40 -74 40 -175q0 -153 -94.5 -251.5t-235.5 -98.5zM153 328q0 -129 61.5 -205t160.5 -76q100 0 160.5 78t60.5 208q0 129 -61.5 204t-161.5 75t-160 -76.5t-60 -207.5z" />
    <glyph glyph-name="ohornacute" unicode="&#x1edb;" horiz-adv-x="572" 
d="M241 540l-20 24q82 79 145 159q27 1 42.5 -10t15.5 -31q0 -19 -16.5 -39t-50.5 -40.5t-55 -32t-61 -30.5zM268 -11q-103 0 -164.5 65t-61.5 173q0 105 65.5 178t171.5 73q125 0 185 -90q28 10 46 29t18 40q0 14 -9.5 22.5t-22.5 8.5q-20 0 -29 -9q-10 8 -10 27
q0 20 16 35t45 15q27 0 46.5 -20t19.5 -52q0 -45 -29 -79t-72 -50q22 -52 22 -114q0 -105 -65.5 -178.5t-171.5 -73.5zM135 234q0 -87 36.5 -139t103.5 -52q64 0 101 52.5t37 138.5q0 87 -36.5 138.5t-103.5 51.5q-63 0 -100.5 -52t-37.5 -138z" />
    <glyph glyph-name="Ohorngrave" unicode="&#x1edc;" horiz-adv-x="754" 
d="M483 743l-11 -26q-206 30 -206 99q0 33 38 43q112 -81 179 -116zM366 -11q-137 0 -225 88t-88 245q0 153 93 250t233 97q170 0 257 -122q33 8 55 28.5t22 44.5q0 14 -9.5 22.5t-22.5 8.5q-20 0 -29 -9q-10 8 -10 27q0 20 16 35t45 15q27 0 46.5 -20t19.5 -52
q0 -48 -32.5 -83.5t-80.5 -49.5q40 -74 40 -175q0 -153 -94.5 -251.5t-235.5 -98.5zM153 328q0 -129 61.5 -205t160.5 -76q100 0 160.5 78t60.5 208q0 129 -61.5 204t-161.5 75t-160 -76.5t-60 -207.5z" />
    <glyph glyph-name="ohorngrave" unicode="&#x1edd;" horiz-adv-x="572" 
d="M375 565l-21 -25l-61 30.5t-55 32t-49.5 40.5t-16.5 39q0 20 15.5 31t42.5 10q59 -76 145 -158zM268 -11q-103 0 -164.5 65t-61.5 173q0 105 65.5 178t171.5 73q125 0 185 -90q28 10 46 29t18 40q0 14 -9.5 22.5t-22.5 8.5q-20 0 -29 -9q-10 8 -10 27q0 20 16 35t45 15
q27 0 46.5 -20t19.5 -52q0 -45 -29 -79t-72 -50q22 -52 22 -114q0 -105 -65.5 -178.5t-171.5 -73.5zM135 234q0 -87 36.5 -139t103.5 -52q64 0 101 52.5t37 138.5q0 87 -36.5 138.5t-103.5 51.5q-63 0 -100.5 -52t-37.5 -138z" />
    <glyph glyph-name="Ohornhook" unicode="&#x1ede;" horiz-adv-x="754" 
d="M353 701q-9 16 -9 33q0 26 36 39q2 1 7 2.5t6.5 2.5t5.5 2.5t5.5 2.5t4 3t3.5 3.5t2.5 4t2 5.5t0.5 7q0 25 -42 25q-43 0 -68 -40q-24 8 -24 35q0 25 25.5 40t69.5 15q46 0 74.5 -20t28.5 -49t-24 -46t-66 -17v-48h-38zM366 -11q-137 0 -225 88t-88 245q0 153 93 250
t233 97q170 0 257 -122q33 8 55 28.5t22 44.5q0 14 -9.5 22.5t-22.5 8.5q-20 0 -29 -9q-10 8 -10 27q0 20 16 35t45 15q27 0 46.5 -20t19.5 -52q0 -48 -32.5 -83.5t-80.5 -49.5q40 -74 40 -175q0 -153 -94.5 -251.5t-235.5 -98.5zM153 328q0 -129 61.5 -205t160.5 -76
q100 0 160.5 78t60.5 208q0 129 -61.5 204t-161.5 75t-160 -76.5t-60 -207.5z" />
    <glyph glyph-name="ohornhook" unicode="&#x1edf;" horiz-adv-x="572" 
d="M251 547q-10 18 -10 33q0 21 42 40q35 16 35 41q0 33 -42 33q-38 0 -67 -41q-10 2 -17.5 11.5t-7.5 20.5q0 27 26 42.5t73 15.5q44 0 71.5 -21t27.5 -54t-26 -53t-64 -20v-48h-41zM268 -11q-103 0 -164.5 65t-61.5 173q0 105 65.5 178t171.5 73q125 0 185 -90
q28 10 46 29t18 40q0 14 -9.5 22.5t-22.5 8.5q-20 0 -29 -9q-10 8 -10 27q0 20 16 35t45 15q27 0 46.5 -20t19.5 -52q0 -45 -29 -79t-72 -50q22 -52 22 -114q0 -105 -65.5 -178.5t-171.5 -73.5zM135 234q0 -87 36.5 -139t103.5 -52q64 0 101 52.5t37 138.5q0 87 -36.5 138.5
t-103.5 51.5q-63 0 -100.5 -52t-37.5 -138z" />
    <glyph glyph-name="Ohorntilde" unicode="&#x1ee0;" horiz-adv-x="754" 
d="M453 784q20 0 33.5 10t31.5 32l28 -15q-16 -39 -41 -65t-58 -26q-30 0 -66.5 21.5t-55.5 21.5q-31 0 -65 -41l-29 16q37 90 101 90q28 0 64.5 -22t56.5 -22zM366 -11q-137 0 -225 88t-88 245q0 153 93 250t233 97q170 0 257 -122q33 8 55 28.5t22 44.5q0 14 -9.5 22.5
t-22.5 8.5q-20 0 -29 -9q-10 8 -10 27q0 20 16 35t45 15q27 0 46.5 -20t19.5 -52q0 -48 -32.5 -83.5t-80.5 -49.5q40 -74 40 -175q0 -153 -94.5 -251.5t-235.5 -98.5zM153 328q0 -129 61.5 -205t160.5 -76q100 0 160.5 78t60.5 208q0 129 -61.5 204t-161.5 75t-160 -76.5
t-60 -207.5z" />
    <glyph glyph-name="ohorntilde" unicode="&#x1ee1;" horiz-adv-x="572" 
d="M337 628q14 0 26 7t17.5 13t18.5 22l28 -15q-36 -91 -96 -91q-29 0 -65 21t-55 21q-14 0 -27.5 -8t-17.5 -12.5t-17 -20.5l-29 16q37 90 98 90q27 0 63.5 -21.5t55.5 -21.5zM268 -11q-103 0 -164.5 65t-61.5 173q0 105 65.5 178t171.5 73q125 0 185 -90q28 10 46 29
t18 40q0 14 -9.5 22.5t-22.5 8.5q-20 0 -29 -9q-10 8 -10 27q0 20 16 35t45 15q27 0 46.5 -20t19.5 -52q0 -45 -29 -79t-72 -50q22 -52 22 -114q0 -105 -65.5 -178.5t-171.5 -73.5zM135 234q0 -87 36.5 -139t103.5 -52q64 0 101 52.5t37 138.5q0 87 -36.5 138.5t-103.5 51.5
q-63 0 -100.5 -52t-37.5 -138z" />
    <glyph glyph-name="Ohorndotaccent" unicode="&#x1ee2;" horiz-adv-x="754" 
d="M366 -11q-137 0 -225 88t-88 245q0 153 93 250t233 97q170 0 257 -122q33 8 55 28.5t22 44.5q0 14 -9.5 22.5t-22.5 8.5q-20 0 -29 -9q-10 8 -10 27q0 20 16 35t45 15q27 0 46.5 -20t19.5 -52q0 -48 -32.5 -83.5t-80.5 -49.5q40 -74 40 -175q0 -153 -94.5 -251.5
t-235.5 -98.5zM153 328q0 -129 61.5 -205t160.5 -76q100 0 160.5 78t60.5 208q0 129 -61.5 204t-161.5 75t-160 -76.5t-60 -207.5zM319 -127q0 23 16.5 39.5t39.5 16.5t39.5 -16.5t16.5 -39.5t-16.5 -39.5t-39.5 -16.5t-39.5 16.5t-16.5 39.5z" />
    <glyph glyph-name="ohorndotaccent" unicode="&#x1ee3;" horiz-adv-x="572" 
d="M268 -11q-103 0 -164.5 65t-61.5 173q0 105 65.5 178t171.5 73q125 0 185 -90q28 10 46 29t18 40q0 14 -9.5 22.5t-22.5 8.5q-20 0 -29 -9q-10 8 -10 27q0 20 16 35t45 15q27 0 46.5 -20t19.5 -52q0 -45 -29 -79t-72 -50q22 -52 22 -114q0 -105 -65.5 -178.5
t-171.5 -73.5zM135 234q0 -87 36.5 -139t103.5 -52q64 0 101 52.5t37 138.5q0 87 -36.5 138.5t-103.5 51.5q-63 0 -100.5 -52t-37.5 -138zM218 -108q0 23 16.5 39.5t39.5 16.5t39.5 -16.5t16.5 -39.5t-16.5 -39.5t-39.5 -16.5t-39.5 16.5t-16.5 39.5z" />
    <glyph glyph-name="Udotaccent" unicode="&#x1ee4;" horiz-adv-x="771" 
d="M580 268v334q-77 11 -100 20v36h260q0 -27 -16.5 -37t-73.5 -20l-1 -340q0 -124 -69 -198.5t-186 -74.5q-134 0 -203.5 65t-69.5 208v340q-57 10 -73.5 20t-16.5 37h280v-36q-23 -9 -100 -20v-334q0 -104 45 -159t146 -55q178 0 178 214zM343 -128q0 23 16.5 39.5
t39.5 16.5t39.5 -16.5t16.5 -39.5t-16.5 -39.5t-39.5 -16.5t-39.5 16.5t-16.5 39.5z" />
    <glyph glyph-name="udotaccent" unicode="&#x1ee5;" horiz-adv-x="577" 
d="M482 465q-1 -80 -1.5 -202.5t-1.5 -165.5q43 -14 64 -24v-33q-16 -19 -41.5 -33.5t-45.5 -14.5q-24 0 -51 84q-61 -87 -156 -87q-74 0 -114.5 45t-40.5 129q0 98 3 233q-45 9 -71 23v26q59 32 112 32q23 0 45 -12q-3 -159 -3 -287q0 -59 26.5 -91t74.5 -32q72 0 112 73
l3 267q-49 7 -80 24v26q59 32 121 32q23 0 45 -12zM224 -108q0 23 16.5 39.5t39.5 16.5t39.5 -16.5t16.5 -39.5t-16.5 -39.5t-39.5 -16.5t-39.5 16.5t-16.5 39.5z" />
    <glyph glyph-name="Uhook" unicode="&#x1ee6;" horiz-adv-x="771" 
d="M377 701q-9 16 -9 33q0 26 36 39q2 1 7 2.5t6.5 2.5t5.5 2.5t5.5 2.5t4 3t3.5 3.5t2.5 4t2 5.5t0.5 7q0 25 -42 25q-43 0 -68 -40q-24 8 -24 35q0 25 25.5 40t69.5 15q46 0 74.5 -20t28.5 -49t-24 -46t-66 -17v-48h-38zM580 268v334q-77 11 -100 20v36h260
q0 -27 -16.5 -37t-73.5 -20l-1 -340q0 -124 -69 -198.5t-186 -74.5q-134 0 -203.5 65t-69.5 208v340q-57 10 -73.5 20t-16.5 37h280v-36q-23 -9 -100 -20v-334q0 -104 45 -159t146 -55q178 0 178 214z" />
    <glyph glyph-name="uhook" unicode="&#x1ee7;" horiz-adv-x="577" 
d="M257 547q-10 18 -10 33q0 21 42 40q35 16 35 41q0 33 -42 33q-38 0 -67 -41q-10 2 -17.5 11.5t-7.5 20.5q0 27 26 42.5t73 15.5q44 0 71.5 -21t27.5 -54t-26 -53t-64 -20v-48h-41zM482 465q-1 -80 -1.5 -202.5t-1.5 -165.5q43 -14 64 -24v-33q-16 -19 -41.5 -33.5
t-45.5 -14.5q-24 0 -51 84q-61 -87 -156 -87q-74 0 -114.5 45t-40.5 129q0 98 3 233q-45 9 -71 23v26q59 32 112 32q23 0 45 -12q-3 -159 -3 -287q0 -59 26.5 -91t74.5 -32q72 0 112 73l3 267q-49 7 -80 24v26q59 32 121 32q23 0 45 -12z" />
    <glyph glyph-name="Uhornacute" unicode="&#x1ee8;" horiz-adv-x="778" 
d="M302 717l-11 26q70 37 178 116q38 -9 38 -43q0 -37 -57.5 -62t-147.5 -37zM394 -12q-134 0 -203.5 65t-69.5 208v340q-57 10 -73.5 20t-16.5 37h280v-36q-23 -9 -100 -20v-334q0 -104 45 -159t146 -55q178 0 178 214v334q-77 11 -100 20v36h169q39 0 64.5 19.5t25.5 49.5
q0 37 -42 37q-20 0 -29 -9q-10 8 -10 27q0 20 16 35t45 15q28 0 47 -21.5t19 -60.5q0 -62 -37 -99.5t-98 -49.5l-1 -340q0 -124 -69 -198.5t-186 -74.5z" />
    <glyph glyph-name="uhornacute" unicode="&#x1ee9;" horiz-adv-x="577" 
d="M199 540l-20 24q82 79 145 159q27 1 42.5 -10t15.5 -31q0 -19 -16.5 -39t-50.5 -40.5t-55 -32t-61 -30.5zM405 76q-61 -87 -156 -87q-74 0 -114.5 45t-40.5 129q0 98 3 233q-45 9 -71 23v26q59 32 112 32q23 0 45 -12q-3 -159 -3 -287q0 -59 26.5 -91t74.5 -32
q72 0 112 73l3 267q-49 7 -80 24v26q59 32 121 32q23 0 45 -12q27 10 44 28.5t17 39.5q0 14 -9.5 22.5t-22.5 8.5q-20 0 -29 -9q-10 8 -10 27q0 20 16 35t45 15q27 0 46.5 -20t19.5 -52q0 -49 -34 -85t-83 -49q-1 -70 -1.5 -179.5t-1.5 -149.5q43 -14 64 -24v-33
q-16 -19 -41.5 -33.5t-45.5 -14.5q-24 0 -51 84z" />
    <glyph glyph-name="Uhorngrave" unicode="&#x1eea;" horiz-adv-x="778" 
d="M508 743l-11 -26q-206 30 -206 99q0 33 38 43q112 -81 179 -116zM394 -12q-134 0 -203.5 65t-69.5 208v340q-57 10 -73.5 20t-16.5 37h280v-36q-23 -9 -100 -20v-334q0 -104 45 -159t146 -55q178 0 178 214v334q-77 11 -100 20v36h169q39 0 64.5 19.5t25.5 49.5
q0 37 -42 37q-20 0 -29 -9q-10 8 -10 27q0 20 16 35t45 15q28 0 47 -21.5t19 -60.5q0 -62 -37 -99.5t-98 -49.5l-1 -340q0 -124 -69 -198.5t-186 -74.5z" />
    <glyph glyph-name="uhorngrave" unicode="&#x1eeb;" horiz-adv-x="577" 
d="M339 565l-21 -25l-61 30.5t-55 32t-49.5 40.5t-16.5 39q0 20 15.5 31t42.5 10q59 -76 145 -158zM405 76q-61 -87 -156 -87q-74 0 -114.5 45t-40.5 129q0 98 3 233q-45 9 -71 23v26q59 32 112 32q23 0 45 -12q-3 -159 -3 -287q0 -59 26.5 -91t74.5 -32q72 0 112 73l3 267
q-49 7 -80 24v26q59 32 121 32q23 0 45 -12q27 10 44 28.5t17 39.5q0 14 -9.5 22.5t-22.5 8.5q-20 0 -29 -9q-10 8 -10 27q0 20 16 35t45 15q27 0 46.5 -20t19.5 -52q0 -49 -34 -85t-83 -49q-1 -70 -1.5 -179.5t-1.5 -149.5q43 -14 64 -24v-33q-16 -19 -41.5 -33.5
t-45.5 -14.5q-24 0 -51 84z" />
    <glyph glyph-name="Uhornhook" unicode="&#x1eec;" horiz-adv-x="778" 
d="M377 701q-9 16 -9 33q0 26 36 39q2 1 7 2.5t6.5 2.5t5.5 2.5t5.5 2.5t4 3t3.5 3.5t2.5 4t2 5.5t0.5 7q0 25 -42 25q-43 0 -68 -40q-24 8 -24 35q0 25 25.5 40t69.5 15q46 0 74.5 -20t28.5 -49t-24 -46t-66 -17v-48h-38zM394 -12q-134 0 -203.5 65t-69.5 208v340
q-57 10 -73.5 20t-16.5 37h280v-36q-23 -9 -100 -20v-334q0 -104 45 -159t146 -55q178 0 178 214v334q-77 11 -100 20v36h169q39 0 64.5 19.5t25.5 49.5q0 37 -42 37q-20 0 -29 -9q-10 8 -10 27q0 20 16 35t45 15q28 0 47 -21.5t19 -60.5q0 -62 -37 -99.5t-98 -49.5l-1 -340
q0 -124 -69 -198.5t-186 -74.5z" />
    <glyph glyph-name="uhornhook" unicode="&#x1eed;" horiz-adv-x="577" 
d="M257 547q-10 18 -10 33q0 21 42 40q35 16 35 41q0 33 -42 33q-38 0 -67 -41q-10 2 -17.5 11.5t-7.5 20.5q0 27 26 42.5t73 15.5q44 0 71.5 -21t27.5 -54t-26 -53t-64 -20v-48h-41zM405 76q-61 -87 -156 -87q-74 0 -114.5 45t-40.5 129q0 98 3 233q-45 9 -71 23v26
q59 32 112 32q23 0 45 -12q-3 -159 -3 -287q0 -59 26.5 -91t74.5 -32q72 0 112 73l3 267q-49 7 -80 24v26q59 32 121 32q23 0 45 -12q27 10 44 28.5t17 39.5q0 14 -9.5 22.5t-22.5 8.5q-20 0 -29 -9q-10 8 -10 27q0 20 16 35t45 15q27 0 46.5 -20t19.5 -52q0 -49 -34 -85
t-83 -49q-1 -70 -1.5 -179.5t-1.5 -149.5q43 -14 64 -24v-33q-16 -19 -41.5 -33.5t-45.5 -14.5q-24 0 -51 84z" />
    <glyph glyph-name="Uhorntilde" unicode="&#x1eee;" horiz-adv-x="778" 
d="M464 786q20 0 33.5 10t31.5 32l28 -15q-16 -39 -41 -65t-58 -26q-30 0 -66.5 21.5t-55.5 21.5q-31 0 -65 -41l-29 16q37 90 101 90q28 0 64.5 -22t56.5 -22zM394 -12q-134 0 -203.5 65t-69.5 208v340q-57 10 -73.5 20t-16.5 37h280v-36q-23 -9 -100 -20v-334
q0 -104 45 -159t146 -55q178 0 178 214v334q-77 11 -100 20v36h169q39 0 64.5 19.5t25.5 49.5q0 37 -42 37q-20 0 -29 -9q-10 8 -10 27q0 20 16 35t45 15q28 0 47 -21.5t19 -60.5q0 -62 -37 -99.5t-98 -49.5l-1 -340q0 -124 -69 -198.5t-186 -74.5z" />
    <glyph glyph-name="uhorntilde" unicode="&#x1eef;" horiz-adv-x="577" 
d="M344 628q14 0 26 7t17.5 13t18.5 22l28 -15q-36 -91 -96 -91q-29 0 -65 21t-55 21q-14 0 -27.5 -8t-17.5 -12.5t-17 -20.5l-29 16q37 90 98 90q27 0 63.5 -21.5t55.5 -21.5zM405 76q-61 -87 -156 -87q-74 0 -114.5 45t-40.5 129q0 98 3 233q-45 9 -71 23v26q59 32 112 32
q23 0 45 -12q-3 -159 -3 -287q0 -59 26.5 -91t74.5 -32q72 0 112 73l3 267q-49 7 -80 24v26q59 32 121 32q23 0 45 -12q27 10 44 28.5t17 39.5q0 14 -9.5 22.5t-22.5 8.5q-20 0 -29 -9q-10 8 -10 27q0 20 16 35t45 15q27 0 46.5 -20t19.5 -52q0 -49 -34 -85t-83 -49
q-1 -70 -1.5 -179.5t-1.5 -149.5q43 -14 64 -24v-33q-16 -19 -41.5 -33.5t-45.5 -14.5q-24 0 -51 84z" />
    <glyph glyph-name="Uhorndotaccent" unicode="&#x1ef0;" horiz-adv-x="778" 
d="M394 -12q-134 0 -203.5 65t-69.5 208v340q-57 10 -73.5 20t-16.5 37h280v-36q-23 -9 -100 -20v-334q0 -104 45 -159t146 -55q178 0 178 214v334q-77 11 -100 20v36h169q39 0 64.5 19.5t25.5 49.5q0 37 -42 37q-20 0 -29 -9q-10 8 -10 27q0 20 16 35t45 15q28 0 47 -21.5
t19 -60.5q0 -62 -37 -99.5t-98 -49.5l-1 -340q0 -124 -69 -198.5t-186 -74.5zM343 -128q0 23 16.5 39.5t39.5 16.5t39.5 -16.5t16.5 -39.5t-16.5 -39.5t-39.5 -16.5t-39.5 16.5t-16.5 39.5z" />
    <glyph glyph-name="uhorndotaccent" unicode="&#x1ef1;" horiz-adv-x="577" 
d="M405 76q-61 -87 -156 -87q-74 0 -114.5 45t-40.5 129q0 98 3 233q-45 9 -71 23v26q59 32 112 32q23 0 45 -12q-3 -159 -3 -287q0 -59 26.5 -91t74.5 -32q72 0 112 73l3 267q-49 7 -80 24v26q59 32 121 32q23 0 45 -12q27 10 44 28.5t17 39.5q0 14 -9.5 22.5t-22.5 8.5
q-20 0 -29 -9q-10 8 -10 27q0 20 16 35t45 15q27 0 46.5 -20t19.5 -52q0 -49 -34 -85t-83 -49q-1 -70 -1.5 -179.5t-1.5 -149.5q43 -14 64 -24v-33q-16 -19 -41.5 -33.5t-45.5 -14.5q-24 0 -51 84zM224 -108q0 23 16.5 39.5t39.5 16.5t39.5 -16.5t16.5 -39.5t-16.5 -39.5
t-39.5 -16.5t-39.5 16.5t-16.5 39.5z" />
    <glyph glyph-name="Ygrave" unicode="&#x1ef2;" horiz-adv-x="618" 
d="M432 743l-11 -26q-206 30 -206 99q0 33 38 43q112 -81 179 -116zM327 328l139 276q-77 13 -93 18v36h226q0 -25 -13.5 -35.5t-55.5 -19.5l-170 -325v-221q58 -10 92 -21v-36h-274q0 27 17 37.5t75 20.5v200l-181 345q-42 9 -56 19.5t-14 35.5h264v-36q-17 -6 -92 -18z
" />
    <glyph glyph-name="ygrave" unicode="&#x1ef3;" horiz-adv-x="499" 
d="M351 565l-21 -25l-61 30.5t-55 32t-49.5 40.5t-16.5 39q0 20 15.5 31t42.5 10q59 -76 145 -158zM149 416l116 -326l115 326h-1q-53 2 -69 16v35q32 1 82 1h18q49 0 84 -5v-36q-20 -6 -50 -11q-63 -181 -142 -376q-39 -96 -73 -158.5t-61 -88t-45 -33.5t-39 -8
q-32 0 -47.5 18.5t-13.5 43.5q9 3 33.5 12.5t30.5 12t23.5 10.5t23.5 14t20 17t22.5 23.5l21 30.5t25.5 41l-169 441q-28 4 -49 11v36q35 5 83 5h48q50 0 82 -1v-35q-18 -14 -69 -16z" />
    <glyph glyph-name="Ydotaccent" unicode="&#x1ef4;" horiz-adv-x="618" 
d="M327 328l139 276q-77 13 -93 18v36h226q0 -25 -13.5 -35.5t-55.5 -19.5l-170 -325v-221q58 -10 92 -21v-36h-274q0 27 17 37.5t75 20.5v200l-181 345q-42 9 -56 19.5t-14 35.5h264v-36q-17 -6 -92 -18zM263 -116q0 23 16.5 39.5t39.5 16.5t39.5 -16.5t16.5 -39.5
t-16.5 -39.5t-39.5 -16.5t-39.5 16.5t-16.5 39.5z" />
    <glyph glyph-name="ydotaccent" unicode="&#x1ef5;" horiz-adv-x="499" 
d="M149 416l116 -326l115 326h-1q-53 2 -69 16v35q32 1 82 1h18q49 0 84 -5v-36q-20 -6 -50 -11q-63 -181 -142 -376q-39 -96 -73 -158.5t-61 -88t-45 -33.5t-39 -8q-32 0 -47.5 18.5t-13.5 43.5q9 3 33.5 12.5t30.5 12t23.5 10.5t23.5 14t20 17t22.5 23.5l21 30.5t25.5 41
l-169 441q-28 4 -49 11v36q35 5 83 5h48q50 0 82 -1v-35q-18 -14 -69 -16zM270 -194q0 23 16.5 39.5t39.5 16.5t39.5 -16.5t16.5 -39.5t-16.5 -39.5t-39.5 -16.5t-39.5 16.5t-16.5 39.5z" />
    <glyph glyph-name="Yhook" unicode="&#x1ef6;" horiz-adv-x="618" 
d="M301 701q-9 16 -9 33q0 26 36 39q2 1 7 2.5t6.5 2.5t5.5 2.5t5.5 2.5t4 3t3.5 3.5t2.5 4t2 5.5t0.5 7q0 25 -42 25q-43 0 -68 -40q-24 8 -24 35q0 25 25.5 40t69.5 15q46 0 74.5 -20t28.5 -49t-24 -46t-66 -17v-48h-38zM327 328l139 276q-77 13 -93 18v36h226
q0 -25 -13.5 -35.5t-55.5 -19.5l-170 -325v-221q58 -10 92 -21v-36h-274q0 27 17 37.5t75 20.5v200l-181 345q-42 9 -56 19.5t-14 35.5h264v-36q-17 -6 -92 -18z" />
    <glyph glyph-name="yhook" unicode="&#x1ef7;" horiz-adv-x="499" 
d="M243 547q-10 18 -10 33q0 21 42 40q35 16 35 41q0 33 -42 33q-38 0 -67 -41q-10 2 -17.5 11.5t-7.5 20.5q0 27 26 42.5t73 15.5q44 0 71.5 -21t27.5 -54t-26 -53t-64 -20v-48h-41zM149 416l116 -326l115 326h-1q-53 2 -69 16v35q32 1 82 1h18q49 0 84 -5v-36
q-20 -6 -50 -11q-63 -181 -142 -376q-39 -96 -73 -158.5t-61 -88t-45 -33.5t-39 -8q-32 0 -47.5 18.5t-13.5 43.5q9 3 33.5 12.5t30.5 12t23.5 10.5t23.5 14t20 17t22.5 23.5l21 30.5t25.5 41l-169 441q-28 4 -49 11v36q35 5 83 5h48q50 0 82 -1v-35q-18 -14 -69 -16z" />
    <glyph glyph-name="Ytilde" unicode="&#x1ef8;" horiz-adv-x="618" 
d="M388 786q20 0 33.5 10t31.5 32l28 -15q-16 -39 -41 -65t-58 -26q-30 0 -66.5 21.5t-55.5 21.5q-31 0 -65 -41l-29 16q37 90 101 90q28 0 64.5 -22t56.5 -22zM327 328l139 276q-77 13 -93 18v36h226q0 -25 -13.5 -35.5t-55.5 -19.5l-170 -325v-221q58 -10 92 -21v-36h-274
q0 27 17 37.5t75 20.5v200l-181 345q-42 9 -56 19.5t-14 35.5h264v-36q-17 -6 -92 -18z" />
    <glyph glyph-name="ytilde" unicode="&#x1ef9;" horiz-adv-x="499" 
d="M313 628q14 0 26 7t17.5 13t18.5 22l28 -15q-36 -91 -96 -91q-29 0 -65 21t-55 21q-14 0 -27.5 -8t-17.5 -12.5t-17 -20.5l-29 16q37 90 98 90q27 0 63.5 -21.5t55.5 -21.5zM149 416l116 -326l115 326h-1q-53 2 -69 16v35q32 1 82 1h18q49 0 84 -5v-36q-20 -6 -50 -11
q-63 -181 -142 -376q-39 -96 -73 -158.5t-61 -88t-45 -33.5t-39 -8q-32 0 -47.5 18.5t-13.5 43.5q9 3 33.5 12.5t30.5 12t23.5 10.5t23.5 14t20 17t22.5 23.5l21 30.5t25.5 41l-169 441q-28 4 -49 11v36q35 5 83 5h48q50 0 82 -1v-35q-18 -14 -69 -16z" />
    <glyph glyph-name="endash" unicode="&#x2013;" horiz-adv-x="649" 
d="M147 293h437v-46q-10 -13 -25.5 -16.5t-56.5 -3.5h-437v46q10 13 25.5 16.5t56.5 3.5z" />
    <glyph glyph-name="emdash" unicode="&#x2014;" horiz-adv-x="998" 
d="M147 293h786v-46q-10 -13 -25.5 -16.5t-56.5 -3.5h-786v46q10 13 25.5 16.5t56.5 3.5z" />
    <glyph glyph-name="quoteleft" unicode="&#x2018;" horiz-adv-x="236" 
d="M155 728l31 -21q-51 -87 -51 -206v-14q-16 -12 -38 -12q-44 0 -47 58q0 90 105 195z" />
    <glyph glyph-name="quoteright" unicode="&#x2019;" horiz-adv-x="236" 
d="M81 471l-31 21q51 87 51 206v14q16 12 38 12q44 0 47 -58q0 -90 -105 -195z" />
    <glyph glyph-name="quotesinglbase" unicode="&#x201a;" horiz-adv-x="213" 
d="M56 -155l-31 21q51 87 51 206v14q16 12 38 12q44 0 47 -58q0 -90 -105 -195z" />
    <glyph glyph-name="quotedblleft" unicode="&#x201c;" horiz-adv-x="407" 
d="M155 728l31 -21q-51 -87 -51 -206v-14q-16 -12 -38 -12q-44 0 -47 58q0 90 105 195zM326 728l31 -21q-51 -87 -51 -206v-14q-16 -12 -38 -12q-44 0 -47 58q0 90 105 195z" />
    <glyph glyph-name="quotedblright" unicode="&#x201d;" horiz-adv-x="407" 
d="M81 471l-31 21q51 87 51 206v14q16 12 38 12q44 0 47 -58q0 -90 -105 -195zM252 471l-31 21q51 87 51 206v14q16 12 38 12q44 0 47 -58q0 -90 -105 -195z" />
    <glyph glyph-name="quotedblbase" unicode="&#x201e;" horiz-adv-x="384" 
d="M56 -155l-31 21q51 87 51 206v14q16 12 38 12q44 0 47 -58q0 -90 -105 -195zM227 -155l-31 21q51 87 51 206v14q16 12 38 12q44 0 47 -58q0 -90 -105 -195z" />
    <glyph glyph-name="dagger" unicode="&#x2020;" horiz-adv-x="494" 
d="M262 -157h-31q-32 367 -32 470q0 30 6.5 76.5t12.5 78.5l6 31q-68 -16 -103 -16q-40 0 -81 24v27q43 20 81 20q29 0 102 -16q-3 12 -16 59t-13 69q0 61 53 61q52 0 52 -61q0 -16 -4.5 -36.5t-12 -47.5t-11.5 -44q71 16 101 16q43 0 82 -22v-27q-42 -22 -82 -22
q-34 0 -102 16q24 -119 24 -186q0 -46 -8 -163.5t-16 -211.5z" />
    <glyph glyph-name="daggerdbl" unicode="&#x2021;" horiz-adv-x="494" 
d="M270 105q68 16 102 16q40 0 82 -22v-27q-39 -22 -82 -22q-23 0 -101 15q3 -16 11 -46t12.5 -52.5t4.5 -38.5q0 -60 -52 -60q-53 0 -53 60q0 16 5 38.5t12.5 52.5l11.5 47q-73 -16 -102 -16q-38 0 -81 20v27q41 24 81 24q35 0 103 -16q-25 134 -25 192t25 192
q-73 -15 -103 -15q-40 0 -81 24v27q43 20 81 20q29 0 102 -16q-3 17 -11 46.5t-13 52t-5 38.5q0 61 53 61q52 0 52 -61q0 -16 -4.5 -38.5t-12.5 -52.5t-11 -46q71 16 101 16q43 0 82 -22v-27q-42 -22 -82 -22q-34 0 -102 16q24 -139 24 -193t-24 -192z" />
    <glyph glyph-name="bullet" unicode="&#x2022;" horiz-adv-x="362" 
d="M85 266q0 40 27.5 68t68.5 28t68.5 -28t27.5 -68t-27.5 -68t-68.5 -28t-68.5 28t-27.5 68z" />
    <glyph glyph-name="ellipsis" unicode="&#x2026;" horiz-adv-x="683" 
d="M66 45q0 23 17 40.5t39 17.5q23 0 40.5 -17.5t17.5 -40.5q0 -22 -17.5 -39t-40.5 -17q-22 0 -39 17t-17 39zM290 45q0 23 17 40.5t39 17.5q24 0 41 -17.5t17 -40.5q0 -22 -17 -39t-41 -17q-22 0 -39 17t-17 39zM515 45q0 23 17 40.5t39 17.5q23 0 40.5 -17.5t17.5 -40.5
q0 -22 -17.5 -39t-40.5 -17q-22 0 -39 17t-17 39z" />
    <glyph glyph-name="perthousand" unicode="&#x2030;" horiz-adv-x="1112" 
d="M35 510q0 66 45.5 111t109.5 45q70 0 113.5 -40.5t43.5 -110.5q0 -65 -46 -111t-109 -46q-68 0 -112.5 40.5t-44.5 111.5zM148 0h-32q-11 35 33 92l451 566h32q10 -37 -33 -92zM109 511q0 -51 25 -79.5t59 -28.5q35 0 57 28.5t22 81.5t-23.5 80.5t-58.5 27.5t-58 -29
t-23 -81zM765 144q0 66 45.5 111t109.5 45q70 0 113.5 -40.5t43.5 -110.5q0 -65 -46 -111t-109 -46q-68 0 -112.5 40.5t-44.5 111.5zM400 144q0 66 45.5 111t109.5 45q70 0 113.5 -40.5t43.5 -110.5q0 -65 -46 -111t-109 -46q-68 0 -112.5 40.5t-44.5 111.5zM839 145
q0 -51 25 -79.5t59 -28.5q35 0 57 28.5t22 81.5t-23.5 80.5t-58.5 27.5t-58 -29t-23 -81zM474 145q0 -51 25 -79.5t59 -28.5q35 0 57 28.5t22 81.5t-23.5 80.5t-58.5 27.5t-58 -29t-23 -81z" />
    <glyph glyph-name="guilsinglleft" unicode="&#x2039;" horiz-adv-x="293" 
d="M226 67l-186 152q-4 18 -4 31q0 7 1 12t3.5 10.5l4 9t6.5 8.5t6.5 7t8.5 8.5t9 8.5l143 130l30 -31l-127 -158l132 -155z" />
    <glyph glyph-name="guilsinglright" unicode="&#x203a;" horiz-adv-x="293" 
d="M253 218l-186 -152l-27 33l132 155l-127 158l30 31l143 -130q2 -2 7 -6.5t7 -6.5l6 -6t5.5 -6.5t4.5 -6t4 -7t2.5 -7.5t2 -8.5t0.5 -9.5q0 -13 -4 -31z" />
    <glyph glyph-name="fraction" unicode="&#x2044;" horiz-adv-x="572" 
d="M67 0h-33q-11 35 33 92l439 566h33q10 -37 -33 -92z" />
    <glyph glyph-name="dong" unicode="&#x20ab;" horiz-adv-x="575" 
d="M292 57q60 0 95 47v296q-38 23 -96 23q-74 0 -115.5 -52.5t-41.5 -132.5q0 -79 41.5 -130t116.5 -51zM400 63q-48 -74 -141 -74q-96 0 -156 65t-60 166q0 110 70.5 184t186.5 74q50 0 87 -10v71h-131v39q12 13 68 13h64v54q-51 7 -84 24v26q62 32 120 32q28 0 50 -12
v-124h101v-36q-15 -15 -65 -16h-36l-1 -441q50 -16 70 -25v-33q-14 -18 -39.5 -33t-45.5 -15q-21 0 -58 71zM470 -135h-390v39q12 13 68 13h387v-36q-15 -15 -65 -16z" />
    <glyph glyph-name="Euro" unicode="&#x20ac;" horiz-adv-x="612" 
d="M567 91q-27 -41 -74 -71.5t-108 -30.5q-114 0 -185 63.5t-89 183.5h-1q-43 0 -81 13v34q25 4 77 6q-1 9 -1 28q0 20 2 56q-42 0 -78 13v34q26 4 86 6q23 115 95.5 178.5t184.5 63.5q103 0 164 -17q6 -20 6 -49q0 -49 -27 -115h-30q-23 49 -34 111q-48 15 -100 15
q-140 0 -167 -187h217v-34q-10 -12 -25.5 -15.5t-56.5 -3.5h-140q-1 -15 -1 -47q0 -25 1 -37h222v-34q-10 -12 -25.5 -15.5t-56.5 -3.5h-134q30 -183 189 -183q78 0 144 66q19 -12 26 -28z" />
    <glyph glyph-name="trademark" unicode="&#x2122;" horiz-adv-x="906" 
d="M313 621h-76v-242q34 -8 52 -16v-24h-170q0 19 13 28t42 13v241h-75q-5 -30 -18 -64h-24q-15 33 -15 77q0 13 4 24h320q4 -11 4 -24q0 -44 -15 -77h-24q-13 34 -18 64zM832 658q0 -38 -46 -43l22 -236q54 -6 54 -40h-170v24q24 10 56 14l-23 231l-65 -196
q-8 -22 -17 -30.5t-27 -8.5h-37l-80 232l-23 -228q28 -3 55 -14v-24h-156q0 34 55 40l25 236q-29 3 -38 13t-9 30h107q22 0 30.5 -8t18.5 -39l57 -175l59 183q8 24 18 31.5t29 7.5h105z" />
    <glyph glyph-name="Omega" unicode="&#x2126;" horiz-adv-x="790" 
d="M544 75h133q9 45 23 71h38v-146h-187q-78 0 -80 75q72 54 110.5 121.5t38.5 163.5q0 111 -58 181.5t-167 70.5t-167 -70.5t-58 -181.5q0 -96 38.5 -163.5t110.5 -121.5q-2 -75 -80 -75h-187v146h38q14 -26 23 -71h133q-182 101 -182 284q0 129 91.5 219.5t239.5 90.5
q149 0 240 -87.5t91 -216.5q0 -189 -182 -290z" />
    <glyph glyph-name="partialdiff" unicode="&#x2202;" horiz-adv-x="561" 
d="M78 644q0 33 41.5 53t117.5 20q264 0 264 -361q0 -172 -70 -270t-177 -98q-96 0 -152 62.5t-56 156.5q0 89 55.5 151t150.5 62q101 0 158 -71v15q0 297 -156 297q-19 0 -36.5 -4t-34 -13t-25.5 -14.5t-26 -19.5t-21 -17q-33 18 -33 51zM274 355q-66 0 -101 -47.5
t-35 -120.5q0 -68 31.5 -107t84.5 -39q140 0 154 263q-53 51 -134 51z" />
    <glyph glyph-name="Delta" unicode="&#x2206;" horiz-adv-x="693" 
d="M59 98l239 520q7 15 11.5 22t16.5 15.5t29 8.5h30l268 -586q-9 -78 -75 -78h-538v29q0 27 19 69zM555 78l-218 471l-217 -471h435z" />
    <glyph glyph-name="product" unicode="&#x220f;" horiz-adv-x="838" 
d="M618 -92v751h-398v-751q64 -11 92 -20v-36h-272q0 27 16.5 37t73.5 20v750q-56 10 -71.5 20t-15.5 38h752q0 -28 -15.5 -38t-71.5 -20v-750q57 -10 73.5 -20t16.5 -37h-272v36q28 9 92 20z" />
    <glyph glyph-name="summation" unicode="&#x2211;" horiz-adv-x="687" 
d="M140 -70h418q10 57 31 102h30q23 -58 23 -122q0 -37 -8 -58h-589v24q0 26 16 50l249 366l-263 381q4 18 23 31.5t51 13.5h507q6 -16 6 -45q0 -51 -23 -108h-30q-21 46 -32 99h-384l236 -352z" />
    <glyph glyph-name="minus" unicode="&#x2212;" horiz-adv-x="517" 
d="M398 225h-267q-39 0 -81 13v46q33 6 93 6h324v-41q-16 -24 -69 -24z" />
    <glyph glyph-name="radical" unicode="&#x221a;" horiz-adv-x="633" 
d="M116 491l-22 -9q-25 -10 -82 -16l-12 41q32 19 85 38l92 33l157 -453l223 759l58 -16l-233 -808q-13 -44 -31 -57.5t-56 -13.5z" />
    <glyph glyph-name="infinity" unicode="&#x221e;" horiz-adv-x="745" 
d="M534 85q-61 0 -97.5 29t-53.5 70q-31 -53 -72 -76t-98 -23q-75 0 -125 43.5t-50 122.5q0 70 48 117t125 47q61 0 97.5 -29.5t53.5 -69.5q32 53 73 76t98 23q76 0 125 -43t49 -122q0 -71 -48.5 -118t-124.5 -47zM216 152q76 0 120 110l3 7q-43 89 -124 89
q-47 0 -75.5 -27.5t-28.5 -73.5q0 -48 28.5 -76.5t76.5 -28.5zM409 239l-4 -9q42 -88 125 -88q46 0 75 27t29 75t-27.5 76t-76.5 28q-79 0 -121 -109z" />
    <glyph glyph-name="integral" unicode="&#x222b;" horiz-adv-x="493" 
d="M288 555l4 -437q0 -277 -180 -277q-46 0 -71.5 17.5t-25.5 47.5q0 35 35 50q20 -19 29 -26.5t27.5 -17t36.5 -9.5q37 0 52 25.5t15 84.5l-4 437q0 277 180 277q42 0 67 -17t25 -44q0 -32 -34 -46q-17 16 -27 23.5t-27 14.5t-36 7q-34 0 -50 -26t-16 -84z" />
    <glyph glyph-name="approxequal" unicode="&#x2248;" horiz-adv-x="518" 
d="M239 320q-52 30 -83 30q-19 0 -33.5 -11t-20 -20.5t-14.5 -28.5l-42 19q33 102 121 102q46 0 112 -36q6 -3 20 -11t18.5 -10l13.5 -6t16 -5t15 -1q14 0 25 5t20 16t12.5 17.5l10.5 19.5l42 -19q-34 -100 -121 -100q-43 0 -112 39zM239 164q-52 30 -83 30q-19 0 -33.5 -11
t-20 -20.5t-14.5 -28.5l-42 19q33 102 121 102q46 0 112 -36q6 -3 20 -11t18.5 -10l13.5 -6t16 -5t15 -1q14 0 25 5t20 16t12.5 17.5l10.5 19.5l42 -19q-34 -100 -121 -100q-43 0 -112 39z" />
    <glyph glyph-name="notequal" unicode="&#x2260;" horiz-adv-x="538" 
d="M198 50l-43 21l49 82h-68q-39 0 -81 13v44q33 6 93 6h93l49 82h-154q-39 0 -81 13v44q33 6 93 6h179l57 95l43 -23l-43 -72h99v-43q-10 -13 -25 -16.5t-54 -3.5h-58l-49 -82h186v-43q-10 -13 -25 -16.5t-54 -3.5h-145z" />
    <glyph glyph-name="lessequal" unicode="&#x2264;" horiz-adv-x="517" 
d="M55 300l374 164q14 -15 19 -41l-306 -164l306 -160q-4 -24 -19 -41l-322 134q-29 11 -42.5 27t-13.5 46q0 19 4 35zM398 -80h-277q-39 0 -81 13v38q33 6 93 6h334v-33q-16 -24 -69 -24z" />
    <glyph glyph-name="greaterequal" unicode="&#x2265;" horiz-adv-x="517" 
d="M456 220l-374 -164q-14 15 -19 41l306 164l-306 160q4 24 19 41l322 -134q29 -11 42.5 -27t13.5 -46q0 -19 -4 -35zM408 -80h-277q-39 0 -81 13v38q33 6 93 6h334v-33q-16 -24 -69 -24z" />
    <glyph glyph-name="lozenge" unicode="&#x25ca;" horiz-adv-x="560" 
d="M315 723l210 -363l-182 -320q-16 -25 -31.5 -35.5t-45.5 -10.5h-21l-210 366l181 317q16 25 31.5 35.5t45.5 10.5h22zM281 65l160 295l-162 289l-160 -289z" />
    <glyph glyph-name="dotlessj" unicode="&#xf6be;" horiz-adv-x="279" 
d="M103 396q-46 9 -72 23v26q59 32 113 32q23 0 45 -12v-244l1 -210q0 -124 -52.5 -191t-133.5 -67q-51 0 -77.5 17t-26.5 45q0 31 27 48q74 -37 101 -37q43 0 59 28t16 107v435z" />
    <glyph glyph-name="commaaccent" unicode="&#xf6c3;" horiz-adv-x="232" 
d="M80 -231q-15 9 -24 18q39 74 47 158q14 4 28 4q37 0 37 -43q0 -36 -18.5 -63.5t-69.5 -73.5z" />
    <glyph glyph-name="grave.uc" horiz-adv-x="400" 
d="M308 741l-11 -26q-206 30 -206 99q0 33 38 43q112 -81 179 -116z" />
    <glyph glyph-name="dieresis.uc" horiz-adv-x="400" 
d="M249 781q0 23 15 38.5t37 15.5q23 0 38.5 -15.5t15.5 -38.5q0 -20 -16 -35.5t-38 -15.5q-21 0 -36.5 15.5t-15.5 35.5zM45 781q0 22 16 38t38 16t37.5 -15.5t15.5 -38.5q0 -20 -15.5 -35.5t-37.5 -15.5t-38 15.5t-16 35.5z" />
    <glyph glyph-name="macron.uc" horiz-adv-x="400" 
d="M73 735v44q10 13 25.5 16.5t56.5 3.5h173v-44q-10 -13 -25.5 -16.5t-56.5 -3.5h-173z" />
    <glyph glyph-name="acute.uc" horiz-adv-x="400" 
d="M103 715l-11 26q70 37 178 116q38 -9 38 -43q0 -37 -57.5 -62t-147.5 -37z" />
    <glyph glyph-name="circumflex.uc" horiz-adv-x="400" 
d="M238 858q47 -55 102 -129l-28 -24q-53 37 -112 87q-110 -86 -112 -87l-28 24q33 42 82 97q20 22 32.5 29t33.5 7q16 0 30 -4z" />
    <glyph glyph-name="caron.uc" horiz-adv-x="400" 
d="M167 711l-107 128l29 26l114 -89l108 89l29 -26l-80 -96q-19 -22 -31 -29t-33 -7q-15 0 -29 4z" />
    <glyph glyph-name="breve.uc" horiz-adv-x="400" 
d="M196 710q-63 0 -91.5 38t-25.5 90h40q9 -68 77 -68q69 0 78 68h40q3 -52 -25.5 -90t-92.5 -38z" />
    <glyph glyph-name="dotaccent.uc" horiz-adv-x="400" 
d="M144 779q0 23 16.5 39.5t39.5 16.5t39.5 -16.5t16.5 -39.5t-16.5 -39.5t-39.5 -16.5t-39.5 16.5t-16.5 39.5z" />
    <glyph glyph-name="ring.uc" horiz-adv-x="400" 
d="M200 876q44 0 72.5 -21.5t28.5 -61.5q0 -38 -27.5 -62.5t-72.5 -24.5q-44 0 -73 22t-29 62q0 37 27 61.5t74 24.5zM201 742q23 0 37.5 14.5t14.5 35.5q0 22 -15.5 36t-38.5 14t-37 -14.5t-14 -36.5t15 -35.5t38 -13.5z" />
    <glyph glyph-name="tilde.uc" horiz-adv-x="400" 
d="M265 784q20 0 33.5 10t31.5 32l28 -15q-16 -39 -41 -65t-58 -26q-30 0 -66.5 21.5t-55.5 21.5q-31 0 -65 -41l-29 16q37 90 101 90q28 0 64.5 -22t56.5 -22z" />
    <glyph glyph-name="hungarumlaut.uc" horiz-adv-x="400" 
d="M43 705l-19 25q101 89 131 127q19 -1 32 -11t13 -29q0 -29 -33.5 -51t-123.5 -61zM221 705l-19 25q5 5 31 28l37.5 33.5t30 29.5t31.5 36q19 -1 32 -11t13 -29q0 -29 -33 -51t-123 -61z" />
    <glyph glyph-name="dollar.old" horiz-adv-x="554" 
d="M224 405q9 -5 25 -11v218q-108 -10 -108 -99q0 -71 83 -108zM316 273q-4 1 -12 5v-233q110 12 110 110q0 46 -22 72t-76 46zM246 45q0 8 1 21t1.5 24t0.5 19v189q-58 22 -86 36q-105 50 -105 163q0 74 48.5 117t140.5 52q-7 77 20 89h50l-6 -86q74 -1 156 -17
q18 -54 -17 -154h-30q-22 40 -34 102q-41 11 -80 13q-2 -58 -2 -67v-174l52 -18q70 -27 106.5 -67t36.5 -113q0 -77 -51 -126t-141 -57q6 -75 -20 -88h-50l6 87q-131 6 -194 50q-18 72 22 154h31q22 -50 29 -114q39 -29 115 -35z" />
    <glyph glyph-name="Euro.old" horiz-adv-x="612" 
d="M567 91q-27 -41 -74 -71.5t-108 -30.5q-114 0 -185 63.5t-89 183.5h-1q-43 0 -81 13v34q25 4 77 6q-1 9 -1 28q0 20 2 56q-42 0 -78 13v34q26 4 86 6q23 115 95.5 178.5t184.5 63.5q103 0 164 -17q6 -20 6 -49q0 -49 -27 -115h-30q-23 49 -34 111q-48 15 -100 15
q-140 0 -167 -187h217v-34q-10 -12 -25.5 -15.5t-56.5 -3.5h-140q-1 -15 -1 -47q0 -25 1 -37h222v-34q-10 -12 -25.5 -15.5t-56.5 -3.5h-134q30 -183 189 -183q78 0 144 66q19 -12 26 -28z" />
    <glyph glyph-name="sterling.old" horiz-adv-x="577" 
d="M139 351v113q0 97 55.5 151t163.5 54q154 0 154 -82q0 -21 -15 -37t-34 -22q-50 90 -129 90q-57 0 -81 -37.5t-24 -115.5v-114h181v-35q-10 -12 -25.5 -15.5t-56.5 -3.5h-99v-97q0 -88 -52 -120q29 1 105.5 -8t111.5 -9q79 0 123 50l20 -16q-11 -39 -49 -73.5t-106 -34.5
q-33 0 -107.5 8t-120.5 8q-49 0 -89 -16l-15 19q37 51 78 66q11 46 11 162v61h-12q-33 2 -68 14v36q34 4 68 4h12z" />
    </font>
</defs>
</svg>
