<?xml version="1.0" standalone="no"?>
<!DOCTYPE svg PUBLIC "-//W3C//DTD SVG 1.1//EN" "http://www.w3.org/Graphics/SVG/1.1/DTD/svg11.dtd" >
<svg>
<metadata>
Created by FontForge 20090622 at Thu Jun  1 09:41:25 2017
 By deploy user
Copyright (c) Emigre Inc, 2011. Designed by Berton Hasebe. All rights reserved.
</metadata>
<defs>
<font id="AldaPro-RegularItalic" horiz-adv-x="506" >
  <font-face 
    font-family="Alda Pro"
    font-weight="400"
    font-style="italic"
    font-stretch="normal"
    units-per-em="1000"
    panose-1="0 0 0 0 0 0 0 0 0 0"
    ascent="763"
    descent="-237"
    x-height="477"
    cap-height="658"
    bbox="-190 -253 1033 1099"
    underline-thickness="0"
    underline-position="0"
    unicode-range="U+0020-U+FB04"
  />
<missing-glyph horiz-adv-x="215" 
 />
    <glyph glyph-name="f_f" unicode="ff" horiz-adv-x="568" 
d="M391 480q12 79 37 133q-54 52 -137 45q-52 -49 -74 -178l-2 -13h174zM160 125q-27 -153 -59 -236q43 -46 148 -55q18 40 26 60.5t24 77t33 140.5q17 78 49 301h-173q-22 -144 -48 -288zM-55 -248q-59 0 -94 21.5t-35 50.5q0 39 37 53q55 -59 142 -66q17 37 25.5 61
t24.5 85t33 155q23 121 49 301q-36 1 -80 16l8 31q29 7 72 7h8l2 13q20 121 70 177.5t144 56.5q41 0 71 -13t39 -36q54 62 150 62q49 0 76.5 -15.5t27.5 -39.5q0 -36 -35 -48q-54 54 -140 47q-44 -41 -69 -191l-2 -13h121l-6 -31q-19 -23 -82 -23h-40q-30 -202 -48 -288
q-38 -189 -85.5 -269.5t-131.5 -80.5q-55 0 -85 17.5t-37 40.5q-47 -81 -130 -81z" />
    <glyph glyph-name="f_i" unicode="fi" horiz-adv-x="541" 
d="M-54 -248q-59 0 -94 21.5t-35 50.5q0 39 37 53q55 -59 142 -66q17 39 26 61.5t24.5 84.5t32.5 155q10 59 48 301q-36 1 -80 16l8 31q29 7 72 7h8l2 13q21 126 72 186.5t159 60.5q58 0 96 -23t38 -56q0 -38 -39 -49q-35 37 -54 49q-48 28 -123 23q-44 -41 -69 -191l-2 -13
h205q33 0 47.5 -15.5t14.5 -38.5q0 -27 -38 -179l-43 -171l85 -20l-3 -21q-40 -33 -84 -33q-37 0 -57.5 17.5t-20.5 45.5q0 9 2 21t8 39t14 59t23.5 99.5l32.5 142.5h-193q-26 -175 -47 -288q-37 -208 -83.5 -290.5t-131.5 -82.5z" />
    <glyph glyph-name="f_l" unicode="fl" horiz-adv-x="543" 
d="M-54 -248q-59 0 -94 21.5t-35 50.5q0 39 37 53q55 -59 142 -66q17 39 26 61.5t24.5 84.5t32.5 155q9 51 48 301q-36 1 -80 16l8 31q29 7 72 7h8l2 12q21 126 72.5 187t153.5 61q64 0 98 -25q43 14 76 16l12 -17l-52 -234l-95 -404l84 -20l-4 -21q-40 -33 -85 -33
q-34 0 -55.5 16t-21.5 43q0 8 2.5 23t7.5 38t10.5 45.5l14 57.5t14.5 62l75 351q-58 55 -158 46q-44 -41 -69 -191l-2 -13h121l-6 -31q-19 -23 -82 -23h-40q-26 -175 -47 -288q-37 -208 -83.5 -290.5t-131.5 -82.5z" />
    <glyph glyph-name="f_f_i" unicode="ffi" horiz-adv-x="793" 
d="M390 480q12 81 37 133q-54 52 -136 45q-52 -49 -74 -178l-2 -13h173zM380 413h-172q-22 -144 -48 -288q-27 -153 -59 -236q43 -46 148 -55q1 3 9.5 21t10 22t9 22t10.5 28.5l9.5 32t11 41.5l11 49t12.5 62q7 38 48 301zM574 52q0 9 2 21t8 39t14 59t23.5 99.5l32.5 142.5
h-193q-31 -203 -47 -288q-36 -188 -84.5 -269t-132.5 -81q-55 0 -85 17.5t-37 40.5q-47 -81 -130 -81q-59 0 -94 21.5t-35 50.5q0 39 37 53q55 -59 142 -66q17 37 25.5 61t24.5 85t33 155q23 121 49 301q-36 1 -80 16l8 31q29 7 72 7h8l2 13q20 121 70 177.5t144 56.5
q41 0 71 -13t39 -35q55 61 160 61q58 0 96 -23t38 -56q0 -38 -39 -49q-35 37 -54 49q-48 28 -123 23q-44 -41 -69 -191l-2 -13h205q33 0 47.5 -15.5t14.5 -38.5q0 -27 -38 -179l-43 -171l85 -20l-3 -21q-40 -33 -84 -33q-37 0 -57.5 17.5t-20.5 45.5z" />
    <glyph glyph-name="f_f_l" unicode="ffl" horiz-adv-x="796" 
d="M390 479q12 78 38 133q-53 53 -137 46q-52 -49 -74 -178l-2 -13h173zM160 125q-27 -153 -59 -236q43 -46 148 -55q20 44 27 61t23.5 75.5t32.5 141.5q7 35 48 301h-172q-22 -144 -48 -288zM-55 -248q-59 0 -94 21.5t-35 50.5q0 39 37 53q55 -59 142 -66q17 37 25.5 61
t24.5 85t33 155q23 121 49 301q-36 1 -80 16l8 31q29 7 72 7h8l2 13q20 121 70 177.5t144 56.5q41 0 71 -13.5t39 -35.5q56 62 155 62q64 0 98 -25q43 14 76 16l12 -17l-52 -234l-95 -404l84 -20l-4 -21q-40 -33 -85 -33q-34 0 -55.5 16t-21.5 43q0 8 2.5 23t7.5 38
t10.5 45.5l14 57.5t14.5 62l75 351q-58 55 -158 46q-44 -41 -69 -191l-2 -13h121l-6 -31q-19 -23 -82 -23h-40q-31 -203 -47 -288q-36 -188 -84.5 -269t-132.5 -81q-55 0 -85 17.5t-37 40.5q-47 -81 -130 -81z" />
    <glyph glyph-name="f_b" unicode="fb" horiz-adv-x="782" 
d="M439 201l-28 -124q17 -14 48.5 -25t58.5 -11q28 0 53 7q35 39 61 115t26 145q0 106 -44 106q-38 0 -87 -65t-88 -148zM-54 -248q-59 0 -94 21.5t-35 50.5q0 39 37 53q55 -59 142 -66q17 39 26 61.5t24.5 84.5t32.5 155q9 51 48 301q-36 1 -80 16l8 31q29 7 72 7h8l2 12
q21 126 72.5 187t153.5 61q64 0 98 -25q43 14 76 16l12 -17q-56 -253 -92 -394h5q83 170 177 170q105 0 105 -158q0 -123 -65 -226.5t-167 -103.5q-70 0 -109 50q-37 -44 -83 -48l-14 26q30 101 65 255q27 121 74 353q-58 55 -159 46q-44 -41 -69 -191l-2 -13h121l-6 -31
q-19 -23 -82 -23h-40q-26 -175 -47 -288q-37 -208 -83.5 -290.5t-131.5 -82.5z" />
    <glyph glyph-name="f_f_b" unicode="ffb" horiz-adv-x="1035" 
d="M390 479q12 78 38 133q-53 53 -137 46q-52 -49 -74 -178l-2 -13h173zM692 201l-28 -124q17 -14 48.5 -25t58.5 -11q29 0 53 7q35 39 61 115t26 145q0 106 -44 106q-38 0 -87 -65t-88 -148zM160 125q-27 -153 -59 -236q43 -46 148 -55q18 40 26 60.5t24 77t33 140.5
q9 51 48 301h-172q-22 -144 -48 -288zM-55 -248q-59 0 -94 21.5t-35 50.5q0 39 37 53q55 -59 142 -66q17 37 25.5 61t24.5 85t33 155q23 121 49 301q-36 1 -80 16l8 31q29 7 72 7h8l2 13q20 121 70 177.5t144 56.5q41 0 71 -13t39 -36q56 62 155 62q64 0 98 -25q43 14 76 16
l12 -17q-56 -253 -92 -394h5q83 170 177 170q105 0 105 -158q0 -123 -65 -226.5t-167 -103.5q-70 0 -109 50q-37 -44 -83 -48l-14 26q30 101 65 255q27 121 74 353q-58 55 -159 46q-44 -41 -69 -191l-2 -13h121l-6 -31q-19 -23 -82 -23h-40q-26 -175 -47 -288
q-38 -189 -85.5 -269.5t-131.5 -80.5q-55 0 -85 17.5t-37 40.5q-47 -81 -130 -81z" />
    <glyph glyph-name="f_f_h" unicode="ffh" horiz-adv-x="1060" 
d="M390 479q12 78 38 133q-53 53 -137 46q-52 -49 -74 -178l-2 -13h173zM160 125q-27 -153 -59 -236q43 -46 148 -55q20 44 27 61t23.5 75.5t32.5 141.5q7 35 48 301h-172q-22 -144 -48 -288zM-55 -248q-59 0 -94 21.5t-35 50.5q0 39 37 53q55 -59 142 -66q17 37 25.5 61
t24.5 85t33 155q23 121 49 301q-36 1 -80 16l8 31q29 7 72 7h8l2 13q20 121 70 177.5t144 56.5q41 0 71 -13t39 -36q56 62 155 62q64 0 98 -25q43 14 76 16l12 -17q-10 -49 -44.5 -189t-49.5 -194l4 -2q42 78 85.5 119.5t99.5 41.5q95 0 95 -92q0 -7 -0.5 -14.5t-2.5 -18
t-3.5 -20.5t-5.5 -27.5t-7 -32t-9 -40l-11 -46.5l-13.5 -57l-15.5 -66l84 -20l-3 -21q-40 -33 -84 -33q-37 0 -57.5 17.5t-20.5 45.5q0 20 12.5 72l31.5 133t30 151q-16 9 -38 9q-47 0 -90.5 -49t-94.5 -143q-25 -106 -45 -220q-42 -16 -82 -8l-13 17q69 243 143 611
q-58 55 -158 46q-44 -41 -69 -191l-2 -13h121l-6 -31q-19 -23 -82 -23h-40q-28 -188 -47 -288q-35 -187 -84 -268.5t-133 -81.5q-55 0 -85 17.5t-37 40.5q-47 -81 -130 -81z" />
    <glyph glyph-name="f_f_j" unicode="ffj" horiz-adv-x="778" 
d="M390 480q12 81 37 133q-54 52 -136 45q-52 -49 -74 -178l-2 -13h173zM588 113q46 211 55 300h-182q-26 -175 -47 -288q-31 -154 -67 -232q48 -48 156 -59q22 41 40 98.5t45 180.5zM380 413h-172q-22 -144 -48 -288q-27 -153 -59 -236q43 -46 148 -55q18 40 26 60.5t24 77
t33 140.5q10 59 48 301zM657 63q-35 -155 -81 -221.5t-122 -66.5q-58 0 -92 23t-40 48q-47 -71 -125 -71q-55 0 -85 17.5t-37 40.5q-47 -81 -130 -81q-59 0 -94 21.5t-35 50.5q0 39 37 53q55 -59 142 -66q17 37 25.5 61t24.5 85t33 155q23 121 49 301q-36 1 -80 16l8 31
q29 7 72 7h8l2 13q20 121 70 177.5t144 56.5q41 0 71 -13t39 -35q55 61 160 61q58 0 96 -23t38 -56q0 -38 -39 -49q-35 37 -54 49q-48 28 -123 23q-44 -41 -69 -191l-2 -13h194q61 0 61 -54q0 -56 -66 -350z" />
    <glyph glyph-name="f_f_k" unicode="ffk" horiz-adv-x="1003" 
d="M390 479q12 78 38 133q-53 53 -137 46q-52 -49 -74 -178l-2 -13h173zM896 420q-54 13 -93 -11t-89 -97l-10 -44q97 -3 146.5 34.5t45.5 117.5zM380 413h-172q-22 -144 -48 -288q-27 -153 -59 -236q43 -46 148 -55q20 44 27 61t23.5 75.5t32.5 141.5q7 35 48 301zM727 381
l3 -4q64 101 145 101q47 0 72.5 -24t25.5 -66q0 -60 -51 -102.5t-127 -41.5q14 -30 47.5 -90.5t46.5 -77.5q26 -33 82 -45l-2 -20q-29 -22 -69 -22q-30 0 -53.5 14.5t-45.5 57.5q-10 18 -44.5 86t-56.5 104q-9 -41 -25.5 -126.5t-24.5 -119.5q-41 -16 -81 -8l-12 17
q67 240 141 611q-58 55 -159 46q-44 -41 -69 -191l-2 -13h121l-6 -31q-19 -23 -82 -23h-40q-31 -203 -47 -288q-36 -188 -84.5 -269t-132.5 -81q-55 0 -85 17.5t-37 40.5q-47 -81 -130 -81q-59 0 -94 21.5t-35 50.5q0 39 37 53q55 -59 142 -66q17 37 25.5 61t24.5 85t33 155
q23 121 49 301q-36 1 -80 16l8 31q29 7 72 7h8l2 13q20 121 70 177.5t144 56.5q41 0 71 -13t39 -36q56 62 155 62q64 0 98 -25q43 14 76 16l12 -17q-64 -282 -75 -320z" />
    <glyph glyph-name="f_h" unicode="fh" horiz-adv-x="807" 
d="M301 14q69 243 143 611q-58 55 -158 46q-44 -41 -69 -191l-2 -13h121l-6 -31q-19 -23 -82 -23h-40q-26 -175 -47 -288q-37 -208 -83.5 -290.5t-131.5 -82.5q-59 0 -94 21.5t-35 50.5q0 39 37 53q55 -59 142 -66q17 39 26 61.5t24.5 84.5t32.5 155q9 51 48 301
q-36 1 -80 16l8 31q29 7 72 7h8l2 12q21 126 72.5 187t153.5 61q64 0 98 -25q43 14 76 16l12 -17q-10 -49 -44.5 -189t-49.5 -194l4 -2q42 78 85.5 119.5t99.5 41.5q95 0 95 -92q0 -7 -0.5 -14.5t-2.5 -18t-3.5 -20.5t-5.5 -27.5t-7 -32t-9 -40l-11 -46.5l-13.5 -57
l-15.5 -66l84 -20l-3 -21q-40 -33 -84 -33q-37 0 -57.5 17.5t-20.5 45.5q0 20 12.5 72l31.5 133t30 151q-16 9 -38 9q-47 0 -90.5 -49t-94.5 -143q-25 -106 -45 -220q-42 -16 -82 -8z" />
    <glyph glyph-name="f_j" unicode="fj" horiz-adv-x="525" 
d="M335 113q46 211 55 300h-182q-26 -175 -47 -288q-30 -163 -59 -237q44 -43 148 -54q22 41 40 98.5t45 180.5zM-54 -248q-59 0 -94 21.5t-35 50.5q0 39 37 53q55 -59 142 -66q17 39 26 61.5t24.5 84.5t32.5 155q10 59 48 301q-36 1 -80 16l8 31q29 7 72 7h8l2 13
q21 126 72 186.5t159 60.5q58 0 96 -23t38 -56q0 -38 -39 -49q-35 37 -54 49q-48 28 -123 23q-44 -41 -69 -191l-2 -13h194q61 0 61 -54q0 -56 -66 -350q-35 -155 -81 -221.5t-122 -66.5q-53 0 -85.5 18.5t-37.5 41.5q-47 -83 -132 -83z" />
    <glyph glyph-name="f_k" unicode="fk" horiz-adv-x="750" 
d="M643 420q-54 13 -93 -11t-89 -97l-10 -44q97 -3 146.5 34.5t45.5 117.5zM-54 -248q-59 0 -94 21.5t-35 50.5q0 39 37 53q55 -59 142 -66q17 39 26 61.5t24.5 84.5t32.5 155q9 51 48 301q-36 1 -80 16l8 31q29 7 72 7h8l2 12q21 126 72.5 187t153.5 61q64 0 98 -25
q43 14 76 16l12 -17q-64 -282 -75 -320l3 -4q64 101 145 101q47 0 72.5 -24t25.5 -66q0 -60 -51 -102.5t-127 -41.5q14 -30 47.5 -90.5t46.5 -77.5q26 -33 82 -45l-2 -20q-29 -22 -69 -22q-30 0 -53.5 14.5t-45.5 57.5q-10 18 -44.5 86t-56.5 104q-9 -41 -25.5 -126.5
t-24.5 -119.5q-41 -16 -81 -8l-12 17q67 240 141 611q-58 55 -159 46q-44 -41 -69 -191l-2 -13h121l-6 -31q-19 -23 -82 -23h-40q-26 -175 -47 -288q-37 -208 -83.5 -290.5t-131.5 -82.5z" />
    <glyph glyph-name="g_y" unicode="gy" horiz-adv-x="924" 
d="M345 263q21 95 31 134q-48 29 -104 29q-34 0 -58 -8q-38 -45 -61.5 -122t-22.5 -140q1 -45 12.5 -72.5t30.5 -27.5q41 0 92 69.5t80 137.5zM907 431q0 -38 -25.5 -108.5t-61.5 -136.5q-57 -109 -120 -188.5t-160 -168.5q-50 -45 -80.5 -60.5t-63.5 -15.5
q-29 0 -47.5 13.5t-24.5 30.5q-61 -45 -174 -45q-94 0 -147 27.5t-53 80.5q0 31 27 60t64 41l19 -16q-24 -26 -24 -57q0 -40 35 -61.5t94 -21.5q95 0 140 38q5 26 2 103.5t-3 79.5q0 63 23 132v2h-4q-41 -82 -80.5 -126.5t-92.5 -44.5q-51 0 -78.5 44t-27.5 116
q0 81 26.5 154.5t82.5 124t128 50.5q70 0 105 -42q22 26 69 41l17 -25l-22.5 -91.5l-23 -95.5l-19 -83.5t-16.5 -83.5q-2 -35 -2 -167q0 -51 -24 -91l73 -24q30 20 60 43.5l44 35t43 38t30 27.5q-2 88 -13 234t-23 220l-58 17l4 21q42 26 74 26q54 0 63 -48q8 -42 16.5 -187
t9.5 -201q134 241 148 369l-70 19v20q44 28 90 28q51 0 51 -47z" />
    <glyph glyph-name=".notdef" horiz-adv-x="215" 
 />
    <glyph glyph-name=".null" horiz-adv-x="0" 
 />
    <glyph glyph-name="nonmarkingreturn" horiz-adv-x="333" 
 />
    <glyph glyph-name="space" unicode=" " horiz-adv-x="184" 
 />
    <glyph glyph-name="exclam" unicode="!" horiz-adv-x="284" 
d="M252 564q-17 -72 -115 -377h-44q59 375 82 479q14 2 30 2q56 0 56 -47q0 -19 -9 -57zM33 45q0 25 16 41.5t40 16.5q25 0 41.5 -16.5t16.5 -41.5q0 -24 -16.5 -40t-41.5 -16q-24 0 -40 16t-16 40z" />
    <glyph glyph-name="quotedbl" unicode="&#x22;" horiz-adv-x="363" 
d="M157 492h-34q2 143 7 173q10 62 53 62q19 0 30.5 -12.5t11.5 -31.5q0 -7 -1 -14.5t-2.5 -14t-5 -17.5t-6.5 -18.5l-10 -24l-11.5 -27.5l-14.5 -35zM314 492h-34q2 143 7 173q10 62 53 62q19 0 30.5 -12.5t11.5 -31.5q0 -7 -1 -14.5t-2.5 -14t-5 -17.5t-6.5 -18.5l-10 -24
l-11.5 -27.5l-14.5 -35z" />
    <glyph glyph-name="numbersign" unicode="#" horiz-adv-x="675" 
d="M300 440l-61 -198h165l61 198h-165zM590 440h-56l-61 -198h135l-13 -42q-13 -13 -28.5 -16t-57.5 -3h-55l-56 -181h-45q-19 20 -2 71l34 110h-165l-56 -181h-45q-19 20 -2 71l34 110h-49q-41 0 -83 14l13 42q37 5 94 5h44l61 198h-49q-42 0 -82 14l13 41q28 5 93 5h44
l49 158h45q18 -19 2 -71l-27 -87h165l49 158h45q18 -19 2 -71l-27 -87h136l-13 -40q-13 -13 -29 -16.5t-57 -3.5z" />
    <glyph glyph-name="dollar" unicode="$" horiz-adv-x="553" 
d="M209 516q0 -60 74 -115l46 215h-3q-52 0 -73 -5q-44 -40 -44 -95zM403 154q0 42 -20.5 68t-70.5 59l-51 -238h21q46 0 81 9q40 48 40 102zM129 502q0 76 60 121t148 45l6 37t11 28.5t23 21.5h49l-24 -89q93 -5 132 -14q11 -61 -47 -154h-32q-2 19 -3 39t-1.5 38t-0.5 23
q-22 9 -65 14q-9 -33 -16 -66l-38 -178q85 -56 119.5 -93.5t34.5 -95.5q0 -87 -61.5 -138.5t-158.5 -51.5h-11q-3 -25 -6 -37.5t-11 -27.5t-22 -21h-49q6 27 25 91q-97 11 -153 46q-12 72 52 157h35q0 -39 -4 -119q27 -18 86 -28q9 30 15 59q5 29 42 203q-64 42 -99.5 86
t-35.5 104z" />
    <glyph glyph-name="percent" unicode="%" horiz-adv-x="738" 
d="M59 485q0 70 46 127t119 57q63 0 97.5 -35t34.5 -94q0 -65 -46 -122t-114 -57q-62 0 -99.5 33t-37.5 91zM91 0h-30q-9 39 37 86l550 572h32q5 -42 -37 -85zM212 625q-18 0 -28 -3q-20 -24 -35.5 -62t-15.5 -72q0 -82 69 -82q20 0 32 3q19 24 33.5 63t14.5 71q0 82 -70 82
zM382 113q0 70 46 127t118 57q63 0 98 -35t35 -94q0 -65 -46 -122t-114 -57q-62 0 -99.5 33.5t-37.5 90.5zM535 253q-17 0 -29 -3q-20 -24 -35 -62t-15 -72q0 -82 69 -82q20 0 32 3q19 24 33.5 63t14.5 71q0 82 -70 82z" />
    <glyph glyph-name="ampersand" unicode="&#x26;" horiz-adv-x="623" 
d="M359 669q70 0 106 -26t36 -64q0 -26 -16 -43.5t-38 -24.5q-12 59 -35 86t-81 27q-25 0 -49 -4q-27 -18 -46.5 -53.5t-19.5 -72.5q0 -52 26 -80t89 -32l-8 -30q-15 -10 -59 -10q-17 0 -32 3q-93 -51 -93 -150q0 -65 41.5 -106.5t130.5 -41.5q55 0 91 12q39 41 62 105
t23 124q0 18 -2 46h-30q-46 2 -68 18l7 30q35 11 71 11h170l-8 -41q-8 -12 -22 -15t-56 -3h-23q20 -48 20 -96q0 -33 -7.5 -66t-26 -66.5t-46 -59.5t-71 -42t-97.5 -16q-120 0 -188 50.5t-68 132.5q0 71 42 119t113 69q-61 37 -61 125q0 74 60 129.5t163 55.5z" />
    <glyph glyph-name="quotesingle" unicode="'" horiz-adv-x="206" 
d="M157 492h-34q2 143 7 173q10 62 53 62q19 0 30.5 -12.5t11.5 -31.5q0 -7 -1 -14.5t-2.5 -14t-5 -17.5t-6.5 -18.5l-10 -24l-11.5 -27.5l-14.5 -35z" />
    <glyph glyph-name="parenleft" unicode="(" horiz-adv-x="352" 
d="M391 730q-114 -117 -174 -255t-60 -280q0 -175 88 -335q-10 -12 -28 -20q-59 66 -101 159.5t-42 198.5q0 180 85 322.5t209 233.5q16 -11 23 -24z" />
    <glyph glyph-name="parenright" unicode=")" horiz-adv-x="352" 
d="M-17 -136q114 117 174 255t60 280q0 182 -88 335q10 12 28 20q59 -66 101 -159.5t42 -198.5q0 -180 -85 -322.5t-209 -233.5q-17 11 -23 24z" />
    <glyph glyph-name="asterisk" unicode="*" horiz-adv-x="359" 
d="M298 661l-36 -74q71 33 115 57q7 -6 16 -21q9 -19 5.5 -32t-14.5 -18q-12 -6 -33 -8l-82 -6l67.5 -47.5t38.5 -25.5q-4 -16 -13 -29t-23.5 -15t-21.5 4q-12 8 -23 24l-46 70l-10 -131q-9 -3 -26 -3q-18 0 -27.5 10t-9.5 25q0 12 10 32l36 73q-72 -34 -117 -58
q-8 8 -16 21q-8 15 -4.5 29.5t15.5 20.5q10 5 30 8l83 7l-106 71q4 13 13 27q11 16 28 17t24 -7q9 -7 21 -25l40 -61q4 40 7 79t4 49q12 3 25 3q38 0 38 -35q0 -15 -8 -31z" />
    <glyph glyph-name="plus" unicode="+" horiz-adv-x="523" 
d="M406 227h-109l-26 -124q-12 -54 -38 -69h-48l41 193h-96q-40 0 -79 13l10 42q35 6 94 6h84l24 114q12 54 39 69h48l-22 -101l-18 -82h178l-8 -37q-22 -24 -74 -24z" />
    <glyph glyph-name="comma" unicode="," horiz-adv-x="216" 
d="M-11 -157l-23 21q45 64 80 120l14 105q29 16 58 0.5t24 -54.5q-5 -45 -43 -90t-110 -102z" />
    <glyph glyph-name="hyphen" unicode="-" horiz-adv-x="340" 
d="M59 227l11 53q19 20 86 20h138l-11 -53q-19 -20 -85 -20h-139z" />
    <glyph glyph-name="period" unicode="." horiz-adv-x="223" 
d="M36 46q0 24 16.5 40.5t40.5 16.5t40.5 -16.5t16.5 -40.5t-16.5 -40.5t-40.5 -16.5t-40.5 16.5t-16.5 40.5z" />
    <glyph glyph-name="slash" unicode="/" horiz-adv-x="460" 
d="M2 -237h-40q-5 13 -5 27q0 28 21 70l437 857h41q5 -13 5 -27q0 -28 -21 -70z" />
    <glyph glyph-name="zero" unicode="0" horiz-adv-x="639" 
d="M379 669q106 0 161 -63t55 -180q0 -73 -19.5 -147.5t-56 -140.5t-98 -107.5t-136.5 -41.5q-110 0 -165.5 63t-55.5 180q0 57 12 117t38 117.5t62 102.5t89 72.5t114 27.5zM307 50q39 0 67 10q47 51 84 157t37 205q0 94 -35 140t-108 46q-39 0 -67 -10q-47 -51 -84 -157
t-37 -205q0 -186 143 -186z" />
    <glyph glyph-name="one" unicode="1" horiz-adv-x="381" 
d="M113 61l98 531q-47 4 -95 15l5 32q75 24 133 24q41 0 57 -13l-109 -591q70 -10 102 -23l-6 -36h-310q5 29 30 41t95 20z" />
    <glyph glyph-name="two" unicode="2" 
d="M359 0h-352l10 60q64 52 165 143q108 96 156 163.5t48 134.5q0 54 -24 84.5t-72 30.5q-33 0 -53 -5q-54 -44 -83 -135q-63 5 -63 55q0 51 61 94.5t145 43.5q95 0 142 -45.5t47 -122.5q0 -25 -6 -50.5t-14 -46t-26.5 -45.5l-30.5 -41.5t-40 -42l-42.5 -39t-50 -40
l-49.5 -37l-55 -39.5l-53 -38v-3h326l-10 -50q-25 -29 -76 -29z" />
    <glyph glyph-name="three" unicode="3" horiz-adv-x="508" 
d="M210 -11q-91 0 -142.5 35.5t-51.5 85.5q0 32 20 52t49 23q9 -66 43.5 -103t115.5 -37q39 0 60 6q20 23 34 60t14 73q0 63 -40 96.5t-113 33.5l-38 -1l10 52q99 12 152.5 44.5t53.5 100.5q0 46 -23.5 77t-73.5 31q-26 0 -41 -3q-44 -28 -81 -115q-20 1 -36.5 15t-16.5 38
q0 47 48 81t133 34q94 0 140.5 -42t46.5 -110q0 -64 -46.5 -105.5t-115.5 -56.5q60 -12 99.5 -54.5t39.5 -106.5q0 -89 -63.5 -146.5t-176.5 -57.5z" />
    <glyph glyph-name="four" unicode="4" horiz-adv-x="562" 
d="M406 168l-22 -112q61 -10 87 -20l-7 -36h-267q5 27 23.5 37t76.5 20l22 111h-298q0 13 3 25t5.5 20.5t12 22.5t14 20t20 25t21.5 27l233 290q27 34 47.5 47.5t49.5 13.5h68l-77 -420h112l-7 -42q-25 -29 -70 -29h-47zM114 239h216l65 350z" />
    <glyph glyph-name="five" unicode="5" horiz-adv-x="476" 
d="M484 658l-7 -48q-25 -29 -77 -29h-175l-46 -172q125 -1 187.5 -50.5t62.5 -138.5q0 -103 -68 -167t-171 -64q-89 0 -137.5 35t-48.5 82q0 32 18.5 51t50.5 23q6 -59 40.5 -99.5t102.5 -40.5q37 0 57 6q22 24 41 66t19 90q0 73 -44 109.5t-139 36.5q-14 0 -52 -2l76 268
q14 44 56 44h254z" />
    <glyph glyph-name="six" unicode="6" horiz-adv-x="553" 
d="M541 624q-145 -24 -245 -103.5t-135 -186.5q25 32 67 56.5t96 24.5q83 0 130 -49t47 -130q0 -99 -65.5 -173t-166.5 -74q-96 0 -156.5 64t-60.5 176q0 179 141 304.5t349 126.5zM291 350q-83 0 -142 -68q-4 -23 -4 -49q0 -80 40 -133.5t103 -53.5l40 3q30 28 52.5 74
t22.5 101q0 58 -30 92t-82 34z" />
    <glyph glyph-name="seven" unicode="7" horiz-adv-x="468" 
d="M88 581l9 48q23 29 76 29h313l-10 -52q-42 -130 -113 -273.5t-140 -229.5q-78 -95 -175 -109l-21 30q226 212 384 557h-323z" />
    <glyph glyph-name="eight" unicode="8" horiz-adv-x="516" 
d="M496 527q0 -114 -156 -176q76 -48 104 -85t28 -90q0 -71 -58 -129t-160 -58q-103 0 -165.5 40.5t-62.5 108.5q0 138 182 192q-58 40 -80.5 78.5t-22.5 86.5q0 68 55 121t153 53q87 0 135 -40t48 -102zM192 508q0 -43 27.5 -72t86.5 -64q53 34 76 69t23 84
q0 39 -26.5 67.5t-76.5 28.5l-50 -3q-60 -44 -60 -110zM264 295q-20 11 -24 14q-118 -60 -118 -162q0 -47 36.5 -77t99.5 -30q44 0 69 7q52 54 52 119q0 37 -26.5 65.5t-88.5 63.5z" />
    <glyph glyph-name="nine" unicode="9" horiz-adv-x="557" 
d="M36 25q156 24 253.5 104t128.5 190q-23 -33 -67 -59t-100 -26q-83 0 -129 48.5t-46 130.5q0 100 64 173.5t164 73.5q94 0 157.5 -59.5t63.5 -180.5q0 -119 -59.5 -216.5t-172 -155.5t-258.5 -59zM284 299q84 0 144 69q4 32 4 48q0 81 -40.5 134t-106.5 53l-38 -3
q-30 -28 -51.5 -74t-21.5 -101q0 -58 29 -92t81 -34z" />
    <glyph glyph-name="colon" unicode=":" horiz-adv-x="261" 
d="M95 361q0 24 16.5 40.5t40.5 16.5t40.5 -16.5t16.5 -40.5t-16.5 -40.5t-40.5 -16.5t-40.5 16.5t-16.5 40.5zM36 46q0 24 16.5 40.5t40.5 16.5t40.5 -16.5t16.5 -40.5t-16.5 -40.5t-40.5 -16.5t-40.5 16.5t-16.5 40.5z" />
    <glyph glyph-name="semicolon" unicode=";" horiz-adv-x="258" 
d="M95 361q0 24 16.5 40.5t40.5 16.5t40.5 -16.5t16.5 -40.5t-16.5 -40.5t-40.5 -16.5t-40.5 16.5t-16.5 40.5zM-6 -157l-23 21q45 64 80 120l14 105q29 16 58 0.5t24 -54.5q-5 -45 -43 -90t-110 -102z" />
    <glyph glyph-name="less" unicode="&#x3c;" horiz-adv-x="493" 
d="M65 297l405 165q14 -18 16 -40l-344 -168l277 -159q-5 -22 -23 -37l-292 131q-49 23 -49 63q0 25 10 45z" />
    <glyph glyph-name="equal" unicode="=" horiz-adv-x="571" 
d="M436 298h-268q-39 0 -78 13l9 43q35 6 94 6h335l-9 -42q-13 -13 -28.5 -16.5t-54.5 -3.5zM405 154h-268q-39 0 -78 13l9 43q34 6 94 6h335l-9 -42q-13 -13 -28.5 -16.5t-54.5 -3.5z" />
    <glyph glyph-name="greater" unicode="&#x3e;" horiz-adv-x="504" 
d="M449 223l-401 -163q-14 18 -16 40l340 168l-281 159q5 22 23 37l296 -133q49 -22 49 -63q0 -25 -10 -45z" />
    <glyph glyph-name="question" unicode="?" horiz-adv-x="439" 
d="M97 561q0 50 54 78.5t127 28.5q83 0 127 -37.5t44 -96.5q0 -41 -18 -76t-51.5 -61t-62 -42.5t-67.5 -35.5q-9 -4 -13 -6l-48 -138h-44q-7 51 -7 75q0 31 15.5 49t73.5 56q68 45 98.5 88t30.5 91q0 39 -22 60.5t-64 21.5q-28 0 -46 -1q-13 -11 -26.5 -27.5t-21.5 -28
l-21 -31t-15 -23.5q-43 20 -43 56zM92 45q0 25 16 41.5t40 16.5q25 0 41.5 -16.5t16.5 -41.5q0 -24 -16.5 -40t-41.5 -16q-24 0 -40 16t-16 40z" />
    <glyph glyph-name="at" unicode="@" horiz-adv-x="911" 
d="M511 91q0 19 15 76l-3 2q-36 -71 -69 -107.5t-79 -36.5t-70 37.5t-24 103.5q0 111 58 200t153 89q55 0 86 -37q30 32 82 36l10 -23q-21 -65 -41 -134l-47 -225q16 -4 40 -4q75 0 122 67t47 174q0 125 -82 203t-233 78q-119 0 -194 -32q-135 -147 -135 -334
q0 -153 90 -245t247 -92q130 0 236 70l22 -33q-31 -35 -105.5 -64.5t-157.5 -29.5q-194 0 -305.5 108t-111.5 287q0 112 48 206.5t147 154.5t232 60q182 0 282 -97t100 -238q0 -133 -74 -211.5t-175 -78.5q-57 0 -84 16.5t-27 53.5zM541 266q14 48 29 112q-42 25 -86 25
q-29 0 -51 -7q-32 -41 -49.5 -104.5t-17.5 -121.5q0 -34 8 -56.5t23 -22.5q36 0 78.5 58.5t65.5 116.5z" />
    <glyph glyph-name="A" unicode="A" horiz-adv-x="675" 
d="M387 600l-161 -317h209zM470 52l-28 181h-241l-92 -181q51 -6 89 -18l-6 -34h-220q2 23 18 35t60 18l311 613h40q39 0 53 -17t20 -57l82 -539q40 -9 51.5 -20.5t10.5 -32.5h-250l6 34q39 10 96 18z" />
    <glyph glyph-name="B" unicode="B" horiz-adv-x="605" 
d="M312 0h-316q2 25 20.5 36.5t72.5 18.5l102 548q-49 9 -64 19t-14 36h266q88 0 133.5 -39.5t45.5 -105.5q0 -62 -38.5 -104t-88.5 -59q118 -32 118 -146q0 -96 -71 -150t-166 -54zM370 609h-91l-45 -243h151q84 45 84 139q0 51 -27 77.5t-72 26.5zM315 314h-91l-48 -262
h203q33 22 55.5 64t22.5 84q0 62 -33.5 88t-108.5 26z" />
    <glyph glyph-name="C" unicode="C" horiz-adv-x="630" 
d="M341 -11q-117 0 -193 76t-76 207q0 76 22.5 146t65.5 126.5t112.5 90.5t155.5 34q136 0 198 -20q11 -66 -50 -162h-30q-4 35 -4 113q-60 15 -134 15q-69 0 -113 -16q-56 -51 -90.5 -134.5t-34.5 -181.5q0 -105 51 -168.5t146 -63.5q53 0 90 18.5t78 55.5q6 -3 14.5 -11.5
t10.5 -13.5q-81 -111 -219 -111z" />
    <glyph glyph-name="D" unicode="D" horiz-adv-x="719" 
d="M345 0h-353q2 25 20.5 36.5t72.5 18.5l102 548q-49 9 -64 19t-14 36h280q149 0 225 -71.5t76 -202.5q0 -96 -45 -184t-125.5 -144t-174.5 -56zM352 608h-78l-102 -556h251q82 55 125.5 149.5t43.5 179.5q0 123 -58.5 175t-181.5 52z" />
    <glyph glyph-name="E" unicode="E" horiz-adv-x="552" 
d="M108 658h464q18 -46 -45 -153h-29q-6 58 -6 103h-219l-42 -231h215l-6 -32q-24 -26 -61 -26h-159l-49 -265h227q16 40 50 105h30q14 -94 -16 -159h-470q2 25 20.5 36.5t72.5 18.5l101 548q-49 9 -64 19t-14 36z" />
    <glyph glyph-name="F" unicode="F" horiz-adv-x="541" 
d="M89 55l101 548q-49 9 -64 19t-14 36h454q19 -44 -45 -153h-29q-6 90 -6 103h-209l-42 -231h205l-5 -32q-24 -26 -61 -26h-150l-49 -265q53 -8 97 -20l-6 -34h-274q2 25 21 36.5t76 18.5z" />
    <glyph glyph-name="G" unicode="G" horiz-adv-x="677" 
d="M359 -11q-137 0 -212 79t-75 211q0 70 21 136.5t63 124.5t114 93.5t164 35.5q126 0 211 -19q12 -63 -51 -163h-29q-4 32 -4 113q-73 15 -146 15q-76 0 -118 -15q-55 -47 -91 -133.5t-36 -177.5q0 -112 52 -176t155 -64q65 0 117 15l34 189q-81 11 -99 16l4 27
q58 22 107 22q61 0 77 -25l-7 -37l-36 -193q-80 -74 -215 -74z" />
    <glyph glyph-name="H" unicode="H" horiz-adv-x="758" 
d="M89 55l101 548q-53 9 -68 20t-14 35h269l-6 -34q-30 -9 -95 -20l-43 -236h335l45 236q-57 10 -88 20l6 34h266q-2 -27 -20 -37t-77 -18l-101 -548q53 -9 68 -20t14 -35h-272l6 34q46 14 95 20l48 261h-334l-49 -261q58 -11 87 -20l-6 -34h-264q2 26 21.5 37t75.5 18z" />
    <glyph glyph-name="I" unicode="I" horiz-adv-x="338" 
d="M89 55l101 548q-53 9 -68 20t-14 35h269l-6 -34q-23 -8 -95 -20l-101 -550q54 -10 87 -20l-6 -34h-264q2 25 21 36.5t76 18.5z" />
    <glyph glyph-name="J" unicode="J" horiz-adv-x="351" 
d="M122 658h274l-6 -34q-30 -9 -95 -20l-109 -583q-22 -108 -71 -157t-127 -49q-55 0 -89 20.5t-34 54.5q0 37 35 54q33 -37 69 -52.5t97 -8.5q19 55 43 180l100 540q-56 9 -72 20t-15 35z" />
    <glyph glyph-name="K" unicode="K" horiz-adv-x="637" 
d="M108 658h269l-6 -34q-30 -9 -95 -20l-48 -263l305 269q-36 5 -73 14l6 34h221q-3 -25 -19.5 -34.5t-65.5 -18.5l-288 -251l162 -245q22 -34 44.5 -50t60.5 -29l-6 -30q-29 -11 -61 -11q-40 0 -63.5 21t-62.5 80l-161 245l-52 -281q58 -11 87 -20l-6 -34h-264
q2 25 21 36.5t76 18.5l101 548q-53 9 -68 20t-14 35z" />
    <glyph glyph-name="L" unicode="L" horiz-adv-x="553" 
d="M108 658h269l-6 -34q-30 -9 -95 -20l-101 -550h224q25 66 53 120h30q6 -32 1.5 -88t-18.5 -86h-473q2 25 21 36.5t76 18.5l101 548q-53 9 -68 20t-14 35z" />
    <glyph glyph-name="M" unicode="M" horiz-adv-x="902" 
d="M798 603l-50 -548q52 -9 66.5 -19.5t16.5 -35.5h-267l6 34q48 14 93 20l51 542h-2l-222 -432q-26 -48 -42.5 -65t-42.5 -17h-34l-90 510h-1l-135 -538q63 -12 89 -20l-6 -34h-241q2 25 21 36.5t76 18.5l137 548q-48 9 -62.5 19t-13.5 36h145q42 0 54.5 -14.5t22.5 -70.5
l68 -393l200 393q28 56 45 70.5t58 14.5h149q-2 -27 -19.5 -37.5t-69.5 -17.5z" />
    <glyph glyph-name="N" unicode="N" horiz-adv-x="747" 
d="M115 658h109q29 0 43.5 -9t28.5 -37l246 -502l91 494q-52 8 -98 20l6 34h248q-2 -26 -20 -36.5t-73 -18.5l-93 -501q-10 -52 -27 -80.5t-53 -28.5h-12l-269 543l-89 -482q53 -8 97 -20l-6 -34h-252q2 25 21 36.5t76 18.5l102 548q-48 9 -62.5 19t-13.5 36z" />
    <glyph glyph-name="O" unicode="O" horiz-adv-x="729" 
d="M350 -12q-144 0 -210.5 75.5t-66.5 198.5q0 103 40.5 195t120 152t181.5 60q140 0 210.5 -70.5t70.5 -198.5q0 -68 -23 -139t-64.5 -133t-109.5 -101t-149 -39zM403 616q-56 0 -98 -12q-65 -61 -100 -150.5t-35 -184.5q0 -101 45.5 -164t142.5 -63q67 0 127 26
q50 59 82 146t32 179q0 101 -46 162t-150 61z" />
    <glyph glyph-name="P" unicode="P" horiz-adv-x="571" 
d="M359 613q-35 0 -82 -5l-49 -266q69 -12 119 -8t82 16q22 25 38 68.5t16 83.5q0 111 -124 111zM112 658h124q16 0 65 1.5t81 1.5q191 0 191 -150q0 -109 -82 -170t-204 -59q-36 0 -68 8l-44 -236q61 -10 97 -20l-6 -34h-275q2 25 21 36.5t76 18.5l102 548q-49 9 -64 19
t-14 36z" />
    <glyph glyph-name="Q" unicode="Q" horiz-adv-x="729" 
d="M350 -12q-144 0 -210.5 75.5t-66.5 198.5q0 103 40.5 195t120 152t181.5 60q140 0 210.5 -70.5t70.5 -198.5q0 -82 -29.5 -164t-93.5 -150t-149 -89q76 -46 141.5 -75t144.5 -45l97 26l9 -25q-19 -23 -58.5 -45t-82.5 -22q-134 0 -317 177h-8zM403 616q-56 0 -98 -12
q-65 -61 -100 -150.5t-35 -184.5q0 -101 45.5 -164t142.5 -63q67 0 127 26q50 59 82 146t32 179q0 101 -46 162t-150 61z" />
    <glyph glyph-name="R" unicode="R" horiz-adv-x="642" 
d="M219 294l-44 -240q60 -11 88 -20l-6 -34h-265q2 25 21 36.5t76 18.5l101 548q-49 9 -64 19t-14 36h123q15 0 64 1.5t83 1.5q191 0 191 -149q0 -79 -44.5 -132.5t-120.5 -78.5l79 -162q27 -54 46.5 -74.5t58.5 -34.5l-4 -30q-25 -11 -49 -11q-41 0 -66.5 20t-52.5 76
l-99 202q-50 -5 -102 7zM361 613q-43 0 -84 -6l-48 -262q37 -9 95 -9q65 0 105 17q22 24 38 65.5t16 83.5q0 56 -29.5 83.5t-92.5 27.5z" />
    <glyph glyph-name="S" unicode="S" horiz-adv-x="534" 
d="M120 499q1 86 61.5 127.5t150.5 41.5q108 0 174 -16q5 -28 -3.5 -59t-17 -47.5t-25.5 -43.5h-33q-2 15 -5 102q-46 12 -106 12q-49 0 -74 -5q-40 -40 -40 -92q0 -32 19 -61t38.5 -44.5t56.5 -40.5q85 -57 118 -95.5t33 -101.5q0 -88 -63.5 -137.5t-151.5 -49.5
q-139 0 -218 45q-11 80 52 163h35q1 -26 -4 -122q60 -32 149 -32q44 0 78 9q38 47 38 100q0 35 -17.5 63.5t-37.5 44t-68 47.5q-70 47 -105 88.5t-34 103.5z" />
    <glyph glyph-name="T" unicode="T" horiz-adv-x="629" 
d="M425 608l-103 -554q60 -11 88 -20l-6 -34h-265q2 25 21 36.5t76 18.5l102 553h-156q-15 -45 -46 -115h-29q-22 120 14 165h537q11 -27 -6 -77.5t-40 -87.5h-28q-6 78 -6 115h-153z" />
    <glyph glyph-name="U" unicode="U" horiz-adv-x="734" 
d="M95 658h270l-6 -34q-28 -9 -96 -20l-60 -334q-39 -218 167 -218q87 0 142 36q21 53 49 184l62 332q-63 12 -89 20l6 34h246q-2 -27 -20 -37t-77 -18q-50 -264 -80 -405q-24 -113 -88.5 -161.5t-166.5 -48.5q-136 0 -199.5 73t-38.5 208l61 334q-53 9 -68 20t-14 35z" />
    <glyph glyph-name="V" unicode="V" horiz-adv-x="672" 
d="M245 606l79 -507l263 507q-52 6 -98 18l6 34h233q-2 -23 -18 -35t-60 -18l-285 -542q-22 -41 -39 -56t-46 -15h-20l-105 613q-40 8 -51.5 19.5t-10.5 33.5h263l-6 -34q-32 -9 -105 -18z" />
    <glyph glyph-name="W" unicode="W" horiz-adv-x="973" 
d="M246 606l74 -511l203 447l-6 39q-11 72 58 72h19l79 -547l217 500q-52 6 -98 18l6 34h231q-2 -23 -18 -35t-60 -18l-238 -542q-18 -40 -37 -55.5t-48 -15.5h-20l-69 453l-176 -382q-18 -40 -37.5 -55.5t-49.5 -15.5h-26l-95 613q-40 8 -51.5 19.5t-10.5 33.5h264l-6 -34
q-34 -9 -105 -18z" />
    <glyph glyph-name="X" unicode="X" horiz-adv-x="688" 
d="M446 54l-107 224l-193 -224q54 -10 87 -20l-6 -34h-249q2 26 21.5 37t75.5 18l239 275l-130 273q-53 9 -68 20t-14 35h278l-6 -34q-30 -9 -95 -20l97 -209l181 209q-57 10 -88 20l6 34h250q-2 -27 -20 -37t-77 -18l-227 -262l134 -286q53 -9 68 -20t14 -35h-272l6 34
q46 14 95 20z" />
    <glyph glyph-name="Y" unicode="Y" horiz-adv-x="626" 
d="M349 325l188 281q-55 7 -89 18l6 34h228q-2 -23 -18 -35t-60 -18l-231 -333l-39 -218q53 -10 88 -20l-6 -34h-265q2 25 21 36.5t76 18.5l37 205l-131 345q-40 8 -51.5 19.5t-10.5 33.5h258l-6 -34q-33 -10 -96 -18z" />
    <glyph glyph-name="Z" unicode="Z" horiz-adv-x="589" 
d="M494 0h-408q-30 0 -45 17.5t-15 40.5l465 550h-288q-18 -54 -46 -116h-30q-11 25 -9.5 82t22.5 84h370q37 0 56.5 -14.5t20.5 -29.5l1 -14l-467 -548h313q17 53 47 116h30q10 -34 6.5 -86t-23.5 -82z" />
    <glyph glyph-name="bracketleft" unicode="[" horiz-adv-x="310" 
d="M283 730h96l-8 -36q-13 -13 -28.5 -16t-57.5 -3h-19l-169 -794h101l-7 -34q-11 -12 -29 -16.5t-57 -4.5h-96l188 885q12 13 28 16t58 3z" />
    <glyph glyph-name="backslash" unicode="\" horiz-adv-x="461" 
d="M326 -237l-184 856q-15 65 6 98h41l183 -856q14 -68 -5 -98h-41z" />
    <glyph glyph-name="bracketright" unicode="]" horiz-adv-x="310" 
d="M34 -174h-95l6 36q13 13 28.5 16t57.5 3h19l169 794h-101l7 34q21 21 87 21h96l-188 -885q-13 -13 -28.5 -16t-57.5 -3z" />
    <glyph glyph-name="asciicircum" unicode="^" horiz-adv-x="470" 
d="M440 378q-13 -11 -38 -16l-100 221l-204 -220q-19 8 -33 25l156 216q24 33 45 47t55 14q17 0 35 -3q26 -81 84 -284z" />
    <glyph glyph-name="underscore" unicode="_" horiz-adv-x="555" 
d="M-22 -93l9 42q19 20 86 20h397l-9 -43q-18 -19 -85 -19h-398z" />
    <glyph glyph-name="grave" unicode="`" horiz-adv-x="400" 
d="M373 555l-17 -24q-38 15 -64.5 27.5t-57.5 31t-47.5 40t-16.5 45.5q0 45 58 42q22 -40 52 -86q25 -22 93 -76z" />
    <glyph glyph-name="a" unicode="a" horiz-adv-x="509" 
d="M297 52q0 24 21 106l-4 2q-41 -82 -80 -126t-91 -44q-50 0 -76.5 42.5t-26.5 117.5q0 81 26.5 154.5t81.5 123.5t127 50q65 0 102 -42q35 37 84 41l11 -26q-14 -43 -46 -152q-45 -210 -50 -236l86 -20l-3 -21q-40 -33 -84 -33q-37 0 -57.5 17.5t-20.5 45.5zM335 263
l33 134q-53 29 -103 29q-31 0 -55 -8q-40 -47 -62 -122.5t-21 -140.5q0 -45 10.5 -72t29.5 -27q28 0 64 39t62 83.5t42 84.5z" />
    <glyph glyph-name="b" unicode="b" horiz-adv-x="499" 
d="M258 670q0 -11 -2.5 -26.5t-10 -46.5l-15.5 -63l-24.5 -98l-31.5 -129h5q83 170 177 170q105 0 105 -158q0 -123 -65 -226.5t-167 -103.5q-70 0 -109 50q-37 -44 -83 -48l-14 26q22 75 41 148q71 302 105 495l-83 15l3 21q62 31 106 31q63 0 63 -57zM156 201l-28 -124
q17 -14 48.5 -25t58.5 -11q29 0 53 7q35 39 61 115t26 145q0 106 -44 106q-38 0 -87 -65t-88 -148z" />
    <glyph glyph-name="c" unicode="c" horiz-adv-x="412" 
d="M344 341q-9 23 -14.5 35.5t-15.5 27t-23 20.5t-30 6q-25 0 -46 -7q-36 -36 -63.5 -108t-27.5 -143q0 -52 17.5 -86t54.5 -34q50 0 131 74q13 -7 21 -20q-29 -43 -75 -80t-96 -37q-72 0 -105.5 47t-33.5 123q0 118 71 218.5t179 100.5q55 0 85 -22t30 -53q0 -49 -59 -62z
" />
    <glyph glyph-name="d" unicode="d" horiz-adv-x="514" 
d="M523 670q0 -26 -81 -321l-26.5 -124l-23 -113t-9.5 -49l86 -20l-4 -21q-40 -33 -84 -33q-36 0 -57 17.5t-21 45.5q0 39 21 108h-3q-41 -82 -81 -126.5t-93 -44.5q-50 0 -78 44t-28 116q0 80 27 154t82.5 124.5t127.5 50.5q73 0 107 -45q31 120 54 226l-88 16l4 21
q60 31 106 31q33 0 47.5 -17t14.5 -40zM343 263l33 132q-50 31 -107 31q-34 0 -58 -8q-37 -45 -60.5 -122t-22.5 -140q0 -45 12 -72.5t31 -27.5q41 0 91.5 69.5t79.5 137.5h1z" />
    <glyph glyph-name="e" unicode="e" horiz-adv-x="413" 
d="M139 271q120 -1 164 28q17 32 17 70q0 40 -29 52t-72 3q-26 -24 -50 -70t-30 -83zM324 128q17 -13 23 -28q-34 -45 -80 -78t-94 -33q-135 0 -135 166q0 77 27.5 149t86.5 123t135 51q53 0 82 -26.5t29 -70.5q0 -80 -69.5 -117.5t-199.5 -28.5q-6 -40 -6.5 -80t18 -70
t53.5 -30q8 0 16 1t16 4l13.5 5t14.5 8t13 8t14.5 10.5t13 11t15 13t14.5 12.5z" />
    <glyph glyph-name="f" unicode="f" horiz-adv-x="313" 
d="M247 413h-39q-22 -144 -48 -288q-37 -208 -83.5 -290.5t-131.5 -82.5q-54 0 -85.5 20t-31.5 50q0 39 35 52q54 -58 132 -64q17 37 26 61t24.5 85.5t32.5 155.5q23 121 49 301q-36 1 -80 16l8 31q29 7 72 7h8l2 13q21 125 71 186t149 61q46 0 71 -15t25 -39q0 -35 -37 -48
q-53 53 -130 46q-44 -41 -69 -191l-2 -13h120l-6 -31q-19 -23 -82 -23z" />
    <glyph glyph-name="g" unicode="g" horiz-adv-x="502" 
d="M345 263q21 95 31 134q-48 29 -104 29q-34 0 -58 -8q-38 -45 -61.5 -122t-22.5 -140q1 -45 12.5 -72.5t30.5 -27.5q41 0 92 69.5t80 137.5zM327 158v2h-4q-41 -82 -80.5 -126.5t-92.5 -44.5q-51 0 -78.5 44t-27.5 116q0 81 26.5 154.5t82.5 124t128 50.5q70 0 105 -42
q16 18 41.5 29t43.5 12l12 -26q-58 -154 -92 -353q-1 -24 -1 -54t0.5 -64.5t0.5 -48.5q0 -81 -59.5 -130t-181.5 -49q-94 0 -147 27.5t-53 80.5q0 31 27 60t64 41l19 -16q-24 -26 -24 -57q0 -40 35 -61.5t94 -21.5q97 0 139 42q3 39 3 69.5t-1.5 61t-1.5 48.5q0 63 23 132z
" />
    <glyph glyph-name="h" unicode="h" horiz-adv-x="535" 
d="M267 670q-1 -31 -34.5 -165.5t-49.5 -186.5l4 -2q42 78 85.5 119.5t99.5 41.5q95 0 95 -92q0 -7 -0.5 -14.5t-2.5 -18t-3.5 -20.5t-5.5 -27.5t-7 -32t-9 -40l-11 -46.5l-13.5 -57l-15.5 -66l84 -20l-3 -21q-40 -33 -84 -33q-37 0 -57.5 17.5t-20.5 45.5q0 20 12.5 72
l31.5 133t30 151q-16 9 -38 9q-47 0 -90.5 -49t-94.5 -143q-25 -106 -45 -220q-42 -16 -82 -8l-13 17q46 167 75 287t76 358l-85 16l4 21q60 31 106 31q33 0 47.5 -17t14.5 -40z" />
    <glyph glyph-name="i" unicode="i" horiz-adv-x="272" 
d="M152 630q0 22 16 38.5t39 16.5t39 -16.5t16 -38.5t-16 -38.5t-39 -16.5t-39 16.5t-16 38.5zM53 52q0 9 2 21t8 39t14 59.5l23.5 100l32.5 142.5l-76 17l3 21q52 26 93 26q33 0 48 -15.5t15 -38.5q0 -30 -40 -190l-43 -171l85 -20l-3 -21q-40 -33 -84 -33
q-37 0 -57.5 17.5t-20.5 45.5z" />
    <glyph glyph-name="j" unicode="j" horiz-adv-x="277" 
d="M165 630q0 22 16.5 38.5t38.5 16.5t38.5 -16.5t16.5 -38.5t-16.5 -38.5t-38.5 -16.5t-38.5 16.5t-16.5 38.5zM229 421q0 -50 -104 -450q-32 -125 -74 -172t-115 -47q-53 0 -89.5 24t-36.5 60q0 41 43 55q20 -39 57.5 -64t82.5 -19q37 107 81.5 289.5t69.5 316.5l-77 17
l4 21q52 26 94 26q64 0 64 -57z" />
    <glyph glyph-name="k" unicode="k" horiz-adv-x="472" 
d="M365 420q-54 13 -93 -11t-89 -97l-10 -44q97 -3 146.5 34.5t45.5 117.5zM369 -11q-30 0 -53.5 14.5t-45.5 57.5q-10 18 -44.5 86t-56.5 104q-9 -41 -25.5 -126.5t-24.5 -119.5q-41 -16 -81 -8l-12 17l26 96.5l20.5 79.5l19 78l16 67.5t16 74t14.5 71.5l17 85.5l19 93.5
l-84 15l4 21q62 31 106 31q61 0 61 -55q0 -23 -21 -115t-44 -176l3 -4q64 101 145 101q47 0 72.5 -24t25.5 -66q0 -60 -51 -103t-127 -41q14 -30 47.5 -90.5t46.5 -77.5q26 -33 82 -45l-2 -20q-29 -22 -69 -22z" />
    <glyph glyph-name="l" unicode="l" horiz-adv-x="266" 
d="M43 48q0 8 2.5 23t7.5 38t10.5 45.5l14 57.5t14.5 62q76 338 84 385l-89 16l4 21q62 31 106 31q33 0 47.5 -17t14.5 -40q0 -32 -39 -203l-95 -404l84 -20l-4 -21q-40 -33 -85 -33q-34 0 -55.5 16t-21.5 43z" />
    <glyph glyph-name="m" unicode="m" horiz-adv-x="777" 
d="M217 421q-2 -35 -22 -103l4 -2q44 81 82.5 121t94.5 40q42 0 64 -20.5t22 -50.5q0 -31 -16 -88l4 -2q43 80 81.5 120.5t91.5 40.5q90 0 90 -83q0 -57 -72 -331l84 -20l-4 -21q-40 -33 -83 -33q-36 0 -57 17t-21 43q0 14 5.5 38.5t18 72t17.5 69.5q28 116 38 179
q-18 9 -34 9q-44 0 -83 -46.5t-91 -143.5v-2q-25 -106 -45 -220q-41 -16 -80 -8l-13 17q4 15 24.5 85.5t32.5 124.5q24 99 38 184q-18 9 -35 9q-43 0 -81.5 -46.5t-91.5 -145.5q-29 -124 -46 -220q-40 -16 -78 -8l-13 17q40 141 56 210q19 103 31 191l-73 16l4 21
q52 26 93 26q63 0 63 -57z" />
    <glyph glyph-name="n" unicode="n" horiz-adv-x="543" 
d="M135 414l-78 17l4 21q52 26 93 26q61 0 63 -56q0 -31 -22 -104l4 -2q43 78 85 119.5t98 41.5q93 0 93 -93q0 -27 -17 -102l-52 -219l85 -20l-4 -21q-40 -33 -84 -33q-36 0 -57 17.5t-21 45.5q0 13 4 34.5t9 42.5l16 66.5l19 80.5q18 80 27 132q-16 8 -37 8
q-46 0 -89 -48.5t-94 -142.5q-25 -106 -45 -220q-41 -16 -80 -8l-12 17q55 190 92 400z" />
    <glyph glyph-name="o" unicode="o" horiz-adv-x="476" 
d="M286 478q152 0 152 -174q0 -56 -15 -110.5t-44 -101t-77 -75t-107 -28.5q-74 0 -115.5 48.5t-41.5 132.5q0 77 27.5 146t85.5 115.5t135 46.5zM212 41q37 0 66 11q37 52 56 120.5t19 133.5q0 123 -89 123q-34 0 -55 -8q-39 -40 -61.5 -110.5t-22.5 -143.5
q0 -55 20.5 -90.5t66.5 -35.5z" />
    <glyph glyph-name="p" unicode="p" horiz-adv-x="513" 
d="M172 205l-29 -129q17 -14 48 -24.5t57 -10.5q30 0 54 7q35 38 60.5 114t25.5 146q0 106 -43 106q-37 0 -85.5 -64t-87.5 -145zM5 -180q9 43 36 157t45 203.5t44 234.5l-74 16l4 21q50 26 93 26q62 0 62 -53q0 -25 -27 -118h4q83 170 178 170q105 0 105 -158
q0 -78 -27 -152.5t-82 -126t-123 -51.5q-66 0 -109 48l-48 -219q46 -7 101 -27l-5 -28h-270q0 25 18.5 36t74.5 21z" />
    <glyph glyph-name="q" unicode="q" 
d="M395 126q-34 -139 -66 -308q56 -6 88 -18l-6 -37h-268q0 24 23.5 35t80.5 22q13 65 32 150l31 137l13 52v1h-3q-41 -82 -81 -126.5t-93 -44.5q-50 0 -78 44t-28 116q0 81 26.5 154.5t82.5 124t128 50.5q73 0 107 -45q35 41 84 44l13 -26q-15 -42 -29.5 -92t-22 -82.5
l-19 -83zM339 259q5 21 18 68t18 68q-50 31 -107 31q-34 0 -58 -8q-38 -45 -61.5 -122t-22.5 -140q1 -45 13 -72.5t31 -27.5q39 0 88.5 67t80.5 136z" />
    <glyph glyph-name="r" unicode="r" horiz-adv-x="366" 
d="M217 421q0 -18 -21 -94l2 -4q18 38 28.5 57.5t27.5 46.5t33.5 39t34.5 12q20 0 33 -11.5t13 -30.5q0 -33 -26 -63l-70 8q-38 -31 -94 -141q-21 -86 -53 -235q-34 -13 -77 -8l-13 17q69 229 98 400l-76 17l3 21q52 26 93 26q34 0 49 -16.5t15 -40.5z" />
    <glyph glyph-name="s" unicode="s" horiz-adv-x="372" 
d="M75 358q0 60 47 90t111 30q123 0 123 -58q0 -36 -40 -51q-24 31 -49 48t-62 17q-27 0 -42 -9q-13 -19 -13 -45q0 -32 34 -67q18 -19 68 -67q34 -32 50.5 -58.5t16.5 -62.5q0 -57 -43.5 -96.5t-113.5 -39.5q-64 0 -108 24.5t-44 62.5q0 20 12.5 35t36.5 19q47 -95 123 -95
q31 0 45 9q17 23 17 55q0 21 -9 36.5t-34 41.5l-76 74q-50 52 -50 107z" />
    <glyph glyph-name="t" unicode="t" horiz-adv-x="351" 
d="M240 578l-12 -55.5l-12 -55.5h153l-8 -29q-8 -12 -22.5 -15.5t-55.5 -3.5h-78q-61 -286 -75 -363q19 -7 34 -7q29 0 62.5 25t58.5 62q22 -7 30 -20q-28 -49 -71.5 -88t-101.5 -39q-44 0 -67 20.5t-23 53.5q0 11 2.5 29t9.5 49.5l14.5 65l21 94l25.5 118.5q-35 2 -69 13
l9 30q15 3 70 5q24 75 43 93t62 18z" />
    <glyph glyph-name="u" unicode="u" horiz-adv-x="526" 
d="M309 52q0 30 25 98l-6 2q-43 -77 -83.5 -119.5t-95.5 -42.5q-92 0 -92 77q0 20 12.5 75t33 137t31.5 135l-77 17l3 21q52 26 93 26q34 0 49 -16.5t15 -40.5q0 -20 -13 -73l-33.5 -138t-33.5 -153q12 -6 38 -6q73 0 172 191q18 74 45 219q13 5 40.5 8.5t39.5 2.5l12 -17
q-42 -149 -56 -210l-37 -182l83 -20l-3 -21q-40 -33 -84 -33q-37 0 -57.5 17.5t-20.5 45.5z" />
    <glyph glyph-name="v" unicode="v" horiz-adv-x="445" 
d="M173 440q18 -58 27 -407q60 87 106 194.5t54 185.5l-77 17l3 21q52 26 85 26q57 0 57 -50q0 -64 -58 -186t-125 -206q-22 -26 -32.5 -33.5t-30.5 -7.5h-54q-1 12 -4 69.5t-4 72l-4 59.5t-5 64l-5.5 52t-7 56.5t-8.5 46.5l-73 16l4 21q50 26 92 26q50 0 60 -37z" />
    <glyph glyph-name="w" unicode="w" horiz-adv-x="664" 
d="M329 414l-69 16l3 21q52 26 86 26q55 0 61 -51q9 -57 13.5 -184.5t2.5 -205.5q58 85 101.5 191.5t51.5 186.5l-77 16l3 21q52 26 85 26q57 0 57 -50q0 -77 -53.5 -191t-122.5 -200q-21 -26 -32 -34t-31 -8h-54q0 10 -0.5 105t-2.5 152h-4q-42 -122 -108 -217
q-18 -26 -30.5 -33t-34.5 -7h-53q-14 315 -31 420l-73 16l4 21q50 26 90 26q51 0 61 -43q11 -53 18 -185.5t5 -212.5q47 72 85.5 160.5t57.5 160.5q-5 37 -9 57z" />
    <glyph glyph-name="x" unicode="x" horiz-adv-x="429" 
d="M204 430l34 -128q40 72 58 101.5t42.5 52t51.5 22.5q51 0 51 -44q0 -26 -13 -41l-64 7q-50 -41 -116 -136l55 -207l79 -17l-3 -21q-37 -30 -75 -30q-58 0 -74 53l-40 142l-22.5 -42l-20 -37l-17 -30.5t-16.5 -27l-14.5 -20.5t-14.5 -17.5t-14 -11t-15.5 -7.5t-16.5 -2
q-57 0 -57 48q0 25 18 38l57 -12q15 17 34 42l46.5 62l41.5 56l-54 192l-69 16l3 21q48 26 85 26q47 0 60 -48z" />
    <glyph glyph-name="y" unicode="y" horiz-adv-x="451" 
d="M434 431q0 -38 -25.5 -108.5t-61.5 -136.5q-58 -109 -121 -189.5t-159 -167.5q-51 -46 -82.5 -61.5t-64.5 -15.5q-30 0 -47.5 14t-17.5 36q0 28 26 47q62 -17 94 -24q67 46 167 135q-22 328 -49 454l-75 17l4 21q52 26 93 26q54 0 64 -48q10 -50 20 -190.5t9 -209.5
q55 94 101 202.5t54 178.5l-70 19v20q44 28 90 28q51 0 51 -47z" />
    <glyph glyph-name="z" unicode="z" horiz-adv-x="426" 
d="M437 447l-298 -358q82 -32 152 -30q23 16 51 50q37 -9 37 -46q0 -32 -26.5 -53t-68.5 -21q-105 0 -169 72q-32 -39 -54.5 -53t-45.5 -14l-29 22l302 366q-92 37 -149 30q-17 -13 -43 -56q-42 17 -42 57q0 30 26.5 47.5t65.5 17.5q91 0 163 -70q37 42 57.5 52t48.5 8z" />
    <glyph glyph-name="braceleft" unicode="{" horiz-adv-x="322" 
d="M45 251l12 56q53 0 72 29.5t25 97.5q12 133 19 162q16 68 51.5 101t98.5 33q42 0 68 -20l-6 -30h-96q-27 -36 -40 -91q-9 -38 -19 -151q-6 -65 -29 -105.5t-74 -55.5q51 -21 51 -76q0 -13 -1.5 -26t-6 -28t-7.5 -24l-9.5 -27.5t-8.5 -25.5q-34 -100 -34 -131
q0 -63 76 -63h26l-6 -30q-30 -20 -67 -20q-52 0 -78.5 31t-26.5 78q0 30 37 139q33 93 33 126q0 25 -13 38t-47 13z" />
    <glyph glyph-name="bar" unicode="|" horiz-adv-x="339" 
d="M138 645q0 41 3.5 56.5t15.5 25.5h44v-893q0 -41 -3.5 -56.5t-16.5 -25.5h-43v893z" />
    <glyph glyph-name="braceright" unicode="}" horiz-adv-x="322" 
d="M292 305l-12 -56q-53 0 -72.5 -31t-24.5 -98q-8 -117 -19 -160q-17 -68 -52.5 -101t-96.5 -33q-43 0 -69 20l6 30h96q27 36 40 91q13 54 19 149q10 136 103 163q-51 21 -51 79q0 16 4.5 37.5t9 34.5l14 39.5t11.5 33.5q27 79 27 114q0 63 -76 63h-26l6 30q30 20 67 20
q52 0 78.5 -31t26.5 -78q0 -39 -30 -122q-39 -108 -39 -141q0 -53 60 -53z" />
    <glyph glyph-name="asciitilde" unicode="~" horiz-adv-x="524" 
d="M255 341q-57 39 -85 53q-45 -32 -83 -92l-28 13q23 60 56.5 100t74.5 40q6 0 11.5 -0.5t10 -1t10.5 -3t10 -4t11 -5.5l10.5 -6t13 -8t13.5 -9l16 -11.5l18 -12.5q63 -44 85 -53q46 32 83 92l27 -13q-19 -55 -53 -97.5t-76 -42.5q-24 0 -48.5 12.5t-76.5 48.5z" />
    <glyph glyph-name="exclamdown" unicode="&#xa1;" horiz-adv-x="284" 
d="M244 439q0 -25 -16 -41.5t-40 -16.5q-25 0 -41.5 16.5t-16.5 41.5q0 24 16.5 40t41.5 16q24 0 40 -16t16 -40zM25 -80q12 50 115 377h44q-59 -375 -82 -479q-14 -2 -30 -2q-56 0 -56 47q0 19 9 57z" />
    <glyph glyph-name="cent" unicode="&#xa2;" horiz-adv-x="466" 
d="M124 177q0 -102 62 -125q1 0 1 1l18 83.5l32.5 146l32.5 147.5q-12 -1 -51 -7q-31 -33 -63 -101.5t-32 -144.5zM404 343q-14 34 -32 54.5t-49 28.5l-15 -62l-69 -316q67 8 145 78q14 -8 21 -20q-24 -37 -71.5 -72t-105.5 -43q-3 -26 -5.5 -38.5t-11 -28t-22.5 -21.5h-42
l11 40l13 48q-63 9 -98 56.5t-35 117.5q0 109 66.5 204.5t174.5 106.5l6 37.5t11 28.5t23 22h43l-24 -88q60 -5 89.5 -26t29.5 -50q0 -45 -53 -57z" />
    <glyph glyph-name="sterling" unicode="&#xa3;" horiz-adv-x="538" 
d="M419 351l-7 -35q-13 -12 -29 -15.5t-57 -3.5h-99l-34 -159q-21 -34 -51 -58q35 0 123.5 -9t119.5 -9q40 15 96 51l16 -16q-24 -44 -64.5 -76t-84.5 -32q-34 0 -135 9t-133 11q-22 -4 -81 -20l-11 19q58 58 109 69l47 220h-18q-34 2 -65 14l7 36q36 4 69 4h18l32 148
q16 76 68 122.5t147 46.5q71 0 108 -25.5t37 -61.5q0 -48 -59 -62q-17 53 -38.5 76t-69.5 23q-56 0 -82 -13q-9 -19 -27 -101l-33 -153h181z" />
    <glyph glyph-name="yen" unicode="&#xa5;" horiz-adv-x="605" 
d="M432 165h-90l-19 -113q56 -9 86 -17l-6 -35h-264q0 23 21.5 37t75.5 19h1l19 109h-164l6 32q8 12 22.5 15.5t55.5 3.5h89l14 80h-163l5 32q8 12 22.5 15.5t55.5 3.5h64l-109 258q-40 8 -51.5 19.5t-10.5 33.5h257l-6 -34q-33 -10 -96 -18l96 -243l175 243q-55 7 -89 18
l6 34h226q-2 -23 -18 -35t-60 -18l-192 -258h148l-5 -32q-8 -12 -22.5 -15.5t-55.5 -3.5h-92l-13 -80h165l-6 -32q-8 -12 -22.5 -15.5t-55.5 -3.5z" />
    <glyph glyph-name="brokenbar" unicode="&#xa6;" horiz-adv-x="255" 
d="M113 316l73 345q12 54 39 69h41l-72 -345q-12 -54 -39 -69h-42zM1 -218l75 364q12 54 39 69h41l-75 -363q-6 -31 -14 -45.5t-25 -24.5h-41z" />
    <glyph glyph-name="section" unicode="&#xa7;" horiz-adv-x="509" 
d="M257 178q65 -44 87 -75q45 39 45 88q0 30 -15 53t-58 50l-72 45q-51 29 -75 67q-43 -38 -43 -90q0 -50 54 -87zM369 12q0 -83 -59.5 -141t-138.5 -58q-82 0 -131.5 34.5t-49.5 87.5q0 34 23 53t58 19q-2 -78 31 -111.5t125 -32.5q61 56 61 125q0 40 -17.5 64t-64.5 55
l-37.5 24t-43.5 29q-77 55 -77 139q0 96 105 140q-8 24 -8 59q0 77 55.5 123.5t136.5 46.5q150 0 150 -82q0 -25 -18 -41.5t-51 -19.5q-6 57 -31 77t-78 20q-26 0 -39 -2q-46 -41 -46 -99q0 -34 15 -57.5t61 -53.5l65 -40q61 -39 82 -71.5t21 -81.5q0 -48 -30 -88t-77 -60
q8 -26 8 -57z" />
    <glyph glyph-name="dieresis" unicode="&#xa8;" horiz-adv-x="400" 
d="M317 626q0 21 15.5 36.5t36.5 15.5q22 0 37.5 -15.5t15.5 -36.5q0 -20 -16 -35.5t-37 -15.5t-36.5 15.5t-15.5 35.5zM122 626q0 21 15.5 36.5t36.5 15.5q22 0 37.5 -15.5t15.5 -36.5q0 -20 -16 -35.5t-37 -15.5t-36.5 15.5t-15.5 35.5z" />
    <glyph glyph-name="copyright" unicode="&#xa9;" horiz-adv-x="741" 
d="M55 328q0 149 94.5 244.5t235.5 95.5q142 0 236.5 -95.5t94.5 -244.5q0 -148 -94.5 -243.5t-236.5 -95.5q-141 0 -235.5 95.5t-94.5 243.5zM112 328q0 -127 77 -210t196 -83q120 0 197 82.5t77 210.5q0 129 -76.5 211.5t-197.5 82.5q-119 0 -196 -82.5t-77 -211.5z
M393 137q-82 0 -129.5 52t-47.5 139q0 86 54 142t142 56q67 0 100 -11q3 -10 3 -30q0 -47 -20 -96h-26q-20 37 -26 82q-15 6 -39 6q-51 0 -81 -36.5t-30 -104.5q0 -59 30.5 -99.5t81.5 -40.5q11 0 21 1.5t19 5t15.5 6.5t13.5 8.5t10.5 8t9.5 7.5l6 5q12 -5 26 -22
q-18 -34 -52 -56.5t-81 -22.5z" />
    <glyph glyph-name="ordfeminine" unicode="&#xaa;" horiz-adv-x="412" 
d="M274 328q0 22 16 78l-3 1q-33 -63 -65 -95.5t-70 -32.5q-37 0 -59.5 34.5t-22.5 91.5q0 100 52 179.5t137 79.5q48 0 77 -33q10 11 32 21t42 11l9 -20q-18 -57 -36 -120q-3 -16 -19 -87t-20 -93l64 -16l-3 -23q-31 -26 -67 -26q-29 0 -46.5 14t-17.5 36zM304 497
q12 44 25 101q-36 21 -77 21q-25 0 -46 -6q-28 -37 -44.5 -95.5t-16.5 -108.5q0 -71 29 -71q32 0 70 53t60 106z" />
    <glyph glyph-name="guillemotleft" unicode="&#xab;" horiz-adv-x="517" 
d="M190 64l-153 158q-1 25 5.5 41.5t29.5 34.5l190 148l27 -31l-166 -170l98 -157zM405 64l-153 158q-1 25 5.5 41.5t29.5 34.5l190 148l27 -31l-166 -170l98 -157z" />
    <glyph glyph-name="logicalnot" unicode="&#xac;" horiz-adv-x="612" 
d="M126 247q-39 0 -78 13l10 44q34 6 94 6h407l-46 -211h-43q-25 19 -15 65l18 83h-347z" />
    <glyph glyph-name="registered" unicode="&#xae;" horiz-adv-x="510" 
d="M81 495q0 94 64.5 157t157.5 63t158 -61.5t65 -154.5q0 -94 -64.5 -157t-157.5 -63q-95 0 -159 60.5t-64 155.5zM130 497q0 -79 48 -129.5t126 -50.5q77 0 125 50.5t48 129.5q0 78 -49 129t-126 51q-78 0 -125 -51t-47 -129zM234 418v175q-26 1 -24 27h34q9 0 31 0.5
t33 0.5q84 0 84 -65q0 -23 -12.5 -40t-32.5 -23l33 -46q18 -25 40 -34v-17q-10 -8 -26 -8q-28 0 -50 32l-24 36.5t-17 25.5q-11 -2 -25 0v-64q14 -2 29 -6v-22h-103q1 13 6 18.5t24 9.5zM302 593q-12 0 -24 -1v-79q36 -5 52 8.5t16 35.5q0 36 -44 36z" />
    <glyph glyph-name="macron" unicode="&#xaf;" horiz-adv-x="400" 
d="M135 589l9 39q19 20 86 20h172l-8 -39q-19 -20 -85 -20h-174z" />
    <glyph glyph-name="degree" unicode="&#xb0;" horiz-adv-x="317" 
d="M64 532q0 57 39 97t99 40q61 0 95.5 -32.5t34.5 -87.5q0 -59 -40 -99t-97 -40q-58 0 -94.5 32.5t-36.5 89.5zM202 623q-36 0 -57.5 -26.5t-21.5 -64.5q0 -36 21 -56t51 -20q32 0 55 24.5t23 68.5q0 36 -20 55t-51 19z" />
    <glyph glyph-name="plusminus" unicode="&#xb1;" horiz-adv-x="523" 
d="M406 227h-109l-26 -124q-12 -54 -38 -69h-48l41 193h-96q-40 0 -79 13l10 42q35 6 94 6h84l24 114q12 54 39 69h48l-22 -101l-18 -82h178l-8 -37q-22 -24 -74 -24zM340 -79h-275q-40 0 -79 13l8 37q34 6 95 6h332l-6 -32q-22 -24 -75 -24z" />
    <glyph glyph-name="twosuperior" unicode="&#xb2;" horiz-adv-x="357" 
d="M70 338q2 21 11 35.5t32 31.5q87 62 120 97t33 77q0 48 -47 48q-15 0 -26 -3q-21 -19 -42 -68q-18 2 -29 13t-11 26q0 30 30.5 50.5t82.5 20.5q115 0 115 -86q0 -67 -78 -123q-25 -18 -101 -63v-1h165l-9 -37q-17 -18 -46 -18h-200z" />
    <glyph glyph-name="threesuperior" unicode="&#xb3;" horiz-adv-x="344" 
d="M182 332q-48 0 -78 17t-30 43q0 37 46 45q19 -72 104 -62q22 22 22 56q0 56 -95 53l8 38q98 15 98 66q0 40 -42 40q-17 0 -29 -2q-20 -17 -38 -58q-17 1 -27.5 10t-10.5 24q0 27 30.5 45.5t80.5 18.5q54 0 78.5 -21t24.5 -53q0 -66 -89 -75q81 -9 81 -77
q0 -51 -35.5 -79.5t-98.5 -28.5z" />
    <glyph glyph-name="acute" unicode="&#xb4;" horiz-adv-x="400" 
d="M170 543l-13 24q89 61 97 68q23 29 61 82q53 0 53 -45q0 -74 -198 -129z" />
    <glyph glyph-name="mu" unicode="&#xb5;" horiz-adv-x="516" 
d="M25 -10l58 252q38 181 45 219q13 5 40.5 8.5t39.5 2.5l12 -17q-42 -149 -56 -210q-30 -134 -40 -188q14 -6 38 -6q73 0 172 191q18 74 45 219q13 5 40.5 8.5t39.5 2.5l12 -17q-42 -149 -56 -210l-37 -182l83 -20l-3 -21q-40 -33 -84 -33q-37 0 -57.5 17.5t-20.5 45.5
q0 30 25 98l-6 2q-43 -77 -83.5 -119.5t-95.5 -42.5q-44 0 -67 23q-7 -43 -7 -80q0 -80 54 -154q-20 -32 -54 -32q-93 0 -37 243z" />
    <glyph glyph-name="paragraph" unicode="&#xb6;" horiz-adv-x="520" 
d="M394 658l-125 -589q-12 -54 -39 -69h-43l70 329q-9 -1 -15 -1q-71 0 -117.5 44.5t-46.5 112.5q0 82 54 127.5t155 45.5h107zM490 658h42l-131 -617q-21 -99 -64 -136t-122 -37q-82 0 -134 27.5t-52 67.5q0 47 51 59q25 -50 59.5 -73t110.5 -23q32 0 53 7q18 49 36 134
l112 522q12 54 39 69z" />
    <glyph glyph-name="periodcentered" unicode="&#xb7;" horiz-adv-x="274" 
d="M80 239q0 24 16.5 40.5t40.5 16.5t40.5 -16.5t16.5 -40.5t-16.5 -40.5t-40.5 -16.5t-40.5 16.5t-16.5 40.5z" />
    <glyph glyph-name="cedilla" unicode="&#xb8;" horiz-adv-x="400" 
d="M203 0l-54 -57q37 -4 63 -24.5t26 -53.5q0 -48 -38.5 -73t-92.5 -25q-47 0 -76 15t-29 43q0 20 13 32t30 15q12 -71 104 -67q20 25 20 55q0 53 -88 57l4 20q26 26 80 63h38z" />
    <glyph glyph-name="onesuperior" unicode="&#xb9;" horiz-adv-x="289" 
d="M134 386l48 228q-24 3 -53 12l4 23q46 18 84 18q29 0 42 -10l-57 -272q48 -10 62 -16l-7 -31h-202q4 21 19.5 31.5t59.5 16.5z" />
    <glyph glyph-name="ordmasculine" unicode="&#xba;" horiz-adv-x="382" 
d="M265 664q64 0 95.5 -35.5t31.5 -99.5q0 -97 -52 -173.5t-144 -76.5q-58 0 -92 38.5t-34 101.5q0 97 53.5 171t141.5 74zM210 325q32 0 51 7q28 40 42.5 94.5t14.5 102.5q0 92 -67 92q-24 0 -41 -5q-30 -31 -48 -87t-18 -110q0 -94 66 -94z" />
    <glyph glyph-name="guillemotright" unicode="&#xbb;" horiz-adv-x="517" 
d="M113 446l153 -158q1 -25 -5.5 -41.5t-29.5 -34.5l-190 -148l-27 31l169 173l-101 154zM329 446l153 -158q1 -25 -5.5 -41.5t-29.5 -34.5l-190 -148l-27 31l169 173l-101 154z" />
    <glyph glyph-name="onequarter" unicode="&#xbc;" horiz-adv-x="750" 
d="M139 386l48 228q-24 3 -53 12l4 23q46 18 84 18q29 0 42 -10l-57 -272q48 -10 62 -16l-7 -31h-202q4 21 19.5 31.5t59.5 16.5zM117 0h-31q-5 21 3 39.5t34 46.5l534 572h33q5 -41 -37 -85zM613 82l-9 -41q30 -5 44 -10l-7 -31h-165q7 35 63 42l9 40h-159q2 21 9.5 33
t35.5 42l127 139q28 31 57 31h48l-42 -194h55l-6 -30q-16 -21 -50 -21h-10zM586 264l-120 -131h92z" />
    <glyph glyph-name="onehalf" unicode="&#xbd;" horiz-adv-x="786" 
d="M139 386l48 228q-24 3 -53 12l4 23q46 18 84 18q29 0 42 -10l-57 -272q48 -10 62 -16l-7 -31h-202q4 21 19.5 31.5t59.5 16.5zM117 0h-31q-5 21 3 39.5t34 46.5l534 572h33q5 -41 -37 -85zM447 0q2 21 11 35.5t32 31.5q87 62 120 97t33 77q0 48 -47 48q-16 0 -26 -3
q-21 -19 -42 -68q-18 2 -29 13t-11 26q0 30 30.5 50.5t82.5 20.5q115 0 115 -86q0 -67 -78 -123q-25 -18 -101 -63v-1h165l-9 -37q-17 -18 -46 -18h-200z" />
    <glyph glyph-name="threequarters" unicode="&#xbe;" horiz-adv-x="756" 
d="M123 0h-31q-5 21 3 39.5t34 46.5l534 572h33q5 -41 -37 -85zM173 332q-48 0 -78 17t-30 43q0 37 46 45q19 -72 104 -62q22 22 22 56q0 56 -95 53l8 38q98 15 98 66q0 40 -42 40q-17 0 -29 -2q-20 -17 -38 -58q-17 1 -27.5 10t-10.5 24q0 27 30.5 45.5t80.5 18.5
q54 0 78.5 -21t24.5 -53q0 -66 -89 -75q81 -9 81 -77q0 -51 -35.5 -79.5t-98.5 -28.5zM619 82l-9 -41q30 -5 44 -10l-7 -31h-165q7 35 63 42l9 40h-159q2 21 9.5 33t35.5 42l127 139q28 31 57 31h48l-42 -194h55l-6 -30q-16 -21 -50 -21h-10zM592 264l-120 -131h92z" />
    <glyph glyph-name="questiondown" unicode="&#xbf;" horiz-adv-x="415" 
d="M348 439q0 -25 -16 -41.5t-40 -16.5q-25 0 -41.5 16.5t-16.5 41.5q0 24 16.5 40t41.5 16q24 0 40 -16t16 -40zM343 -77q0 -51 -50.5 -79t-121.5 -28q-89 0 -134.5 36t-45.5 95q0 25 8 49t18 41.5t31.5 36.5t34.5 29.5t42 26.5l38.5 21l39.5 20l48 138h44q7 -51 7 -75
q0 -31 -15.5 -49t-73.5 -56q-68 -45 -98.5 -88t-30.5 -91q0 -39 22 -60.5t64 -21.5q28 0 46 1q13 11 26.5 27.5t21.5 28l21 31t15 23.5q43 -20 43 -56z" />
    <glyph glyph-name="Agrave" unicode="&#xc0;" horiz-adv-x="675" 
d="M516 741l-8 -28q-121 23 -167.5 42t-46.5 58q0 19 13.5 31t31.5 14l60 -60zM387 600l-161 -317h209zM470 52l-28 181h-241l-92 -181q51 -6 89 -18l-6 -34h-220q2 23 18 35t60 18l311 613h40q39 0 53 -17t20 -57l82 -539q40 -9 51.5 -20.5t10.5 -32.5h-250l6 34
q39 10 96 18z" />
    <glyph glyph-name="Aacute" unicode="&#xc1;" horiz-adv-x="675" 
d="M301 713l-8 28l124 57l60 60q19 -2 32 -13.5t13 -29.5q0 -42 -44.5 -59.5t-176.5 -42.5zM387 600l-161 -317h209zM470 52l-28 181h-241l-92 -181q51 -6 89 -18l-6 -34h-220q2 23 18 35t60 18l311 613h40q39 0 53 -17t20 -57l82 -539q40 -9 51.5 -20.5t10.5 -32.5h-250
l6 34q39 10 96 18z" />
    <glyph glyph-name="Acircumflex" unicode="&#xc2;" horiz-adv-x="675" 
d="M463 859l79 -135l-29 -19q-42 38 -92 88q-107 -78 -122 -88l-23 24l83 96t36 29t42 7q14 0 26 -2zM387 600l-161 -317h209zM470 52l-28 181h-241l-92 -181q51 -6 89 -18l-6 -34h-220q2 23 18 35t60 18l311 613h40q39 0 53 -17t20 -57l82 -539q40 -9 51.5 -20.5
t10.5 -32.5h-250l6 34q39 10 96 18z" />
    <glyph glyph-name="Atilde" unicode="&#xc3;" horiz-adv-x="675" 
d="M407 735q-15 6 -34 16t-24 12l-64 -51l-23 19l30.5 42.5t31.5 32.5t36 17q18 0 78 -27q14 -6 32.5 -15t25.5 -12l64 51l23 -19q-62 -91 -99 -91q-21 0 -77 25zM387 600l-161 -317h209zM470 52l-28 181h-241l-92 -181q51 -6 89 -18l-6 -34h-220q2 23 18 35t60 18l311 613
h40q39 0 53 -17t20 -57l82 -539q40 -9 51.5 -20.5t10.5 -32.5h-250l6 34q39 10 96 18z" />
    <glyph glyph-name="Adieresis" unicode="&#xc4;" horiz-adv-x="675" 
d="M259 781q0 22 16 38t38 16t37.5 -15.5t15.5 -38.5q0 -20 -15.5 -35.5t-37.5 -15.5t-38 15.5t-16 35.5zM471 781q0 23 15 38.5t37 15.5q23 0 38.5 -15.5t15.5 -38.5q0 -20 -16 -35.5t-38 -15.5q-21 0 -36.5 15.5t-15.5 35.5zM387 600l-161 -317h209zM470 52l-28 181h-241
l-92 -181q51 -6 89 -18l-6 -34h-220q2 23 18 35t60 18l311 613h40q39 0 53 -17t20 -57l82 -539q40 -9 51.5 -20.5t10.5 -32.5h-250l6 34q39 10 96 18z" />
    <glyph glyph-name="Aring" unicode="&#xc5;" horiz-adv-x="675" 
d="M426 876q41 0 67.5 -22t26.5 -57q0 -40 -29 -65.5t-75 -25.5q-42 0 -67.5 22.5t-25.5 58.5t27.5 62.5t75.5 26.5zM417 740q16 0 30 2q25 23 25 56q0 20 -13.5 32t-38.5 12q-10 0 -24 -2q-24 -24 -24 -56q0 -19 12 -31.5t33 -12.5zM387 600l-161 -317h209zM470 52l-28 181
h-241l-92 -181q51 -6 89 -18l-6 -34h-220q2 23 18 35t60 18l311 613h40q39 0 53 -17t20 -57l82 -539q40 -9 51.5 -20.5t10.5 -32.5h-250l6 34q39 10 96 18z" />
    <glyph glyph-name="AE" unicode="&#xc6;" horiz-adv-x="912" 
d="M478 272l62 336l-258 -336h196zM438 55l30 166h-225l-129 -169q51 -6 89 -18l-6 -34h-227q2 23 18 35t60 18l418 550q-48 9 -63 19t-14 36h543q19 -48 -45 -160h-29q-6 76 -6 110h-225l-42 -232h221l-6 -30q-24 -26 -61 -26h-165l-49 -266h235q17 44 50 106h30
q14 -95 -16 -160h-479q2 25 20.5 36.5t72.5 18.5z" />
    <glyph glyph-name="Ccedilla" unicode="&#xc7;" horiz-adv-x="630" 
d="M560 100q-75 -104 -205 -111l-44 -46q37 -4 63 -24.5t26 -53.5q0 -48 -38.5 -73t-92.5 -25q-47 0 -76 15t-29 43q0 20 13 32t30 15q12 -71 104 -67q20 25 20 55q0 53 -88 57l4 20q15 16 66 53q-107 10 -174 84.5t-67 197.5q0 76 22.5 146t65.5 126.5t112.5 90.5t155.5 34
q136 0 198 -20q11 -66 -50 -162h-30q-4 35 -4 113q-60 15 -134 15q-69 0 -113 -16q-56 -51 -90.5 -134.5t-34.5 -181.5q0 -105 51 -168.5t146 -63.5q53 0 90 18.5t78 55.5q6 -3 14.5 -11.5t10.5 -13.5z" />
    <glyph glyph-name="Egrave" unicode="&#xc8;" horiz-adv-x="552" 
d="M480 741l-8 -28q-121 23 -167.5 42t-46.5 58q0 19 13.5 31t31.5 14l60 -60zM108 658h464q18 -46 -45 -153h-29q-6 58 -6 103h-219l-42 -231h215l-6 -32q-24 -26 -61 -26h-159l-49 -265h227q16 40 50 105h30q14 -94 -16 -159h-470q2 25 20.5 36.5t72.5 18.5l101 548
q-49 9 -64 19t-14 36z" />
    <glyph glyph-name="Eacute" unicode="&#xc9;" horiz-adv-x="552" 
d="M277 713l-8 28l124 57l60 60q19 -2 32 -13.5t13 -29.5q0 -42 -44.5 -59.5t-176.5 -42.5zM108 658h464q18 -46 -45 -153h-29q-6 58 -6 103h-219l-42 -231h215l-6 -32q-24 -26 -61 -26h-159l-49 -265h227q16 40 50 105h30q14 -94 -16 -159h-470q2 25 20.5 36.5t72.5 18.5
l101 548q-49 9 -64 19t-14 36z" />
    <glyph glyph-name="Ecircumflex" unicode="&#xca;" horiz-adv-x="552" 
d="M423 859l79 -135l-29 -19q-42 38 -92 88q-107 -78 -122 -88l-23 24l83 96t36 29t42 7q14 0 26 -2zM108 658h464q18 -46 -45 -153h-29q-6 58 -6 103h-219l-42 -231h215l-6 -32q-24 -26 -61 -26h-159l-49 -265h227q16 40 50 105h30q14 -94 -16 -159h-470q2 25 20.5 36.5
t72.5 18.5l101 548q-49 9 -64 19t-14 36z" />
    <glyph glyph-name="Edieresis" unicode="&#xcb;" horiz-adv-x="552" 
d="M426 781q0 23 15 38.5t37 15.5t38 -15.5t16 -38.5q0 -20 -16 -35.5t-38 -15.5q-21 0 -36.5 15.5t-15.5 35.5zM214 781q0 22 16 38t38 16t37.5 -15.5t15.5 -38.5q0 -20 -15.5 -35.5t-37.5 -15.5t-38 15.5t-16 35.5zM108 658h464q18 -46 -45 -153h-29q-6 58 -6 103h-219
l-42 -231h215l-6 -32q-24 -26 -61 -26h-159l-49 -265h227q16 40 50 105h30q14 -94 -16 -159h-470q2 25 20.5 36.5t72.5 18.5l101 548q-49 9 -64 19t-14 36z" />
    <glyph glyph-name="Igrave" unicode="&#xcc;" horiz-adv-x="338" 
d="M358 741l-8 -28q-121 23 -167.5 42t-46.5 58q0 19 13.5 31t31.5 14l60 -60zM89 55l101 548q-53 9 -68 20t-14 35h269l-6 -34q-23 -8 -95 -20l-101 -550q54 -10 87 -20l-6 -34h-264q2 25 21 36.5t76 18.5z" />
    <glyph glyph-name="Iacute" unicode="&#xcd;" horiz-adv-x="338" 
d="M152 713l-8 28l124 57l60 60q19 -2 32 -13.5t13 -29.5q0 -42 -44.5 -59.5t-176.5 -42.5zM89 55l101 548q-53 9 -68 20t-14 35h269l-6 -34q-23 -8 -95 -20l-101 -550q54 -10 87 -20l-6 -34h-264q2 25 21 36.5t76 18.5z" />
    <glyph glyph-name="Icircumflex" unicode="&#xce;" horiz-adv-x="338" 
d="M304 859l79 -135l-29 -19q-42 38 -92 88q-107 -78 -122 -88l-23 24l83 96t36 29t42 7q14 0 26 -2zM89 55l101 548q-53 9 -68 20t-14 35h269l-6 -34q-23 -8 -95 -20l-101 -550q54 -10 87 -20l-6 -34h-264q2 25 21 36.5t76 18.5z" />
    <glyph glyph-name="Idieresis" unicode="&#xcf;" horiz-adv-x="338" 
d="M317 781q0 23 15 38.5t37 15.5q23 0 38.5 -15.5t15.5 -38.5q0 -20 -16 -35.5t-38 -15.5q-21 0 -36.5 15.5t-15.5 35.5zM105 781q0 22 16 38t38 16t37.5 -15.5t15.5 -38.5q0 -20 -15.5 -35.5t-37.5 -15.5t-38 15.5t-16 35.5zM89 55l101 548q-53 9 -68 20t-14 35h269
l-6 -34q-23 -8 -95 -20l-101 -550q54 -10 87 -20l-6 -34h-264q2 25 21 36.5t76 18.5z" />
    <glyph glyph-name="Eth" unicode="&#xd0;" horiz-adv-x="723" 
d="M56 310l8 34q12 12 27.5 15.5t54.5 3.5l45 240q-49 9 -64 19t-14 36h280q149 0 225 -71.5t76 -202.5q0 -96 -45 -184t-125.5 -144t-174.5 -56h-353q2 25 20.5 36.5t72.5 18.5l47 255h-80zM356 608h-78l-45 -245h198l-8 -34q-12 -12 -28.5 -15.5t-57.5 -3.5h-114l-47 -258
h251q82 55 125.5 149.5t43.5 179.5q0 123 -58.5 175t-181.5 52z" />
    <glyph glyph-name="Ntilde" unicode="&#xd1;" horiz-adv-x="747" 
d="M459 735q-15 6 -34 16t-24 12l-64 -51l-23 19l30.5 42.5t31.5 32.5t36 17q18 0 78 -27q14 -6 32.5 -15t25.5 -12l64 51l23 -19q-62 -91 -99 -91q-21 0 -77 25zM115 658h109q29 0 43.5 -9t28.5 -37l246 -502l91 494q-52 8 -98 20l6 34h248q-2 -26 -20 -36.5t-73 -18.5
l-93 -501q-10 -52 -27 -80.5t-53 -28.5h-12l-269 543l-89 -482q53 -8 97 -20l-6 -34h-252q2 25 21 36.5t76 18.5l102 548q-48 9 -62.5 19t-13.5 36z" />
    <glyph glyph-name="Ograve" unicode="&#xd2;" horiz-adv-x="729" 
d="M529 741l-8 -28q-121 23 -167.5 42t-46.5 58q0 19 13.5 31t31.5 14l60 -60zM350 -12q-144 0 -210.5 77t-66.5 201q0 104 40.5 195t120.5 149.5t182 58.5q140 0 210 -72t70 -202q0 -68 -23 -138.5t-64.5 -131t-109.5 -99t-149 -38.5zM403 616q-56 0 -98 -12
q-65 -61 -100 -150.5t-35 -184.5q0 -101 45.5 -163.5t142.5 -62.5q64 0 127 25q50 59 82 146t32 179q0 101 -46 162t-150 61z" />
    <glyph glyph-name="Oacute" unicode="&#xd3;" horiz-adv-x="729" 
d="M345 713l-8 28l124 57l60 60q19 -2 32 -13.5t13 -29.5q0 -42 -44.5 -59.5t-176.5 -42.5zM350 -12q-144 0 -210.5 77t-66.5 201q0 104 40.5 195t120.5 149.5t182 58.5q140 0 210 -72t70 -202q0 -68 -23 -138.5t-64.5 -131t-109.5 -99t-149 -38.5zM403 616q-56 0 -98 -12
q-65 -61 -100 -150.5t-35 -184.5q0 -101 45.5 -163.5t142.5 -62.5q64 0 127 25q50 59 82 146t32 179q0 101 -46 162t-150 61z" />
    <glyph glyph-name="Ocircumflex" unicode="&#xd4;" horiz-adv-x="729" 
d="M491 859l79 -135l-29 -19q-42 38 -92 88q-107 -78 -122 -88l-23 24l83 96t36 29t42 7q14 0 26 -2zM350 -12q-144 0 -210.5 75.5t-66.5 198.5q0 103 40.5 195t120 152t181.5 60q140 0 210.5 -70.5t70.5 -198.5q0 -68 -23 -139t-64.5 -133t-109.5 -101t-149 -39zM403 616
q-56 0 -98 -12q-65 -61 -100 -150.5t-35 -184.5q0 -101 45.5 -164t142.5 -63q67 0 127 26q50 59 82 146t32 179q0 101 -46 162t-150 61z" />
    <glyph glyph-name="Otilde" unicode="&#xd5;" horiz-adv-x="729" 
d="M430 735q-15 6 -34 16t-24 12l-64 -51l-23 19l30.5 42.5t31.5 32.5t36 17q18 0 78 -27q14 -6 32.5 -15t25.5 -12l64 51l23 -19q-62 -91 -99 -91q-21 0 -77 25zM350 -12q-144 0 -210.5 77t-66.5 201q0 104 40.5 195t120.5 149.5t182 58.5q140 0 210 -72t70 -202
q0 -68 -23 -138.5t-64.5 -131t-109.5 -99t-149 -38.5zM403 616q-56 0 -98 -12q-65 -61 -100 -150.5t-35 -184.5q0 -101 45.5 -163.5t142.5 -62.5q64 0 127 25q50 59 82 146t32 179q0 101 -46 162t-150 61z" />
    <glyph glyph-name="Odieresis" unicode="&#xd6;" horiz-adv-x="729" 
d="M486 781q0 23 15 38.5t37 15.5t38 -15.5t16 -38.5q0 -20 -16 -35.5t-38 -15.5q-21 0 -36.5 15.5t-15.5 35.5zM274 781q0 22 16 38t38 16t37.5 -15.5t15.5 -38.5q0 -20 -15.5 -35.5t-37.5 -15.5t-38 15.5t-16 35.5zM350 -12q-144 0 -210.5 77t-66.5 201q0 104 40.5 195
t120.5 149.5t182 58.5q140 0 210 -72t70 -202q0 -68 -23 -138.5t-64.5 -131t-109.5 -99t-149 -38.5zM403 616q-56 0 -98 -12q-65 -61 -100 -150.5t-35 -184.5q0 -101 45.5 -163.5t142.5 -62.5q64 0 127 25q50 59 82 146t32 179q0 101 -46 162t-150 61z" />
    <glyph glyph-name="multiply" unicode="&#xd7;" horiz-adv-x="413" 
d="M67 162l102 90l-72 93q-29 37 -18 65l31 22l105 -139l158 140l25 -29q0 -16 -10.5 -30t-35.5 -35l-102 -91l71 -93q29 -38 18 -66l-28 -20l-108 138l-156 -138l-25 27q-1 16 9 30t36 36z" />
    <glyph glyph-name="Oslash" unicode="&#xd8;" horiz-adv-x="729" 
d="M403 616q-56 0 -98 -12q-65 -61 -100 -150.5t-35 -184.5q0 -65 17 -112l358 406q-50 53 -142 53zM599 393q0 70 -22 121l-361 -410q48 -61 142 -61q64 0 127 25q50 59 82 146t32 179zM350 -12q-117 0 -187 55l-12 -13q-21 -25 -60 -44l-28 26q13 19 49 60l11 13
q-50 70 -50 181q0 104 40.5 195t120.5 149.5t182 58.5q110 0 180 -48l5 6q23 26 60 44l28 -26q-15 -20 -49 -60l-2 -2q58 -70 58 -188q0 -68 -23 -138.5t-64.5 -131t-109.5 -99t-149 -38.5z" />
    <glyph glyph-name="Ugrave" unicode="&#xd9;" horiz-adv-x="734" 
d="M560 741l-8 -28q-121 23 -167.5 42t-46.5 58q0 19 13.5 31t31.5 14l60 -60zM95 658h270l-6 -34q-28 -9 -96 -20l-60 -334q-39 -218 167 -218q87 0 142 36q21 53 49 184l62 332q-63 12 -89 20l6 34h246q-2 -27 -20 -37t-77 -18q-50 -264 -80 -405q-24 -113 -88.5 -161.5
t-166.5 -48.5q-136 0 -199.5 73t-38.5 208l61 334q-53 9 -68 20t-14 35z" />
    <glyph glyph-name="Uacute" unicode="&#xda;" horiz-adv-x="734" 
d="M367 713l-8 28l124 57l60 60q19 -2 32 -13.5t13 -29.5q0 -42 -44.5 -59.5t-176.5 -42.5zM95 658h270l-6 -34q-28 -9 -96 -20l-60 -334q-39 -218 167 -218q87 0 142 36q21 53 49 184l62 332q-63 12 -89 20l6 34h246q-2 -27 -20 -37t-77 -18q-50 -264 -80 -405
q-24 -113 -88.5 -161.5t-166.5 -48.5q-136 0 -199.5 73t-38.5 208l61 334q-53 9 -68 20t-14 35z" />
    <glyph glyph-name="Ucircumflex" unicode="&#xdb;" horiz-adv-x="734" 
d="M514 859l79 -135l-29 -19q-42 38 -92 88q-107 -78 -122 -88l-23 24l83 96t36 29t42 7q14 0 26 -2zM95 658h270l-6 -34q-28 -9 -96 -20l-60 -334q-39 -218 167 -218q87 0 142 36q21 53 49 184l62 332q-63 12 -89 20l6 34h246q-2 -27 -20 -37t-77 -18q-50 -264 -80 -405
q-24 -113 -88.5 -161.5t-166.5 -48.5q-136 0 -199.5 73t-38.5 208l61 334q-53 9 -68 20t-14 35z" />
    <glyph glyph-name="Udieresis" unicode="&#xdc;" horiz-adv-x="734" 
d="M524 781q0 23 15 38.5t37 15.5t38 -15.5t16 -38.5q0 -20 -16 -35.5t-38 -15.5q-21 0 -36.5 15.5t-15.5 35.5zM312 781q0 22 16 38t38 16t37.5 -15.5t15.5 -38.5q0 -20 -15.5 -35.5t-37.5 -15.5t-38 15.5t-16 35.5zM95 658h270l-6 -34q-28 -9 -96 -20l-60 -334
q-39 -218 167 -218q87 0 142 36q21 53 49 184l62 332q-63 12 -89 20l6 34h246q-2 -27 -20 -37t-77 -18q-50 -264 -80 -405q-24 -113 -88.5 -161.5t-166.5 -48.5q-136 0 -199.5 73t-38.5 208l61 334q-53 9 -68 20t-14 35z" />
    <glyph glyph-name="Yacute" unicode="&#xdd;" horiz-adv-x="626" 
d="M311 713l-8 28l124 57l60 60q19 -2 32 -13.5t13 -29.5q0 -42 -44.5 -59.5t-176.5 -42.5zM349 325l188 281q-55 7 -89 18l6 34h228q-2 -23 -18 -35t-60 -18l-231 -333l-39 -218q53 -10 88 -20l-6 -34h-265q2 25 21 36.5t76 18.5l37 205l-131 345q-40 8 -51.5 19.5
t-10.5 33.5h258l-6 -34q-33 -10 -96 -18z" />
    <glyph glyph-name="Thorn" unicode="&#xde;" horiz-adv-x="570" 
d="M208 237q69 -12 128.5 -10.5t89.5 13.5q21 21 34.5 53.5t13.5 64.5q0 53 -32 74t-107 21q-51 0 -88 -5zM276 604l-20 -105q39 3 97 3q212 0 212 -135q0 -109 -106.5 -159t-260.5 -25l-24 -129q57 -11 88 -20l-6 -34h-264q2 25 21 36.5t76 18.5l101 548q-53 9 -68 20
t-14 35h269l-6 -34q-23 -8 -95 -20z" />
    <glyph glyph-name="germandbls" unicode="&#xdf;" horiz-adv-x="563" 
d="M156 125q-37 -208 -83.5 -290.5t-131.5 -82.5q-56 0 -87.5 19.5t-31.5 49.5q0 42 37 54q54 -58 132 -64q17 37 25.5 61t24.5 85t33 155q28 140 53 301q-36 1 -80 16l8 31q29 7 72 7h8q22 131 78 195.5t166 64.5q72 0 113 -39t41 -95q0 -23 -4 -42t-15 -35t-19 -26
t-27 -22l-26.5 -16.5t-31 -16t-28.5 -13.5q-11 -18 -11 -43q0 -39 59 -96q55 -53 70.5 -84t16.5 -69q1 -57 -46 -99t-112 -42q-75 0 -110 25t-35 62q0 23 15 37t34 17q9 -21 17 -34.5t21 -29t31 -23.5t41 -8q27 0 45 9q21 26 23 61q1 30 -11 50.5t-49 58.5q-49 51 -66.5 78
t-17.5 59q0 25 12.5 47t26 35t40.5 34q39 30 56 53.5t17 57.5q0 51 -32.5 75.5t-116.5 17.5q-59 -50 -83 -191z" />
    <glyph glyph-name="agrave" unicode="&#xe0;" horiz-adv-x="509" 
d="M400 555l-17 -24q-38 15 -64.5 27.5t-57.5 31t-47.5 40t-16.5 45.5q0 45 58 42q22 -40 52 -86q25 -22 93 -76zM297 52q0 24 21 106l-4 2q-41 -82 -80 -126t-91 -44q-50 0 -76.5 42.5t-26.5 117.5q0 81 26.5 154.5t81.5 123.5t127 50q65 0 102 -42q35 37 84 41l11 -26
q-14 -43 -46 -152q-45 -210 -50 -236l86 -20l-3 -21q-40 -33 -84 -33q-37 0 -57.5 17.5t-20.5 45.5zM335 263l33 134q-53 29 -103 29q-31 0 -55 -8q-40 -47 -62 -122.5t-21 -140.5q0 -45 10.5 -72t29.5 -27q28 0 64 39t62 83.5t42 84.5z" />
    <glyph glyph-name="aacute" unicode="&#xe1;" horiz-adv-x="509" 
d="M242 543l-13 24q89 61 97 68q23 29 61 82q53 0 53 -45q0 -74 -198 -129zM297 52q0 24 21 106l-4 2q-41 -82 -80 -126t-91 -44q-50 0 -76.5 42.5t-26.5 117.5q0 81 26.5 154.5t81.5 123.5t127 50q65 0 102 -42q35 37 84 41l11 -26q-14 -43 -46 -152q-45 -210 -50 -236
l86 -20l-3 -21q-40 -33 -84 -33q-37 0 -57.5 17.5t-20.5 45.5zM335 263l33 134q-53 29 -103 29q-31 0 -55 -8q-40 -47 -62 -122.5t-21 -140.5q0 -45 10.5 -72t29.5 -27q28 0 64 39t62 83.5t42 84.5z" />
    <glyph glyph-name="acircumflex" unicode="&#xe2;" horiz-adv-x="509" 
d="M384 711l56 -161l-30 -14l-72 108l-128 -110l-25 22q55 71 98 121q19 21 34.5 28.5t42.5 7.5q12 0 24 -2zM297 52q0 24 21 106l-4 2q-41 -82 -80 -126t-91 -44q-50 0 -76.5 42.5t-26.5 117.5q0 81 26.5 154.5t81.5 123.5t127 50q65 0 102 -42q35 37 84 41l11 -26
q-14 -43 -46 -152q-45 -210 -50 -236l86 -20l-3 -21q-40 -33 -84 -33q-37 0 -57.5 17.5t-20.5 45.5zM335 263l33 134q-53 29 -103 29q-31 0 -55 -8q-40 -47 -62 -122.5t-21 -140.5q0 -45 10.5 -72t29.5 -27q28 0 64 39t62 83.5t42 84.5z" />
    <glyph glyph-name="atilde" unicode="&#xe3;" horiz-adv-x="509" 
d="M308 579q-15 6 -34 16t-24 12l-64 -51l-23 19l30.5 42.5t31.5 32.5t36 17q18 0 78 -27q14 -6 32.5 -15t25.5 -12l64 51l23 -19q-62 -91 -99 -91q-21 0 -77 25zM297 52q0 24 21 106l-4 2q-41 -82 -80 -126t-91 -44q-50 0 -76.5 42.5t-26.5 117.5q0 81 26.5 154.5
t81.5 123.5t127 50q65 0 102 -42q35 37 84 41l11 -26q-14 -43 -46 -152q-45 -210 -50 -236l86 -20l-3 -21q-40 -33 -84 -33q-37 0 -57.5 17.5t-20.5 45.5zM335 263l33 134q-53 29 -103 29q-31 0 -55 -8q-40 -47 -62 -122.5t-21 -140.5q0 -45 10.5 -72t29.5 -27q28 0 64 39
t62 83.5t42 84.5z" />
    <glyph glyph-name="adieresis" unicode="&#xe4;" horiz-adv-x="509" 
d="M358 626q0 21 15.5 36.5t36.5 15.5q22 0 37.5 -15.5t15.5 -36.5q0 -20 -16 -35.5t-37 -15.5t-36.5 15.5t-15.5 35.5zM163 626q0 21 15.5 36.5t36.5 15.5q22 0 37.5 -15.5t15.5 -36.5q0 -20 -16 -35.5t-37 -15.5t-36.5 15.5t-15.5 35.5zM297 52q0 24 21 106l-4 2
q-41 -82 -80 -126t-91 -44q-50 0 -76.5 42.5t-26.5 117.5q0 81 26.5 154.5t81.5 123.5t127 50q65 0 102 -42q35 37 84 41l11 -26q-14 -43 -46 -152q-45 -210 -50 -236l86 -20l-3 -21q-40 -33 -84 -33q-37 0 -57.5 17.5t-20.5 45.5zM335 263l33 134q-53 29 -103 29
q-31 0 -55 -8q-40 -47 -62 -122.5t-21 -140.5q0 -45 10.5 -72t29.5 -27q28 0 64 39t62 83.5t42 84.5z" />
    <glyph glyph-name="aring" unicode="&#xe5;" horiz-adv-x="509" 
d="M329 723q43 0 69 -24.5t26 -65.5q0 -46 -32.5 -75.5t-77.5 -29.5q-43 0 -68.5 25t-25.5 67q0 41 30.5 72t78.5 31zM317 565q15 0 27 3q29 27 29 66q0 24 -12 38.5t-36 14.5q-16 0 -28 -3q-26 -30 -26 -66q0 -53 46 -53zM297 52q0 24 21 106l-4 2q-41 -82 -80 -126
t-91 -44q-50 0 -76.5 42.5t-26.5 117.5q0 81 26.5 154.5t81.5 123.5t127 50q65 0 102 -42q35 37 84 41l11 -26q-14 -43 -46 -152q-45 -210 -50 -236l86 -20l-3 -21q-40 -33 -84 -33q-37 0 -57.5 17.5t-20.5 45.5zM335 263l33 134q-53 29 -103 29q-31 0 -55 -8
q-40 -47 -62 -122.5t-21 -140.5q0 -45 10.5 -72t29.5 -27q28 0 64 39t62 83.5t42 84.5z" />
    <glyph glyph-name="ae" unicode="&#xe6;" horiz-adv-x="674" 
d="M400 271q120 -1 164 28q17 32 17 70q0 40 -29 52t-72 3q-26 -24 -50 -70t-30 -83zM167 56q60 0 135 150q15 109 73 183q-47 37 -110 37q-31 0 -55 -8q-40 -47 -62 -122.5t-21 -140.5q0 -45 10.5 -72t29.5 -27zM585 128q17 -13 23 -28q-34 -45 -80 -78t-94 -33
q-127 0 -135 150q-34 -68 -71 -108.5t-85 -40.5q-50 0 -76.5 42.5t-26.5 117.5q0 127 64.5 227.5t171.5 100.5q83 0 125 -62q62 62 147 62q53 0 82 -26.5t29 -70.5q0 -80 -69.5 -117.5t-199.5 -28.5q-6 -40 -6.5 -80t18 -70t53.5 -30q8 0 16 1t16 4l13.5 5t14.5 8t13 8
t14.5 10.5t13 11t15 13t14.5 12.5z" />
    <glyph glyph-name="ccedilla" unicode="&#xe7;" horiz-adv-x="412" 
d="M344 341q-9 23 -14.5 35.5t-15.5 27t-23 20.5t-30 6q-25 0 -46 -7q-36 -36 -63.5 -108t-27.5 -143q0 -52 17.5 -86t54.5 -34q50 0 131 74q13 -7 21 -20q-58 -87 -132 -111l-49 -52q37 -4 63 -24.5t26 -53.5q0 -48 -38.5 -73t-92.5 -25q-47 0 -76 15t-29 43q0 20 13 32
t30 15q12 -71 104 -67q20 25 20 55q0 53 -88 57l4 20q18 18 64 52q-67 4 -98 50.5t-31 119.5q0 118 71 218.5t179 100.5q55 0 85 -22t30 -53q0 -49 -59 -62z" />
    <glyph glyph-name="egrave" unicode="&#xe8;" horiz-adv-x="413" 
d="M366 555l-17 -24q-38 15 -64.5 27.5t-57.5 31t-47.5 40t-16.5 45.5q0 45 58 42q22 -40 52 -86q25 -22 93 -76zM139 271q120 -1 164 28q17 32 17 70q0 40 -29 52t-72 3q-26 -24 -50 -70t-30 -83zM324 128q17 -13 23 -28q-34 -45 -80 -78t-94 -33q-135 0 -135 166
q0 77 27.5 149t86.5 123t135 51q53 0 82 -26.5t29 -70.5q0 -80 -69.5 -117.5t-199.5 -28.5q-6 -40 -6.5 -80t18 -70t53.5 -30q8 0 16 1t16 4l13.5 5t14.5 8t13 8t14.5 10.5t13 11t15 13t14.5 12.5z" />
    <glyph glyph-name="eacute" unicode="&#xe9;" horiz-adv-x="413" 
d="M202 543l-13 24q89 61 97 68q23 29 61 82q53 0 53 -45q0 -74 -198 -129zM139 271q120 -1 164 28q17 32 17 70q0 40 -29 52t-72 3q-26 -24 -50 -70t-30 -83zM324 128q17 -13 23 -28q-34 -45 -80 -78t-94 -33q-135 0 -135 166q0 77 27.5 149t86.5 123t135 51q53 0 82 -26.5
t29 -70.5q0 -80 -69.5 -117.5t-199.5 -28.5q-6 -40 -6.5 -80t18 -70t53.5 -30q8 0 16 1t16 4l13.5 5t14.5 8t13 8t14.5 10.5t13 11t15 13t14.5 12.5z" />
    <glyph glyph-name="ecircumflex" unicode="&#xea;" horiz-adv-x="413" 
d="M352 711l56 -161l-30 -14l-72 108l-128 -110l-25 22q55 71 98 121q19 21 34.5 28.5t42.5 7.5q12 0 24 -2zM139 271q120 -1 164 28q17 32 17 70q0 40 -29 52t-72 3q-26 -24 -50 -70t-30 -83zM324 128q17 -13 23 -28q-34 -45 -80 -78t-94 -33q-135 0 -135 166
q0 77 27.5 149t86.5 123t135 51q53 0 82 -26.5t29 -70.5q0 -80 -69.5 -117.5t-199.5 -28.5q-6 -40 -6.5 -80t18 -70t53.5 -30q8 0 16 1t16 4l13.5 5t14.5 8t13 8t14.5 10.5t13 11t15 13t14.5 12.5z" />
    <glyph glyph-name="edieresis" unicode="&#xeb;" horiz-adv-x="413" 
d="M318 626q0 21 15.5 36.5t36.5 15.5q22 0 37.5 -15.5t15.5 -36.5q0 -20 -16 -35.5t-37 -15.5t-36.5 15.5t-15.5 35.5zM123 626q0 21 15.5 36.5t36.5 15.5q22 0 37.5 -15.5t15.5 -36.5q0 -20 -16 -35.5t-37 -15.5t-36.5 15.5t-15.5 35.5zM139 271q120 -1 164 28
q17 32 17 70q0 40 -29 52t-72 3q-26 -24 -50 -70t-30 -83zM324 128q17 -13 23 -28q-34 -45 -80 -78t-94 -33q-135 0 -135 166q0 77 27.5 149t86.5 123t135 51q53 0 82 -26.5t29 -70.5q0 -80 -69.5 -117.5t-199.5 -28.5q-6 -40 -6.5 -80t18 -70t53.5 -30q8 0 16 1t16 4
l13.5 5t14.5 8t13 8t14.5 10.5t13 11t15 13t14.5 12.5z" />
    <glyph glyph-name="igrave" unicode="&#xec;" horiz-adv-x="272" 
d="M264 555l-17 -24q-38 15 -64.5 27.5t-57.5 31t-47.5 40t-16.5 45.5q0 45 58 42q22 -40 52 -86q25 -22 93 -76zM53 52q0 9 2 21t8 39t14 59.5l23.5 100l32.5 142.5l-76 17l3 21q52 26 93 26q33 0 48 -15.5t15 -38.5q0 -30 -40 -190l-43 -171l85 -20l-3 -21
q-40 -33 -84 -33q-37 0 -57.5 17.5t-20.5 45.5z" />
    <glyph glyph-name="iacute" unicode="&#xed;" horiz-adv-x="272" 
d="M103 543l-13 24q89 61 97 68q23 29 61 82q53 0 53 -45q0 -74 -198 -129zM53 52q0 9 2 21t8 39t14 59.5l23.5 100l32.5 142.5l-76 17l3 21q52 26 93 26q33 0 48 -15.5t15 -38.5q0 -30 -40 -190l-43 -171l85 -20l-3 -21q-40 -33 -84 -33q-37 0 -57.5 17.5t-20.5 45.5z" />
    <glyph glyph-name="icircumflex" unicode="&#xee;" horiz-adv-x="272" 
d="M249 711l56 -161l-30 -14l-72 108l-128 -110l-25 22q55 71 98 121q19 21 34.5 28.5t42.5 7.5q12 0 24 -2zM53 52q0 9 2 21t8 39t14 59.5l23.5 100l32.5 142.5l-76 17l3 21q52 26 93 26q33 0 48 -15.5t15 -38.5q0 -30 -40 -190l-43 -171l85 -20l-3 -21q-40 -33 -84 -33
q-37 0 -57.5 17.5t-20.5 45.5z" />
    <glyph glyph-name="idieresis" unicode="&#xef;" horiz-adv-x="272" 
d="M233 626q0 21 15.5 36.5t36.5 15.5q22 0 37.5 -15.5t15.5 -36.5q0 -20 -16 -35.5t-37 -15.5t-36.5 15.5t-15.5 35.5zM46 626q0 21 15.5 36.5t36.5 15.5q22 0 37.5 -15.5t15.5 -36.5q0 -20 -16 -35.5t-37 -15.5t-36.5 15.5t-15.5 35.5zM53 52q0 9 2 21t8 39t14 59.5
l23.5 100l32.5 142.5l-76 17l3 21q52 26 93 26q33 0 48 -15.5t15 -38.5q0 -30 -40 -190l-43 -171l85 -20l-3 -21q-40 -33 -84 -33q-37 0 -57.5 17.5t-20.5 45.5z" />
    <glyph glyph-name="eth" unicode="&#xf0;" horiz-adv-x="484" 
d="M307 577l-151 -81l-12 18q5 32 48 55l82 44q-43 39 -113 70q4 15 13 29q92 -24 154 -70l119 65l12 -20q-5 -32 -48 -54l-45 -24q82 -87 82 -227q0 -168 -67 -280.5t-178 -112.5q-81 0 -123 49.5t-42 138.5q0 51 14.5 102.5t42.5 96.5t74.5 73t104.5 28q47 0 83 -17
q-13 69 -50 117zM269 427q-39 0 -60 -8q-38 -41 -61 -112t-23 -139q0 -127 92 -127q33 0 62 11q38 55 61.5 142.5t23.5 191.5q0 14 -1 21q-44 20 -94 20z" />
    <glyph glyph-name="ntilde" unicode="&#xf1;" horiz-adv-x="543" 
d="M312 579q-15 6 -34 16t-24 12l-64 -51l-23 19l30.5 42.5t31.5 32.5t36 17q18 0 78 -27q14 -6 32.5 -15t25.5 -12l64 51l23 -19q-62 -91 -99 -91q-21 0 -77 25zM135 414l-78 17l4 21q52 26 93 26q61 0 63 -56q0 -31 -22 -104l4 -2q43 78 85 119.5t98 41.5q93 0 93 -93
q0 -27 -17 -102l-52 -219l85 -20l-4 -21q-40 -33 -84 -33q-36 0 -57 17.5t-21 45.5q0 13 4 34.5t9 42.5l16 66.5l19 80.5q18 80 27 132q-16 8 -37 8q-46 0 -89 -48.5t-94 -142.5q-25 -106 -45 -220q-41 -16 -80 -8l-12 17q55 190 92 400z" />
    <glyph glyph-name="ograve" unicode="&#xf2;" horiz-adv-x="476" 
d="M361 555l-17 -24q-38 15 -64.5 27.5t-57.5 31t-47.5 40t-16.5 45.5q0 45 58 42q22 -40 52 -86q25 -22 93 -76zM286 478q152 0 152 -174q0 -56 -15 -110.5t-44 -101t-77 -75t-107 -28.5q-74 0 -115.5 48.5t-41.5 132.5q0 77 27.5 146t85.5 115.5t135 46.5zM212 41
q37 0 66 11q37 52 56 120.5t19 133.5q0 123 -89 123q-34 0 -55 -8q-39 -40 -61.5 -110.5t-22.5 -143.5q0 -55 20.5 -90.5t66.5 -35.5z" />
    <glyph glyph-name="oacute" unicode="&#xf3;" horiz-adv-x="476" 
d="M206 543l-13 24q89 61 97 68q23 29 61 82q53 0 53 -45q0 -74 -198 -129zM286 478q152 0 152 -174q0 -56 -15 -110.5t-44 -101t-77 -75t-107 -28.5q-74 0 -115.5 48.5t-41.5 132.5q0 77 27.5 146t85.5 115.5t135 46.5zM212 41q37 0 66 11q37 52 56 120.5t19 133.5
q0 123 -89 123q-34 0 -55 -8q-39 -40 -61.5 -110.5t-22.5 -143.5q0 -55 20.5 -90.5t66.5 -35.5z" />
    <glyph glyph-name="ocircumflex" unicode="&#xf4;" horiz-adv-x="476" 
d="M359 711l56 -161l-30 -14l-72 108l-128 -110l-25 22q55 71 98 121q19 21 34.5 28.5t42.5 7.5q12 0 24 -2zM286 478q152 0 152 -174q0 -56 -15 -110.5t-44 -101t-77 -75t-107 -28.5q-74 0 -115.5 48.5t-41.5 132.5q0 77 27.5 146t85.5 115.5t135 46.5zM212 41q37 0 66 11
q37 52 56 120.5t19 133.5q0 123 -89 123q-34 0 -55 -8q-39 -40 -61.5 -110.5t-22.5 -143.5q0 -55 20.5 -90.5t66.5 -35.5z" />
    <glyph glyph-name="otilde" unicode="&#xf5;" horiz-adv-x="476" 
d="M288 579q-15 6 -34 16t-24 12l-64 -51l-23 19l30.5 42.5t31.5 32.5t36 17q18 0 78 -27q14 -6 32.5 -15t25.5 -12l64 51l23 -19q-62 -91 -99 -91q-21 0 -77 25zM286 478q152 0 152 -174q0 -56 -15 -110.5t-44 -101t-77 -75t-107 -28.5q-74 0 -115.5 48.5t-41.5 132.5
q0 77 27.5 146t85.5 115.5t135 46.5zM212 41q37 0 66 11q37 52 56 120.5t19 133.5q0 123 -89 123q-34 0 -55 -8q-39 -40 -61.5 -110.5t-22.5 -143.5q0 -55 20.5 -90.5t66.5 -35.5z" />
    <glyph glyph-name="odieresis" unicode="&#xf6;" horiz-adv-x="476" 
d="M337 626q0 21 15.5 36.5t36.5 15.5q22 0 37.5 -15.5t15.5 -36.5q0 -20 -16 -35.5t-37 -15.5t-36.5 15.5t-15.5 35.5zM142 626q0 21 15.5 36.5t36.5 15.5q22 0 37.5 -15.5t15.5 -36.5q0 -20 -16 -35.5t-37 -15.5t-36.5 15.5t-15.5 35.5zM286 478q152 0 152 -174
q0 -56 -15 -110.5t-44 -101t-77 -75t-107 -28.5q-74 0 -115.5 48.5t-41.5 132.5q0 77 27.5 146t85.5 115.5t135 46.5zM212 41q37 0 66 11q37 52 56 120.5t19 133.5q0 123 -89 123q-34 0 -55 -8q-39 -40 -61.5 -110.5t-22.5 -143.5q0 -55 20.5 -90.5t66.5 -35.5z" />
    <glyph glyph-name="divide" unicode="&#xf7;" horiz-adv-x="524" 
d="M243 404q0 24 16 41t41 17q24 0 39.5 -15t15.5 -39q0 -26 -16.5 -42t-41.5 -16q-24 0 -39 16t-15 38zM397 226h-267q-40 0 -79 13l10 44q35 6 94 6h324l-8 -39q-22 -24 -74 -24zM178 100q0 24 16 41t41 17q24 0 39.5 -15t15.5 -39q0 -26 -16.5 -42t-41.5 -16
q-24 0 -39 16t-15 38z" />
    <glyph glyph-name="oslash" unicode="&#xf8;" horiz-adv-x="476" 
d="M123 166v-24l219 247q-20 40 -78 40q-34 0 -55 -8q-39 -41 -62.5 -111.5t-23.5 -143.5zM212 41q37 0 66 11q37 52 57 121t20 133q0 16 -1 23l-217 -247q20 -41 75 -41zM52 61l9 10q-23 43 -23 99q0 77 27.5 146t85.5 115.5t135 46.5q61 0 102 -36q21 24 51 38l24 -23
q-15 -21 -42 -52l-3 -4q20 -42 20 -97q0 -56 -15 -110.5t-44 -101t-77 -75t-107 -28.5q-64 0 -105 41l-5 -6q-23 -25 -51 -38l-24 23q14 21 42 52z" />
    <glyph glyph-name="ugrave" unicode="&#xf9;" horiz-adv-x="526" 
d="M384 555l-17 -24q-38 15 -64.5 27.5t-57.5 31t-47.5 40t-16.5 45.5q0 45 58 42q22 -40 52 -86q25 -22 93 -76zM309 52q0 30 25 98l-6 2q-43 -77 -83.5 -119.5t-95.5 -42.5q-92 0 -92 77q0 20 12.5 75t33 137t31.5 135l-77 17l3 21q52 26 93 26q34 0 49 -16.5t15 -40.5
q0 -20 -13 -73l-33.5 -138t-33.5 -153q12 -6 38 -6q73 0 172 191q18 74 45 219q13 5 40.5 8.5t39.5 2.5l12 -17q-42 -149 -56 -210l-37 -182l83 -20l-3 -21q-40 -33 -84 -33q-37 0 -57.5 17.5t-20.5 45.5z" />
    <glyph glyph-name="uacute" unicode="&#xfa;" horiz-adv-x="526" 
d="M237 543l-13 24q89 61 97 68q23 29 61 82q53 0 53 -45q0 -74 -198 -129zM309 52q0 30 25 98l-6 2q-43 -77 -83.5 -119.5t-95.5 -42.5q-92 0 -92 77q0 20 12.5 75t33 137t31.5 135l-77 17l3 21q52 26 93 26q34 0 49 -16.5t15 -40.5q0 -20 -13 -73l-33.5 -138t-33.5 -153
q12 -6 38 -6q73 0 172 191q18 74 45 219q13 5 40.5 8.5t39.5 2.5l12 -17q-42 -149 -56 -210l-37 -182l83 -20l-3 -21q-40 -33 -84 -33q-37 0 -57.5 17.5t-20.5 45.5z" />
    <glyph glyph-name="ucircumflex" unicode="&#xfb;" horiz-adv-x="526" 
d="M379 711l56 -161l-30 -14l-72 108l-128 -110l-25 22q55 71 98 121q19 21 34.5 28.5t42.5 7.5q12 0 24 -2zM309 52q0 30 25 98l-6 2q-43 -77 -83.5 -119.5t-95.5 -42.5q-92 0 -92 77q0 20 12.5 75t33 137t31.5 135l-77 17l3 21q52 26 93 26q34 0 49 -16.5t15 -40.5
q0 -20 -13 -73l-33.5 -138t-33.5 -153q12 -6 38 -6q73 0 172 191q18 74 45 219q13 5 40.5 8.5t39.5 2.5l12 -17q-42 -149 -56 -210l-37 -182l83 -20l-3 -21q-40 -33 -84 -33q-37 0 -57.5 17.5t-20.5 45.5z" />
    <glyph glyph-name="udieresis" unicode="&#xfc;" horiz-adv-x="526" 
d="M366 626q0 21 15.5 36.5t36.5 15.5q22 0 37.5 -15.5t15.5 -36.5q0 -20 -16 -35.5t-37 -15.5t-36.5 15.5t-15.5 35.5zM171 626q0 21 15.5 36.5t36.5 15.5q22 0 37.5 -15.5t15.5 -36.5q0 -20 -16 -35.5t-37 -15.5t-36.5 15.5t-15.5 35.5zM309 52q0 30 25 98l-6 2
q-43 -77 -83.5 -119.5t-95.5 -42.5q-92 0 -92 77q0 20 12.5 75t33 137t31.5 135l-77 17l3 21q52 26 93 26q34 0 49 -16.5t15 -40.5q0 -20 -13 -73l-33.5 -138t-33.5 -153q12 -6 38 -6q73 0 172 191q18 74 45 219q13 5 40.5 8.5t39.5 2.5l12 -17q-42 -149 -56 -210l-37 -182
l83 -20l-3 -21q-40 -33 -84 -33q-37 0 -57.5 17.5t-20.5 45.5z" />
    <glyph glyph-name="yacute" unicode="&#xfd;" horiz-adv-x="451" 
d="M188 543l-13 24q89 61 97 68q23 29 61 82q53 0 53 -45q0 -74 -198 -129zM434 431q0 -38 -25.5 -108.5t-61.5 -136.5q-58 -109 -121 -189.5t-159 -167.5q-51 -46 -82.5 -61.5t-64.5 -15.5q-30 0 -47.5 14t-17.5 36q0 28 26 47q62 -17 94 -24q67 46 167 135
q-22 328 -49 454l-75 17l4 21q52 26 93 26q54 0 64 -48q10 -50 20 -190.5t9 -209.5q55 94 101 202.5t54 178.5l-70 19v20q44 28 90 28q51 0 51 -47z" />
    <glyph glyph-name="thorn" unicode="&#xfe;" horiz-adv-x="500" 
d="M157 201l-28 -124q45 -36 107 -36q28 0 53 7q35 39 61 115t26 145q0 106 -44 106q-38 0 -87 -65t-88 -148zM230 -11q-71 0 -109 50l-49 -221q42 -5 101 -27l-5 -28h-270q0 25 18.5 36t74.5 21l85 379q41 191 94 461l-83 15l3 21q62 31 106 31q63 0 63 -57q0 -30 -84 -363
h5q83 170 177 170q105 0 105 -158q0 -123 -65 -226.5t-167 -103.5z" />
    <glyph glyph-name="ydieresis" unicode="&#xff;" horiz-adv-x="451" 
d="M308 626q0 21 15.5 36.5t36.5 15.5q22 0 37.5 -15.5t15.5 -36.5q0 -20 -16 -35.5t-37 -15.5t-36.5 15.5t-15.5 35.5zM113 626q0 21 15.5 36.5t36.5 15.5q22 0 37.5 -15.5t15.5 -36.5q0 -20 -16 -35.5t-37 -15.5t-36.5 15.5t-15.5 35.5zM434 431q0 -38 -25.5 -108.5
t-61.5 -136.5q-58 -109 -121 -189.5t-159 -167.5q-51 -46 -82.5 -61.5t-64.5 -15.5q-30 0 -47.5 14t-17.5 36q0 28 26 47q62 -17 94 -24q67 46 167 135q-22 328 -49 454l-75 17l4 21q52 26 93 26q54 0 64 -48q10 -50 20 -190.5t9 -209.5q55 94 101 202.5t54 178.5l-70 19v20
q44 28 90 28q51 0 51 -47z" />
    <glyph glyph-name="Amacron" unicode="&#x100;" horiz-adv-x="675" 
d="M297 734l9 39q19 20 86 20h172l-8 -39q-19 -20 -85 -20h-174zM387 600l-161 -317h209zM470 52l-28 181h-241l-92 -181q51 -6 89 -18l-6 -34h-220q2 23 18 35t60 18l311 613h40q39 0 53 -17t20 -57l82 -539q40 -9 51.5 -20.5t10.5 -32.5h-250l6 34q39 10 96 18z" />
    <glyph glyph-name="amacron" unicode="&#x101;" horiz-adv-x="509" 
d="M179 589l9 39q19 20 86 20h172l-8 -39q-19 -20 -85 -20h-174zM297 52q0 24 21 106l-4 2q-41 -82 -80 -126t-91 -44q-50 0 -76.5 42.5t-26.5 117.5q0 81 26.5 154.5t81.5 123.5t127 50q65 0 102 -42q35 37 84 41l11 -26q-14 -43 -46 -152q-45 -210 -50 -236l86 -20l-3 -21
q-40 -33 -84 -33q-37 0 -57.5 17.5t-20.5 45.5zM335 263l33 134q-53 29 -103 29q-31 0 -55 -8q-40 -47 -62 -122.5t-21 -140.5q0 -45 10.5 -72t29.5 -27q28 0 64 39t62 83.5t42 84.5z" />
    <glyph glyph-name="Abreve" unicode="&#x102;" horiz-adv-x="675" 
d="M428 708q-56 0 -85 22.5t-29 61.5q0 22 11 44h37q-4 -14 -4 -25q0 -45 73 -45q32 0 53 9q15 22 29 61h37q-3 -62 -35 -95t-87 -33zM387 600l-161 -317h209zM470 52l-28 181h-241l-92 -181q51 -6 89 -18l-6 -34h-220q2 23 18 35t60 18l311 613h40q39 0 53 -17t20 -57
l82 -539q40 -9 51.5 -20.5t10.5 -32.5h-250l6 34q39 10 96 18z" />
    <glyph glyph-name="abreve" unicode="&#x103;" horiz-adv-x="509" 
d="M307 546q-55 0 -82 23t-27 63q0 23 12 47h37q-5 -20 -5 -30q0 -46 68 -46q28 0 45 6q20 30 32 70h37q-3 -63 -34 -98t-83 -35zM297 52q0 24 21 106l-4 2q-41 -82 -80 -126t-91 -44q-50 0 -76.5 42.5t-26.5 117.5q0 81 26.5 154.5t81.5 123.5t127 50q65 0 102 -42
q35 37 84 41l11 -26q-14 -43 -46 -152q-45 -210 -50 -236l86 -20l-3 -21q-40 -33 -84 -33q-37 0 -57.5 17.5t-20.5 45.5zM335 263l33 134q-53 29 -103 29q-31 0 -55 -8q-40 -47 -62 -122.5t-21 -140.5q0 -45 10.5 -72t29.5 -27q28 0 64 39t62 83.5t42 84.5z" />
    <glyph glyph-name="Aogonek" unicode="&#x104;" horiz-adv-x="675" 
d="M387 600l-161 -317h209zM585 0h-217l6 34q39 10 96 18l-28 181h-241l-92 -181q51 -6 89 -18l-6 -34h-220q2 23 18 35t60 18l311 613h40q39 0 53 -17t20 -57l82 -539q40 -9 51.5 -20.5t10.5 -32.5q-114 -72 -128 -169q29 -19 87 -29q-4 -20 -23 -35t-47 -15
q-36 0 -60 20.5t-24 55.5q0 48 50 95.5t112 76.5z" />
    <glyph glyph-name="aogonek" unicode="&#x105;" horiz-adv-x="509" 
d="M312 -248q-36 0 -60 20.5t-24 55.5q0 43 41.5 86.5t98.5 74.5q-33 1 -52 18.5t-19 44.5q0 24 21 106l-4 2q-41 -82 -80 -126t-91 -44q-50 0 -76.5 42.5t-26.5 117.5q0 81 26.5 154.5t81.5 123.5t127 50q65 0 102 -42q35 37 84 41l11 -26q-14 -43 -46 -152
q-45 -210 -50 -236l86 -20l-3 -21q-17 -14 -38 -23q-59 -38 -89.5 -82t-36.5 -86q29 -19 87 -29q-4 -20 -23 -35t-47 -15zM335 263l33 134q-53 29 -103 29q-31 0 -55 -8q-40 -47 -62 -122.5t-21 -140.5q0 -45 10.5 -72t29.5 -27q28 0 64 39t62 83.5t42 84.5z" />
    <glyph glyph-name="Cacute" unicode="&#x106;" horiz-adv-x="630" 
d="M342 715l-8 28l124 57l60 60q19 -2 32 -13.5t13 -29.5q0 -42 -44.5 -59.5t-176.5 -42.5zM341 -11q-117 0 -193 76t-76 207q0 76 22.5 146t65.5 126.5t112.5 90.5t155.5 34q136 0 198 -20q11 -66 -50 -162h-30q-4 35 -4 113q-60 15 -134 15q-69 0 -113 -16
q-56 -51 -90.5 -134.5t-34.5 -181.5q0 -105 51 -168.5t146 -63.5q53 0 90 18.5t78 55.5q6 -3 14.5 -11.5t10.5 -13.5q-81 -111 -219 -111z" />
    <glyph glyph-name="cacute" unicode="&#x107;" horiz-adv-x="412" 
d="M223 543l-13 24q89 61 97 68q23 29 61 82q53 0 53 -45q0 -74 -198 -129zM344 341q-9 23 -14.5 35.5t-15.5 27t-23 20.5t-30 6q-25 0 -46 -7q-36 -36 -63.5 -108t-27.5 -143q0 -52 17.5 -86t54.5 -34q50 0 131 74q13 -7 21 -20q-29 -43 -75 -80t-96 -37q-72 0 -105.5 47
t-33.5 123q0 118 71 218.5t179 100.5q55 0 85 -22t30 -53q0 -49 -59 -62z" />
    <glyph glyph-name="Ccircumflex" unicode="&#x108;" horiz-adv-x="630" 
d="M502 861l79 -135l-29 -19q-42 38 -92 88q-107 -78 -122 -88l-23 24l83 96t36 29t42 7q14 0 26 -2zM341 -11q-117 0 -193 76t-76 207q0 76 22.5 146t65.5 126.5t112.5 90.5t155.5 34q136 0 198 -20q11 -66 -50 -162h-30q-4 35 -4 113q-60 15 -134 15q-69 0 -113 -16
q-56 -51 -90.5 -134.5t-34.5 -181.5q0 -105 51 -168.5t146 -63.5q53 0 90 18.5t78 55.5q6 -3 14.5 -11.5t10.5 -13.5q-81 -111 -219 -111z" />
    <glyph glyph-name="ccircumflex" unicode="&#x109;" horiz-adv-x="412" 
d="M365 711l56 -161l-30 -14l-72 108l-128 -110l-25 22q55 71 98 121q19 21 34.5 28.5t42.5 7.5q12 0 24 -2zM344 341q-9 23 -14.5 35.5t-15.5 27t-23 20.5t-30 6q-25 0 -46 -7q-36 -36 -63.5 -108t-27.5 -143q0 -52 17.5 -86t54.5 -34q50 0 131 74q13 -7 21 -20
q-29 -43 -75 -80t-96 -37q-72 0 -105.5 47t-33.5 123q0 118 71 218.5t179 100.5q55 0 85 -22t30 -53q0 -49 -59 -62z" />
    <glyph glyph-name="Cdotaccent" unicode="&#x10a;" horiz-adv-x="630" 
d="M401 797q0 22 16 38t38 16t37.5 -15.5t15.5 -38.5q0 -20 -15.5 -35.5t-37.5 -15.5t-38 15.5t-16 35.5zM341 -11q-117 0 -193 76t-76 207q0 76 22.5 146t65.5 126.5t112.5 90.5t155.5 34q136 0 198 -20q11 -66 -50 -162h-30q-4 35 -4 113q-60 15 -134 15q-69 0 -113 -16
q-56 -51 -90.5 -134.5t-34.5 -181.5q0 -105 51 -168.5t146 -63.5q53 0 90 18.5t78 55.5q6 -3 14.5 -11.5t10.5 -13.5q-81 -111 -219 -111z" />
    <glyph glyph-name="cdotaccent" unicode="&#x10b;" horiz-adv-x="412" 
d="M262 626q0 22 16 38t38 16t37.5 -15.5t15.5 -38.5q0 -20 -15.5 -35.5t-37.5 -15.5t-38 15.5t-16 35.5zM344 341q-9 23 -14.5 35.5t-15.5 27t-23 20.5t-30 6q-25 0 -46 -7q-36 -36 -63.5 -108t-27.5 -143q0 -52 17.5 -86t54.5 -34q50 0 131 74q13 -7 21 -20
q-29 -43 -75 -80t-96 -37q-72 0 -105.5 47t-33.5 123q0 118 71 218.5t179 100.5q55 0 85 -22t30 -53q0 -49 -59 -62z" />
    <glyph glyph-name="Ccaron" unicode="&#x10c;" horiz-adv-x="630" 
d="M395 711l-79 135l29 19q11 -9 91 -90q3 2 54 40t69 50l23 -24l-83 -96t-36 -29t-42 -7q-14 0 -26 2zM341 -11q-117 0 -193 76t-76 207q0 76 22.5 146t65.5 126.5t112.5 90.5t155.5 34q136 0 198 -20q11 -66 -50 -162h-30q-4 35 -4 113q-60 15 -134 15q-69 0 -113 -16
q-56 -51 -90.5 -134.5t-34.5 -181.5q0 -105 51 -168.5t146 -63.5q53 0 90 18.5t78 55.5q6 -3 14.5 -11.5t10.5 -13.5q-81 -111 -219 -111z" />
    <glyph glyph-name="ccaron" unicode="&#x10d;" horiz-adv-x="412" 
d="M262 537l-56 160l30 14l72 -109l128 111l25 -22q-48 -63 -98 -120q-19 -21 -34.5 -28.5t-42.5 -7.5q-12 0 -24 2zM344 341q-9 23 -14.5 35.5t-15.5 27t-23 20.5t-30 6q-25 0 -46 -7q-36 -36 -63.5 -108t-27.5 -143q0 -52 17.5 -86t54.5 -34q50 0 131 74q13 -7 21 -20
q-29 -43 -75 -80t-96 -37q-72 0 -105.5 47t-33.5 123q0 118 71 218.5t179 100.5q55 0 85 -22t30 -53q0 -49 -59 -62z" />
    <glyph glyph-name="Dcaron" unicode="&#x10e;" horiz-adv-x="719" 
d="M382 711l-79 135l29 19q10 -9 91 -90q3 2 54 40t69 50l23 -24l-83 -96t-36 -29t-42 -7q-14 0 -26 2zM345 0h-353q2 25 20.5 36.5t72.5 18.5l102 548q-49 9 -64 19t-14 36h280q149 0 225 -71.5t76 -202.5q0 -96 -45 -184t-125.5 -144t-174.5 -56zM352 608h-78l-102 -556
h251q82 55 125.5 149.5t43.5 179.5q0 123 -58.5 175t-181.5 52z" />
    <glyph glyph-name="dcaron" unicode="&#x10f;" horiz-adv-x="567" 
d="M588 547q-15 9 -24 18q38 51 54 95l7 63q14 4 28 4q37 0 37 -43q0 -23 -14.5 -46.5t-28.5 -37t-59 -53.5zM523 670q0 -26 -81 -321l-26.5 -124l-23 -113t-9.5 -49l86 -20l-4 -21q-40 -33 -84 -33q-36 0 -57 17.5t-21 45.5q0 39 21 108h-3q-41 -82 -81 -126.5t-93 -44.5
q-50 0 -78 44t-28 116q0 80 27 154t82.5 124.5t127.5 50.5q73 0 107 -45q31 120 54 226l-88 16l4 21q60 31 106 31q33 0 47.5 -17t14.5 -40zM343 263l33 132q-50 31 -107 31q-34 0 -58 -8q-37 -45 -60.5 -122t-22.5 -140q0 -45 12 -72.5t31 -27.5q41 0 91.5 69.5t79.5 137.5
h1z" />
    <glyph glyph-name="Dcroat" unicode="&#x110;" horiz-adv-x="723" 
d="M56 310l8 34q12 12 27.5 15.5t54.5 3.5l45 240q-49 9 -64 19t-14 36h280q149 0 225 -71.5t76 -202.5q0 -96 -45 -184t-125.5 -144t-174.5 -56h-353q2 25 20.5 36.5t72.5 18.5l47 255h-80zM356 608h-78l-45 -245h198l-8 -34q-12 -12 -28.5 -15.5t-57.5 -3.5h-114l-47 -258
h251q82 55 125.5 149.5t43.5 179.5q0 123 -58.5 175t-181.5 52z" />
    <glyph glyph-name="dcroat" unicode="&#x111;" horiz-adv-x="521" 
d="M381 -11q-36 0 -57 17.5t-21 45.5q0 39 21 108h-3q-41 -82 -81 -126.5t-93 -44.5q-50 0 -78 44t-28 116q0 80 27 154t82.5 124.5t127.5 50.5q73 0 107 -45l27 109h-136l7 34q19 20 86 20h56q2 10 7 31.5t7 31.5l-88 16l4 21q60 31 106 31q33 0 47.5 -17t14.5 -40
q0 -12 -15 -74h108l-7 -35q-18 -19 -85 -19h-30l-52 -193l-26.5 -124l-23 -113t-9.5 -49l86 -20l-4 -21q-40 -33 -84 -33zM343 263l33 132q-50 31 -107 31q-34 0 -58 -8q-37 -45 -60.5 -122t-22.5 -140q0 -45 12 -72.5t31 -27.5q41 0 91.5 69.5t79.5 137.5h1z" />
    <glyph glyph-name="Emacron" unicode="&#x112;" horiz-adv-x="552" 
d="M266 738l9 39q19 20 86 20h172l-8 -39q-19 -20 -85 -20h-174zM108 658h464q18 -46 -45 -153h-29q-6 58 -6 103h-219l-42 -231h215l-6 -32q-24 -26 -61 -26h-159l-49 -265h227q16 40 50 105h30q14 -94 -16 -159h-470q2 25 20.5 36.5t72.5 18.5l101 548q-49 9 -64 19
t-14 36z" />
    <glyph glyph-name="emacron" unicode="&#x113;" horiz-adv-x="413" 
d="M189 589l9 39q19 20 86 20h172l-8 -39q-19 -20 -85 -20h-174zM139 271q120 -1 164 28q17 32 17 70q0 40 -29 52t-72 3q-26 -24 -50 -70t-30 -83zM324 128q17 -13 23 -28q-34 -45 -80 -78t-94 -33q-135 0 -135 166q0 77 27.5 149t86.5 123t135 51q53 0 82 -26.5t29 -70.5
q0 -80 -69.5 -117.5t-199.5 -28.5q-6 -40 -6.5 -80t18 -70t53.5 -30q8 0 16 1t16 4l13.5 5t14.5 8t13 8t14.5 10.5t13 11t15 13t14.5 12.5z" />
    <glyph glyph-name="Ebreve" unicode="&#x114;" horiz-adv-x="552" 
d="M398 712q-56 0 -85 22.5t-29 61.5q0 22 11 44h37q-4 -14 -4 -25q0 -45 73 -45q32 0 53 9q15 22 29 61h37q-3 -62 -35 -95t-87 -33zM108 658h464q18 -46 -45 -153h-29q-6 58 -6 103h-219l-42 -231h215l-6 -32q-24 -26 -61 -26h-159l-49 -265h227q16 40 50 105h30
q14 -94 -16 -159h-470q2 25 20.5 36.5t72.5 18.5l101 548q-49 9 -64 19t-14 36z" />
    <glyph glyph-name="ebreve" unicode="&#x115;" horiz-adv-x="413" 
d="M309 546q-55 0 -82 23t-27 63q0 23 12 47h37q-5 -20 -5 -30q0 -46 68 -46q29 0 45 6q20 30 32 70h37q-3 -63 -34 -98t-83 -35zM139 271q120 -1 164 28q17 32 17 70q0 40 -29 52t-72 3q-26 -24 -50 -70t-30 -83zM324 128q17 -13 23 -28q-34 -45 -80 -78t-94 -33
q-135 0 -135 166q0 77 27.5 149t86.5 123t135 51q53 0 82 -26.5t29 -70.5q0 -80 -69.5 -117.5t-199.5 -28.5q-6 -40 -6.5 -80t18 -70t53.5 -30q8 0 16 1t16 4l13.5 5t14.5 8t13 8t14.5 10.5t13 11t15 13t14.5 12.5z" />
    <glyph glyph-name="Edotaccent" unicode="&#x116;" horiz-adv-x="552" 
d="M331 797q0 22 16 38t38 16t37.5 -15.5t15.5 -38.5q0 -20 -15.5 -35.5t-37.5 -15.5t-38 15.5t-16 35.5zM108 658h464q18 -46 -45 -153h-29q-6 58 -6 103h-219l-42 -231h215l-6 -32q-24 -26 -61 -26h-159l-49 -265h227q16 40 50 105h30q14 -94 -16 -159h-470
q2 25 20.5 36.5t72.5 18.5l101 548q-49 9 -64 19t-14 36z" />
    <glyph glyph-name="edotaccent" unicode="&#x117;" horiz-adv-x="413" 
d="M252 626q0 22 16 38t38 16t37.5 -15.5t15.5 -38.5q0 -20 -15.5 -35.5t-37.5 -15.5t-38 15.5t-16 35.5zM139 271q120 -1 164 28q17 32 17 70q0 40 -29 52t-72 3q-26 -24 -50 -70t-30 -83zM324 128q17 -13 23 -28q-34 -45 -80 -78t-94 -33q-135 0 -135 166q0 77 27.5 149
t86.5 123t135 51q53 0 82 -26.5t29 -70.5q0 -80 -69.5 -117.5t-199.5 -28.5q-6 -40 -6.5 -80t18 -70t53.5 -30q8 0 16 1t16 4l13.5 5t14.5 8t13 8t14.5 10.5t13 11t15 13t14.5 12.5z" />
    <glyph glyph-name="Eogonek" unicode="&#x118;" horiz-adv-x="552" 
d="M429 0h-437q2 25 20.5 36.5t72.5 18.5l101 548q-49 9 -64 19t-14 36h464q18 -46 -45 -153h-29q-6 58 -6 103h-219l-42 -231h215l-6 -32q-24 -26 -61 -26h-159l-49 -265h227q16 40 50 105h30q14 -94 -16 -159q-114 -72 -128 -169q29 -19 87 -29q-4 -20 -23 -35t-47 -15
q-36 0 -60 20.5t-24 55.5q0 48 50 95.5t112 76.5z" />
    <glyph glyph-name="eogonek" unicode="&#x119;" horiz-adv-x="413" 
d="M139 271q120 -1 164 28q17 32 17 70q0 40 -29 52t-72 3q-26 -24 -50 -70t-30 -83zM185 -198q-4 -20 -23 -35t-47 -15q-36 0 -60 20.5t-24 55.5q0 43 41.5 86.5t98.5 74.5q-73 1 -103 48t-30 118q0 77 27.5 149t86.5 123t135 51q53 0 82 -26.5t29 -70.5
q0 -80 -69.5 -117.5t-199.5 -28.5q-6 -40 -6.5 -80t18 -70t53.5 -30q8 0 16 1t16 4l13.5 5t14.5 8t13 8t14.5 10.5t13 11t15 13t14.5 12.5q17 -13 23 -28q-55 -73 -121 -100q-114 -72 -128 -169q29 -19 87 -29z" />
    <glyph glyph-name="Ecaron" unicode="&#x11a;" horiz-adv-x="552" 
d="M350 711l-79 135l29 19q10 -9 91 -90q3 2 54 40t69 50l23 -24l-83 -96t-36 -29t-42 -7q-14 0 -26 2zM108 658h464q18 -46 -45 -153h-29q-6 58 -6 103h-219l-42 -231h215l-6 -32q-24 -26 -61 -26h-159l-49 -265h227q16 40 50 105h30q14 -94 -16 -159h-470q2 25 20.5 36.5
t72.5 18.5l101 548q-49 9 -64 19t-14 36z" />
    <glyph glyph-name="ecaron" unicode="&#x11b;" horiz-adv-x="413" 
d="M262 537l-56 160l30 14l72 -109l128 111l25 -22q-48 -63 -98 -120q-19 -21 -34.5 -28.5t-42.5 -7.5q-12 0 -24 2zM139 271q120 -1 164 28q17 32 17 70q0 40 -29 52t-72 3q-26 -24 -50 -70t-30 -83zM324 128q17 -13 23 -28q-34 -45 -80 -78t-94 -33q-135 0 -135 166
q0 77 27.5 149t86.5 123t135 51q53 0 82 -26.5t29 -70.5q0 -80 -69.5 -117.5t-199.5 -28.5q-6 -40 -6.5 -80t18 -70t53.5 -30q8 0 16 1t16 4l13.5 5t14.5 8t13 8t14.5 10.5t13 11t15 13t14.5 12.5z" />
    <glyph glyph-name="Gcircumflex" unicode="&#x11c;" horiz-adv-x="677" 
d="M506 861l79 -135l-29 -19q-42 38 -92 88q-107 -78 -122 -88l-23 24l83 96t36 29t42 7q14 0 26 -2zM359 -11q-137 0 -212 79t-75 211q0 70 21 136.5t63 124.5t114 93.5t164 35.5q126 0 211 -19q12 -63 -51 -163h-29q-4 32 -4 113q-73 15 -146 15q-76 0 -118 -15
q-55 -47 -91 -133.5t-36 -177.5q0 -112 52 -176t155 -64q65 0 117 15l34 189q-81 11 -99 16l4 27q58 22 107 22q61 0 77 -25l-7 -37l-36 -193q-80 -74 -215 -74z" />
    <glyph glyph-name="gcircumflex" unicode="&#x11d;" horiz-adv-x="502" 
d="M396 711l56 -161l-30 -14l-72 108l-128 -110l-25 22q55 71 98 121q19 21 34.5 28.5t42.5 7.5q12 0 24 -2zM345 263q21 95 31 134q-48 29 -104 29q-34 0 -58 -8q-38 -45 -61.5 -122t-22.5 -140q1 -45 12.5 -72.5t30.5 -27.5q41 0 92 69.5t80 137.5zM327 158v2h-4
q-41 -82 -80.5 -126.5t-92.5 -44.5q-51 0 -78.5 44t-27.5 116q0 81 26.5 154.5t82.5 124t128 50.5q70 0 105 -42q16 18 41.5 29t43.5 12l12 -26q-58 -154 -92 -353q-1 -24 -1 -54t0.5 -64.5t0.5 -48.5q0 -81 -59.5 -130t-181.5 -49q-94 0 -147 27.5t-53 80.5q0 31 27 60
t64 41l19 -16q-24 -26 -24 -57q0 -40 35 -61.5t94 -21.5q97 0 139 42q3 39 3 69.5t-1.5 61t-1.5 48.5q0 63 23 132z" />
    <glyph glyph-name="Gbreve" unicode="&#x11e;" horiz-adv-x="677" 
d="M446 712q-56 0 -85 22.5t-29 61.5q0 22 11 44h37q-4 -14 -4 -25q0 -45 73 -45q32 0 53 9q15 22 29 61h37q-3 -62 -35 -95t-87 -33zM359 -11q-137 0 -212 79t-75 211q0 70 21 136.5t63 124.5t114 93.5t164 35.5q126 0 211 -19q12 -63 -51 -163h-29q-4 32 -4 113
q-73 15 -146 15q-76 0 -118 -15q-55 -47 -91 -133.5t-36 -177.5q0 -112 52 -176t155 -64q65 0 117 15l34 189q-81 11 -99 16l4 27q58 22 107 22q61 0 77 -25l-7 -37l-36 -193q-80 -74 -215 -74z" />
    <glyph glyph-name="gbreve" unicode="&#x11f;" horiz-adv-x="502" 
d="M318 546q-55 0 -82 23t-27 63q0 23 12 47h37q-5 -20 -5 -30q0 -46 68 -46q29 0 45 6q20 30 32 70h37q-3 -63 -34 -98t-83 -35zM345 263q21 95 31 134q-48 29 -104 29q-34 0 -58 -8q-38 -45 -61.5 -122t-22.5 -140q1 -45 12.5 -72.5t30.5 -27.5q41 0 92 69.5t80 137.5z
M327 158v2h-4q-41 -82 -80.5 -126.5t-92.5 -44.5q-51 0 -78.5 44t-27.5 116q0 81 26.5 154.5t82.5 124t128 50.5q70 0 105 -42q16 18 41.5 29t43.5 12l12 -26q-58 -154 -92 -353q-1 -24 -1 -54t0.5 -64.5t0.5 -48.5q0 -81 -59.5 -130t-181.5 -49q-94 0 -147 27.5t-53 80.5
q0 31 27 60t64 41l19 -16q-24 -26 -24 -57q0 -40 35 -61.5t94 -21.5q97 0 139 42q3 39 3 69.5t-1.5 61t-1.5 48.5q0 63 23 132z" />
    <glyph glyph-name="Gdotaccent" unicode="&#x120;" horiz-adv-x="677" 
d="M401 797q0 22 16 38t38 16t37.5 -15.5t15.5 -38.5q0 -20 -15.5 -35.5t-37.5 -15.5t-38 15.5t-16 35.5zM359 -11q-137 0 -212 79t-75 211q0 70 21 136.5t63 124.5t114 93.5t164 35.5q126 0 211 -19q12 -63 -51 -163h-29q-4 32 -4 113q-73 15 -146 15q-76 0 -118 -15
q-55 -47 -91 -133.5t-36 -177.5q0 -112 52 -176t155 -64q65 0 117 15l34 189q-81 11 -99 16l4 27q58 22 107 22q61 0 77 -25l-7 -37l-36 -193q-80 -74 -215 -74z" />
    <glyph glyph-name="gdotaccent" unicode="&#x121;" horiz-adv-x="502" 
d="M272 626q0 22 16 38t38 16t37.5 -15.5t15.5 -38.5q0 -20 -15.5 -35.5t-37.5 -15.5t-38 15.5t-16 35.5zM345 263q21 95 31 134q-48 29 -104 29q-34 0 -58 -8q-38 -45 -61.5 -122t-22.5 -140q1 -45 12.5 -72.5t30.5 -27.5q41 0 92 69.5t80 137.5zM327 158v2h-4
q-41 -82 -80.5 -126.5t-92.5 -44.5q-51 0 -78.5 44t-27.5 116q0 81 26.5 154.5t82.5 124t128 50.5q70 0 105 -42q16 18 41.5 29t43.5 12l12 -26q-58 -154 -92 -353q-1 -24 -1 -54t0.5 -64.5t0.5 -48.5q0 -81 -59.5 -130t-181.5 -49q-94 0 -147 27.5t-53 80.5q0 31 27 60
t64 41l19 -16q-24 -26 -24 -57q0 -40 35 -61.5t94 -21.5q97 0 139 42q3 39 3 69.5t-1.5 61t-1.5 48.5q0 63 23 132z" />
    <glyph glyph-name="Gcommaaccent" unicode="&#x122;" horiz-adv-x="677" 
d="M359 -11q-137 0 -212 79t-75 211q0 70 21 136.5t63 124.5t114 93.5t164 35.5q126 0 211 -19q12 -63 -51 -163h-29q-4 32 -4 113q-73 15 -146 15q-76 0 -118 -15q-55 -47 -91 -133.5t-36 -177.5q0 -112 52 -176t155 -64q65 0 117 15l34 189q-81 11 -99 16l4 27
q58 22 107 22q61 0 77 -25l-7 -37l-36 -193q-80 -74 -215 -74zM243 -242q-15 9 -24 18q38 51 54 95l7 63q14 4 28 4q37 0 37 -43q0 -23 -14.5 -46.5t-28.5 -37t-59 -53.5z" />
    <glyph glyph-name="gcommaaccent" unicode="&#x123;" horiz-adv-x="502" 
d="M374 736q15 -9 24 -18q-38 -51 -54 -95l-7 -63q-14 -4 -28 -4q-37 0 -37 43q0 23 14.5 46.5t28.5 37t59 53.5zM345 263q21 95 31 134q-48 29 -104 29q-34 0 -58 -8q-38 -45 -61.5 -122t-22.5 -140q1 -45 12.5 -72.5t30.5 -27.5q41 0 92 69.5t80 137.5zM327 158v2h-4
q-41 -82 -80.5 -126.5t-92.5 -44.5q-51 0 -78.5 44t-27.5 116q0 81 26.5 154.5t82.5 124t128 50.5q70 0 105 -42q16 18 41.5 29t43.5 12l12 -26q-58 -154 -92 -353q-1 -24 -1 -54t0.5 -64.5t0.5 -48.5q0 -81 -59.5 -130t-181.5 -49q-94 0 -147 27.5t-53 80.5q0 31 27 60
t64 41l19 -16q-24 -26 -24 -57q0 -40 35 -61.5t94 -21.5q97 0 139 42q3 39 3 69.5t-1.5 61t-1.5 48.5q0 63 23 132z" />
    <glyph glyph-name="Hcircumflex" unicode="&#x124;" horiz-adv-x="758" 
d="M532 861l79 -135l-29 -19q-42 38 -92 88q-107 -78 -122 -88l-23 24l83 96t36 29t42 7q14 0 26 -2zM89 55l101 548q-53 9 -68 20t-14 35h269l-6 -34q-30 -9 -95 -20l-43 -236h335l45 236q-57 10 -88 20l6 34h266q-2 -27 -20 -37t-77 -18l-101 -548q53 -9 68 -20t14 -35
h-272l6 34q46 14 95 20l48 261h-334l-49 -261q58 -11 87 -20l-6 -34h-264q2 26 21.5 37t75.5 18z" />
    <glyph glyph-name="hcircumflex" unicode="&#x125;" horiz-adv-x="535" 
d="M267 670q-1 -31 -34.5 -165.5t-49.5 -186.5l4 -2q42 78 85.5 119.5t99.5 41.5q95 0 95 -92q0 -7 -0.5 -14.5t-2.5 -18t-3.5 -20.5t-5.5 -27.5t-7 -32t-9 -40l-11 -46.5l-13.5 -57l-15.5 -66l84 -20l-3 -21q-40 -33 -84 -33q-37 0 -57.5 17.5t-20.5 45.5q0 20 12.5 72
l31.5 133t30 151q-16 9 -38 9q-47 0 -90.5 -49t-94.5 -143q-25 -106 -45 -220q-42 -16 -82 -8l-13 17q46 167 75 287t76 358l-85 16l4 21q60 31 106 31q33 0 47.5 -17t14.5 -40zM444 711l56 -161l-30 -14l-72 108l-108 -94h-10l15 69q32 40 48 58q19 21 34.5 28.5t42.5 7.5
q12 0 24 -2z" />
    <glyph glyph-name="Hbar" unicode="&#x126;" horiz-adv-x="758" 
d="M233 368h335l18 96h-336zM262 34l-6 -34h-264q2 26 21.5 37t75.5 18l75 409h-105l7 34q19 20 86 20h22l16 85q-53 9 -68 20t-14 35h269l-6 -34q-30 -9 -95 -20l-16 -86h337l16 86q-57 10 -88 20l6 34h266q-2 -27 -20 -37t-77 -18l-16 -85h105l-7 -35q-18 -19 -85 -19h-23
l-75 -409q53 -9 68 -20t14 -35h-272l6 34q46 14 95 20l48 261h-334l-49 -261q58 -11 87 -20z" />
    <glyph glyph-name="hbar" unicode="&#x127;" horiz-adv-x="535" 
d="M480 22q-40 -33 -84 -33q-37 0 -57.5 17.5t-20.5 45.5q0 20 12.5 72l31.5 133t30 151q-16 9 -38 9q-47 0 -90.5 -49t-94.5 -143q-25 -106 -45 -220q-42 -16 -82 -8l-13 17q74 268 127 528h-110l7 34q19 20 86 20h28q1 6 6 28t7 35l-85 16l4 21q60 31 106 31
q33 0 47.5 -17t14.5 -40q-2 -18 -13 -74h132l-7 -35q-18 -19 -85 -19h-53q-41 -170 -58 -224l4 -2q42 78 85.5 119.5t99.5 41.5q95 0 95 -92q0 -7 -0.5 -14.5t-2.5 -18t-3.5 -20.5t-5.5 -27.5t-7 -32t-9 -40l-11 -46.5l-13.5 -57l-15.5 -66l84 -20z" />
    <glyph glyph-name="Itilde" unicode="&#x128;" horiz-adv-x="338" 
d="M259 735l-63 27l-66 -50l-24 21q66 90 102 90q20 0 81 -26l64 -27l66 50l24 -21q-61 -89 -101 -89q-23 0 -83 25zM89 55l101 548q-53 9 -68 20t-14 35h269l-6 -34q-23 -8 -95 -20l-101 -550q54 -10 87 -20l-6 -34h-264q2 25 21 36.5t76 18.5z" />
    <glyph glyph-name="itilde" unicode="&#x129;" horiz-adv-x="272" 
d="M190 579q-15 6 -34 16t-24 12l-64 -51l-23 19l30.5 42.5t31.5 32.5t36 17q18 0 78 -27q14 -6 32.5 -15t25.5 -12l64 51l23 -19q-62 -91 -99 -91q-21 0 -77 25zM53 52q0 9 2 21t8 39t14 59.5l23.5 100l32.5 142.5l-76 17l3 21q52 26 93 26q33 0 48 -15.5t15 -38.5
q0 -30 -40 -190l-43 -171l85 -20l-3 -21q-40 -33 -84 -33q-37 0 -57.5 17.5t-20.5 45.5z" />
    <glyph glyph-name="Imacron" unicode="&#x12a;" horiz-adv-x="338" 
d="M144 738l9 39q19 20 86 20h172l-8 -39q-19 -20 -85 -20h-174zM89 55l101 548q-53 9 -68 20t-14 35h269l-6 -34q-23 -8 -95 -20l-101 -550q54 -10 87 -20l-6 -34h-264q2 25 21 36.5t76 18.5z" />
    <glyph glyph-name="imacron" unicode="&#x12b;" horiz-adv-x="272" 
d="M64 589l9 39q19 20 86 20h172l-8 -39q-19 -20 -85 -20h-174zM53 52q0 9 2 21t8 39t14 59.5l23.5 100l32.5 142.5l-76 17l3 21q52 26 93 26q33 0 48 -15.5t15 -38.5q0 -30 -40 -190l-43 -171l85 -20l-3 -21q-40 -33 -84 -33q-37 0 -57.5 17.5t-20.5 45.5z" />
    <glyph glyph-name="Ibreve" unicode="&#x12c;" horiz-adv-x="338" 
d="M266 712q-56 0 -85 22.5t-29 61.5q0 22 11 44h37q-4 -14 -4 -25q0 -45 73 -45q32 0 53 9q15 22 29 61h37q-3 -62 -35 -95t-87 -33zM89 55l101 548q-53 9 -68 20t-14 35h269l-6 -34q-23 -8 -95 -20l-101 -550q54 -10 87 -20l-6 -34h-264q2 25 21 36.5t76 18.5z" />
    <glyph glyph-name="ibreve" unicode="&#x12d;" horiz-adv-x="272" 
d="M202 546q-55 0 -82 23t-27 63q0 23 12 47h37q-5 -20 -5 -30q0 -46 68 -46q29 0 45 6q20 30 32 70h37q-3 -63 -34 -98t-83 -35zM53 52q0 9 2 21t8 39t14 59.5l23.5 100l32.5 142.5l-76 17l3 21q52 26 93 26q33 0 48 -15.5t15 -38.5q0 -30 -40 -190l-43 -171l85 -20l-3 -21
q-40 -33 -84 -33q-37 0 -57.5 17.5t-20.5 45.5z" />
    <glyph glyph-name="Iogonek" unicode="&#x12e;" horiz-adv-x="338" 
d="M223 0h-231q2 25 21 36.5t76 18.5l101 548q-53 9 -68 20t-14 35h269l-6 -34q-23 -8 -95 -20l-101 -550q54 -10 87 -20l-6 -34q-114 -72 -128 -169q29 -19 87 -29q-4 -20 -23 -35t-47 -15q-36 0 -60 20.5t-24 55.5q0 48 50 95.5t112 76.5z" />
    <glyph glyph-name="iogonek" unicode="&#x12f;" horiz-adv-x="272" 
d="M152 630q0 22 16 38.5t39 16.5t39 -16.5t16 -38.5t-16 -38.5t-39 -16.5t-39 16.5t-16 38.5zM68 -248q-36 0 -60 20.5t-24 55.5q0 43 41.5 86.5t98.5 74.5q-33 1 -52 19t-19 44q0 9 2 21t8 39t14 59.5l23.5 100l32.5 142.5l-76 17l3 21q52 26 93 26q33 0 48 -15.5
t15 -38.5q0 -30 -40 -190l-43 -171l85 -20l-3 -21q-17 -14 -38 -23q-59 -38 -89.5 -82t-36.5 -86q29 -19 87 -29q-4 -20 -23 -35t-47 -15z" />
    <glyph glyph-name="Idotaccent" unicode="&#x130;" horiz-adv-x="338" 
d="M211 797q0 22 16 38t38 16t37.5 -15.5t15.5 -38.5q0 -20 -15.5 -35.5t-37.5 -15.5t-38 15.5t-16 35.5zM89 55l101 548q-53 9 -68 20t-14 35h269l-6 -34q-23 -8 -95 -20l-101 -550q54 -10 87 -20l-6 -34h-264q2 25 21 36.5t76 18.5z" />
    <glyph glyph-name="dotlessi" unicode="&#x131;" horiz-adv-x="272" 
d="M53 52q0 9 2 21t8 39t14 59.5l23.5 100l32.5 142.5l-76 17l3 21q52 26 93 26q33 0 48 -15.5t15 -38.5q0 -30 -40 -190l-43 -171l85 -20l-3 -21q-40 -33 -84 -33q-37 0 -57.5 17.5t-20.5 45.5z" />
    <glyph glyph-name="IJ" unicode="&#x132;" horiz-adv-x="689" 
d="M89 55l101 548q-53 9 -68 20t-14 35h269l-6 -34q-23 -8 -95 -20l-101 -550q54 -10 87 -20l-6 -34h-264q2 25 21 36.5t76 18.5zM460 658h274l-6 -34q-30 -9 -95 -20l-109 -583q-22 -108 -71 -157t-127 -49q-55 0 -89 20.5t-34 54.5q0 37 35 54q33 -37 69 -52.5t97 -8.5
q19 55 43 180l100 540q-56 9 -72 20t-15 35z" />
    <glyph glyph-name="ij" unicode="&#x133;" horiz-adv-x="549" 
d="M152 630q0 22 16 38.5t39 16.5t39 -16.5t16 -38.5t-16 -38.5t-39 -16.5t-39 16.5t-16 38.5zM437 630q0 22 16.5 38.5t38.5 16.5t38.5 -16.5t16.5 -38.5t-16.5 -38.5t-38.5 -16.5t-38.5 16.5t-16.5 38.5zM53 52q0 9 2 21t8 39t14 59.5l23.5 100l32.5 142.5l-76 17l3 21
q52 26 93 26q33 0 48 -15.5t15 -38.5q0 -30 -40 -190l-43 -171l85 -20l-3 -21q-40 -33 -84 -33q-37 0 -57.5 17.5t-20.5 45.5zM501 421q0 -50 -104 -450q-32 -125 -74 -172t-115 -47q-53 0 -89.5 24t-36.5 60q0 41 43 55q20 -39 57.5 -64t82.5 -19q37 107 81.5 289.5
t69.5 316.5l-77 17l4 21q52 26 94 26q64 0 64 -57z" />
    <glyph glyph-name="Jcircumflex" unicode="&#x134;" horiz-adv-x="351" 
d="M324 861l79 -135l-29 -19q-42 38 -92 88q-107 -78 -122 -88l-23 24l83 96t36 29t42 7q14 0 26 -2zM122 658h274l-6 -34q-30 -9 -95 -20l-109 -583q-22 -108 -71 -157t-127 -49q-55 0 -89 20.5t-34 54.5q0 37 35 54q33 -37 69 -52.5t97 -8.5q19 55 43 180l100 540
q-56 9 -72 20t-15 35z" />
    <glyph glyph-name="jcircumflex" unicode="&#x135;" horiz-adv-x="277" 
d="M262 711l56 -161l-30 -14l-72 108l-128 -110l-25 22q55 71 98 121q19 21 34.5 28.5t42.5 7.5q12 0 24 -2zM229 421q0 -50 -104 -450q-32 -125 -74 -172t-115 -47q-53 0 -89.5 24t-36.5 60q0 41 43 55q20 -39 57.5 -64t82.5 -19q37 107 81.5 289.5t69.5 316.5l-77 17l4 21
q52 26 94 26q64 0 64 -57z" />
    <glyph glyph-name="Kcommaaccent" unicode="&#x136;" horiz-adv-x="637" 
d="M108 658h269l-6 -34q-30 -9 -95 -20l-48 -263l305 269q-36 5 -73 14l6 34h221q-3 -25 -19.5 -34.5t-65.5 -18.5l-288 -251l162 -245q22 -34 44.5 -50t60.5 -29l-6 -30q-29 -11 -61 -11q-40 0 -63.5 21t-62.5 80l-161 245l-52 -281q58 -11 87 -20l-6 -34h-264
q2 25 21 36.5t76 18.5l101 548q-53 9 -68 20t-14 35zM240 -242q-15 9 -24 18q38 51 54 95l7 63q14 4 28 4q37 0 37 -43q0 -23 -14.5 -46.5t-28.5 -37t-59 -53.5z" />
    <glyph glyph-name="kcommaaccent" unicode="&#x137;" horiz-adv-x="472" 
d="M365 420q-54 13 -93 -11t-89 -97l-10 -44q97 -3 146.5 34.5t45.5 117.5zM369 -11q-30 0 -53.5 14.5t-45.5 57.5q-10 18 -44.5 86t-56.5 104q-9 -41 -25.5 -126.5t-24.5 -119.5q-41 -16 -81 -8l-12 17l26 96.5l20.5 79.5l19 78l16 67.5t16 74t14.5 71.5l17 85.5l19 93.5
l-84 15l4 21q62 31 106 31q61 0 61 -55q0 -23 -21 -115t-44 -176l3 -4q64 101 145 101q47 0 72.5 -24t25.5 -66q0 -60 -51 -103t-127 -41q14 -30 47.5 -90.5t46.5 -77.5q26 -33 82 -45l-2 -20q-29 -22 -69 -22zM117 -242q-15 9 -24 18q38 51 54 95l7 63q14 4 28 4
q37 0 37 -43q0 -23 -14.5 -46.5t-28.5 -37t-59 -53.5z" />
    <glyph glyph-name="Lacute" unicode="&#x139;" horiz-adv-x="553" 
d="M176 715l-8 28l124 57l60 60q19 -2 32 -13.5t13 -29.5q0 -42 -44.5 -59.5t-176.5 -42.5zM108 658h269l-6 -34q-30 -9 -95 -20l-101 -550h224q25 66 53 120h30q6 -32 1.5 -88t-18.5 -86h-473q2 25 21 36.5t76 18.5l101 548q-53 9 -68 20t-14 35z" />
    <glyph glyph-name="lacute" unicode="&#x13a;" horiz-adv-x="266" 
d="M166 776l-13 24q89 61 97 68q23 29 61 82q53 0 53 -45q0 -74 -198 -129zM43 48q0 8 2.5 23t7.5 38t10.5 45.5l14 57.5t14.5 62q76 338 84 385l-89 16l4 21q62 31 106 31q33 0 47.5 -17t14.5 -40q0 -32 -39 -203l-95 -404l84 -20l-4 -21q-40 -33 -85 -33q-34 0 -55.5 16
t-21.5 43z" />
    <glyph glyph-name="Lcommaaccent" unicode="&#x13b;" horiz-adv-x="553" 
d="M108 658h269l-6 -34q-30 -9 -95 -20l-101 -550h224q25 66 53 120h30q6 -32 1.5 -88t-18.5 -86h-473q2 25 21 36.5t76 18.5l101 548q-53 9 -68 20t-14 35zM179 -231q-15 9 -24 18q38 51 54 95l7 63q14 4 28 4q37 0 37 -43q0 -23 -14.5 -46.5t-28.5 -37t-59 -53.5z" />
    <glyph glyph-name="lcommaaccent" unicode="&#x13c;" horiz-adv-x="266" 
d="M43 48q0 8 2.5 23t7.5 38t10.5 45.5l14 57.5t14.5 62q76 338 84 385l-89 16l4 21q62 31 106 31q33 0 47.5 -17t14.5 -40q0 -32 -39 -203l-95 -404l84 -20l-4 -21q-40 -33 -85 -33q-34 0 -55.5 16t-21.5 43zM14 -242q-15 9 -24 18q38 51 54 95l7 63q14 4 28 4q37 0 37 -43
q0 -23 -14.5 -46.5t-28.5 -37t-59 -53.5z" />
    <glyph glyph-name="Lcaron" unicode="&#x13d;" horiz-adv-x="553" 
d="M463 489q-15 9 -24 18q38 51 54 95l7 63q14 4 28 4q37 0 37 -43q0 -23 -14.5 -46.5t-28.5 -37t-59 -53.5zM108 658h269l-6 -34q-30 -9 -95 -20l-101 -550h224q25 66 53 120h30q6 -32 1.5 -88t-18.5 -86h-473q2 25 21 36.5t76 18.5l101 548q-53 9 -68 20t-14 35z" />
    <glyph glyph-name="lcaron" unicode="&#x13e;" horiz-adv-x="301" 
d="M323 547q-15 9 -24 18q38 51 54 95l7 63q14 4 28 4q37 0 37 -43q0 -23 -14.5 -46.5t-28.5 -37t-59 -53.5zM43 48q0 8 2.5 23t7.5 38t10.5 45.5l14 57.5t14.5 62q76 338 84 385l-89 16l4 21q62 31 106 31q33 0 47.5 -17t14.5 -40q0 -32 -39 -203l-95 -404l84 -20l-4 -21
q-40 -33 -85 -33q-34 0 -55.5 16t-21.5 43z" />
    <glyph glyph-name="Ldot" unicode="&#x13f;" horiz-adv-x="553" 
d="M108 658h269l-6 -34q-30 -9 -95 -20l-101 -550h224q25 66 53 120h30q6 -32 1.5 -88t-18.5 -86h-473q2 25 21 36.5t76 18.5l101 548q-53 9 -68 20t-14 35zM328 368q0 24 16.5 40.5t40.5 16.5t40.5 -16.5t16.5 -40.5t-16.5 -40.5t-40.5 -16.5t-40.5 16.5t-16.5 40.5z" />
    <glyph glyph-name="ldot" unicode="&#x140;" horiz-adv-x="371" 
d="M43 48q0 8 2.5 23t7.5 38t10.5 45.5l14 57.5t14.5 62q76 338 84 385l-89 16l4 21q62 31 106 31q33 0 47.5 -17t14.5 -40q0 -32 -39 -203l-95 -404l84 -20l-4 -21q-40 -33 -85 -33q-34 0 -55.5 16t-21.5 43zM285 358q0 24 16.5 40.5t40.5 16.5t40.5 -16.5t16.5 -40.5
t-16.5 -40.5t-40.5 -16.5t-40.5 16.5t-16.5 40.5z" />
    <glyph glyph-name="Lslash" unicode="&#x141;" horiz-adv-x="559" 
d="M114 658h269l-6 -34q-30 -9 -95 -20l-54 -293l169 68l13 -25q-4 -30 -52 -49l-141 -55l-36 -196h224q25 66 53 120h30q6 -32 1.5 -88t-18.5 -86h-473q2 25 21 36.5t76 18.5l29 160l-98 -38l-12 21q1 16 13 27t39 22l69 27l61 329q-53 9 -68 20t-14 35z" />
    <glyph glyph-name="lslash" unicode="&#x142;" horiz-adv-x="315" 
d="M70 48q0 8 2.5 23t7.5 38t10.5 45.5l14 57.5t14.5 62q3 14 8 34l-91 -43l-15 25q10 29 60 53l60 29q54 239 62 287l-89 16l4 21q62 31 106 31q33 0 47.5 -17t14.5 -40q0 -32 -39 -203q-8 -32 -11 -49l89 44l16 -27q-5 -16 -18 -27.5t-43 -25.5l-59 -29l-69 -290l84 -20
l-4 -21q-40 -33 -85 -33q-34 0 -55.5 16t-21.5 43z" />
    <glyph glyph-name="Nacute" unicode="&#x143;" horiz-adv-x="747" 
d="M357 715l-8 28l124 57l60 60q19 -2 32 -13.5t13 -29.5q0 -42 -44.5 -59.5t-176.5 -42.5zM115 658h109q29 0 43.5 -9t28.5 -37l246 -502l91 494q-52 8 -98 20l6 34h248q-2 -26 -20 -36.5t-73 -18.5l-93 -501q-10 -52 -27 -80.5t-53 -28.5h-12l-269 543l-89 -482
q53 -8 97 -20l-6 -34h-252q2 25 21 36.5t76 18.5l102 548q-48 9 -62.5 19t-13.5 36z" />
    <glyph glyph-name="nacute" unicode="&#x144;" horiz-adv-x="543" 
d="M259 543l-13 24q89 61 97 68q23 29 61 82q53 0 53 -45q0 -74 -198 -129zM135 414l-78 17l4 21q52 26 93 26q61 0 63 -56q0 -31 -22 -104l4 -2q43 78 85 119.5t98 41.5q93 0 93 -93q0 -27 -17 -102l-52 -219l85 -20l-4 -21q-40 -33 -84 -33q-36 0 -57 17.5t-21 45.5
q0 13 4 34.5t9 42.5l16 66.5l19 80.5q18 80 27 132q-16 8 -37 8q-46 0 -89 -48.5t-94 -142.5q-25 -106 -45 -220q-41 -16 -80 -8l-12 17q55 190 92 400z" />
    <glyph glyph-name="Ncommaaccent" unicode="&#x145;" horiz-adv-x="747" 
d="M115 658h109q29 0 43.5 -9t28.5 -37l246 -502l91 494q-52 8 -98 20l6 34h248q-2 -26 -20 -36.5t-73 -18.5l-93 -501q-10 -52 -27 -80.5t-53 -28.5h-12l-269 543l-89 -482q53 -8 97 -20l-6 -34h-252q2 25 21 36.5t76 18.5l102 548q-48 9 -62.5 19t-13.5 36zM256 -238
q-15 9 -24 18q38 51 54 95l7 63q14 4 28 4q37 0 37 -43q0 -23 -14.5 -46.5t-28.5 -37t-59 -53.5z" />
    <glyph glyph-name="ncommaaccent" unicode="&#x146;" horiz-adv-x="543" 
d="M135 414l-78 17l4 21q52 26 93 26q61 0 63 -56q0 -31 -22 -104l4 -2q43 78 85 119.5t98 41.5q93 0 93 -93q0 -27 -17 -102l-52 -219l85 -20l-4 -21q-40 -33 -84 -33q-36 0 -57 17.5t-21 45.5q0 13 4 34.5t9 42.5l16 66.5l19 80.5q18 80 27 132q-16 8 -37 8
q-46 0 -89 -48.5t-94 -142.5q-25 -106 -45 -220q-41 -16 -80 -8l-12 17q55 190 92 400zM156 -242q-15 9 -24 18q38 51 54 95l7 63q14 4 28 4q37 0 37 -43q0 -23 -14.5 -46.5t-28.5 -37t-59 -53.5z" />
    <glyph glyph-name="Ncaron" unicode="&#x147;" horiz-adv-x="747" 
d="M410 711l-79 135l29 19q10 -9 91 -90q3 2 54 40t69 50l23 -24l-83 -96t-36 -29t-42 -7q-14 0 -26 2zM115 658h109q29 0 43.5 -9t28.5 -37l246 -502l91 494q-52 8 -98 20l6 34h248q-2 -26 -20 -36.5t-73 -18.5l-93 -501q-10 -52 -27 -80.5t-53 -28.5h-12l-269 543
l-89 -482q53 -8 97 -20l-6 -34h-252q2 25 21 36.5t76 18.5l102 548q-48 9 -62.5 19t-13.5 36z" />
    <glyph glyph-name="ncaron" unicode="&#x148;" horiz-adv-x="543" 
d="M289 537l-56 160l30 14l72 -109l128 111l25 -22q-48 -63 -98 -120q-19 -21 -34.5 -28.5t-42.5 -7.5q-12 0 -24 2zM135 414l-78 17l4 21q52 26 93 26q61 0 63 -56q0 -31 -22 -104l4 -2q43 78 85 119.5t98 41.5q93 0 93 -93q0 -27 -17 -102l-52 -219l85 -20l-4 -21
q-40 -33 -84 -33q-36 0 -57 17.5t-21 45.5q0 13 4 34.5t9 42.5l16 66.5l19 80.5q18 80 27 132q-16 8 -37 8q-46 0 -89 -48.5t-94 -142.5q-25 -106 -45 -220q-41 -16 -80 -8l-12 17q55 190 92 400z" />
    <glyph glyph-name="Eng" unicode="&#x14a;" horiz-adv-x="747" 
d="M377 -248q-53 0 -89.5 24t-36.5 60q0 41 43 55q19 -36 68.5 -62.5t96.5 -20.5q38 114 55 180l-272 548l-89 -482q53 -8 97 -20l-6 -34h-252q2 25 21 36.5t76 18.5l102 548q-48 9 -62.5 19t-13.5 36h109q29 0 43.5 -9t28.5 -37l246 -502l91 494q-52 8 -98 20l6 34h248
q-2 -26 -20 -36.5t-73 -18.5l-81 -437q-13 -74 -45 -196q-32 -123 -76 -170.5t-117 -47.5z" />
    <glyph glyph-name="eng" unicode="&#x14b;" horiz-adv-x="543" 
d="M192 -248q-53 0 -89.5 24t-36.5 60q0 41 43 55q20 -39 57.5 -64t82.5 -19q45 130 124 468q18 80 27 132q-16 8 -37 8q-46 0 -89 -48.5t-94 -142.5q-25 -106 -45 -220q-41 -16 -80 -8l-12 17q55 190 92 400l-78 17l4 21q52 26 93 26q61 0 63 -56q0 -31 -22 -104l4 -2
q43 78 85 119.5t98 41.5q93 0 93 -93q0 -27 -17 -102q-46 -195 -77 -311q-32 -125 -74 -172t-115 -47z" />
    <glyph glyph-name="Omacron" unicode="&#x14c;" horiz-adv-x="729" 
d="M334 738l9 39q19 20 86 20h172l-8 -39q-19 -20 -85 -20h-174zM350 -12q-144 0 -210.5 75.5t-66.5 198.5q0 103 40.5 195t120 152t181.5 60q140 0 210.5 -70.5t70.5 -198.5q0 -68 -23 -139t-64.5 -133t-109.5 -101t-149 -39zM403 616q-56 0 -98 -12q-65 -61 -100 -150.5
t-35 -184.5q0 -101 45.5 -164t142.5 -63q67 0 127 26q50 59 82 146t32 179q0 101 -46 162t-150 61z" />
    <glyph glyph-name="omacron" unicode="&#x14d;" horiz-adv-x="476" 
d="M186 589l9 39q19 20 86 20h172l-8 -39q-19 -20 -85 -20h-174zM286 478q152 0 152 -174q0 -56 -15 -110.5t-44 -101t-77 -75t-107 -28.5q-74 0 -115.5 48.5t-41.5 132.5q0 77 27.5 146t85.5 115.5t135 46.5zM212 41q37 0 66 11q37 52 56 120.5t19 133.5q0 123 -89 123
q-34 0 -55 -8q-39 -40 -61.5 -110.5t-22.5 -143.5q0 -55 20.5 -90.5t66.5 -35.5z" />
    <glyph glyph-name="Obreve" unicode="&#x14e;" horiz-adv-x="729" 
d="M458 708q-56 0 -85 22.5t-29 61.5q0 22 11 44h37q-4 -14 -4 -25q0 -45 73 -45q32 0 53 9q15 22 29 61h37q-3 -62 -35 -95t-87 -33zM350 -12q-144 0 -210.5 75.5t-66.5 198.5q0 103 40.5 195t120 152t181.5 60q140 0 210.5 -70.5t70.5 -198.5q0 -68 -23 -139t-64.5 -133
t-109.5 -101t-149 -39zM403 616q-56 0 -98 -12q-65 -61 -100 -150.5t-35 -184.5q0 -101 45.5 -164t142.5 -63q67 0 127 26q50 59 82 146t32 179q0 101 -46 162t-150 61z" />
    <glyph glyph-name="obreve" unicode="&#x14f;" horiz-adv-x="476" 
d="M316 546q-55 0 -82 23t-27 63q0 23 12 47h37q-5 -20 -5 -30q0 -46 68 -46q29 0 45 6q20 30 32 70h37q-3 -63 -34 -98t-83 -35zM286 478q152 0 152 -174q0 -56 -15 -110.5t-44 -101t-77 -75t-107 -28.5q-74 0 -115.5 48.5t-41.5 132.5q0 77 27.5 146t85.5 115.5t135 46.5z
M212 41q37 0 66 11q37 52 56 120.5t19 133.5q0 123 -89 123q-34 0 -55 -8q-39 -40 -61.5 -110.5t-22.5 -143.5q0 -55 20.5 -90.5t66.5 -35.5z" />
    <glyph glyph-name="Ohungarumlaut" unicode="&#x150;" horiz-adv-x="729" 
d="M323 707l-14 25q76 51 84 58l27 41t21 32q49 -5 49 -42q0 -36 -35.5 -60t-131.5 -54zM499 707l-14 25q76 51 84 58l27 41t21 32q49 -5 49 -42q0 -36 -36 -60.5t-131 -53.5zM350 -12q-144 0 -210.5 75.5t-66.5 198.5q0 103 40.5 195t120 152t181.5 60q140 0 210.5 -70.5
t70.5 -198.5q0 -68 -23 -139t-64.5 -133t-109.5 -101t-149 -39zM403 616q-56 0 -98 -12q-65 -61 -100 -150.5t-35 -184.5q0 -101 45.5 -164t142.5 -63q67 0 127 26q50 59 82 146t32 179q0 101 -46 162t-150 61z" />
    <glyph glyph-name="ohungarumlaut" unicode="&#x151;" horiz-adv-x="476" 
d="M195 542l-19 21q41 48 68 85q6 15 17 45t14 37q6 1 17 1q42 0 42 -44q0 -19 -8.5 -36t-33.5 -38t-40 -32t-57 -39zM352 542l-19 21q41 48 68 85q6 15 17 45t14 37q6 1 17 1q42 0 42 -44q0 -19 -8.5 -36t-33.5 -38t-40 -32t-57 -39zM286 478q152 0 152 -174
q0 -56 -15 -110.5t-44 -101t-77 -75t-107 -28.5q-74 0 -115.5 48.5t-41.5 132.5q0 77 27.5 146t85.5 115.5t135 46.5zM212 41q37 0 66 11q37 52 56 120.5t19 133.5q0 123 -89 123q-34 0 -55 -8q-39 -40 -61.5 -110.5t-22.5 -143.5q0 -55 20.5 -90.5t66.5 -35.5z" />
    <glyph glyph-name="OE" unicode="&#x152;" horiz-adv-x="905" 
d="M413 616q-66 0 -106 -12q-61 -59 -98.5 -149t-37.5 -186q0 -99 48.5 -163t149.5 -64q31 0 62 6l101 556q-58 12 -119 12zM364 -12q-146 0 -218 78.5t-72 198.5q0 74 23 145t65 129.5t108.5 94t146.5 35.5q70 0 125 -11h383q19 -48 -45 -160h-29q-6 76 -6 110h-225
l-42 -231h221l-6 -32q-24 -26 -61 -26h-165l-49 -265h235q17 44 50 106h30q14 -95 -16 -160h-377q-46 -12 -76 -12z" />
    <glyph glyph-name="oe" unicode="&#x153;" horiz-adv-x="717" 
d="M212 41q37 0 66 11q37 52 56 120.5t19 133.5q0 123 -89 123q-34 0 -55 -8q-39 -40 -61.5 -110.5t-22.5 -143.5q0 -55 20.5 -90.5t66.5 -35.5zM443 271q120 -1 164 28q17 32 17 70q0 40 -29 52t-72 3q-26 -24 -50 -70t-30 -83zM628 128q17 -13 23 -28q-34 -45 -80 -78
t-94 -33q-92 0 -117 83q-62 -83 -165 -83q-74 0 -115.5 48.5t-41.5 132.5q0 77 27.5 146t85.5 115.5t135 46.5q104 0 136 -92q69 92 169 92q53 0 82 -26.5t29 -70.5q0 -80 -69.5 -117.5t-199.5 -28.5q-6 -40 -6.5 -80t18 -70t53.5 -30q8 0 16 1t16 4l13.5 5t14.5 8t13 8
t14.5 10.5t13 11t15 13t14.5 12.5z" />
    <glyph glyph-name="Racute" unicode="&#x154;" horiz-adv-x="642" 
d="M285 715l-8 28l124 57l60 60q19 -2 32 -13.5t13 -29.5q0 -42 -44.5 -59.5t-176.5 -42.5zM219 294l-44 -240q60 -11 88 -20l-6 -34h-265q2 25 21 36.5t76 18.5l101 548q-49 9 -64 19t-14 36h123q15 0 64 1.5t83 1.5q191 0 191 -149q0 -79 -44.5 -132.5t-120.5 -78.5
l79 -162q27 -54 46.5 -74.5t58.5 -34.5l-4 -30q-25 -11 -49 -11q-41 0 -66.5 20t-52.5 76l-99 202q-50 -5 -102 7zM361 613q-43 0 -84 -6l-48 -262q37 -9 95 -9q65 0 105 17q22 24 38 65.5t16 83.5q0 56 -29.5 83.5t-92.5 27.5z" />
    <glyph glyph-name="racute" unicode="&#x155;" horiz-adv-x="366" 
d="M213 543l-13 24q89 61 97 68q23 29 61 82q53 0 53 -45q0 -74 -198 -129zM217 421q0 -18 -21 -94l2 -4q18 38 28.5 57.5t27.5 46.5t33.5 39t34.5 12q20 0 33 -11.5t13 -30.5q0 -33 -26 -63l-70 8q-38 -31 -94 -141q-21 -86 -53 -235q-34 -13 -77 -8l-13 17q69 229 98 400
l-76 17l3 21q52 26 93 26q34 0 49 -16.5t15 -40.5z" />
    <glyph glyph-name="Rcommaaccent" unicode="&#x156;" horiz-adv-x="642" 
d="M219 294l-44 -240q60 -11 88 -20l-6 -34h-265q2 25 21 36.5t76 18.5l101 548q-49 9 -64 19t-14 36h123q15 0 64 1.5t83 1.5q191 0 191 -149q0 -79 -44.5 -132.5t-120.5 -78.5l79 -162q27 -54 46.5 -74.5t58.5 -34.5l-4 -30q-25 -11 -49 -11q-41 0 -66.5 20t-52.5 76
l-99 202q-50 -5 -102 7zM361 613q-43 0 -84 -6l-48 -262q37 -9 95 -9q65 0 105 17q22 24 38 65.5t16 83.5q0 56 -29.5 83.5t-92.5 27.5zM222 -242q-15 9 -24 18q38 51 54 95l7 63q14 4 28 4q37 0 37 -43q0 -23 -14.5 -46.5t-28.5 -37t-59 -53.5z" />
    <glyph glyph-name="rcommaaccent" unicode="&#x157;" horiz-adv-x="366" 
d="M217 421q0 -18 -21 -94l2 -4q18 38 28.5 57.5t27.5 46.5t33.5 39t34.5 12q20 0 33 -11.5t13 -30.5q0 -33 -26 -63l-70 8q-38 -31 -94 -141q-21 -86 -53 -235q-34 -13 -77 -8l-13 17q69 229 98 400l-76 17l3 21q52 26 93 26q34 0 49 -16.5t15 -40.5zM-2 -235q-15 9 -24 18
q38 51 54 95l7 63q14 4 28 4q37 0 37 -43q0 -23 -14.5 -46.5t-28.5 -37t-59 -53.5z" />
    <glyph glyph-name="Rcaron" unicode="&#x158;" horiz-adv-x="642" 
d="M337 711l-79 135l29 19q11 -9 91 -90q3 2 54 40t69 50l23 -24l-83 -96t-36 -29t-42 -7q-14 0 -26 2zM219 294l-44 -240q60 -11 88 -20l-6 -34h-265q2 25 21 36.5t76 18.5l101 548q-49 9 -64 19t-14 36h123q15 0 64 1.5t83 1.5q191 0 191 -149q0 -79 -44.5 -132.5
t-120.5 -78.5l79 -162q27 -54 46.5 -74.5t58.5 -34.5l-4 -30q-25 -11 -49 -11q-41 0 -66.5 20t-52.5 76l-99 202q-50 -5 -102 7zM361 613q-43 0 -84 -6l-48 -262q37 -9 95 -9q65 0 105 17q22 24 38 65.5t16 83.5q0 56 -29.5 83.5t-92.5 27.5z" />
    <glyph glyph-name="rcaron" unicode="&#x159;" horiz-adv-x="366" 
d="M233 537l-56 160l30 14l72 -109l128 111l25 -22q-48 -63 -98 -120q-19 -21 -34.5 -28.5t-42.5 -7.5q-12 0 -24 2zM217 421q0 -18 -21 -94l2 -4q18 38 28.5 57.5t27.5 46.5t33.5 39t34.5 12q20 0 33 -11.5t13 -30.5q0 -33 -26 -63l-70 8q-38 -31 -94 -141
q-21 -86 -53 -235q-34 -13 -77 -8l-13 17q69 229 98 400l-76 17l3 21q52 26 93 26q34 0 49 -16.5t15 -40.5z" />
    <glyph glyph-name="Sacute" unicode="&#x15a;" horiz-adv-x="534" 
d="M269 715l-8 28l124 57l60 60q19 -2 32 -13.5t13 -29.5q0 -42 -44.5 -59.5t-176.5 -42.5zM120 499q1 86 61.5 127.5t150.5 41.5q108 0 174 -16q5 -28 -3.5 -59t-17 -47.5t-25.5 -43.5h-33q-2 15 -5 102q-46 12 -106 12q-49 0 -74 -5q-40 -40 -40 -92q0 -32 19 -61
t38.5 -44.5t56.5 -40.5q85 -57 118 -95.5t33 -101.5q0 -88 -63.5 -137.5t-151.5 -49.5q-139 0 -218 45q-11 80 52 163h35q1 -26 -4 -122q60 -32 149 -32q44 0 78 9q38 47 38 100q0 35 -17.5 63.5t-37.5 44t-68 47.5q-70 47 -105 88.5t-34 103.5z" />
    <glyph glyph-name="sacute" unicode="&#x15b;" horiz-adv-x="372" 
d="M221 543l-13 24q89 61 97 68q23 29 61 82q53 0 53 -45q0 -74 -198 -129zM75 358q0 60 47 90t111 30q123 0 123 -58q0 -36 -40 -51q-24 31 -49 48t-62 17q-27 0 -42 -9q-13 -19 -13 -45q0 -32 34 -67q18 -19 68 -67q34 -32 50.5 -58.5t16.5 -62.5q0 -57 -43.5 -96.5
t-113.5 -39.5q-64 0 -108 24.5t-44 62.5q0 20 12.5 35t36.5 19q47 -95 123 -95q31 0 45 9q17 23 17 55q0 21 -9 36.5t-34 41.5l-76 74q-50 52 -50 107z" />
    <glyph glyph-name="Scircumflex" unicode="&#x15c;" horiz-adv-x="534" 
d="M409 861l79 -135l-29 -19q-42 38 -92 88q-107 -78 -122 -88l-23 24l83 96t36 29t42 7q14 0 26 -2zM120 499q1 86 61.5 127.5t150.5 41.5q108 0 174 -16q5 -28 -3.5 -59t-17 -47.5t-25.5 -43.5h-33q-2 15 -5 102q-46 12 -106 12q-49 0 -74 -5q-40 -40 -40 -92
q0 -32 19 -61t38.5 -44.5t56.5 -40.5q85 -57 118 -95.5t33 -101.5q0 -88 -63.5 -137.5t-151.5 -49.5q-139 0 -218 45q-11 80 52 163h35q1 -26 -4 -122q60 -32 149 -32q44 0 78 9q38 47 38 100q0 35 -17.5 63.5t-37.5 44t-68 47.5q-70 47 -105 88.5t-34 103.5z" />
    <glyph glyph-name="scircumflex" unicode="&#x15d;" horiz-adv-x="372" 
d="M313 711l56 -161l-30 -14l-72 108l-128 -110l-25 22q55 71 98 121q19 21 34.5 28.5t42.5 7.5q12 0 24 -2zM75 358q0 60 47 90t111 30q123 0 123 -58q0 -36 -40 -51q-24 31 -49 48t-62 17q-27 0 -42 -9q-13 -19 -13 -45q0 -32 34 -67q18 -19 68 -67q34 -32 50.5 -58.5
t16.5 -62.5q0 -57 -43.5 -96.5t-113.5 -39.5q-64 0 -108 24.5t-44 62.5q0 20 12.5 35t36.5 19q47 -95 123 -95q31 0 45 9q17 23 17 55q0 21 -9 36.5t-34 41.5l-76 74q-50 52 -50 107z" />
    <glyph glyph-name="Scedilla" unicode="&#x15e;" horiz-adv-x="534" 
d="M173 -233q-47 0 -76 15t-29 43q0 20 13 32t30 15q12 -71 104 -67q20 25 20 55q0 53 -88 57l4 20q21 20 66 53q-112 4 -183 44q-11 80 52 163h35q1 -26 -4 -122q60 -32 149 -32q44 0 78 9q38 47 38 100q0 35 -17.5 63.5t-37.5 44t-68 47.5q-70 47 -105 88.5t-34 103.5
q1 86 61.5 127.5t150.5 41.5q108 0 174 -16q5 -28 -3.5 -59t-17 -47.5t-25.5 -43.5h-33q-2 15 -5 102q-46 12 -106 12q-49 0 -74 -5q-40 -40 -40 -92q0 -32 19 -61t38.5 -44.5t56.5 -40.5q85 -57 118 -95.5t33 -101.5q0 -85 -61.5 -135t-146.5 -52l-44 -46q37 -4 63 -24.5
t26 -53.5q0 -48 -38.5 -73t-92.5 -25z" />
    <glyph glyph-name="scedilla" unicode="&#x15f;" horiz-adv-x="372" 
d="M92 -233q-47 0 -76 15t-29 43q0 20 13 32t30 15q12 -71 104 -67q20 25 20 55q0 53 -88 57l4 20q20 20 66 53q-55 5 -90.5 28.5t-35.5 57.5q0 20 12.5 35t36.5 19q47 -95 123 -95q31 0 45 9q17 23 17 55q0 21 -9 36.5t-34 41.5l-76 74q-50 52 -50 107q0 60 47 90t111 30
q123 0 123 -58q0 -36 -40 -51q-24 31 -49 48t-62 17q-27 0 -42 -9q-13 -19 -13 -45q0 -32 34 -67q18 -19 68 -67q34 -32 50.5 -58.5t16.5 -62.5q0 -54 -38.5 -92.5t-102.5 -42.5l-44 -47q37 -4 63 -24.5t26 -53.5q0 -48 -38.5 -73t-92.5 -25z" />
    <glyph glyph-name="Scaron" unicode="&#x160;" horiz-adv-x="534" 
d="M312 709l-79 135l29 19q11 -10 91 -90q3 2 54 40t69 50l23 -24l-83 -96t-36 -29t-42 -7q-14 0 -26 2zM120 499q1 86 61.5 127.5t150.5 41.5q108 0 174 -16q5 -28 -3.5 -59t-17 -47.5t-25.5 -43.5h-33q-2 15 -5 102q-46 12 -106 12q-49 0 -74 -5q-40 -40 -40 -92
q0 -32 19 -61t38.5 -44.5t56.5 -40.5q85 -57 118 -95.5t33 -101.5q0 -88 -63.5 -137.5t-151.5 -49.5q-139 0 -218 45q-11 80 52 163h35q1 -26 -4 -122q60 -32 149 -32q44 0 78 9q38 47 38 100q0 35 -17.5 63.5t-37.5 44t-68 47.5q-70 47 -105 88.5t-34 103.5z" />
    <glyph glyph-name="scaron" unicode="&#x161;" horiz-adv-x="372" 
d="M202 537l-56 160l30 14l72 -109l128 111l25 -22q-48 -63 -98 -120q-19 -21 -34.5 -28.5t-42.5 -7.5q-12 0 -24 2zM75 358q0 60 47 90t111 30q123 0 123 -58q0 -36 -40 -51q-24 31 -49 48t-62 17q-27 0 -42 -9q-13 -19 -13 -45q0 -32 34 -67q18 -19 68 -67
q34 -32 50.5 -58.5t16.5 -62.5q0 -57 -43.5 -96.5t-113.5 -39.5q-64 0 -108 24.5t-44 62.5q0 20 12.5 35t36.5 19q47 -95 123 -95q31 0 45 9q17 23 17 55q0 21 -9 36.5t-34 41.5l-76 74q-50 52 -50 107z" />
    <glyph glyph-name="Tcommaaccent" unicode="&#x162;" horiz-adv-x="629" 
d="M425 608l-103 -554q60 -11 88 -20l-6 -34h-265q2 25 21 36.5t76 18.5l102 553h-156q-15 -45 -46 -115h-29q-22 120 14 165h537q11 -27 -6 -77.5t-40 -87.5h-28q-6 78 -6 115h-153zM182 -231q-15 9 -24 18q38 51 54 95l7 63q14 4 28 4q37 0 37 -43q0 -23 -14.5 -46.5
t-28.5 -37t-59 -53.5z" />
    <glyph glyph-name="tcommaaccent" unicode="&#x163;" horiz-adv-x="351" 
d="M240 578l-12 -55.5l-12 -55.5h153l-8 -29q-8 -12 -22.5 -15.5t-55.5 -3.5h-78q-61 -286 -75 -363q19 -7 34 -7q29 0 62.5 25t58.5 62q22 -7 30 -20q-28 -49 -71.5 -88t-101.5 -39q-44 0 -67 20.5t-23 53.5q0 11 2.5 29t9.5 49.5l14.5 65l21 94l25.5 118.5q-35 2 -69 13
l9 30q15 3 70 5q24 75 43 93t62 18zM69 -242q-15 9 -24 18q38 51 54 95l7 63q14 4 28 4q37 0 37 -43q0 -23 -14.5 -46.5t-28.5 -37t-59 -53.5z" />
    <glyph glyph-name="Tcaron" unicode="&#x164;" horiz-adv-x="629" 
d="M358 711l-79 135l29 19q11 -9 91 -90q3 2 54 40t69 50l23 -24l-83 -96t-36 -29t-42 -7q-14 0 -26 2zM425 608l-103 -554q60 -11 88 -20l-6 -34h-265q2 25 21 36.5t76 18.5l102 553h-156q-15 -45 -46 -115h-29q-22 120 14 165h537q11 -27 -6 -77.5t-40 -87.5h-28
q-6 78 -6 115h-153z" />
    <glyph glyph-name="tcaron" unicode="&#x165;" horiz-adv-x="372" 
d="M240 578l-12 -55.5l-12 -55.5h113l-8 -29q-8 -12 -22.5 -15.5t-55.5 -3.5h-38q-61 -286 -75 -363q19 -7 34 -7q29 0 62.5 25t58.5 62q22 -7 30 -20q-28 -49 -71.5 -88t-101.5 -39q-44 0 -67 20.5t-23 53.5q0 11 2.5 29t9.5 49.5l14.5 65l21 94l25.5 118.5q-35 2 -69 13
l9 30q15 3 70 5q24 75 43 93t62 18zM377 398q-15 9 -24 18q38 51 54 95l7 63q14 4 28 4q37 0 37 -43q0 -23 -14.5 -46.5t-28.5 -37t-59 -53.5z" />
    <glyph glyph-name="Tbar" unicode="&#x166;" horiz-adv-x="629" 
d="M410 34l-6 -34h-265q2 25 21 36.5t76 18.5l50 269h-160l7 34q19 20 86 20h77l42 230h-156q-15 -45 -46 -115h-29q-22 120 14 165h537q11 -27 -6 -77.5t-40 -87.5h-28q-6 78 -6 115h-153l-43 -230h174l-7 -35q-18 -19 -85 -19h-92l-50 -270q60 -11 88 -20z" />
    <glyph glyph-name="tbar" unicode="&#x167;" horiz-adv-x="351" 
d="M315 116q-28 -49 -71.5 -88t-101.5 -39q-44 0 -67 20.5t-23 53.5q0 27 42 214h-79l5 25q19 20 84 20l21 97q-35 2 -69 13l9 30q15 3 70 5q24 75 43 93t62 18l-12 -55.5l-12 -55.5h153l-8 -29q-8 -12 -22.5 -15.5t-55.5 -3.5h-78l-20 -97h148l-5 -26q-18 -19 -85 -19h-68
q-42 -203 -45 -221q19 -7 34 -7q29 0 62.5 25t58.5 62q22 -7 30 -20z" />
    <glyph glyph-name="Utilde" unicode="&#x168;" horiz-adv-x="734" 
d="M453 735l-63 27l-66 -50l-24 21q66 90 102 90q20 0 81 -26l64 -27l66 50l24 -21q-61 -89 -101 -89q-23 0 -83 25zM95 658h270l-6 -34q-28 -9 -96 -20l-60 -334q-39 -218 167 -218q87 0 142 36q21 53 49 184l62 332q-63 12 -89 20l6 34h246q-2 -27 -20 -37t-77 -18
q-50 -264 -80 -405q-24 -113 -88.5 -161.5t-166.5 -48.5q-136 0 -199.5 73t-38.5 208l61 334q-53 9 -68 20t-14 35z" />
    <glyph glyph-name="utilde" unicode="&#x169;" horiz-adv-x="526" 
d="M320 579q-15 6 -34 16t-24 12l-64 -51l-23 19l30.5 42.5t31.5 32.5t36 17q18 0 78 -27q14 -6 32.5 -15t25.5 -12l64 51l23 -19q-62 -91 -99 -91q-21 0 -77 25zM309 52q0 30 25 98l-6 2q-43 -77 -83.5 -119.5t-95.5 -42.5q-92 0 -92 77q0 20 12.5 75t33 137t31.5 135
l-77 17l3 21q52 26 93 26q34 0 49 -16.5t15 -40.5q0 -20 -13 -73l-33.5 -138t-33.5 -153q12 -6 38 -6q73 0 172 191q18 74 45 219q13 5 40.5 8.5t39.5 2.5l12 -17q-42 -149 -56 -210l-37 -182l83 -20l-3 -21q-40 -33 -84 -33q-37 0 -57.5 17.5t-20.5 45.5z" />
    <glyph glyph-name="Umacron" unicode="&#x16a;" horiz-adv-x="734" 
d="M347 738l9 39q19 20 86 20h172l-8 -39q-19 -20 -85 -20h-174zM95 658h270l-6 -34q-28 -9 -96 -20l-60 -334q-39 -218 167 -218q87 0 142 36q21 53 49 184l62 332q-63 12 -89 20l6 34h246q-2 -27 -20 -37t-77 -18q-50 -264 -80 -405q-24 -113 -88.5 -161.5t-166.5 -48.5
q-136 0 -199.5 73t-38.5 208l61 334q-53 9 -68 20t-14 35z" />
    <glyph glyph-name="umacron" unicode="&#x16b;" horiz-adv-x="526" 
d="M204 589l9 39q19 20 86 20h172l-8 -39q-19 -20 -85 -20h-174zM309 52q0 30 25 98l-6 2q-43 -77 -83.5 -119.5t-95.5 -42.5q-92 0 -92 77q0 20 12.5 75t33 137t31.5 135l-77 17l3 21q52 26 93 26q34 0 49 -16.5t15 -40.5q0 -20 -13 -73l-33.5 -138t-33.5 -153q12 -6 38 -6
q73 0 172 191q18 74 45 219q13 5 40.5 8.5t39.5 2.5l12 -17q-42 -149 -56 -210l-37 -182l83 -20l-3 -21q-40 -33 -84 -33q-37 0 -57.5 17.5t-20.5 45.5z" />
    <glyph glyph-name="Ubreve" unicode="&#x16c;" horiz-adv-x="734" 
d="M469 712q-56 0 -85 22.5t-29 61.5q0 22 11 44h37q-4 -14 -4 -25q0 -45 73 -45q32 0 53 9q15 22 29 61h37q-3 -62 -35 -95t-87 -33zM95 658h270l-6 -34q-28 -9 -96 -20l-60 -334q-39 -218 167 -218q87 0 142 36q21 53 49 184l62 332q-63 12 -89 20l6 34h246
q-2 -27 -20 -37t-77 -18q-50 -264 -80 -405q-24 -113 -88.5 -161.5t-166.5 -48.5q-136 0 -199.5 73t-38.5 208l61 334q-53 9 -68 20t-14 35z" />
    <glyph glyph-name="ubreve" unicode="&#x16d;" horiz-adv-x="526" 
d="M322 546q-55 0 -82 23t-27 63q0 23 12 47h37q-5 -20 -5 -30q0 -46 68 -46q29 0 45 6q20 30 32 70h37q-3 -63 -34 -98t-83 -35zM309 52q0 30 25 98l-6 2q-43 -77 -83.5 -119.5t-95.5 -42.5q-92 0 -92 77q0 20 12.5 75t33 137t31.5 135l-77 17l3 21q52 26 93 26
q34 0 49 -16.5t15 -40.5q0 -20 -13 -73l-33.5 -138t-33.5 -153q12 -6 38 -6q73 0 172 191q18 74 45 219q13 5 40.5 8.5t39.5 2.5l12 -17q-42 -149 -56 -210l-37 -182l83 -20l-3 -21q-40 -33 -84 -33q-37 0 -57.5 17.5t-20.5 45.5z" />
    <glyph glyph-name="Uring" unicode="&#x16e;" horiz-adv-x="734" 
d="M471 878q41 0 67.5 -22t26.5 -57q0 -40 -29 -65.5t-75 -25.5q-42 0 -67.5 22.5t-25.5 58.5t27.5 62.5t75.5 26.5zM462 742q16 0 30 2q25 23 25 56q0 20 -13.5 32t-38.5 12q-10 0 -24 -2q-24 -24 -24 -56q0 -19 12 -31.5t33 -12.5zM95 658h270l-6 -34q-28 -9 -96 -20
l-60 -334q-39 -218 167 -218q87 0 142 36q21 53 49 184l62 332q-63 12 -89 20l6 34h246q-2 -27 -20 -37t-77 -18q-50 -264 -80 -405q-24 -113 -88.5 -161.5t-166.5 -48.5q-136 0 -199.5 73t-38.5 208l61 334q-53 9 -68 20t-14 35z" />
    <glyph glyph-name="uring" unicode="&#x16f;" horiz-adv-x="526" 
d="M326 723q43 0 69 -24.5t26 -65.5q0 -46 -32.5 -75.5t-77.5 -29.5q-43 0 -68.5 25t-25.5 67q0 41 30.5 72t78.5 31zM314 565q15 0 27 3q29 27 29 66q0 24 -12 38.5t-36 14.5q-16 0 -28 -3q-26 -30 -26 -66q0 -53 46 -53zM309 52q0 30 25 98l-6 2q-43 -77 -83.5 -119.5
t-95.5 -42.5q-92 0 -92 77q0 20 12.5 75t33 137t31.5 135l-77 17l3 21q52 26 93 26q34 0 49 -16.5t15 -40.5q0 -20 -13 -73l-33.5 -138t-33.5 -153q12 -6 38 -6q73 0 172 191q18 74 45 219q13 5 40.5 8.5t39.5 2.5l12 -17q-42 -149 -56 -210l-37 -182l83 -20l-3 -21
q-40 -33 -84 -33q-37 0 -57.5 17.5t-20.5 45.5z" />
    <glyph glyph-name="Uhungarumlaut" unicode="&#x170;" horiz-adv-x="734" 
d="M356 707l-14 25q76 51 84 58l27 41t21 32q49 -5 49 -42q0 -36 -35.5 -60t-131.5 -54zM532 707l-14 25q76 51 84 58l27 41t21 32q49 -5 49 -42q0 -36 -36 -60.5t-131 -53.5zM95 658h270l-6 -34q-28 -9 -96 -20l-60 -334q-39 -218 167 -218q87 0 142 36q21 53 49 184
l62 332q-63 12 -89 20l6 34h246q-2 -27 -20 -37t-77 -18q-50 -264 -80 -405q-24 -113 -88.5 -161.5t-166.5 -48.5q-136 0 -199.5 73t-38.5 208l61 334q-53 9 -68 20t-14 35z" />
    <glyph glyph-name="uhungarumlaut" unicode="&#x171;" horiz-adv-x="526" 
d="M223 542l-19 21q41 48 68 85q6 15 17 45t14 37q6 1 17 1q42 0 42 -44q0 -19 -8.5 -36t-33.5 -38t-40 -32t-57 -39zM380 542l-19 21q41 48 68 85q6 15 17 45t14 37q6 1 17 1q42 0 42 -44q0 -19 -8.5 -36t-33.5 -38t-40 -32t-57 -39zM309 52q0 30 25 98l-6 2
q-43 -77 -83.5 -119.5t-95.5 -42.5q-92 0 -92 77q0 20 12.5 75t33 137t31.5 135l-77 17l3 21q52 26 93 26q34 0 49 -16.5t15 -40.5q0 -20 -13 -73l-33.5 -138t-33.5 -153q12 -6 38 -6q73 0 172 191q18 74 45 219q13 5 40.5 8.5t39.5 2.5l12 -17q-42 -149 -56 -210l-37 -182
l83 -20l-3 -21q-40 -33 -84 -33q-37 0 -57.5 17.5t-20.5 45.5z" />
    <glyph glyph-name="Uogonek" unicode="&#x172;" horiz-adv-x="734" 
d="M337 -248q-36 0 -60 20.5t-24 55.5q0 44 42 87.5t100 74.5q-26 -2 -41 -2q-136 0 -199.5 73t-38.5 208l61 334q-53 9 -68 20t-14 35h270l-6 -34q-28 -9 -96 -20l-60 -334q-39 -218 167 -218q87 0 142 36q21 53 49 184l62 332q-63 12 -89 20l6 34h246q-2 -27 -20 -37
t-77 -18q-50 -264 -80 -405q-33 -161 -161 -198q-114 -72 -128 -169q29 -19 87 -29q-4 -20 -23 -35t-47 -15z" />
    <glyph glyph-name="uogonek" unicode="&#x173;" horiz-adv-x="526" 
d="M324 -248q-36 0 -60 20.5t-24 55.5q0 43 41.5 86.5t98.5 74.5q-33 1 -52 19t-19 44q0 30 25 98l-6 2q-43 -77 -83.5 -119.5t-95.5 -42.5q-92 0 -92 77q0 20 12.5 75t33 137t31.5 135l-77 17l3 21q52 26 93 26q34 0 49 -16.5t15 -40.5q0 -20 -13 -73l-33.5 -138
t-33.5 -153q12 -6 38 -6q73 0 172 191q18 74 45 219q13 5 40.5 8.5t39.5 2.5l12 -17q-42 -149 -56 -210l-37 -182l83 -20l-3 -21q-17 -14 -38 -23q-59 -38 -89.5 -82t-36.5 -86q29 -19 87 -29q-4 -20 -23 -35t-47 -15z" />
    <glyph glyph-name="Wcircumflex" unicode="&#x174;" horiz-adv-x="973" 
d="M643 861l79 -135l-29 -19q-42 38 -92 88q-107 -78 -122 -88l-23 24l83 96t36 29t42 7q14 0 26 -2zM246 606l74 -511l203 447l-6 39q-11 72 58 72h19l79 -547l217 500q-52 6 -98 18l6 34h231q-2 -23 -18 -35t-60 -18l-238 -542q-18 -40 -37 -55.5t-48 -15.5h-20l-69 453
l-176 -382q-18 -40 -37.5 -55.5t-49.5 -15.5h-26l-95 613q-40 8 -51.5 19.5t-10.5 33.5h264l-6 -34q-34 -9 -105 -18z" />
    <glyph glyph-name="wcircumflex" unicode="&#x175;" horiz-adv-x="664" 
d="M456 711l56 -161l-30 -14l-72 108l-128 -110l-25 22q55 71 98 121q19 21 34.5 28.5t42.5 7.5q12 0 24 -2zM329 414l-69 16l3 21q52 26 86 26q55 0 61 -51q9 -57 13.5 -184.5t2.5 -205.5q58 85 101.5 191.5t51.5 186.5l-77 16l3 21q52 26 85 26q57 0 57 -50
q0 -77 -53.5 -191t-122.5 -200q-21 -26 -32 -34t-31 -8h-54q0 10 -0.5 105t-2.5 152h-4q-42 -122 -108 -217q-18 -26 -30.5 -33t-34.5 -7h-53q-14 315 -31 420l-73 16l4 21q50 26 90 26q51 0 61 -43q11 -53 18 -185.5t5 -212.5q47 72 85.5 160.5t57.5 160.5q-5 37 -9 57z
" />
    <glyph glyph-name="Ycircumflex" unicode="&#x176;" horiz-adv-x="626" 
d="M460 861l79 -135l-29 -19q-42 38 -92 88q-107 -78 -122 -88l-23 24l83 96t36 29t42 7q14 0 26 -2zM349 325l188 281q-55 7 -89 18l6 34h228q-2 -23 -18 -35t-60 -18l-231 -333l-39 -218q53 -10 88 -20l-6 -34h-265q2 25 21 36.5t76 18.5l37 205l-131 345
q-40 8 -51.5 19.5t-10.5 33.5h258l-6 -34q-33 -10 -96 -18z" />
    <glyph glyph-name="ycircumflex" unicode="&#x177;" horiz-adv-x="451" 
d="M334 711l56 -161l-30 -14l-72 108l-128 -110l-25 22q55 71 98 121q19 21 34.5 28.5t42.5 7.5q12 0 24 -2zM434 431q0 -38 -25.5 -108.5t-61.5 -136.5q-58 -109 -121 -189.5t-159 -167.5q-51 -46 -82.5 -61.5t-64.5 -15.5q-30 0 -47.5 14t-17.5 36q0 28 26 47
q62 -17 94 -24q67 46 167 135q-22 328 -49 454l-75 17l4 21q52 26 93 26q54 0 64 -48q10 -50 20 -190.5t9 -209.5q55 94 101 202.5t54 178.5l-70 19v20q44 28 90 28q51 0 51 -47z" />
    <glyph glyph-name="Ydieresis" unicode="&#x178;" horiz-adv-x="626" 
d="M464 781q0 23 15 38.5t37 15.5t38 -15.5t16 -38.5q0 -20 -16 -35.5t-38 -15.5q-21 0 -36.5 15.5t-15.5 35.5zM252 781q0 22 16 38t38 16t37.5 -15.5t15.5 -38.5q0 -20 -15.5 -35.5t-37.5 -15.5t-38 15.5t-16 35.5zM349 325l188 281q-55 7 -89 18l6 34h228q-2 -23 -18 -35
t-60 -18l-231 -333l-39 -218q53 -10 88 -20l-6 -34h-265q2 25 21 36.5t76 18.5l37 205l-131 345q-40 8 -51.5 19.5t-10.5 33.5h258l-6 -34q-33 -10 -96 -18z" />
    <glyph glyph-name="Zacute" unicode="&#x179;" horiz-adv-x="589" 
d="M288 715l-8 28l124 57l60 60q19 -2 32 -13.5t13 -29.5q0 -42 -44.5 -59.5t-176.5 -42.5zM494 0h-408q-30 0 -45 17.5t-15 40.5l465 550h-288q-18 -54 -46 -116h-30q-11 25 -9.5 82t22.5 84h370q37 0 56.5 -14.5t20.5 -29.5l1 -14l-467 -548h313q17 53 47 116h30
q10 -34 6.5 -86t-23.5 -82z" />
    <glyph glyph-name="zacute" unicode="&#x17a;" horiz-adv-x="426" 
d="M203 543l-13 24q89 61 97 68q23 29 61 82q53 0 53 -45q0 -74 -198 -129zM437 447l-298 -358q82 -32 152 -30q23 16 51 50q37 -9 37 -46q0 -32 -26.5 -53t-68.5 -21q-105 0 -169 72q-32 -39 -54.5 -53t-45.5 -14l-29 22l302 366q-92 37 -149 30q-17 -13 -43 -56
q-42 17 -42 57q0 30 26.5 47.5t65.5 17.5q91 0 163 -70q37 42 57.5 52t48.5 8z" />
    <glyph glyph-name="Zdotaccent" unicode="&#x17b;" horiz-adv-x="589" 
d="M351 797q0 22 16 38t38 16t37.5 -15.5t15.5 -38.5q0 -20 -15.5 -35.5t-37.5 -15.5t-38 15.5t-16 35.5zM494 0h-408q-30 0 -45 17.5t-15 40.5l465 550h-288q-18 -54 -46 -116h-30q-11 25 -9.5 82t22.5 84h370q37 0 56.5 -14.5t20.5 -29.5l1 -14l-467 -548h313
q17 53 47 116h30q10 -34 6.5 -86t-23.5 -82z" />
    <glyph glyph-name="zdotaccent" unicode="&#x17c;" horiz-adv-x="426" 
d="M232 626q0 22 16 38t38 16t37.5 -15.5t15.5 -38.5q0 -20 -15.5 -35.5t-37.5 -15.5t-38 15.5t-16 35.5zM437 447l-298 -358q82 -32 152 -30q23 16 51 50q37 -9 37 -46q0 -32 -26.5 -53t-68.5 -21q-105 0 -169 72q-32 -39 -54.5 -53t-45.5 -14l-29 22l302 366
q-92 37 -149 30q-17 -13 -43 -56q-42 17 -42 57q0 30 26.5 47.5t65.5 17.5q91 0 163 -70q37 42 57.5 52t48.5 8z" />
    <glyph glyph-name="Zcaron" unicode="&#x17d;" horiz-adv-x="589" 
d="M330 709l-79 135l29 19l91 -90q3 2 54 40t69 50l23 -24l-83 -96t-36 -29t-42 -7q-14 0 -26 2zM494 0h-408q-30 0 -45 17.5t-15 40.5l465 550h-288q-18 -54 -46 -116h-30q-11 25 -9.5 82t22.5 84h370q37 0 56.5 -14.5t20.5 -29.5l1 -14l-467 -548h313q17 53 47 116h30
q10 -34 6.5 -86t-23.5 -82z" />
    <glyph glyph-name="zcaron" unicode="&#x17e;" horiz-adv-x="426" 
d="M225 537l-56 160l30 14l72 -109l128 111l25 -22q-48 -63 -98 -120q-19 -21 -34.5 -28.5t-42.5 -7.5q-12 0 -24 2zM437 447l-298 -358q82 -32 152 -30q23 16 51 50q37 -9 37 -46q0 -32 -26.5 -53t-68.5 -21q-105 0 -169 72q-32 -39 -54.5 -53t-45.5 -14l-29 22l302 366
q-92 37 -149 30q-17 -13 -43 -56q-42 17 -42 57q0 30 26.5 47.5t65.5 17.5q91 0 163 -70q37 42 57.5 52t48.5 8z" />
    <glyph glyph-name="florin" unicode="&#x192;" horiz-adv-x="463" 
d="M163 390h29l7 32q29 132 76 189.5t131 57.5q100 0 100 -54q0 -15 -11 -26.5t-24 -16.5q-27 27 -54.5 37.5t-68.5 7.5q-33 -46 -66 -195l-7 -32h144l-6 -33q-22 -23 -81 -23h-70l-36 -168q-33 -153 -63 -233t-66.5 -112.5t-92.5 -32.5q-49 0 -77.5 18t-28.5 46q0 35 33 47
q19 -17 31 -26t36.5 -18.5t54.5 -12.5q24 56 39 107t51 218l36 167h-19q-37 1 -77 16l8 33q29 7 72 7z" />
    <glyph glyph-name="Ohorn" unicode="&#x1a0;" horiz-adv-x="737" 
d="M350 -12q-144 0 -210.5 75.5t-66.5 198.5q0 103 40.5 195t120 152t181.5 60q172 0 241 -108q35 10 59.5 33t24.5 51q0 25 -23 25q-11 -5 -32 -26q-6 2 -12 10.5t-6 19.5q0 24 20 41.5t50 17.5q27 0 43 -18t16 -48q0 -43 -37.5 -82t-86.5 -55q24 -55 24 -130
q0 -68 -23 -139t-64.5 -133t-109.5 -101t-149 -39zM403 616q-56 0 -98 -12q-65 -61 -100 -150.5t-35 -184.5q0 -101 45.5 -164t142.5 -63q67 0 127 26q50 59 82 146t32 179q0 101 -46 162t-150 61z" />
    <glyph glyph-name="ohorn" unicode="&#x1a1;" horiz-adv-x="484" 
d="M195 -11q-74 0 -115.5 48.5t-41.5 132.5q0 77 27.5 146t85.5 115.5t135 46.5q103 0 136 -81q31 10 52.5 32t21.5 48q0 25 -23 25q-11 -5 -32 -26q-6 2 -12 10.5t-6 19.5q0 24 20 41.5t50 17.5q27 0 43 -18t16 -48q0 -42 -36 -80.5t-84 -55.5q6 -27 6 -59
q0 -56 -15 -110.5t-44 -101t-77 -75t-107 -28.5zM212 41q37 0 66 11q37 52 56 120.5t19 133.5q0 123 -89 123q-34 0 -55 -8q-39 -40 -61.5 -110.5t-22.5 -143.5q0 -55 20.5 -90.5t66.5 -35.5z" />
    <glyph glyph-name="Uhorn" unicode="&#x1af;" horiz-adv-x="758" 
d="M354 -12q-136 0 -199.5 73t-38.5 208l61 334q-53 9 -68 20t-14 35h270l-6 -34q-28 -9 -96 -20l-60 -334q-39 -218 167 -218q87 0 142 36q21 53 49 184l62 332q-63 12 -89 20l6 34h172q100 0 100 85q0 25 -23 25q-11 -5 -32 -26q-6 2 -12 10.5t-6 19.5q0 24 20 41.5
t50 17.5q27 0 43 -18t16 -48q0 -61 -50.5 -106.5t-128.5 -55.5q-50 -264 -80 -405q-24 -113 -88.5 -161.5t-166.5 -48.5z" />
    <glyph glyph-name="uhorn" unicode="&#x1b0;" horiz-adv-x="538" 
d="M387 -11q-37 0 -57.5 17.5t-20.5 45.5q0 30 25 98l-6 2q-43 -77 -83.5 -119.5t-95.5 -42.5q-92 0 -92 77q0 20 12.5 75t33 137t31.5 135l-77 17l3 21q52 26 93 26q34 0 49 -16.5t15 -40.5q0 -20 -13 -73l-33.5 -138t-33.5 -153q12 -6 38 -6q73 0 172 191q18 74 45 219
q20 7 72 12q40 4 74 25t34 61q0 25 -23 25q-11 -5 -32 -26q-6 2 -12 10.5t-6 19.5q0 24 20 41.5t50 17.5q27 0 43 -18t16 -48q0 -48 -47 -91.5t-102 -52.5q-37 -130 -51 -192l-37 -182l83 -20l-3 -21q-40 -33 -84 -33z" />
    <glyph glyph-name="Aringacute" unicode="&#x1fa;" horiz-adv-x="675" 
d="M372 919l-8 28l124 57l60 60q19 -2 32 -13.5t13 -29.5q0 -42 -44.5 -59.5t-176.5 -42.5zM440 874q41 0 67.5 -22t26.5 -57q0 -40 -29 -65.5t-75 -25.5q-42 0 -67.5 22.5t-25.5 58.5t27.5 62.5t75.5 26.5zM431 738q16 0 30 2q25 23 25 56q0 20 -13.5 32t-38.5 12
q-10 0 -24 -2q-24 -24 -24 -56q0 -19 12 -31.5t33 -12.5zM387 600l-161 -317h209zM470 52l-28 181h-241l-92 -181q51 -6 89 -18l-6 -34h-220q2 23 18 35t60 18l311 613h40q39 0 53 -17t20 -57l82 -539q40 -9 51.5 -20.5t10.5 -32.5h-250l6 34q39 10 96 18z" />
    <glyph glyph-name="aringacute" unicode="&#x1fb;" horiz-adv-x="509" 
d="M267 752l-13 24q89 61 97 68q23 29 61 82q53 0 53 -45q0 -74 -198 -129zM321 723q43 0 69 -24.5t26 -65.5q0 -46 -32.5 -75.5t-77.5 -29.5q-43 0 -68.5 25t-25.5 67q0 41 30.5 72t78.5 31zM309 565q15 0 27 3q29 27 29 66q0 24 -12 38.5t-36 14.5q-16 0 -28 -3
q-26 -30 -26 -66q0 -53 46 -53zM297 52q0 24 21 106l-4 2q-41 -82 -80 -126t-91 -44q-50 0 -76.5 42.5t-26.5 117.5q0 81 26.5 154.5t81.5 123.5t127 50q65 0 102 -42q35 37 84 41l11 -26q-14 -43 -46 -152q-45 -210 -50 -236l86 -20l-3 -21q-40 -33 -84 -33
q-37 0 -57.5 17.5t-20.5 45.5zM335 263l33 134q-53 29 -103 29q-31 0 -55 -8q-40 -47 -62 -122.5t-21 -140.5q0 -45 10.5 -72t29.5 -27q28 0 64 39t62 83.5t42 84.5z" />
    <glyph glyph-name="AEacute" unicode="&#x1fc;" horiz-adv-x="912" 
d="M550 711l-8 28l124 57l60 60q19 -2 32 -13.5t13 -29.5q0 -42 -44.5 -59.5t-176.5 -42.5zM478 272l62 336l-258 -336h196zM438 55l30 166h-225l-129 -169q51 -6 89 -18l-6 -34h-227q2 23 18 35t60 18l418 550q-48 9 -63 19t-14 36h543q19 -48 -45 -160h-29q-6 76 -6 110
h-225l-42 -232h221l-6 -30q-24 -26 -61 -26h-165l-49 -266h235q17 44 50 106h30q14 -95 -16 -160h-479q2 25 20.5 36.5t72.5 18.5z" />
    <glyph glyph-name="aeacute" unicode="&#x1fd;" horiz-adv-x="674" 
d="M367 543l-13 24q89 61 97 68q23 29 61 82q53 0 53 -45q0 -74 -198 -129zM400 271q120 -1 164 28q17 32 17 70q0 40 -29 52t-72 3q-26 -24 -50 -70t-30 -83zM167 56q60 0 135 150q15 109 73 183q-47 37 -110 37q-31 0 -55 -8q-40 -47 -62 -122.5t-21 -140.5
q0 -45 10.5 -72t29.5 -27zM585 128q17 -13 23 -28q-34 -45 -80 -78t-94 -33q-127 0 -135 150q-34 -68 -71 -108.5t-85 -40.5q-50 0 -76.5 42.5t-26.5 117.5q0 127 64.5 227.5t171.5 100.5q83 0 125 -62q62 62 147 62q53 0 82 -26.5t29 -70.5q0 -80 -69.5 -117.5
t-199.5 -28.5q-6 -40 -6.5 -80t18 -70t53.5 -30q8 0 16 1t16 4l13.5 5t14.5 8t13 8t14.5 10.5t13 11t15 13t14.5 12.5z" />
    <glyph glyph-name="Oslashacute" unicode="&#x1fe;" horiz-adv-x="729" 
d="M371 715l-8 28l124 57l60 60q19 -2 32 -13.5t13 -29.5q0 -42 -44.5 -59.5t-176.5 -42.5zM403 616q-56 0 -98 -12q-65 -61 -100 -150.5t-35 -184.5q0 -65 17 -112l358 406q-50 53 -142 53zM599 393q0 70 -22 121l-361 -410q48 -61 142 -61q64 0 127 25q50 59 82 146
t32 179zM350 -12q-117 0 -187 55l-12 -13q-21 -25 -60 -44l-28 26q13 19 49 60l11 13q-50 70 -50 181q0 104 40.5 195t120.5 149.5t182 58.5q110 0 180 -48l5 6q23 26 60 44l28 -26q-15 -20 -49 -60l-2 -2q58 -70 58 -188q0 -68 -23 -138.5t-64.5 -131t-109.5 -99
t-149 -38.5z" />
    <glyph glyph-name="oslashacute" unicode="&#x1ff;" horiz-adv-x="476" 
d="M228 543l-13 24q89 61 97 68q23 29 61 82q53 0 53 -45q0 -74 -198 -129zM123 166v-24l219 247q-20 40 -78 40q-34 0 -55 -8q-39 -41 -62.5 -111.5t-23.5 -143.5zM212 41q37 0 66 11q37 52 57 121t20 133q0 16 -1 23l-217 -247q20 -41 75 -41zM52 61l9 10q-23 43 -23 99
q0 77 27.5 146t85.5 115.5t135 46.5q61 0 102 -36q21 24 51 38l24 -23q-15 -21 -42 -52l-3 -4q20 -42 20 -97q0 -56 -15 -110.5t-44 -101t-77 -75t-107 -28.5q-64 0 -105 41l-5 -6q-23 -25 -51 -38l-24 23q14 21 42 52z" />
    <glyph glyph-name="Scommaaccent" unicode="&#x218;" horiz-adv-x="534" 
d="M120 499q1 86 61.5 127.5t150.5 41.5q108 0 174 -16q5 -28 -3.5 -59t-17 -47.5t-25.5 -43.5h-33q-2 15 -5 102q-46 12 -106 12q-49 0 -74 -5q-40 -40 -40 -92q0 -32 19 -61t38.5 -44.5t56.5 -40.5q85 -57 118 -95.5t33 -101.5q0 -88 -63.5 -137.5t-151.5 -49.5
q-139 0 -218 45q-11 80 52 163h35q1 -26 -4 -122q60 -32 149 -32q44 0 78 9q38 47 38 100q0 35 -17.5 63.5t-37.5 44t-68 47.5q-70 47 -105 88.5t-34 103.5zM157 -242q-15 9 -24 18q38 51 54 95l7 63q14 4 28 4q37 0 37 -43q0 -23 -14.5 -46.5t-28.5 -37t-59 -53.5z" />
    <glyph glyph-name="scommaaccent" unicode="&#x219;" horiz-adv-x="372" 
d="M75 358q0 60 47 90t111 30q123 0 123 -58q0 -36 -40 -51q-24 31 -49 48t-62 17q-27 0 -42 -9q-13 -19 -13 -45q0 -32 34 -67q18 -19 68 -67q34 -32 50.5 -58.5t16.5 -62.5q0 -57 -43.5 -96.5t-113.5 -39.5q-64 0 -108 24.5t-44 62.5q0 20 12.5 35t36.5 19q47 -95 123 -95
q31 0 45 9q17 23 17 55q0 21 -9 36.5t-34 41.5l-76 74q-50 52 -50 107zM62 -242q-15 9 -24 18q38 51 54 95l7 63q14 4 28 4q37 0 37 -43q0 -23 -14.5 -46.5t-28.5 -37t-59 -53.5z" />
    <glyph glyph-name="uni0237" unicode="&#x237;" horiz-adv-x="0" 
 />
    <glyph glyph-name="circumflex" unicode="&#x2c6;" horiz-adv-x="400" 
d="M335 711l56 -161l-30 -14l-72 108l-128 -110l-25 22q55 71 98 121q19 21 34.5 28.5t42.5 7.5q12 0 24 -2z" />
    <glyph glyph-name="caron" unicode="&#x2c7;" horiz-adv-x="400" 
d="M212 537l-56 160l30 14l72 -109l128 111l25 -22q-48 -63 -98 -120q-19 -21 -34.5 -28.5t-42.5 -7.5q-12 0 -24 2z" />
    <glyph glyph-name="breve" unicode="&#x2d8;" horiz-adv-x="400" 
d="M264 546q-55 0 -82 23t-27 63q0 23 12 47h37q-5 -20 -5 -30q0 -46 68 -46q29 0 45 6q20 30 32 70h37q-3 -63 -34 -98t-83 -35z" />
    <glyph glyph-name="dotaccent" unicode="&#x2d9;" horiz-adv-x="400" 
d="M220 626q0 22 16 38t38 16t37.5 -15.5t15.5 -38.5q0 -20 -15.5 -35.5t-37.5 -15.5t-38 15.5t-16 35.5z" />
    <glyph glyph-name="ring" unicode="&#x2da;" horiz-adv-x="400" 
d="M279 723q43 0 69 -24.5t26 -65.5q0 -46 -32.5 -75.5t-77.5 -29.5q-43 0 -68.5 25t-25.5 67q0 41 30.5 72t78.5 31zM267 565q15 0 27 3q29 27 29 66q0 24 -12 38.5t-36 14.5q-16 0 -28 -3q-26 -30 -26 -66q0 -53 46 -53z" />
    <glyph glyph-name="ogonek" unicode="&#x2db;" horiz-adv-x="400" 
d="M195 0h33q-114 -72 -128 -169q29 -19 87 -29q-4 -20 -23 -35t-47 -15q-36 0 -60 20.5t-24 55.5q0 48 50 95.5t112 76.5z" />
    <glyph glyph-name="tilde" unicode="&#x2dc;" horiz-adv-x="400" 
d="M253 579q-15 6 -34 16t-24 12l-64 -51l-23 19l30.5 42.5t31.5 32.5t36 17q18 0 78 -27q14 -6 32.5 -15t25.5 -12l64 51l23 -19q-62 -91 -99 -91q-21 0 -77 25z" />
    <glyph glyph-name="hungarumlaut" unicode="&#x2dd;" horiz-adv-x="400" 
d="M120 542l-19 21q41 48 68 85q6 15 17 45t14 37q6 1 17 1q42 0 42 -44q0 -19 -8.5 -36t-33.5 -38t-40 -32t-57 -39zM277 542l-19 21q41 48 68 85q6 15 17 45t14 37q6 1 17 1q42 0 42 -44q0 -19 -8.5 -36t-33.5 -38t-40 -32t-57 -39z" />
    <glyph glyph-name="pi" unicode="&#x3c0;" horiz-adv-x="595" 
d="M404 -11q-45 0 -66 26.5t-11 73.5l66 312h-162l-62 -292q-13 -64 -36.5 -92t-63.5 -28q-20 0 -33 10t-15 24q57 35 85 82l62 296h-20q-36 0 -79 15l10 47q43 5 76 5h435l-9 -41q-14 -15 -35.5 -20.5t-69.5 -5.5q-73 -343 -74 -348q18 -11 51.5 -2.5t62.5 37.5l21 -20
q-51 -79 -133 -79z" />
    <glyph glyph-name="Wgrave" unicode="&#x1e80;" horiz-adv-x="973" 
d="M700 743l-8 -28q-121 23 -167.5 42t-46.5 58q0 19 13.5 31t31.5 14l60 -60zM246 606l74 -511l203 447l-6 39q-11 72 58 72h19l79 -547l217 500q-52 6 -98 18l6 34h231q-2 -23 -18 -35t-60 -18l-238 -542q-18 -40 -37 -55.5t-48 -15.5h-20l-69 453l-176 -382
q-18 -40 -37.5 -55.5t-49.5 -15.5h-26l-95 613q-40 8 -51.5 19.5t-10.5 33.5h264l-6 -34q-34 -9 -105 -18z" />
    <glyph glyph-name="wgrave" unicode="&#x1e81;" horiz-adv-x="664" 
d="M466 555l-17 -24q-38 15 -64.5 27.5t-57.5 31t-47.5 40t-16.5 45.5q0 45 58 42q22 -40 52 -86q25 -22 93 -76zM329 414l-69 16l3 21q52 26 86 26q55 0 61 -51q9 -57 13.5 -184.5t2.5 -205.5q58 85 101.5 191.5t51.5 186.5l-77 16l3 21q52 26 85 26q57 0 57 -50
q0 -77 -53.5 -191t-122.5 -200q-21 -26 -32 -34t-31 -8h-54q0 10 -0.5 105t-2.5 152h-4q-42 -122 -108 -217q-18 -26 -30.5 -33t-34.5 -7h-53q-14 315 -31 420l-73 16l4 21q50 26 90 26q51 0 61 -43q11 -53 18 -185.5t5 -212.5q47 72 85.5 160.5t57.5 160.5q-5 37 -9 57z
" />
    <glyph glyph-name="Wacute" unicode="&#x1e82;" horiz-adv-x="973" 
d="M513 715l-8 28l124 57l60 60q19 -2 32 -13.5t13 -29.5q0 -42 -44.5 -59.5t-176.5 -42.5zM246 606l74 -511l203 447l-6 39q-11 72 58 72h19l79 -547l217 500q-52 6 -98 18l6 34h231q-2 -23 -18 -35t-60 -18l-238 -542q-18 -40 -37 -55.5t-48 -15.5h-20l-69 453l-176 -382
q-18 -40 -37.5 -55.5t-49.5 -15.5h-26l-95 613q-40 8 -51.5 19.5t-10.5 33.5h264l-6 -34q-34 -9 -105 -18z" />
    <glyph glyph-name="wacute" unicode="&#x1e83;" horiz-adv-x="664" 
d="M323 543l-13 24q89 61 97 68q23 29 61 82q53 0 53 -45q0 -74 -198 -129zM329 414l-69 16l3 21q52 26 86 26q55 0 61 -51q9 -57 13.5 -184.5t2.5 -205.5q58 85 101.5 191.5t51.5 186.5l-77 16l3 21q52 26 85 26q57 0 57 -50q0 -77 -53.5 -191t-122.5 -200q-21 -26 -32 -34
t-31 -8h-54q0 10 -0.5 105t-2.5 152h-4q-42 -122 -108 -217q-18 -26 -30.5 -33t-34.5 -7h-53q-14 315 -31 420l-73 16l4 21q50 26 90 26q51 0 61 -43q11 -53 18 -185.5t5 -212.5q47 72 85.5 160.5t57.5 160.5q-5 37 -9 57z" />
    <glyph glyph-name="Wdieresis" unicode="&#x1e84;" horiz-adv-x="973" 
d="M642 783q0 23 15 38.5t37 15.5t38 -15.5t16 -38.5q0 -20 -16 -35.5t-38 -15.5q-21 0 -36.5 15.5t-15.5 35.5zM430 783q0 22 16 38t38 16t37.5 -15.5t15.5 -38.5q0 -20 -15.5 -35.5t-37.5 -15.5t-38 15.5t-16 35.5zM246 606l74 -511l203 447l-6 39q-11 72 58 72h19
l79 -547l217 500q-52 6 -98 18l6 34h231q-2 -23 -18 -35t-60 -18l-238 -542q-18 -40 -37 -55.5t-48 -15.5h-20l-69 453l-176 -382q-18 -40 -37.5 -55.5t-49.5 -15.5h-26l-95 613q-40 8 -51.5 19.5t-10.5 33.5h264l-6 -34q-34 -9 -105 -18z" />
    <glyph glyph-name="wdieresis" unicode="&#x1e85;" horiz-adv-x="664" 
d="M440 626q0 21 15.5 36.5t36.5 15.5q22 0 37.5 -15.5t15.5 -36.5q0 -20 -16 -35.5t-37 -15.5t-36.5 15.5t-15.5 35.5zM245 626q0 21 15.5 36.5t36.5 15.5q22 0 37.5 -15.5t15.5 -36.5q0 -20 -16 -35.5t-37 -15.5t-36.5 15.5t-15.5 35.5zM329 414l-69 16l3 21q52 26 86 26
q55 0 61 -51q9 -57 13.5 -184.5t2.5 -205.5q58 85 101.5 191.5t51.5 186.5l-77 16l3 21q52 26 85 26q57 0 57 -50q0 -77 -53.5 -191t-122.5 -200q-21 -26 -32 -34t-31 -8h-54q0 10 -0.5 105t-2.5 152h-4q-42 -122 -108 -217q-18 -26 -30.5 -33t-34.5 -7h-53q-14 315 -31 420
l-73 16l4 21q50 26 90 26q51 0 61 -43q11 -53 18 -185.5t5 -212.5q47 72 85.5 160.5t57.5 160.5q-5 37 -9 57z" />
    <glyph glyph-name="Adotaccent" unicode="&#x1ea0;" horiz-adv-x="675" 
d="M387 600l-161 -317h209zM470 52l-28 181h-241l-92 -181q51 -6 89 -18l-6 -34h-220q2 23 18 35t60 18l311 613h40q39 0 53 -17t20 -57l82 -539q40 -9 51.5 -20.5t10.5 -32.5h-250l6 34q39 10 96 18zM189 -121q0 22 16 38t38 16t37.5 -15.5t15.5 -38.5q0 -20 -15.5 -35.5
t-37.5 -15.5t-38 15.5t-16 35.5z" />
    <glyph glyph-name="adotaccent" unicode="&#x1ea1;" horiz-adv-x="509" 
d="M297 52q0 24 21 106l-4 2q-41 -82 -80 -126t-91 -44q-50 0 -76.5 42.5t-26.5 117.5q0 81 26.5 154.5t81.5 123.5t127 50q65 0 102 -42q35 37 84 41l11 -26q-14 -43 -46 -152q-45 -210 -50 -236l86 -20l-3 -21q-40 -33 -84 -33q-37 0 -57.5 17.5t-20.5 45.5zM335 263
l33 134q-53 29 -103 29q-31 0 -55 -8q-40 -47 -62 -122.5t-21 -140.5q0 -45 10.5 -72t29.5 -27q28 0 64 39t62 83.5t42 84.5zM104 -112q0 22 16 38t38 16t37.5 -15.5t15.5 -38.5q0 -20 -15.5 -35.5t-37.5 -15.5t-38 15.5t-16 35.5z" />
    <glyph glyph-name="Ahook" unicode="&#x1ea2;" horiz-adv-x="675" 
d="M429 721h-41q-4 14 -4 19q0 22 12.5 32.5t41.5 21.5q12 5 17.5 7.5t11.5 9.5t6 17q0 33 -57 33q-28 -18 -51 -57q-9 2 -15.5 12.5t-6.5 20.5q0 26 29.5 45t80.5 19q39 0 63 -16.5t24 -43.5q0 -50 -99 -72zM387 600l-161 -317h209zM470 52l-28 181h-241l-92 -181
q51 -6 89 -18l-6 -34h-220q2 23 18 35t60 18l311 613h40q39 0 53 -17t20 -57l82 -539q40 -9 51.5 -20.5t10.5 -32.5h-250l6 34q39 10 96 18z" />
    <glyph glyph-name="ahook" unicode="&#x1ea3;" horiz-adv-x="509" 
d="M329 547h-41q-4 14 -4 19q0 16 8.5 26.5t17 15t28.5 12.5q45 19 45 50q0 33 -57 33q-28 -18 -51 -57q-9 2 -15.5 12.5t-6.5 20.5q0 26 29.5 45t80.5 19q39 0 63 -16.5t24 -43.5q0 -66 -109 -88zM297 52q0 24 21 106l-4 2q-41 -82 -80 -126t-91 -44q-50 0 -76.5 42.5
t-26.5 117.5q0 81 26.5 154.5t81.5 123.5t127 50q65 0 102 -42q35 37 84 41l11 -26q-14 -43 -46 -152q-45 -210 -50 -236l86 -20l-3 -21q-40 -33 -84 -33q-37 0 -57.5 17.5t-20.5 45.5zM335 263l33 134q-53 29 -103 29q-31 0 -55 -8q-40 -47 -62 -122.5t-21 -140.5
q0 -45 10.5 -72t29.5 -27q28 0 64 39t62 83.5t42 84.5z" />
    <glyph glyph-name="Acircumflexacute" unicode="&#x1ea4;" horiz-adv-x="675" 
d="M369 905l-8 28l124 57l60 60q19 -2 32 -13.5t13 -29.5q0 -42 -44.5 -59.5t-176.5 -42.5zM488 857l79 -135l-29 -19q-42 38 -92 88q-107 -78 -122 -88l-23 24l83 96t36 29t42 7q14 0 26 -2zM387 600l-161 -317h209zM470 52l-28 181h-241l-92 -181q51 -6 89 -18l-6 -34
h-220q2 23 18 35t60 18l311 613h40q39 0 53 -17t20 -57l82 -539q40 -9 51.5 -20.5t10.5 -32.5h-250l6 34q39 10 96 18z" />
    <glyph glyph-name="acircumflexacute" unicode="&#x1ea5;" horiz-adv-x="509" 
d="M293 731l-13 24q89 61 97 68q23 29 61 82q53 0 53 -45q0 -74 -198 -129zM385 711l56 -161l-30 -14l-72 108l-128 -110l-25 22q55 71 98 121q19 21 34.5 28.5t42.5 7.5q12 0 24 -2zM297 52q0 24 21 106l-4 2q-41 -82 -80 -126t-91 -44q-50 0 -76.5 42.5t-26.5 117.5
q0 81 26.5 154.5t81.5 123.5t127 50q65 0 102 -42q35 37 84 41l11 -26q-14 -43 -46 -152q-45 -210 -50 -236l86 -20l-3 -21q-40 -33 -84 -33q-37 0 -57.5 17.5t-20.5 45.5zM335 263l33 134q-53 29 -103 29q-31 0 -55 -8q-40 -47 -62 -122.5t-21 -140.5q0 -45 10.5 -72
t29.5 -27q28 0 64 39t62 83.5t42 84.5z" />
    <glyph glyph-name="Acircumflexgrave" unicode="&#x1ea6;" horiz-adv-x="675" 
d="M587 933l-8 -28q-121 23 -167.5 42t-46.5 58q0 19 13.5 31t31.5 14l60 -60zM463 859l79 -135l-29 -19q-42 38 -92 88q-107 -78 -122 -88l-23 24l83 96t36 29t42 7q14 0 26 -2zM387 600l-161 -317h209zM470 52l-28 181h-241l-92 -181q51 -6 89 -18l-6 -34h-220q2 23 18 35
t60 18l311 613h40q39 0 53 -17t20 -57l82 -539q40 -9 51.5 -20.5t10.5 -32.5h-250l6 34q39 10 96 18z" />
    <glyph glyph-name="acircumflexgrave" unicode="&#x1ea7;" horiz-adv-x="509" 
d="M445 743l-17 -24q-38 15 -64.5 27.5t-57.5 31t-47.5 40t-16.5 45.5q0 45 58 42q22 -40 52 -86q25 -22 93 -76zM385 711l56 -161l-30 -14l-72 108l-128 -110l-25 22q55 71 98 121q19 21 34.5 28.5t42.5 7.5q12 0 24 -2zM297 52q0 24 21 106l-4 2q-41 -82 -80 -126t-91 -44
q-50 0 -76.5 42.5t-26.5 117.5q0 81 26.5 154.5t81.5 123.5t127 50q65 0 102 -42q35 37 84 41l11 -26q-14 -43 -46 -152q-45 -210 -50 -236l86 -20l-3 -21q-40 -33 -84 -33q-37 0 -57.5 17.5t-20.5 45.5zM335 263l33 134q-53 29 -103 29q-31 0 -55 -8q-40 -47 -62 -122.5
t-21 -140.5q0 -45 10.5 -72t29.5 -27q28 0 64 39t62 83.5t42 84.5z" />
    <glyph glyph-name="Acircumflexhook" unicode="&#x1ea8;" horiz-adv-x="675" 
d="M481 915h-41q-4 14 -4 19q0 22 12.5 32.5t41.5 21.5q12 5 17.5 7.5t11.5 9.5t6 17q0 33 -57 33q-28 -18 -51 -57q-9 2 -15.5 12.5t-6.5 20.5q0 26 29.5 45t80.5 19q39 0 63 -16.5t24 -43.5q0 -50 -99 -72zM463 859l79 -135l-29 -19q-42 38 -92 88q-107 -78 -122 -88
l-23 24l83 96t36 29t42 7q14 0 26 -2zM387 600l-161 -317h209zM470 52l-28 181h-241l-92 -181q51 -6 89 -18l-6 -34h-220q2 23 18 35t60 18l311 613h40q39 0 53 -17t20 -57l82 -539q40 -9 51.5 -20.5t10.5 -32.5h-250l6 34q39 10 96 18z" />
    <glyph glyph-name="acircumflexhook" unicode="&#x1ea9;" horiz-adv-x="509" 
d="M369 735h-41q-4 14 -4 19q0 16 8.5 26.5t17 15t28.5 12.5q45 19 45 50q0 33 -57 33q-28 -18 -51 -57q-9 2 -15.5 12.5t-6.5 20.5q0 26 29.5 45t80.5 19q39 0 63 -16.5t24 -43.5q0 -66 -109 -88zM385 711l56 -161l-30 -14l-72 108l-128 -110l-25 22q55 71 98 121
q19 21 34.5 28.5t42.5 7.5q12 0 24 -2zM297 52q0 24 21 106l-4 2q-41 -82 -80 -126t-91 -44q-50 0 -76.5 42.5t-26.5 117.5q0 81 26.5 154.5t81.5 123.5t127 50q65 0 102 -42q35 37 84 41l11 -26q-14 -43 -46 -152q-45 -210 -50 -236l86 -20l-3 -21q-40 -33 -84 -33
q-37 0 -57.5 17.5t-20.5 45.5zM335 263l33 134q-53 29 -103 29q-31 0 -55 -8q-40 -47 -62 -122.5t-21 -140.5q0 -45 10.5 -72t29.5 -27q28 0 64 39t62 83.5t42 84.5z" />
    <glyph glyph-name="Acircumflextilde" unicode="&#x1eaa;" horiz-adv-x="675" 
d="M459 937l-63 27l-66 -50l-24 21q66 90 102 90q20 0 81 -26l64 -27l66 50l24 -21q-61 -89 -101 -89q-23 0 -83 25zM463 859l79 -135l-29 -19q-42 38 -92 88q-107 -78 -122 -88l-23 24l83 96t36 29t42 7q14 0 26 -2zM387 600l-161 -317h209zM470 52l-28 181h-241l-92 -181
q51 -6 89 -18l-6 -34h-220q2 23 18 35t60 18l311 613h40q39 0 53 -17t20 -57l82 -539q40 -9 51.5 -20.5t10.5 -32.5h-250l6 34q39 10 96 18z" />
    <glyph glyph-name="acircumlfextilde" unicode="&#x1eab;" horiz-adv-x="509" 
d="M335 767q-15 6 -34 16t-24 12l-64 -51l-23 19l30.5 42.5t31.5 32.5t36 17q18 0 78 -27q14 -6 32.5 -15t25.5 -12l64 51l23 -19q-62 -91 -99 -91q-21 0 -77 25zM385 711l56 -161l-30 -14l-72 108l-128 -110l-25 22q55 71 98 121q19 21 34.5 28.5t42.5 7.5q12 0 24 -2z
M297 52q0 24 21 106l-4 2q-41 -82 -80 -126t-91 -44q-50 0 -76.5 42.5t-26.5 117.5q0 81 26.5 154.5t81.5 123.5t127 50q65 0 102 -42q35 37 84 41l11 -26q-14 -43 -46 -152q-45 -210 -50 -236l86 -20l-3 -21q-40 -33 -84 -33q-37 0 -57.5 17.5t-20.5 45.5zM335 263l33 134
q-53 29 -103 29q-31 0 -55 -8q-40 -47 -62 -122.5t-21 -140.5q0 -45 10.5 -72t29.5 -27q28 0 64 39t62 83.5t42 84.5z" />
    <glyph glyph-name="Acircumflexdotaccent" unicode="&#x1eac;" horiz-adv-x="675" 
d="M463 859l79 -135l-29 -19q-42 38 -92 88q-107 -78 -122 -88l-23 24l83 96t36 29t42 7q14 0 26 -2zM387 600l-161 -317h209zM470 52l-28 181h-241l-92 -181q51 -6 89 -18l-6 -34h-220q2 23 18 35t60 18l311 613h40q39 0 53 -17t20 -57l82 -539q40 -9 51.5 -20.5
t10.5 -32.5h-250l6 34q39 10 96 18zM199 -121q0 22 16 38t38 16t37.5 -15.5t15.5 -38.5q0 -20 -15.5 -35.5t-37.5 -15.5t-38 15.5t-16 35.5z" />
    <glyph glyph-name="acircumflexdotaccent" unicode="&#x1ead;" horiz-adv-x="509" 
d="M385 711l56 -161l-30 -14l-72 108l-128 -110l-25 22q55 71 98 121q19 21 34.5 28.5t42.5 7.5q12 0 24 -2zM297 52q0 24 21 106l-4 2q-41 -82 -80 -126t-91 -44q-50 0 -76.5 42.5t-26.5 117.5q0 81 26.5 154.5t81.5 123.5t127 50q65 0 102 -42q35 37 84 41l11 -26
q-14 -43 -46 -152q-45 -210 -50 -236l86 -20l-3 -21q-40 -33 -84 -33q-37 0 -57.5 17.5t-20.5 45.5zM335 263l33 134q-53 29 -103 29q-31 0 -55 -8q-40 -47 -62 -122.5t-21 -140.5q0 -45 10.5 -72t29.5 -27q28 0 64 39t62 83.5t42 84.5zM104 -112q0 22 16 38t38 16
t37.5 -15.5t15.5 -38.5q0 -20 -15.5 -35.5t-37.5 -15.5t-38 15.5t-16 35.5z" />
    <glyph glyph-name="Abreveacute" unicode="&#x1eae;" horiz-adv-x="675" 
d="M365 883l-8 28l124 57l60 60q19 -2 32 -13.5t13 -29.5q0 -42 -44.5 -59.5t-176.5 -42.5zM428 708q-56 0 -85 22.5t-29 61.5q0 22 11 44h37q-4 -14 -4 -25q0 -45 73 -45q32 0 53 9q15 22 29 61h37q-3 -62 -35 -95t-87 -33zM387 600l-161 -317h209zM470 52l-28 181h-241
l-92 -181q51 -6 89 -18l-6 -34h-220q2 23 18 35t60 18l311 613h40q39 0 53 -17t20 -57l82 -539q40 -9 51.5 -20.5t10.5 -32.5h-250l6 34q39 10 96 18z" />
    <glyph glyph-name="abreveacute" unicode="&#x1eaf;" horiz-adv-x="509" 
d="M258 710l-13 24q89 61 97 68q23 29 61 82q53 0 53 -45q0 -74 -198 -129zM307 546q-55 0 -82 23t-27 63q0 23 12 47h37q-5 -20 -5 -30q0 -46 68 -46q28 0 45 6q20 30 32 70h37q-3 -63 -34 -98t-83 -35zM297 52q0 24 21 106l-4 2q-41 -82 -80 -126t-91 -44
q-50 0 -76.5 42.5t-26.5 117.5q0 81 26.5 154.5t81.5 123.5t127 50q65 0 102 -42q35 37 84 41l11 -26q-14 -43 -46 -152q-45 -210 -50 -236l86 -20l-3 -21q-40 -33 -84 -33q-37 0 -57.5 17.5t-20.5 45.5zM335 263l33 134q-53 29 -103 29q-31 0 -55 -8q-40 -47 -62 -122.5
t-21 -140.5q0 -45 10.5 -72t29.5 -27q28 0 64 39t62 83.5t42 84.5z" />
    <glyph glyph-name="Abrevegrave" unicode="&#x1eb0;" horiz-adv-x="675" 
d="M552 911l-8 -28q-121 23 -167.5 42t-46.5 58q0 19 13.5 31t31.5 14l60 -60zM428 708q-56 0 -85 22.5t-29 61.5q0 22 11 44h37q-4 -14 -4 -25q0 -45 73 -45q32 0 53 9q15 22 29 61h37q-3 -62 -35 -95t-87 -33zM387 600l-161 -317h209zM470 52l-28 181h-241l-92 -181
q51 -6 89 -18l-6 -34h-220q2 23 18 35t60 18l311 613h40q39 0 53 -17t20 -57l82 -539q40 -9 51.5 -20.5t10.5 -32.5h-250l6 34q39 10 96 18z" />
    <glyph glyph-name="abrevegrave" unicode="&#x1eb1;" horiz-adv-x="509" 
d="M451 722l-17 -24q-38 15 -64.5 27.5t-57.5 31t-47.5 40t-16.5 45.5q0 45 58 42q22 -40 52 -86q25 -22 93 -76zM307 546q-55 0 -82 23t-27 63q0 23 12 47h37q-5 -20 -5 -30q0 -46 68 -46q28 0 45 6q20 30 32 70h37q-3 -63 -34 -98t-83 -35zM297 52q0 24 21 106l-4 2
q-41 -82 -80 -126t-91 -44q-50 0 -76.5 42.5t-26.5 117.5q0 81 26.5 154.5t81.5 123.5t127 50q65 0 102 -42q35 37 84 41l11 -26q-14 -43 -46 -152q-45 -210 -50 -236l86 -20l-3 -21q-40 -33 -84 -33q-37 0 -57.5 17.5t-20.5 45.5zM335 263l33 134q-53 29 -103 29
q-31 0 -55 -8q-40 -47 -62 -122.5t-21 -140.5q0 -45 10.5 -72t29.5 -27q28 0 64 39t62 83.5t42 84.5z" />
    <glyph glyph-name="Abrevehook" unicode="&#x1eb2;" horiz-adv-x="675" 
d="M466 893h-41q-4 14 -4 19q0 22 12.5 32.5t41.5 21.5q12 5 17.5 7.5t11.5 9.5t6 17q0 33 -57 33q-28 -18 -51 -57q-9 2 -15.5 12.5t-6.5 20.5q0 26 29.5 45t80.5 19q39 0 63 -16.5t24 -43.5q0 -50 -99 -72zM428 708q-56 0 -85 22.5t-29 61.5q0 22 11 44h37q-4 -14 -4 -25
q0 -45 73 -45q32 0 53 9q15 22 29 61h37q-3 -62 -35 -95t-87 -33zM387 600l-161 -317h209zM470 52l-28 181h-241l-92 -181q51 -6 89 -18l-6 -34h-220q2 23 18 35t60 18l311 613h40q39 0 53 -17t20 -57l82 -539q40 -9 51.5 -20.5t10.5 -32.5h-250l6 34q39 10 96 18z" />
    <glyph glyph-name="abrevehook" unicode="&#x1eb3;" horiz-adv-x="509" 
d="M344 714h-41q-4 14 -4 19q0 16 8.5 26.5t17 15t28.5 12.5q45 19 45 50q0 33 -57 33q-28 -18 -51 -57q-9 2 -15.5 12.5t-6.5 20.5q0 26 29.5 45t80.5 19q39 0 63 -16.5t24 -43.5q0 -66 -109 -88zM307 546q-55 0 -82 23t-27 63q0 23 12 47h37q-5 -20 -5 -30q0 -46 68 -46
q28 0 45 6q20 30 32 70h37q-3 -63 -34 -98t-83 -35zM297 52q0 24 21 106l-4 2q-41 -82 -80 -126t-91 -44q-50 0 -76.5 42.5t-26.5 117.5q0 81 26.5 154.5t81.5 123.5t127 50q65 0 102 -42q35 37 84 41l11 -26q-14 -43 -46 -152q-45 -210 -50 -236l86 -20l-3 -21
q-40 -33 -84 -33q-37 0 -57.5 17.5t-20.5 45.5zM335 263l33 134q-53 29 -103 29q-31 0 -55 -8q-40 -47 -62 -122.5t-21 -140.5q0 -45 10.5 -72t29.5 -27q28 0 64 39t62 83.5t42 84.5z" />
    <glyph glyph-name="Abrevetilde" unicode="&#x1eb4;" horiz-adv-x="675" 
d="M454 915l-63 27l-66 -50l-24 21q66 90 102 90q20 0 81 -26l64 -27l66 50l24 -21q-61 -89 -101 -89q-23 0 -83 25zM428 708q-56 0 -85 22.5t-29 61.5q0 22 11 44h37q-4 -14 -4 -25q0 -45 73 -45q32 0 53 9q15 22 29 61h37q-3 -62 -35 -95t-87 -33zM387 600l-161 -317h209z
M470 52l-28 181h-241l-92 -181q51 -6 89 -18l-6 -34h-220q2 23 18 35t60 18l311 613h40q39 0 53 -17t20 -57l82 -539q40 -9 51.5 -20.5t10.5 -32.5h-250l6 34q39 10 96 18z" />
    <glyph glyph-name="abrevetilde" unicode="&#x1eb5;" horiz-adv-x="509" 
d="M331 746q-15 6 -34 16t-24 12l-64 -51l-23 19l30.5 42.5t31.5 32.5t36 17q18 0 78 -27q14 -6 32.5 -15t25.5 -12l64 51l23 -19q-62 -91 -99 -91q-21 0 -77 25zM307 546q-55 0 -82 23t-27 63q0 23 12 47h37q-5 -20 -5 -30q0 -46 68 -46q28 0 45 6q20 30 32 70h37
q-3 -63 -34 -98t-83 -35zM297 52q0 24 21 106l-4 2q-41 -82 -80 -126t-91 -44q-50 0 -76.5 42.5t-26.5 117.5q0 81 26.5 154.5t81.5 123.5t127 50q65 0 102 -42q35 37 84 41l11 -26q-14 -43 -46 -152q-45 -210 -50 -236l86 -20l-3 -21q-40 -33 -84 -33q-37 0 -57.5 17.5
t-20.5 45.5zM335 263l33 134q-53 29 -103 29q-31 0 -55 -8q-40 -47 -62 -122.5t-21 -140.5q0 -45 10.5 -72t29.5 -27q28 0 64 39t62 83.5t42 84.5z" />
    <glyph glyph-name="Abrevedotaccent" unicode="&#x1eb6;" horiz-adv-x="675" 
d="M428 708q-56 0 -85 22.5t-29 61.5q0 22 11 44h37q-4 -14 -4 -25q0 -45 73 -45q32 0 53 9q15 22 29 61h37q-3 -62 -35 -95t-87 -33zM387 600l-161 -317h209zM470 52l-28 181h-241l-92 -181q51 -6 89 -18l-6 -34h-220q2 23 18 35t60 18l311 613h40q39 0 53 -17t20 -57
l82 -539q40 -9 51.5 -20.5t10.5 -32.5h-250l6 34q39 10 96 18zM199 -121q0 22 16 38t38 16t37.5 -15.5t15.5 -38.5q0 -20 -15.5 -35.5t-37.5 -15.5t-38 15.5t-16 35.5z" />
    <glyph glyph-name="abrevedotaccent" unicode="&#x1eb7;" horiz-adv-x="509" 
d="M307 546q-55 0 -82 23t-27 63q0 23 12 47h37q-5 -20 -5 -30q0 -46 68 -46q28 0 45 6q20 30 32 70h37q-3 -63 -34 -98t-83 -35zM297 52q0 24 21 106l-4 2q-41 -82 -80 -126t-91 -44q-50 0 -76.5 42.5t-26.5 117.5q0 81 26.5 154.5t81.5 123.5t127 50q65 0 102 -42
q35 37 84 41l11 -26q-14 -43 -46 -152q-45 -210 -50 -236l86 -20l-3 -21q-40 -33 -84 -33q-37 0 -57.5 17.5t-20.5 45.5zM335 263l33 134q-53 29 -103 29q-31 0 -55 -8q-40 -47 -62 -122.5t-21 -140.5q0 -45 10.5 -72t29.5 -27q28 0 64 39t62 83.5t42 84.5zM124 -112
q0 22 16 38t38 16t37.5 -15.5t15.5 -38.5q0 -20 -15.5 -35.5t-37.5 -15.5t-38 15.5t-16 35.5z" />
    <glyph glyph-name="Edotaccentbelow" unicode="&#x1eb8;" horiz-adv-x="552" 
d="M108 658h464q18 -46 -45 -153h-29q-6 58 -6 103h-219l-42 -231h215l-6 -32q-24 -26 -61 -26h-159l-49 -265h227q16 40 50 105h30q14 -94 -16 -159h-470q2 25 20.5 36.5t72.5 18.5l101 548q-49 9 -64 19t-14 36zM158 -121q0 22 16 38t38 16t37.5 -15.5t15.5 -38.5
q0 -20 -15.5 -35.5t-37.5 -15.5t-38 15.5t-16 35.5z" />
    <glyph glyph-name="edotaccentbelow" unicode="&#x1eb9;" horiz-adv-x="413" 
d="M139 271q120 -1 164 28q17 32 17 70q0 40 -29 52t-72 3q-26 -24 -50 -70t-30 -83zM324 128q17 -13 23 -28q-34 -45 -80 -78t-94 -33q-135 0 -135 166q0 77 27.5 149t86.5 123t135 51q53 0 82 -26.5t29 -70.5q0 -80 -69.5 -117.5t-199.5 -28.5q-6 -40 -6.5 -80t18 -70
t53.5 -30q8 0 16 1t16 4l13.5 5t14.5 8t13 8t14.5 10.5t13 11t15 13t14.5 12.5zM114 -112q0 22 16 38t38 16t37.5 -15.5t15.5 -38.5q0 -20 -15.5 -35.5t-37.5 -15.5t-38 15.5t-16 35.5z" />
    <glyph glyph-name="Ehook" unicode="&#x1eba;" horiz-adv-x="552" 
d="M399 725h-41q-4 14 -4 19q0 22 12.5 32.5t41.5 21.5q12 5 17.5 7.5t11.5 9.5t6 17q0 33 -57 33q-28 -18 -51 -57q-9 2 -15.5 12.5t-6.5 20.5q0 26 29.5 45t80.5 19q39 0 63 -16.5t24 -43.5q0 -50 -99 -72zM108 658h464q18 -46 -45 -153h-29q-6 58 -6 103h-219l-42 -231
h215l-6 -32q-24 -26 -61 -26h-159l-49 -265h227q16 40 50 105h30q14 -94 -16 -159h-470q2 25 20.5 36.5t72.5 18.5l101 548q-49 9 -64 19t-14 36z" />
    <glyph glyph-name="ehook" unicode="&#x1ebb;" horiz-adv-x="413" 
d="M309 547h-41q-4 14 -4 19q0 16 8.5 26.5t17 15t28.5 12.5q45 19 45 50q0 33 -57 33q-28 -18 -51 -57q-9 2 -15.5 12.5t-6.5 20.5q0 26 29.5 45t80.5 19q39 0 63 -16.5t24 -43.5q0 -66 -109 -88zM139 271q120 -1 164 28q17 32 17 70q0 40 -29 52t-72 3q-26 -24 -50 -70
t-30 -83zM324 128q17 -13 23 -28q-34 -45 -80 -78t-94 -33q-135 0 -135 166q0 77 27.5 149t86.5 123t135 51q53 0 82 -26.5t29 -70.5q0 -80 -69.5 -117.5t-199.5 -28.5q-6 -40 -6.5 -80t18 -70t53.5 -30q8 0 16 1t16 4l13.5 5t14.5 8t13 8t14.5 10.5t13 11t15 13t14.5 12.5z
" />
    <glyph glyph-name="Etilde" unicode="&#x1ebc;" horiz-adv-x="552" 
d="M377 747l-63 27l-66 -50l-24 21q66 90 102 90q20 0 81 -26l64 -27l66 50l24 -21q-61 -89 -101 -89q-23 0 -83 25zM108 658h464q18 -46 -45 -153h-29q-6 58 -6 103h-219l-42 -231h215l-6 -32q-24 -26 -61 -26h-159l-49 -265h227q16 40 50 105h30q14 -94 -16 -159h-470
q2 25 20.5 36.5t72.5 18.5l101 548q-49 9 -64 19t-14 36z" />
    <glyph glyph-name="etilde" unicode="&#x1ebd;" horiz-adv-x="413" 
d="M296 579q-15 6 -34 16t-24 12l-64 -51l-23 19l30.5 42.5t31.5 32.5t36 17q18 0 78 -27q14 -6 32.5 -15t25.5 -12l64 51l23 -19q-62 -91 -99 -91q-21 0 -77 25zM139 271q120 -1 164 28q17 32 17 70q0 40 -29 52t-72 3q-26 -24 -50 -70t-30 -83zM324 128q17 -13 23 -28
q-34 -45 -80 -78t-94 -33q-135 0 -135 166q0 77 27.5 149t86.5 123t135 51q53 0 82 -26.5t29 -70.5q0 -80 -69.5 -117.5t-199.5 -28.5q-6 -40 -6.5 -80t18 -70t53.5 -30q8 0 16 1t16 4l13.5 5t14.5 8t13 8t14.5 10.5t13 11t15 13t14.5 12.5z" />
    <glyph glyph-name="Ecircumflexacute" unicode="&#x1ebe;" horiz-adv-x="552" 
d="M339 909l-8 28l124 57l60 60q19 -2 32 -13.5t13 -29.5q0 -42 -44.5 -59.5t-176.5 -42.5zM422 861l79 -135l-29 -19q-42 38 -92 88q-107 -78 -122 -88l-23 24l83 96t36 29t42 7q14 0 26 -2zM108 658h464q18 -46 -45 -153h-29q-6 58 -6 103h-219l-42 -231h215l-6 -32
q-24 -26 -61 -26h-159l-49 -265h227q16 40 50 105h30q14 -94 -16 -159h-470q2 25 20.5 36.5t72.5 18.5l101 548q-49 9 -64 19t-14 36z" />
    <glyph glyph-name="ecircumflexacute" unicode="&#x1ebf;" horiz-adv-x="413" 
d="M243 731l-13 24q89 61 97 68q23 29 61 82q53 0 53 -45q0 -74 -198 -129zM365 711l56 -161l-30 -14l-72 108l-128 -110l-25 22q55 71 98 121q19 21 34.5 28.5t42.5 7.5q12 0 24 -2zM139 271q120 -1 164 28q17 32 17 70q0 40 -29 52t-72 3q-26 -24 -50 -70t-30 -83z
M324 128q17 -13 23 -28q-34 -45 -80 -78t-94 -33q-135 0 -135 166q0 77 27.5 149t86.5 123t135 51q53 0 82 -26.5t29 -70.5q0 -80 -69.5 -117.5t-199.5 -28.5q-6 -40 -6.5 -80t18 -70t53.5 -30q8 0 16 1t16 4l13.5 5t14.5 8t13 8t14.5 10.5t13 11t15 13t14.5 12.5z" />
    <glyph glyph-name="Ecircumflexgrave" unicode="&#x1ec0;" horiz-adv-x="552" 
d="M496 937l-8 -28q-121 23 -167.5 42t-46.5 58q0 19 13.5 31t31.5 14l60 -60zM422 861l79 -135l-29 -19q-42 38 -92 88q-107 -78 -122 -88l-23 24l83 96t36 29t42 7q14 0 26 -2zM108 658h464q18 -46 -45 -153h-29q-6 58 -6 103h-219l-42 -231h215l-6 -32q-24 -26 -61 -26
h-159l-49 -265h227q16 40 50 105h30q14 -94 -16 -159h-470q2 25 20.5 36.5t72.5 18.5l101 548q-49 9 -64 19t-14 36z" />
    <glyph glyph-name="ecircumflexgrave" unicode="&#x1ec1;" horiz-adv-x="413" 
d="M475 743l-17 -24q-38 15 -64.5 27.5t-57.5 31t-47.5 40t-16.5 45.5q0 45 58 42q22 -40 52 -86q25 -22 93 -76zM365 711l56 -161l-30 -14l-72 108l-128 -110l-25 22q55 71 98 121q19 21 34.5 28.5t42.5 7.5q12 0 24 -2zM139 271q120 -1 164 28q17 32 17 70q0 40 -29 52
t-72 3q-26 -24 -50 -70t-30 -83zM324 128q17 -13 23 -28q-34 -45 -80 -78t-94 -33q-135 0 -135 166q0 77 27.5 149t86.5 123t135 51q53 0 82 -26.5t29 -70.5q0 -80 -69.5 -117.5t-199.5 -28.5q-6 -40 -6.5 -80t18 -70t53.5 -30q8 0 16 1t16 4l13.5 5t14.5 8t13 8t14.5 10.5
t13 11t15 13t14.5 12.5z" />
    <glyph glyph-name="Ecircumflexhook" unicode="&#x1ec2;" horiz-adv-x="552" 
d="M430 919h-41q-4 14 -4 19q0 22 12.5 32.5t41.5 21.5q12 5 17.5 7.5t11.5 9.5t6 17q0 33 -57 33q-28 -18 -51 -57q-9 2 -15.5 12.5t-6.5 20.5q0 26 29.5 45t80.5 19q39 0 63 -16.5t24 -43.5q0 -50 -99 -72zM422 861l79 -135l-29 -19q-42 38 -92 88q-107 -78 -122 -88
l-23 24l83 96t36 29t42 7q14 0 26 -2zM108 658h464q18 -46 -45 -153h-29q-6 58 -6 103h-219l-42 -231h215l-6 -32q-24 -26 -61 -26h-159l-49 -265h227q16 40 50 105h30q14 -94 -16 -159h-470q2 25 20.5 36.5t72.5 18.5l101 548q-49 9 -64 19t-14 36z" />
    <glyph glyph-name="ecircumflexhook" unicode="&#x1ec3;" horiz-adv-x="413" 
d="M349 735h-41q-4 14 -4 19q0 16 8.5 26.5t17 15t28.5 12.5q45 19 45 50q0 33 -57 33q-28 -18 -51 -57q-9 2 -15.5 12.5t-6.5 20.5q0 26 29.5 45t80.5 19q39 0 63 -16.5t24 -43.5q0 -66 -109 -88zM365 711l56 -161l-30 -14l-72 108l-128 -110l-25 22q55 71 98 121
q19 21 34.5 28.5t42.5 7.5q12 0 24 -2zM139 271q120 -1 164 28q17 32 17 70q0 40 -29 52t-72 3q-26 -24 -50 -70t-30 -83zM324 128q17 -13 23 -28q-34 -45 -80 -78t-94 -33q-135 0 -135 166q0 77 27.5 149t86.5 123t135 51q53 0 82 -26.5t29 -70.5q0 -80 -69.5 -117.5
t-199.5 -28.5q-6 -40 -6.5 -80t18 -70t53.5 -30q8 0 16 1t16 4l13.5 5t14.5 8t13 8t14.5 10.5t13 11t15 13t14.5 12.5z" />
    <glyph glyph-name="Ecircumflextilde" unicode="&#x1ec4;" horiz-adv-x="552" 
d="M411 941l-63 27l-66 -50l-24 21q66 90 102 90q20 0 81 -26l64 -27l66 50l24 -21q-61 -89 -101 -89q-23 0 -83 25zM422 861l79 -135l-29 -19q-42 38 -92 88q-107 -78 -122 -88l-23 24l83 96t36 29t42 7q14 0 26 -2zM108 658h464q18 -46 -45 -153h-29q-6 58 -6 103h-219
l-42 -231h215l-6 -32q-24 -26 -61 -26h-159l-49 -265h227q16 40 50 105h30q14 -94 -16 -159h-470q2 25 20.5 36.5t72.5 18.5l101 548q-49 9 -64 19t-14 36z" />
    <glyph glyph-name="ecircumflextilde" unicode="&#x1ec5;" horiz-adv-x="413" 
d="M356 767q-15 6 -34 16t-24 12l-64 -51l-23 19l30.5 42.5t31.5 32.5t36 17q18 0 78 -27q14 -6 32.5 -15t25.5 -12l64 51l23 -19q-62 -91 -99 -91q-21 0 -77 25zM365 711l56 -161l-30 -14l-72 108l-128 -110l-25 22q55 71 98 121q19 21 34.5 28.5t42.5 7.5q12 0 24 -2z
M139 271q120 -1 164 28q17 32 17 70q0 40 -29 52t-72 3q-26 -24 -50 -70t-30 -83zM324 128q17 -13 23 -28q-34 -45 -80 -78t-94 -33q-135 0 -135 166q0 77 27.5 149t86.5 123t135 51q53 0 82 -26.5t29 -70.5q0 -80 -69.5 -117.5t-199.5 -28.5q-6 -40 -6.5 -80t18 -70
t53.5 -30q8 0 16 1t16 4l13.5 5t14.5 8t13 8t14.5 10.5t13 11t15 13t14.5 12.5z" />
    <glyph glyph-name="Ecircumflexdotaccent" unicode="&#x1ec6;" horiz-adv-x="552" 
d="M422 861l79 -135l-29 -19q-42 38 -92 88q-107 -78 -122 -88l-23 24l83 96t36 29t42 7q14 0 26 -2zM108 658h464q18 -46 -45 -153h-29q-6 58 -6 103h-219l-42 -231h215l-6 -32q-24 -26 -61 -26h-159l-49 -265h227q16 40 50 105h30q14 -94 -16 -159h-470q2 25 20.5 36.5
t72.5 18.5l101 548q-49 9 -64 19t-14 36zM158 -121q0 22 16 38t38 16t37.5 -15.5t15.5 -38.5q0 -20 -15.5 -35.5t-37.5 -15.5t-38 15.5t-16 35.5z" />
    <glyph glyph-name="ecircumflexdotaccent" unicode="&#x1ec7;" horiz-adv-x="413" 
d="M365 711l56 -161l-30 -14l-72 108l-128 -110l-25 22q55 71 98 121q19 21 34.5 28.5t42.5 7.5q12 0 24 -2zM139 271q120 -1 164 28q17 32 17 70q0 40 -29 52t-72 3q-26 -24 -50 -70t-30 -83zM324 128q17 -13 23 -28q-34 -45 -80 -78t-94 -33q-135 0 -135 166
q0 77 27.5 149t86.5 123t135 51q53 0 82 -26.5t29 -70.5q0 -80 -69.5 -117.5t-199.5 -28.5q-6 -40 -6.5 -80t18 -70t53.5 -30q8 0 16 1t16 4l13.5 5t14.5 8t13 8t14.5 10.5t13 11t15 13t14.5 12.5zM124 -112q0 22 16 38t38 16t37.5 -15.5t15.5 -38.5q0 -20 -15.5 -35.5
t-37.5 -15.5t-38 15.5t-16 35.5z" />
    <glyph glyph-name="Ihook" unicode="&#x1ec8;" horiz-adv-x="338" 
d="M287 725h-41q-4 14 -4 19q0 22 12.5 32.5t41.5 21.5q12 5 17.5 7.5t11.5 9.5t6 17q0 33 -57 33q-28 -18 -51 -57q-9 2 -15.5 12.5t-6.5 20.5q0 26 29.5 45t80.5 19q39 0 63 -16.5t24 -43.5q0 -50 -99 -72zM89 55l101 548q-53 9 -68 20t-14 35h269l-6 -34q-23 -8 -95 -20
l-101 -550q54 -10 87 -20l-6 -34h-264q2 25 21 36.5t76 18.5z" />
    <glyph glyph-name="ihook" unicode="&#x1ec9;" horiz-adv-x="272" 
d="M194 547h-41q-4 14 -4 19q0 16 8.5 26.5t17 15t28.5 12.5q45 19 45 50q0 33 -57 33q-28 -18 -51 -57q-9 2 -15.5 12.5t-6.5 20.5q0 26 29.5 45t80.5 19q39 0 63 -16.5t24 -43.5q0 -66 -109 -88zM53 52q0 9 2 21t8 39t14 59.5l23.5 100l32.5 142.5l-76 17l3 21
q52 26 93 26q33 0 48 -15.5t15 -38.5q0 -30 -40 -190l-43 -171l85 -20l-3 -21q-40 -33 -84 -33q-37 0 -57.5 17.5t-20.5 45.5z" />
    <glyph glyph-name="Idotaccentbelow" unicode="&#x1eca;" horiz-adv-x="338" 
d="M89 55l101 548q-53 9 -68 20t-14 35h269l-6 -34q-23 -8 -95 -20l-101 -550q54 -10 87 -20l-6 -34h-264q2 25 21 36.5t76 18.5zM46 -121q0 22 16 38t38 16t37.5 -15.5t15.5 -38.5q0 -20 -15.5 -35.5t-37.5 -15.5t-38 15.5t-16 35.5z" />
    <glyph glyph-name="idotaccentbelow" unicode="&#x1ecb;" horiz-adv-x="272" 
d="M152 630q0 22 16 38.5t39 16.5t39 -16.5t16 -38.5t-16 -38.5t-39 -16.5t-39 16.5t-16 38.5zM53 52q0 9 2 21t8 39t14 59.5l23.5 100l32.5 142.5l-76 17l3 21q52 26 93 26q33 0 48 -15.5t15 -38.5q0 -30 -40 -190l-43 -171l85 -20l-3 -21q-40 -33 -84 -33
q-37 0 -57.5 17.5t-20.5 45.5zM29 -112q0 22 16 38t38 16t37.5 -15.5t15.5 -38.5q0 -20 -15.5 -35.5t-37.5 -15.5t-38 15.5t-16 35.5z" />
    <glyph glyph-name="Odotaccent" unicode="&#x1ecc;" horiz-adv-x="729" 
d="M350 -12q-144 0 -210.5 75.5t-66.5 198.5q0 103 40.5 195t120 152t181.5 60q140 0 210.5 -70.5t70.5 -198.5q0 -68 -23 -139t-64.5 -133t-109.5 -101t-149 -39zM403 616q-56 0 -98 -12q-65 -61 -100 -150.5t-35 -184.5q0 -101 45.5 -164t142.5 -63q67 0 127 26
q50 59 82 146t32 179q0 101 -46 162t-150 61zM253 -133q0 22 16 38t38 16t37.5 -15.5t15.5 -38.5q0 -20 -15.5 -35.5t-37.5 -15.5t-38 15.5t-16 35.5z" />
    <glyph glyph-name="odotaccent" unicode="&#x1ecd;" horiz-adv-x="476" 
d="M286 478q152 0 152 -174q0 -56 -15 -110.5t-44 -101t-77 -75t-107 -28.5q-74 0 -115.5 48.5t-41.5 132.5q0 77 27.5 146t85.5 115.5t135 46.5zM212 41q37 0 66 11q37 52 56 120.5t19 133.5q0 123 -89 123q-34 0 -55 -8q-39 -40 -61.5 -110.5t-22.5 -143.5
q0 -55 20.5 -90.5t66.5 -35.5zM111 -112q0 22 16 38t38 16t37.5 -15.5t15.5 -38.5q0 -20 -15.5 -35.5t-37.5 -15.5t-38 15.5t-16 35.5z" />
    <glyph glyph-name="Ohook" unicode="&#x1ece;" horiz-adv-x="729" 
d="M467 725h-41q-4 14 -4 19q0 22 12.5 32.5t41.5 21.5q12 5 17.5 7.5t11.5 9.5t6 17q0 33 -57 33q-28 -18 -51 -57q-9 2 -15.5 12.5t-6.5 20.5q0 26 29.5 45t80.5 19q39 0 63 -16.5t24 -43.5q0 -50 -99 -72zM350 -12q-144 0 -210.5 75.5t-66.5 198.5q0 103 40.5 195
t120 152t181.5 60q140 0 210.5 -70.5t70.5 -198.5q0 -68 -23 -139t-64.5 -133t-109.5 -101t-149 -39zM403 616q-56 0 -98 -12q-65 -61 -100 -150.5t-35 -184.5q0 -101 45.5 -164t142.5 -63q67 0 127 26q50 59 82 146t32 179q0 101 -46 162t-150 61z" />
    <glyph glyph-name="ohook" unicode="&#x1ecf;" horiz-adv-x="476" 
d="M316 547h-41q-4 14 -4 19q0 16 8.5 26.5t17 15t28.5 12.5q45 19 45 50q0 33 -57 33q-28 -18 -51 -57q-9 2 -15.5 12.5t-6.5 20.5q0 26 29.5 45t80.5 19q39 0 63 -16.5t24 -43.5q0 -66 -109 -88zM286 478q152 0 152 -174q0 -56 -15 -110.5t-44 -101t-77 -75t-107 -28.5
q-74 0 -115.5 48.5t-41.5 132.5q0 77 27.5 146t85.5 115.5t135 46.5zM212 41q37 0 66 11q37 52 56 120.5t19 133.5q0 123 -89 123q-34 0 -55 -8q-39 -40 -61.5 -110.5t-22.5 -143.5q0 -55 20.5 -90.5t66.5 -35.5z" />
    <glyph glyph-name="Ocircumflexacute" unicode="&#x1ed0;" horiz-adv-x="729" 
d="M417 909l-8 28l124 57l60 60q19 -2 32 -13.5t13 -29.5q0 -42 -44.5 -59.5t-176.5 -42.5zM490 861l79 -135l-29 -19q-42 38 -92 88q-107 -78 -122 -88l-23 24l83 96t36 29t42 7q14 0 26 -2zM350 -12q-144 0 -210.5 75.5t-66.5 198.5q0 103 40.5 195t120 152t181.5 60
q140 0 210.5 -70.5t70.5 -198.5q0 -68 -23 -139t-64.5 -133t-109.5 -101t-149 -39zM403 616q-56 0 -98 -12q-65 -61 -100 -150.5t-35 -184.5q0 -101 45.5 -164t142.5 -63q67 0 127 26q50 59 82 146t32 179q0 101 -46 162t-150 61z" />
    <glyph glyph-name="ocircumflexacute" unicode="&#x1ed1;" horiz-adv-x="476" 
d="M270 731l-13 24q89 61 97 68q23 29 61 82q53 0 53 -45q0 -74 -198 -129zM362 711l56 -161l-30 -14l-72 108l-128 -110l-25 22q55 71 98 121q19 21 34.5 28.5t42.5 7.5q12 0 24 -2zM286 478q152 0 152 -174q0 -56 -15 -110.5t-44 -101t-77 -75t-107 -28.5
q-74 0 -115.5 48.5t-41.5 132.5q0 77 27.5 146t85.5 115.5t135 46.5zM212 41q37 0 66 11q37 52 56 120.5t19 133.5q0 123 -89 123q-34 0 -55 -8q-39 -40 -61.5 -110.5t-22.5 -143.5q0 -55 20.5 -90.5t66.5 -35.5z" />
    <glyph glyph-name="Ocircumflexgrave" unicode="&#x1ed2;" horiz-adv-x="729" 
d="M534 937l-8 -28q-121 23 -167.5 42t-46.5 58q0 19 13.5 31t31.5 14l60 -60zM490 861l79 -135l-29 -19q-42 38 -92 88q-107 -78 -122 -88l-23 24l83 96t36 29t42 7q14 0 26 -2zM350 -12q-144 0 -210.5 75.5t-66.5 198.5q0 103 40.5 195t120 152t181.5 60
q140 0 210.5 -70.5t70.5 -198.5q0 -68 -23 -139t-64.5 -133t-109.5 -101t-149 -39zM403 616q-56 0 -98 -12q-65 -61 -100 -150.5t-35 -184.5q0 -101 45.5 -164t142.5 -63q67 0 127 26q50 59 82 146t32 179q0 101 -46 162t-150 61z" />
    <glyph glyph-name="ocircumflexgrave" unicode="&#x1ed3;" horiz-adv-x="476" 
d="M462 743l-17 -24q-38 15 -64.5 27.5t-57.5 31t-47.5 40t-16.5 45.5q0 45 58 42q22 -40 52 -86q25 -22 93 -76zM362 711l56 -161l-30 -14l-72 108l-128 -110l-25 22q55 71 98 121q19 21 34.5 28.5t42.5 7.5q12 0 24 -2zM286 478q152 0 152 -174q0 -56 -15 -110.5t-44 -101
t-77 -75t-107 -28.5q-74 0 -115.5 48.5t-41.5 132.5q0 77 27.5 146t85.5 115.5t135 46.5zM212 41q37 0 66 11q37 52 56 120.5t19 133.5q0 123 -89 123q-34 0 -55 -8q-39 -40 -61.5 -110.5t-22.5 -143.5q0 -55 20.5 -90.5t66.5 -35.5z" />
    <glyph glyph-name="Ocircumflexhook" unicode="&#x1ed4;" horiz-adv-x="729" 
d="M488 919h-41q-4 14 -4 19q0 22 12.5 32.5t41.5 21.5q12 5 17.5 7.5t11.5 9.5t6 17q0 33 -57 33q-28 -18 -51 -57q-9 2 -15.5 12.5t-6.5 20.5q0 26 29.5 45t80.5 19q39 0 63 -16.5t24 -43.5q0 -50 -99 -72zM490 861l79 -135l-29 -19q-42 38 -92 88q-107 -78 -122 -88
l-23 24l83 96t36 29t42 7q14 0 26 -2zM350 -12q-144 0 -210.5 75.5t-66.5 198.5q0 103 40.5 195t120 152t181.5 60q140 0 210.5 -70.5t70.5 -198.5q0 -68 -23 -139t-64.5 -133t-109.5 -101t-149 -39zM403 616q-56 0 -98 -12q-65 -61 -100 -150.5t-35 -184.5
q0 -101 45.5 -164t142.5 -63q67 0 127 26q50 59 82 146t32 179q0 101 -46 162t-150 61z" />
    <glyph glyph-name="ocircumflexhook" unicode="&#x1ed5;" horiz-adv-x="476" 
d="M356 735h-41q-4 14 -4 19q0 16 8.5 26.5t17 15t28.5 12.5q45 19 45 50q0 33 -57 33q-28 -18 -51 -57q-9 2 -15.5 12.5t-6.5 20.5q0 26 29.5 45t80.5 19q39 0 63 -16.5t24 -43.5q0 -66 -109 -88zM362 711l56 -161l-30 -14l-72 108l-128 -110l-25 22q55 71 98 121
q19 21 34.5 28.5t42.5 7.5q12 0 24 -2zM286 478q152 0 152 -174q0 -56 -15 -110.5t-44 -101t-77 -75t-107 -28.5q-74 0 -115.5 48.5t-41.5 132.5q0 77 27.5 146t85.5 115.5t135 46.5zM212 41q37 0 66 11q37 52 56 120.5t19 133.5q0 123 -89 123q-34 0 -55 -8
q-39 -40 -61.5 -110.5t-22.5 -143.5q0 -55 20.5 -90.5t66.5 -35.5z" />
    <glyph glyph-name="Ocircumflextilde" unicode="&#x1ed6;" horiz-adv-x="729" 
d="M466 941l-63 27l-66 -50l-24 21q66 90 102 90q20 0 81 -26l64 -27l66 50l24 -21q-61 -89 -101 -89q-23 0 -83 25zM490 861l79 -135l-29 -19q-42 38 -92 88q-107 -78 -122 -88l-23 24l83 96t36 29t42 7q14 0 26 -2zM350 -12q-144 0 -210.5 75.5t-66.5 198.5
q0 103 40.5 195t120 152t181.5 60q140 0 210.5 -70.5t70.5 -198.5q0 -68 -23 -139t-64.5 -133t-109.5 -101t-149 -39zM403 616q-56 0 -98 -12q-65 -61 -100 -150.5t-35 -184.5q0 -101 45.5 -164t142.5 -63q67 0 127 26q50 59 82 146t32 179q0 101 -46 162t-150 61z" />
    <glyph glyph-name="ocircumflextilde" unicode="&#x1ed7;" horiz-adv-x="476" 
d="M343 767q-15 6 -34 16t-24 12l-64 -51l-23 19l30.5 42.5t31.5 32.5t36 17q18 0 78 -27q14 -6 32.5 -15t25.5 -12l64 51l23 -19q-62 -91 -99 -91q-21 0 -77 25zM362 711l56 -161l-30 -14l-72 108l-128 -110l-25 22q55 71 98 121q19 21 34.5 28.5t42.5 7.5q12 0 24 -2z
M286 478q152 0 152 -174q0 -56 -15 -110.5t-44 -101t-77 -75t-107 -28.5q-74 0 -115.5 48.5t-41.5 132.5q0 77 27.5 146t85.5 115.5t135 46.5zM212 41q37 0 66 11q37 52 56 120.5t19 133.5q0 123 -89 123q-34 0 -55 -8q-39 -40 -61.5 -110.5t-22.5 -143.5q0 -55 20.5 -90.5
t66.5 -35.5z" />
    <glyph glyph-name="Ocircumflexdotaccent" unicode="&#x1ed8;" horiz-adv-x="729" 
d="M490 861l79 -135l-29 -19q-42 38 -92 88q-107 -78 -122 -88l-23 24l83 96t36 29t42 7q14 0 26 -2zM350 -12q-144 0 -210.5 75.5t-66.5 198.5q0 103 40.5 195t120 152t181.5 60q140 0 210.5 -70.5t70.5 -198.5q0 -68 -23 -139t-64.5 -133t-109.5 -101t-149 -39zM403 616
q-56 0 -98 -12q-65 -61 -100 -150.5t-35 -184.5q0 -101 45.5 -164t142.5 -63q67 0 127 26q50 59 82 146t32 179q0 101 -46 162t-150 61zM253 -133q0 22 16 38t38 16t37.5 -15.5t15.5 -38.5q0 -20 -15.5 -35.5t-37.5 -15.5t-38 15.5t-16 35.5z" />
    <glyph glyph-name="ocircumlfexdotaccent" unicode="&#x1ed9;" horiz-adv-x="476" 
d="M362 711l56 -161l-30 -14l-72 108l-128 -110l-25 22q55 71 98 121q19 21 34.5 28.5t42.5 7.5q12 0 24 -2zM286 478q152 0 152 -174q0 -56 -15 -110.5t-44 -101t-77 -75t-107 -28.5q-74 0 -115.5 48.5t-41.5 132.5q0 77 27.5 146t85.5 115.5t135 46.5zM212 41q37 0 66 11
q37 52 56 120.5t19 133.5q0 123 -89 123q-34 0 -55 -8q-39 -40 -61.5 -110.5t-22.5 -143.5q0 -55 20.5 -90.5t66.5 -35.5zM111 -112q0 22 16 38t38 16t37.5 -15.5t15.5 -38.5q0 -20 -15.5 -35.5t-37.5 -15.5t-38 15.5t-16 35.5z" />
    <glyph glyph-name="Ohornacute" unicode="&#x1eda;" horiz-adv-x="737" 
d="M376 715l-8 28l124 57l60 60q19 -2 32 -13.5t13 -29.5q0 -42 -44.5 -59.5t-176.5 -42.5zM350 -12q-144 0 -210.5 75.5t-66.5 198.5q0 103 40.5 195t120 152t181.5 60q172 0 241 -108q35 10 59.5 33t24.5 51q0 25 -23 25q-11 -5 -32 -26q-6 2 -12 10.5t-6 19.5
q0 24 20 41.5t50 17.5q27 0 43 -18t16 -48q0 -43 -37.5 -82t-86.5 -55q24 -55 24 -130q0 -68 -23 -139t-64.5 -133t-109.5 -101t-149 -39zM403 616q-56 0 -98 -12q-65 -61 -100 -150.5t-35 -184.5q0 -101 45.5 -164t142.5 -63q67 0 127 26q50 59 82 146t32 179
q0 101 -46 162t-150 61z" />
    <glyph glyph-name="ohornacute" unicode="&#x1edb;" horiz-adv-x="484" 
d="M236 543l-13 24q89 61 97 68q23 29 61 82q53 0 53 -45q0 -74 -198 -129zM195 -11q-74 0 -115.5 48.5t-41.5 132.5q0 77 27.5 146t85.5 115.5t135 46.5q103 0 136 -81q31 10 52.5 32t21.5 48q0 25 -23 25q-11 -5 -32 -26q-6 2 -12 10.5t-6 19.5q0 24 20 41.5t50 17.5
q27 0 43 -18t16 -48q0 -42 -36 -80.5t-84 -55.5q6 -27 6 -59q0 -56 -15 -110.5t-44 -101t-77 -75t-107 -28.5zM212 41q37 0 66 11q37 52 56 120.5t19 133.5q0 123 -89 123q-34 0 -55 -8q-39 -40 -61.5 -110.5t-22.5 -143.5q0 -55 20.5 -90.5t66.5 -35.5z" />
    <glyph glyph-name="Ohorngrave" unicode="&#x1edc;" horiz-adv-x="737" 
d="M553 743l-8 -28q-121 23 -167.5 42t-46.5 58q0 19 13.5 31t31.5 14l60 -60zM350 -12q-144 0 -210.5 75.5t-66.5 198.5q0 103 40.5 195t120 152t181.5 60q172 0 241 -108q35 10 59.5 33t24.5 51q0 25 -23 25q-11 -5 -32 -26q-6 2 -12 10.5t-6 19.5q0 24 20 41.5t50 17.5
q27 0 43 -18t16 -48q0 -43 -37.5 -82t-86.5 -55q24 -55 24 -130q0 -68 -23 -139t-64.5 -133t-109.5 -101t-149 -39zM403 616q-56 0 -98 -12q-65 -61 -100 -150.5t-35 -184.5q0 -101 45.5 -164t142.5 -63q67 0 127 26q50 59 82 146t32 179q0 101 -46 162t-150 61z" />
    <glyph glyph-name="ohorngrave" unicode="&#x1edd;" horiz-adv-x="484" 
d="M403 555l-17 -24q-38 15 -64.5 27.5t-57.5 31t-47.5 40t-16.5 45.5q0 45 58 42q22 -40 52 -86q25 -22 93 -76zM195 -11q-74 0 -115.5 48.5t-41.5 132.5q0 77 27.5 146t85.5 115.5t135 46.5q103 0 136 -81q31 10 52.5 32t21.5 48q0 25 -23 25q-11 -5 -32 -26
q-6 2 -12 10.5t-6 19.5q0 24 20 41.5t50 17.5q27 0 43 -18t16 -48q0 -42 -36 -80.5t-84 -55.5q6 -27 6 -59q0 -56 -15 -110.5t-44 -101t-77 -75t-107 -28.5zM212 41q37 0 66 11q37 52 56 120.5t19 133.5q0 123 -89 123q-34 0 -55 -8q-39 -40 -61.5 -110.5t-22.5 -143.5
q0 -55 20.5 -90.5t66.5 -35.5z" />
    <glyph glyph-name="Ohornhook" unicode="&#x1ede;" horiz-adv-x="737" 
d="M477 725h-41q-4 14 -4 19q0 22 12.5 32.5t41.5 21.5q12 5 17.5 7.5t11.5 9.5t6 17q0 33 -57 33q-28 -18 -51 -57q-9 2 -15.5 12.5t-6.5 20.5q0 26 29.5 45t80.5 19q39 0 63 -16.5t24 -43.5q0 -50 -99 -72zM350 -12q-144 0 -210.5 75.5t-66.5 198.5q0 103 40.5 195
t120 152t181.5 60q172 0 241 -108q35 10 59.5 33t24.5 51q0 25 -23 25q-11 -5 -32 -26q-6 2 -12 10.5t-6 19.5q0 24 20 41.5t50 17.5q27 0 43 -18t16 -48q0 -43 -37.5 -82t-86.5 -55q24 -55 24 -130q0 -68 -23 -139t-64.5 -133t-109.5 -101t-149 -39zM403 616q-56 0 -98 -12
q-65 -61 -100 -150.5t-35 -184.5q0 -101 45.5 -164t142.5 -63q67 0 127 26q50 59 82 146t32 179q0 101 -46 162t-150 61z" />
    <glyph glyph-name="ohornhook" unicode="&#x1edf;" horiz-adv-x="484" 
d="M306 547h-41q-4 14 -4 19q0 16 8.5 26.5t17 15t28.5 12.5q45 19 45 50q0 33 -57 33q-28 -18 -51 -57q-9 2 -15.5 12.5t-6.5 20.5q0 26 29.5 45t80.5 19q39 0 63 -16.5t24 -43.5q0 -66 -109 -88zM195 -11q-74 0 -115.5 48.5t-41.5 132.5q0 77 27.5 146t85.5 115.5
t135 46.5q103 0 136 -81q31 10 52.5 32t21.5 48q0 25 -23 25q-11 -5 -32 -26q-6 2 -12 10.5t-6 19.5q0 24 20 41.5t50 17.5q27 0 43 -18t16 -48q0 -42 -36 -80.5t-84 -55.5q6 -27 6 -59q0 -56 -15 -110.5t-44 -101t-77 -75t-107 -28.5zM212 41q37 0 66 11q37 52 56 120.5
t19 133.5q0 123 -89 123q-34 0 -55 -8q-39 -40 -61.5 -110.5t-22.5 -143.5q0 -55 20.5 -90.5t66.5 -35.5z" />
    <glyph glyph-name="Ohorntilde" unicode="&#x1ee0;" horiz-adv-x="737" 
d="M456 745l-63 27l-66 -50l-24 21q66 90 102 90q20 0 81 -26l64 -27l66 50l24 -21q-61 -89 -101 -89q-23 0 -83 25zM350 -12q-144 0 -210.5 75.5t-66.5 198.5q0 103 40.5 195t120 152t181.5 60q172 0 241 -108q35 10 59.5 33t24.5 51q0 25 -23 25q-11 -5 -32 -26
q-6 2 -12 10.5t-6 19.5q0 24 20 41.5t50 17.5q27 0 43 -18t16 -48q0 -43 -37.5 -82t-86.5 -55q24 -55 24 -130q0 -68 -23 -139t-64.5 -133t-109.5 -101t-149 -39zM403 616q-56 0 -98 -12q-65 -61 -100 -150.5t-35 -184.5q0 -101 45.5 -164t142.5 -63q67 0 127 26
q50 59 82 146t32 179q0 101 -46 162t-150 61z" />
    <glyph glyph-name="ohorntilde" unicode="&#x1ee1;" horiz-adv-x="484" 
d="M283 579q-15 6 -34 16t-24 12l-64 -51l-23 19l30.5 42.5t31.5 32.5t36 17q18 0 78 -27q14 -6 32.5 -15t25.5 -12l64 51l23 -19q-62 -91 -99 -91q-21 0 -77 25zM195 -11q-74 0 -115.5 48.5t-41.5 132.5q0 77 27.5 146t85.5 115.5t135 46.5q103 0 136 -81q31 10 52.5 32
t21.5 48q0 25 -23 25q-11 -5 -32 -26q-6 2 -12 10.5t-6 19.5q0 24 20 41.5t50 17.5q27 0 43 -18t16 -48q0 -42 -36 -80.5t-84 -55.5q6 -27 6 -59q0 -56 -15 -110.5t-44 -101t-77 -75t-107 -28.5zM212 41q37 0 66 11q37 52 56 120.5t19 133.5q0 123 -89 123q-34 0 -55 -8
q-39 -40 -61.5 -110.5t-22.5 -143.5q0 -55 20.5 -90.5t66.5 -35.5z" />
    <glyph glyph-name="Ohorndotaccent" unicode="&#x1ee2;" horiz-adv-x="737" 
d="M350 -12q-144 0 -210.5 75.5t-66.5 198.5q0 103 40.5 195t120 152t181.5 60q172 0 241 -108q35 10 59.5 33t24.5 51q0 25 -23 25q-11 -5 -32 -26q-6 2 -12 10.5t-6 19.5q0 24 20 41.5t50 17.5q27 0 43 -18t16 -48q0 -43 -37.5 -82t-86.5 -55q24 -55 24 -130
q0 -68 -23 -139t-64.5 -133t-109.5 -101t-149 -39zM403 616q-56 0 -98 -12q-65 -61 -100 -150.5t-35 -184.5q0 -101 45.5 -164t142.5 -63q67 0 127 26q50 59 82 146t32 179q0 101 -46 162t-150 61zM253 -133q0 22 16 38t38 16t37.5 -15.5t15.5 -38.5q0 -20 -15.5 -35.5
t-37.5 -15.5t-38 15.5t-16 35.5z" />
    <glyph glyph-name="ohorndotaccent" unicode="&#x1ee3;" horiz-adv-x="484" 
d="M195 -11q-74 0 -115.5 48.5t-41.5 132.5q0 77 27.5 146t85.5 115.5t135 46.5q103 0 136 -81q31 10 52.5 32t21.5 48q0 25 -23 25q-11 -5 -32 -26q-6 2 -12 10.5t-6 19.5q0 24 20 41.5t50 17.5q27 0 43 -18t16 -48q0 -42 -36 -80.5t-84 -55.5q6 -27 6 -59
q0 -56 -15 -110.5t-44 -101t-77 -75t-107 -28.5zM212 41q37 0 66 11q37 52 56 120.5t19 133.5q0 123 -89 123q-34 0 -55 -8q-39 -40 -61.5 -110.5t-22.5 -143.5q0 -55 20.5 -90.5t66.5 -35.5zM111 -112q0 22 16 38t38 16t37.5 -15.5t15.5 -38.5q0 -20 -15.5 -35.5
t-37.5 -15.5t-38 15.5t-16 35.5z" />
    <glyph glyph-name="Udotaccent" unicode="&#x1ee4;" horiz-adv-x="734" 
d="M95 658h270l-6 -34q-28 -9 -96 -20l-60 -334q-39 -218 167 -218q87 0 142 36q21 53 49 184l62 332q-63 12 -89 20l6 34h246q-2 -27 -20 -37t-77 -18q-50 -264 -80 -405q-24 -113 -88.5 -161.5t-166.5 -48.5q-136 0 -199.5 73t-38.5 208l61 334q-53 9 -68 20t-14 35z
M246 -133q0 22 16 38t38 16t37.5 -15.5t15.5 -38.5q0 -20 -15.5 -35.5t-37.5 -15.5t-38 15.5t-16 35.5z" />
    <glyph glyph-name="udotaccent" unicode="&#x1ee5;" horiz-adv-x="526" 
d="M309 52q0 30 25 98l-6 2q-43 -77 -83.5 -119.5t-95.5 -42.5q-92 0 -92 77q0 20 12.5 75t33 137t31.5 135l-77 17l3 21q52 26 93 26q34 0 49 -16.5t15 -40.5q0 -20 -13 -73l-33.5 -138t-33.5 -153q12 -6 38 -6q73 0 172 191q18 74 45 219q13 5 40.5 8.5t39.5 2.5l12 -17
q-42 -149 -56 -210l-37 -182l83 -20l-3 -21q-40 -33 -84 -33q-37 0 -57.5 17.5t-20.5 45.5zM149 -112q0 22 16 38t38 16t37.5 -15.5t15.5 -38.5q0 -20 -15.5 -35.5t-37.5 -15.5t-38 15.5t-16 35.5z" />
    <glyph glyph-name="Uhook" unicode="&#x1ee6;" horiz-adv-x="734" 
d="M480 725h-41q-4 14 -4 19q0 22 12.5 32.5t41.5 21.5q12 5 17.5 7.5t11.5 9.5t6 17q0 33 -57 33q-28 -18 -51 -57q-9 2 -15.5 12.5t-6.5 20.5q0 26 29.5 45t80.5 19q39 0 63 -16.5t24 -43.5q0 -50 -99 -72zM95 658h270l-6 -34q-28 -9 -96 -20l-60 -334q-39 -218 167 -218
q87 0 142 36q21 53 49 184l62 332q-63 12 -89 20l6 34h246q-2 -27 -20 -37t-77 -18q-50 -264 -80 -405q-24 -113 -88.5 -161.5t-166.5 -48.5q-136 0 -199.5 73t-38.5 208l61 334q-53 9 -68 20t-14 35z" />
    <glyph glyph-name="uhook" unicode="&#x1ee7;" horiz-adv-x="526" 
d="M334 547h-41q-4 14 -4 19q0 16 8.5 26.5t17 15t28.5 12.5q45 19 45 50q0 33 -57 33q-28 -18 -51 -57q-9 2 -15.5 12.5t-6.5 20.5q0 26 29.5 45t80.5 19q39 0 63 -16.5t24 -43.5q0 -66 -109 -88zM309 52q0 30 25 98l-6 2q-43 -77 -83.5 -119.5t-95.5 -42.5q-92 0 -92 77
q0 20 12.5 75t33 137t31.5 135l-77 17l3 21q52 26 93 26q34 0 49 -16.5t15 -40.5q0 -20 -13 -73l-33.5 -138t-33.5 -153q12 -6 38 -6q73 0 172 191q18 74 45 219q13 5 40.5 8.5t39.5 2.5l12 -17q-42 -149 -56 -210l-37 -182l83 -20l-3 -21q-40 -33 -84 -33q-37 0 -57.5 17.5
t-20.5 45.5z" />
    <glyph glyph-name="Uhornacute" unicode="&#x1ee8;" horiz-adv-x="758" 
d="M388 715l-8 28l124 57l60 60q19 -2 32 -13.5t13 -29.5q0 -42 -44.5 -59.5t-176.5 -42.5zM354 -12q-136 0 -199.5 73t-38.5 208l61 334q-53 9 -68 20t-14 35h270l-6 -34q-28 -9 -96 -20l-60 -334q-39 -218 167 -218q87 0 142 36q21 53 49 184l62 332q-63 12 -89 20l6 34
h172q100 0 100 85q0 25 -23 25q-11 -5 -32 -26q-6 2 -12 10.5t-6 19.5q0 24 20 41.5t50 17.5q27 0 43 -18t16 -48q0 -61 -50.5 -106.5t-128.5 -55.5q-50 -264 -80 -405q-24 -113 -88.5 -161.5t-166.5 -48.5z" />
    <glyph glyph-name="uhornacute" unicode="&#x1ee9;" horiz-adv-x="538" 
d="M267 543l-13 24q89 61 97 68q23 29 61 82q53 0 53 -45q0 -74 -198 -129zM387 -11q-37 0 -57.5 17.5t-20.5 45.5q0 30 25 98l-6 2q-43 -77 -83.5 -119.5t-95.5 -42.5q-92 0 -92 77q0 20 12.5 75t33 137t31.5 135l-77 17l3 21q52 26 93 26q34 0 49 -16.5t15 -40.5
q0 -20 -13 -73l-33.5 -138t-33.5 -153q12 -6 38 -6q73 0 172 191q18 74 45 219q20 7 72 12q40 4 74 25t34 61q0 25 -23 25q-11 -5 -32 -26q-6 2 -12 10.5t-6 19.5q0 24 20 41.5t50 17.5q27 0 43 -18t16 -48q0 -48 -47 -91.5t-102 -52.5q-37 -130 -51 -192l-37 -182l83 -20
l-3 -21q-40 -33 -84 -33z" />
    <glyph glyph-name="Uhorngrave" unicode="&#x1eea;" horiz-adv-x="758" 
d="M556 743l-8 -28q-121 23 -167.5 42t-46.5 58q0 19 13.5 31t31.5 14l60 -60zM354 -12q-136 0 -199.5 73t-38.5 208l61 334q-53 9 -68 20t-14 35h270l-6 -34q-28 -9 -96 -20l-60 -334q-39 -218 167 -218q87 0 142 36q21 53 49 184l62 332q-63 12 -89 20l6 34h172
q100 0 100 85q0 25 -23 25q-11 -5 -32 -26q-6 2 -12 10.5t-6 19.5q0 24 20 41.5t50 17.5q27 0 43 -18t16 -48q0 -61 -50.5 -106.5t-128.5 -55.5q-50 -264 -80 -405q-24 -113 -88.5 -161.5t-166.5 -48.5z" />
    <glyph glyph-name="uhorngrave" unicode="&#x1eeb;" horiz-adv-x="538" 
d="M420 555l-17 -24q-38 15 -64.5 27.5t-57.5 31t-47.5 40t-16.5 45.5q0 45 58 42q22 -40 52 -86q25 -22 93 -76zM387 -11q-37 0 -57.5 17.5t-20.5 45.5q0 30 25 98l-6 2q-43 -77 -83.5 -119.5t-95.5 -42.5q-92 0 -92 77q0 20 12.5 75t33 137t31.5 135l-77 17l3 21
q52 26 93 26q34 0 49 -16.5t15 -40.5q0 -20 -13 -73l-33.5 -138t-33.5 -153q12 -6 38 -6q73 0 172 191q18 74 45 219q20 7 72 12q40 4 74 25t34 61q0 25 -23 25q-11 -5 -32 -26q-6 2 -12 10.5t-6 19.5q0 24 20 41.5t50 17.5q27 0 43 -18t16 -48q0 -48 -47 -91.5t-102 -52.5
q-37 -130 -51 -192l-37 -182l83 -20l-3 -21q-40 -33 -84 -33z" />
    <glyph glyph-name="Uhornhook" unicode="&#x1eec;" horiz-adv-x="758" 
d="M480 725h-41q-4 14 -4 19q0 22 12.5 32.5t41.5 21.5q12 5 17.5 7.5t11.5 9.5t6 17q0 33 -57 33q-28 -18 -51 -57q-9 2 -15.5 12.5t-6.5 20.5q0 26 29.5 45t80.5 19q39 0 63 -16.5t24 -43.5q0 -50 -99 -72zM354 -12q-136 0 -199.5 73t-38.5 208l61 334q-53 9 -68 20
t-14 35h270l-6 -34q-28 -9 -96 -20l-60 -334q-39 -218 167 -218q87 0 142 36q21 53 49 184l62 332q-63 12 -89 20l6 34h172q100 0 100 85q0 25 -23 25q-11 -5 -32 -26q-6 2 -12 10.5t-6 19.5q0 24 20 41.5t50 17.5q27 0 43 -18t16 -48q0 -61 -50.5 -106.5t-128.5 -55.5
q-50 -264 -80 -405q-24 -113 -88.5 -161.5t-166.5 -48.5z" />
    <glyph glyph-name="uhornhook" unicode="&#x1eed;" horiz-adv-x="538" 
d="M334 547h-41q-4 14 -4 19q0 16 8.5 26.5t17 15t28.5 12.5q45 19 45 50q0 33 -57 33q-28 -18 -51 -57q-9 2 -15.5 12.5t-6.5 20.5q0 26 29.5 45t80.5 19q39 0 63 -16.5t24 -43.5q0 -66 -109 -88zM387 -11q-37 0 -57.5 17.5t-20.5 45.5q0 30 25 98l-6 2
q-43 -77 -83.5 -119.5t-95.5 -42.5q-92 0 -92 77q0 20 12.5 75t33 137t31.5 135l-77 17l3 21q52 26 93 26q34 0 49 -16.5t15 -40.5q0 -20 -13 -73l-33.5 -138t-33.5 -153q12 -6 38 -6q73 0 172 191q18 74 45 219q20 7 72 12q40 4 74 25t34 61q0 25 -23 25q-11 -5 -32 -26
q-6 2 -12 10.5t-6 19.5q0 24 20 41.5t50 17.5q27 0 43 -18t16 -48q0 -48 -47 -91.5t-102 -52.5q-37 -130 -51 -192l-37 -182l83 -20l-3 -21q-40 -33 -84 -33z" />
    <glyph glyph-name="Uhorntilde" unicode="&#x1eee;" horiz-adv-x="758" 
d="M468 747l-63 27l-66 -50l-24 21q66 90 102 90q20 0 81 -26l64 -27l66 50l24 -21q-61 -89 -101 -89q-23 0 -83 25zM354 -12q-136 0 -199.5 73t-38.5 208l61 334q-53 9 -68 20t-14 35h270l-6 -34q-28 -9 -96 -20l-60 -334q-39 -218 167 -218q87 0 142 36q21 53 49 184
l62 332q-63 12 -89 20l6 34h172q100 0 100 85q0 25 -23 25q-11 -5 -32 -26q-6 2 -12 10.5t-6 19.5q0 24 20 41.5t50 17.5q27 0 43 -18t16 -48q0 -61 -50.5 -106.5t-128.5 -55.5q-50 -264 -80 -405q-24 -113 -88.5 -161.5t-166.5 -48.5z" />
    <glyph glyph-name="uhorntilde" unicode="&#x1eef;" horiz-adv-x="538" 
d="M300 579q-15 6 -34 16t-24 12l-64 -51l-23 19l30.5 42.5t31.5 32.5t36 17q18 0 78 -27q14 -6 32.5 -15t25.5 -12l64 51l23 -19q-62 -91 -99 -91q-21 0 -77 25zM387 -11q-37 0 -57.5 17.5t-20.5 45.5q0 30 25 98l-6 2q-43 -77 -83.5 -119.5t-95.5 -42.5q-92 0 -92 77
q0 20 12.5 75t33 137t31.5 135l-77 17l3 21q52 26 93 26q34 0 49 -16.5t15 -40.5q0 -20 -13 -73l-33.5 -138t-33.5 -153q12 -6 38 -6q73 0 172 191q18 74 45 219q20 7 72 12q40 4 74 25t34 61q0 25 -23 25q-11 -5 -32 -26q-6 2 -12 10.5t-6 19.5q0 24 20 41.5t50 17.5
q27 0 43 -18t16 -48q0 -48 -47 -91.5t-102 -52.5q-37 -130 -51 -192l-37 -182l83 -20l-3 -21q-40 -33 -84 -33z" />
    <glyph glyph-name="Uhorndotaccent" unicode="&#x1ef0;" horiz-adv-x="758" 
d="M354 -12q-136 0 -199.5 73t-38.5 208l61 334q-53 9 -68 20t-14 35h270l-6 -34q-28 -9 -96 -20l-60 -334q-39 -218 167 -218q87 0 142 36q21 53 49 184l62 332q-63 12 -89 20l6 34h172q100 0 100 85q0 25 -23 25q-11 -5 -32 -26q-6 2 -12 10.5t-6 19.5q0 24 20 41.5
t50 17.5q27 0 43 -18t16 -48q0 -61 -50.5 -106.5t-128.5 -55.5q-50 -264 -80 -405q-24 -113 -88.5 -161.5t-166.5 -48.5zM246 -133q0 22 16 38t38 16t37.5 -15.5t15.5 -38.5q0 -20 -15.5 -35.5t-37.5 -15.5t-38 15.5t-16 35.5z" />
    <glyph glyph-name="uhorndotaccent" unicode="&#x1ef1;" horiz-adv-x="538" 
d="M387 -11q-37 0 -57.5 17.5t-20.5 45.5q0 30 25 98l-6 2q-43 -77 -83.5 -119.5t-95.5 -42.5q-92 0 -92 77q0 20 12.5 75t33 137t31.5 135l-77 17l3 21q52 26 93 26q34 0 49 -16.5t15 -40.5q0 -20 -13 -73l-33.5 -138t-33.5 -153q12 -6 38 -6q73 0 172 191q18 74 45 219
q20 7 72 12q40 4 74 25t34 61q0 25 -23 25q-11 -5 -32 -26q-6 2 -12 10.5t-6 19.5q0 24 20 41.5t50 17.5q27 0 43 -18t16 -48q0 -48 -47 -91.5t-102 -52.5q-37 -130 -51 -192l-37 -182l83 -20l-3 -21q-40 -33 -84 -33zM149 -112q0 22 16 38t38 16t37.5 -15.5t15.5 -38.5
q0 -20 -15.5 -35.5t-37.5 -15.5t-38 15.5t-16 35.5z" />
    <glyph glyph-name="Ygrave" unicode="&#x1ef2;" horiz-adv-x="626" 
d="M518 743l-8 -28q-121 23 -167.5 42t-46.5 58q0 19 13.5 31t31.5 14l60 -60zM349 325l188 281q-55 7 -89 18l6 34h228q-2 -23 -18 -35t-60 -18l-231 -333l-39 -218q53 -10 88 -20l-6 -34h-265q2 25 21 36.5t76 18.5l37 205l-131 345q-40 8 -51.5 19.5t-10.5 33.5h258
l-6 -34q-33 -10 -96 -18z" />
    <glyph glyph-name="ygrave" unicode="&#x1ef3;" horiz-adv-x="451" 
d="M344 555l-17 -24q-38 15 -64.5 27.5t-57.5 31t-47.5 40t-16.5 45.5q0 45 58 42q22 -40 52 -86q25 -22 93 -76zM434 431q0 -38 -25.5 -108.5t-61.5 -136.5q-58 -109 -121 -189.5t-159 -167.5q-51 -46 -82.5 -61.5t-64.5 -15.5q-30 0 -47.5 14t-17.5 36q0 28 26 47
q62 -17 94 -24q67 46 167 135q-22 328 -49 454l-75 17l4 21q52 26 93 26q54 0 64 -48q10 -50 20 -190.5t9 -209.5q55 94 101 202.5t54 178.5l-70 19v20q44 28 90 28q51 0 51 -47z" />
    <glyph glyph-name="Ydotaccent" unicode="&#x1ef4;" horiz-adv-x="626" 
d="M349 325l188 281q-55 7 -89 18l6 34h228q-2 -23 -18 -35t-60 -18l-231 -333l-39 -218q53 -10 88 -20l-6 -34h-265q2 25 21 36.5t76 18.5l37 205l-131 345q-40 8 -51.5 19.5t-10.5 33.5h258l-6 -34q-33 -10 -96 -18zM210 -121q0 22 16 38t38 16t37.5 -15.5t15.5 -38.5
q0 -20 -15.5 -35.5t-37.5 -15.5t-38 15.5t-16 35.5z" />
    <glyph glyph-name="ydotaccent" unicode="&#x1ef5;" horiz-adv-x="451" 
d="M155 -198q0 22 16 38t38 16t37.5 -15.5t15.5 -38.5q0 -20 -15.5 -35.5t-37.5 -15.5t-38 15.5t-16 35.5zM434 431q0 -38 -25.5 -108.5t-61.5 -136.5q-58 -109 -121 -189.5t-159 -167.5q-51 -46 -82.5 -61.5t-64.5 -15.5q-30 0 -47.5 14t-17.5 36q0 28 26 47q62 -17 94 -24
q67 46 167 135q-22 328 -49 454l-75 17l4 21q52 26 93 26q54 0 64 -48q10 -50 20 -190.5t9 -209.5q55 94 101 202.5t54 178.5l-70 19v20q44 28 90 28q51 0 51 -47z" />
    <glyph glyph-name="Yhook" unicode="&#x1ef6;" horiz-adv-x="626" 
d="M431 725h-41q-4 14 -4 19q0 22 12.5 32.5t41.5 21.5q12 5 17.5 7.5t11.5 9.5t6 17q0 33 -57 33q-28 -18 -51 -57q-9 2 -15.5 12.5t-6.5 20.5q0 26 29.5 45t80.5 19q39 0 63 -16.5t24 -43.5q0 -50 -99 -72zM349 325l188 281q-55 7 -89 18l6 34h228q-2 -23 -18 -35t-60 -18
l-231 -333l-39 -218q53 -10 88 -20l-6 -34h-265q2 25 21 36.5t76 18.5l37 205l-131 345q-40 8 -51.5 19.5t-10.5 33.5h258l-6 -34q-33 -10 -96 -18z" />
    <glyph glyph-name="yhook" unicode="&#x1ef7;" horiz-adv-x="451" 
d="M268 547h-41q-4 14 -4 19q0 16 8.5 26.5t17 15t28.5 12.5q45 19 45 50q0 33 -57 33q-28 -18 -51 -57q-9 2 -15.5 12.5t-6.5 20.5q0 26 29.5 45t80.5 19q39 0 63 -16.5t24 -43.5q0 -66 -109 -88zM434 431q0 -38 -25.5 -108.5t-61.5 -136.5q-58 -109 -121 -189.5
t-159 -167.5q-51 -46 -82.5 -61.5t-64.5 -15.5q-30 0 -47.5 14t-17.5 36q0 28 26 47q62 -17 94 -24q67 46 167 135q-22 328 -49 454l-75 17l4 21q52 26 93 26q54 0 64 -48q10 -50 20 -190.5t9 -209.5q55 94 101 202.5t54 178.5l-70 19v20q44 28 90 28q51 0 51 -47z" />
    <glyph glyph-name="Ytilde" unicode="&#x1ef8;" horiz-adv-x="626" 
d="M389 747l-63 27l-66 -50l-24 21q66 90 102 90q20 0 81 -26l64 -27l66 50l24 -21q-61 -89 -101 -89q-23 0 -83 25zM349 325l188 281q-55 7 -89 18l6 34h228q-2 -23 -18 -35t-60 -18l-231 -333l-39 -218q53 -10 88 -20l-6 -34h-265q2 25 21 36.5t76 18.5l37 205l-131 345
q-40 8 -51.5 19.5t-10.5 33.5h258l-6 -34q-33 -10 -96 -18z" />
    <glyph glyph-name="ytilde" unicode="&#x1ef9;" horiz-adv-x="451" 
d="M234 579q-15 6 -34 16t-24 12l-64 -51l-23 19l30.5 42.5t31.5 32.5t36 17q18 0 78 -27q14 -6 32.5 -15t25.5 -12l64 51l23 -19q-62 -91 -99 -91q-21 0 -77 25zM434 431q0 -38 -25.5 -108.5t-61.5 -136.5q-58 -109 -121 -189.5t-159 -167.5q-51 -46 -82.5 -61.5
t-64.5 -15.5q-30 0 -47.5 14t-17.5 36q0 28 26 47q62 -17 94 -24q67 46 167 135q-22 328 -49 454l-75 17l4 21q52 26 93 26q54 0 64 -48q10 -50 20 -190.5t9 -209.5q55 94 101 202.5t54 178.5l-70 19v20q44 28 90 28q51 0 51 -47z" />
    <glyph glyph-name="endash" unicode="&#x2013;" horiz-adv-x="598" 
d="M59 229l9 42q19 20 86 20h397l-9 -43q-18 -19 -85 -19h-398z" />
    <glyph glyph-name="emdash" unicode="&#x2014;" horiz-adv-x="943" 
d="M59 229l9 42q19 20 86 20h742l-9 -43q-18 -19 -85 -19h-743z" />
    <glyph glyph-name="quoteleft" unicode="&#x2018;" horiz-adv-x="208" 
d="M213 726l30 -18q-23 -47 -45 -116q-1 -15 -1 -101q-19 -12 -39 -12q-23 0 -37 16t-14 41q0 38 22.5 79.5t83.5 110.5z" />
    <glyph glyph-name="quoteright" unicode="&#x2019;" horiz-adv-x="208" 
d="M122 479l-30 18q23 47 45 116q1 15 1 101q19 12 39 12q23 0 37 -16t14 -41q0 -38 -22.5 -79.5t-83.5 -110.5z" />
    <glyph glyph-name="quotesinglbase" unicode="&#x201a;" horiz-adv-x="201" 
d="M20 -147l-30 18q23 47 45 116q1 15 1 101q19 12 39 12q23 0 37 -16t14 -41q0 -38 -22.5 -79.5t-83.5 -110.5z" />
    <glyph glyph-name="quotedblleft" unicode="&#x201c;" horiz-adv-x="370" 
d="M375 726l30 -18q-23 -47 -45 -116q-1 -15 -1 -101q-19 -12 -39 -12q-23 0 -37 16t-14 41q0 38 22.5 79.5t83.5 110.5zM213 726l30 -18q-23 -47 -45 -116q-1 -15 -1 -101q-19 -12 -39 -12q-23 0 -37 16t-14 41q0 38 22.5 79.5t83.5 110.5z" />
    </font>
</defs>
</svg>
