<?xml version="1.0" encoding="UTF-8"?>
<svg width="71px" height="71px" viewBox="0 0 71 71" version="1.1" xmlns="http://www.w3.org/2000/svg" xmlns:xlink="http://www.w3.org/1999/xlink">
    <!-- Generator: Sketch 44.1 (41455) - http://www.bohemiancoding.com/sketch -->
    <title>nyl logo</title>
    <desc>Created with Sketch.</desc>
    <defs>
        <polygon id="path-1" points="0 0.411141176 0 70.9404353 70.5876701 70.9404353 70.5876701 0.411141176 0 0.411141176"></polygon>
    </defs>
    <g id="Transaction-History" stroke="none" stroke-width="1" fill="none" fill-rule="evenodd">
        <g id="Transaction-History---Browser" transform="translate(-70.000000, -21.000000)">
            <g id="Header" transform="translate(70.000000, 20.000000)">
                <g id="nyl-logo">
                    <g id="Group-3" transform="translate(0.000000, 0.648000)">
                        <mask id="mask-2" fill="white">
                            <use xlink:href="#path-1"></use>
                        </mask>
                        <g id="Clip-2"></g>
                        <path d="M70.5876701,67.6496118 C70.5876701,69.4665529 69.1125657,70.9404353 67.2930582,70.9404353 L3.29344627,70.9404353 C1.47499851,70.9404353 -0.000105970149,69.4665529 -0.000105970149,67.6496118 L-0.000105970149,3.70196471 C-0.000105970149,1.88502353 1.47499851,0.411141176 3.29344627,0.411141176 L67.2930582,0.411141176 C69.1125657,0.411141176 70.5876701,1.88502353 70.5876701,3.70196471 L70.5876701,67.6496118 Z" id="Fill-1" fill="#0079C2" mask="url(#mask-2)"></path>
                    </g>
                    <path d="M48.6578896,42.7969059 C48.6578896,42.7969059 46.5755761,39.7686706 44.371397,34.9023176 C44.371397,34.9023176 45.9630687,34.7202 46.9719045,33.7714941 C46.9719045,33.7714941 48.2287104,32.8831412 48.1661881,30.7104353 C48.1661881,30.7104353 48.0602179,28.4000824 46.1760687,27.6218471 C46.1760687,27.6218471 45.5031582,27.0998471 42.4109493,27.1623176 C42.4109493,27.1623176 42.5010239,26.4274941 42.6398448,25.8610235 C42.6398448,25.8610235 44.1255463,20.5838471 46.4526507,14.0657294 C46.4526507,14.0657294 48.1365164,17.7080824 50.984994,25.9383176 C50.984994,25.9383176 51.197994,26.4274941 51.2615761,27.0998471 L49.9433075,27.0998471 C49.9433075,27.0998471 50.7571582,27.2533765 50.9733373,29.7013765 C50.9733373,29.7013765 51.339994,36.1866706 50.9404866,43.6238471 C50.9404866,43.6238471 50.9553224,44.4634941 50.6331731,44.4634941 C50.6331731,44.4634941 49.9433075,44.7991412 48.6578896,42.7969059 M40.3275761,26.6731412 C40.3275761,27.0998471 39.8528299,27.1623176 39.8528299,27.1623176 L36.0103522,27.1623176 C36.3303821,24.0874941 36.316606,23.7094941 36.316606,23.7094941 C35.6744269,24.8572588 35.2134567,24.9345529 35.2134567,24.9345529 C34.1728299,25.4851412 29.3639045,25.3623176 29.3639045,25.3623176 C27.9566209,25.3474941 27.8029642,24.1997294 27.8029642,24.1997294 C27.7107701,21.4467882 27.8029642,19.2687882 27.8029642,19.2687882 C27.8633672,19.0845529 28.0477552,19.0845529 28.0477552,19.0845529 C33.3144716,18.9003176 33.4066657,19.2984353 33.4066657,19.2984353 L33.7118597,16.7890235 C33.192606,16.9732588 32.6722925,17.0103176 32.6722925,17.0103176 C29.7326806,17.1638471 27.8029642,17.0653765 27.8029642,17.0653765 L27.8029642,13.2409059 C27.7425612,11.7416118 28.8753821,11.7416118 28.8753821,11.7416118 C32.2113224,11.5880824 32.7952179,11.7416118 32.7952179,11.7416118 C34.2332328,11.6802 34.7238746,13.0873765 34.7238746,13.0873765 C38.0619343,19.6658471 39.6546657,23.9498471 39.6546657,23.9498471 C40.5426955,26.2136118 40.3275761,26.6731412 40.3275761,26.6731412 M29.7612925,30.4965529 C29.7612925,30.4965529 30.7574119,31.9354941 30.8358299,35.2400824 C30.8358299,35.2400824 31.0064418,39.1566706 30.0262179,41.3336118 C30.0262179,41.3336118 28.9983075,43.8070235 25.7524418,43.7085529 C25.7524418,43.7085529 23.6097254,43.7456118 22.2935761,41.3939647 C22.2935761,41.3939647 21.2200985,39.6447882 21.4055463,35.2400824 C21.4055463,35.2400824 21.3440836,31.9047882 22.311591,30.4965529 C22.311591,30.4965529 23.5482627,28.3556118 26.3024269,28.5387882 C26.3024269,28.5387882 28.6136358,28.4000824 29.7612925,30.4965529 M54.9048299,60.0398471 C52.6678,60.3162 51.5667701,60.0102 51.5667701,60.0102 C50.3714269,59.9477294 50.3417552,59.0625529 50.3417552,59.0625529 L50.3417552,53.6773765 C54.077203,53.5662 54.9048299,53.7197294 54.9048299,53.7197294 C55.7918,53.7493765 56.0387104,53.9939647 56.0387104,53.9939647 L56.4350388,51.6327882 C56.4350388,51.6327882 56.2527701,51.7863176 53.8016806,51.7249059 C53.8016806,51.7249059 54.474591,51.7249059 50.3417552,51.6942 L50.335397,46.9263176 C50.3248,46.1618471 51.2319045,46.2052588 51.2319045,46.2052588 C54.9355612,46.1120824 55.731397,46.3270235 55.731397,46.3270235 C56.5876358,46.3270235 56.8334866,46.7738471 56.8334866,46.7738471 L57.2319343,44.8467882 C57.3845313,44.4634941 56.3735761,44.5100824 56.3735761,44.5100824 L54.9355612,44.5100824 C53.8917552,44.6159647 53.924606,43.4999647 53.924606,43.4999647 C53.924606,40.5479647 53.924606,38.0258471 53.9267254,35.9431412 C53.9277851,30.9020824 53.9299045,28.3556118 53.9299045,28.3556118 C53.9903075,27.1930235 54.6282478,27.1136118 54.6282478,27.1136118 L53.1902328,27.1136118 C58.6699493,10.2846706 59.3449791,9.99772941 59.3449791,9.99772941 C56.7720239,10.2116118 55.6699343,10.0284353 55.6699343,10.0284353 C56.6501582,10.3947882 55.8829343,12.1386706 55.8829343,12.1386706 C54.1386657,18.1358471 52.6381284,21.9296118 52.6381284,21.9296118 C50.3714269,16.3612588 49.7896507,14.8926706 49.7896507,14.8926706 C48.0750537,10.4572588 48.1958597,9.90561176 48.1958597,9.90561176 C45.9927403,10.1491412 44.5547254,9.90561176 44.5547254,9.90561176 C45.1672328,10.1491412 44.7868,11.3742 44.7868,11.3742 C43.0107403,17.4010235 41.6140537,21.1037294 41.6140537,21.1037294 C38.2749343,14.5559647 37.2523224,11.1910235 37.2523224,11.1910235 C36.7945313,9.78278824 36.1502328,9.96702353 36.1502328,9.96702353 C25.708994,10.0887882 23.7633821,9.93737647 23.7633821,9.93737647 C24.8951433,10.1194941 24.804009,12.6596118 24.804009,12.6596118 L24.8093075,24.0409059 L18.1278896,13.4240824 C16.6591433,11.0374941 16.7799493,9.99772941 16.7799493,9.99772941 L11.6340388,9.99772941 C12.4637851,10.5483176 12.4309343,12.5060824 12.4309343,12.5060824 C12.8039493,18.0712588 12.3408597,25.8154941 12.3408597,25.8154941 C12.2497254,27.2840824 10.809591,27.2840824 10.809591,27.2840824 L14.8809642,27.2840824 C16.5054866,27.4376118 15.4330687,29.7320824 15.4330687,29.7320824 L12.4012627,35.0854941 C12.4012627,35.0854941 9.55914328,29.7331412 8.89682985,28.8956118 C7.78202388,27.4799647 6.81133731,27.1803176 6.81133731,27.1803176 L2.69757612,27.1803176 C2.69757612,27.1803176 4.22778507,27.4482 6.03881493,29.6029059 C7.89011343,31.8063176 8.88941194,34.2829059 9.59517313,35.4666706 C10.3645164,36.7563176 10.4651881,37.8500824 10.4651881,38.2026706 L10.4736657,42.5205529 C10.4111433,44.1426706 8.94133731,44.5714941 8.94133731,44.5714941 L11.2991731,44.5407882 C13.0137701,44.4497294 13.0741731,47.0512588 13.0741731,47.0512588 C13.1663672,53.5958471 13.0741731,58.9217294 13.0741731,58.9217294 C13.1059642,61.4597294 11.8502179,61.8578471 11.8502179,61.8578471 C15.0960836,61.6746706 17.9742328,61.8874941 17.9742328,61.8874941 C20.9297403,62.1934941 21.3440836,61.9425529 21.3440836,61.9425529 C22.0625612,61.7816118 22.1091881,61.3072588 22.1091881,61.3072588 L22.4747851,59.2139647 C21.8940687,60.1129059 20.8216507,60.2367882 20.8216507,60.2367882 C19.8435463,60.4369059 17.0247403,60.2791412 17.0247403,60.2791412 C17.0247403,60.2791412 15.7393224,60.1870235 15.8007851,59.3622 C15.8007851,59.3622 15.555994,51.9144353 15.8940388,45.7330235 C15.8940388,45.7330235 15.8622478,44.3576118 17.5153821,44.2337294 L14.5747104,44.2337294 C13.0741731,44.0187882 13.0741731,42.9800824 13.0741731,42.9800824 L13.0741731,38.9417294 C13.018009,38.1126706 13.6400537,36.8007882 14.1073821,35.9431412 C14.3839642,35.4349059 14.6065015,35.0854941 14.6065015,35.0854941 C19.0466507,27.3147882 19.6898896,27.1623176 19.6898896,27.1623176 L16.2289045,27.1623176 C14.8216209,27.0384353 14.7114119,25.7540824 14.7114119,25.7540824 L14.7114119,13.7300824 C22.4270985,25.3866706 23.6097254,27.5286706 23.6097254,27.5286706 C20.3331284,28.1406706 19.2914418,30.8036118 19.2914418,30.8036118 C18.4193075,32.5887882 18.3387701,34.8229059 18.3652627,35.9431412 C18.3758597,36.4270235 18.4034119,36.7086706 18.4034119,36.7086706 C18.4648746,41.5114941 20.0586657,42.7037294 20.0586657,42.7037294 C21.1596955,44.0187882 23.5175313,44.3872588 23.5175313,44.3872588 C24.804009,44.6932588 24.7732776,46.8649059 24.7732776,46.8649059 L24.7732776,52.9849059 C24.743606,59.4712588 24.2529642,60.6645529 24.2529642,60.6645529 C24.0081731,61.7964353 23.2102179,61.8578471 23.2102179,61.8578471 C26.7930687,61.5825529 28.7524567,61.9806706 28.7524567,61.9806706 C27.6514269,61.5232588 27.6514269,60.6031412 27.6514269,60.6031412 C27.4967104,53.0770235 27.6514269,46.8966706 27.6514269,46.8966706 C27.6185761,44.9082 28.8753821,44.4179647 28.8753821,44.4179647 C31.7524716,43.6831412 32.2113224,42.6444353 32.2113224,42.6444353 C33.9619493,40.8222 34.034009,37.2889059 33.9895015,35.9431412 C33.9767851,35.5450235 33.9577104,35.3311412 33.9577104,35.3311412 C33.9746657,31.6136118 32.1816507,29.6399647 32.1816507,29.6399647 C30.9566358,28.1110235 28.4769343,27.3762 28.4769343,27.3762 L34.7874567,27.4069059 C36.6239194,27.5900824 36.5910687,30.4044353 36.5910687,30.4044353 C36.7892328,32.2298471 36.8400985,34.1876118 36.8273821,35.9431412 C36.8019493,39.1238471 36.561397,41.6650235 36.561397,41.6650235 C36.316606,44.4497294 35.0926507,44.2337294 35.0926507,44.2337294 L33.4988597,44.2294941 C34.541606,44.5365529 34.3879493,47.1094941 34.3879493,47.1094941 C34.5723373,53.3512588 34.1103075,60.1129059 34.1103075,60.1129059 C33.9884418,61.6132588 32.9785463,61.9489059 32.9785463,61.9489059 C35.9488896,61.6746706 37.9708,61.9489059 37.9708,61.9489059 C37.0530985,61.7360824 37.0817104,59.7772588 37.0817104,59.7772588 L37.0223672,54.0860824 C40.8775612,53.9029059 42.0432328,54.1485529 42.0432328,54.1485529 C42.8072776,54.1178471 43.1156507,54.4227882 43.1156507,54.4227882 L43.6052328,51.9197294 C43.2682478,52.1039647 40.9114716,52.0436118 40.9114716,52.0436118 L37.0530985,52.0436118 L37.0530985,46.8045529 C37.0817104,46.2539647 37.9708,46.2857294 37.9708,46.2857294 C41.7963224,46.0707882 42.6260687,46.3577294 42.6260687,46.3577294 C43.4812478,46.4191412 43.5437701,46.6817294 43.5437701,46.6817294 L43.8796955,45.0310235 C44.1255463,44.3576118 43.3615015,44.4857294 43.3615015,44.4857294 L41.063009,44.4793765 C39.3770239,44.6022 39.5921433,43.1632588 39.5921433,43.1632588 L39.5921433,29.7013765 C39.6239343,28.8458471 40.3275761,28.7526706 40.3275761,28.7526706 C42.3187552,28.3556118 43.5723821,28.7823176 43.5723821,28.7823176 C45.0750388,29.1878471 45.1365015,30.6500824 45.1365015,30.6500824 C45.5338896,32.3029059 44.2177403,33.5872588 44.2177403,33.5872588 C43.3286507,34.4756118 41.7963224,34.4438471 41.7963224,34.4438471 C41.1244716,34.3210235 41.4614567,34.7509059 41.4614567,34.7509059 C41.5981582,35.1278471 41.7496955,35.5259647 41.9128896,35.9431412 C43.3392478,39.5251412 45.5487254,43.9902 45.5487254,43.9902 C45.9630687,44.6318471 46.6677701,44.5407882 46.6677701,44.5407882 C47.4180388,44.6159647 47.3714119,45.6726706 47.3714119,45.6726706 C47.4932776,52.8949059 47.2484866,59.3791412 47.2484866,59.3791412 C47.0948299,61.6746706 46.2078597,61.8874941 46.2078597,61.8874941 C50.2188299,61.6429059 51.3219791,61.9192588 51.3219791,61.9192588 C56.3428448,62.2263176 56.5282925,61.9806706 56.5282925,61.9806706 C57.0782776,62.0113765 57.1694119,60.8784353 57.1694119,60.8784353 L57.6314418,58.7364353 C57.1694119,60.1753765 54.9048299,60.0398471 54.9048299,60.0398471 M57.3188299,34.1082 C57.3188299,34.1082 59.8345612,31.1466706 62.2231284,28.8511412 C62.2231284,28.8511412 63.570009,27.3814941 64.3043821,27.1072588 L61.8543522,27.1072588 C61.8543522,27.1072588 60.9069791,27.0754941 60.3845463,27.6578471 C60.3845463,27.6578471 58.0892328,30.1905529 54.1990687,34.7805529 C54.1990687,34.7805529 54.5053224,34.8165529 60.325203,43.8123176 C60.325203,43.8123176 60.8741284,44.6064353 61.5491582,44.5153765 L65.0207403,44.5153765 C65.0207403,44.5153765 63.570009,43.9902 57.3188299,34.1082" id="Fill-4" fill="#FEFEFE"></path>
                </g>
            </g>
        </g>
    </g>
</svg>