<?xml version="1.0" encoding="UTF-8"?>
<svg width="24px" height="24px" viewBox="0 0 24 24" version="1.1" xmlns="http://www.w3.org/2000/svg" xmlns:xlink="http://www.w3.org/1999/xlink">
    <!-- Generator: Sketch 44.1 (41455) - http://www.bohemiancoding.com/sketch -->
    <title>search_icon</title>
    <desc>Created with Sketch.</desc>
    <defs></defs>
    <g id="Transaction-History" stroke="none" stroke-width="1" fill="none" fill-rule="evenodd">
        <g id="Transaction-History---Tablet" transform="translate(-746.000000, -432.000000)" fill="#000000">
            <g id="search-box" transform="translate(509.000000, 418.000000)">
                <path d="M254.152659,29.0943396 L253.068611,29.0943396 L252.684391,28.7238422 C254.02916,27.1595197 254.838765,25.1286449 254.838765,22.9193825 C254.838765,17.9931389 250.845626,14 245.919383,14 C240.993139,14 237,17.9931389 237,22.9193825 C237,27.8456261 240.993139,31.8380789 245.919383,31.8380789 C248.128645,31.8380789 250.15952,31.0291595 251.723842,29.683705 L252.09434,30.0686106 L252.09434,31.1526587 L258.955403,37.9993139 L261,35.954717 L254.152659,29.0943396 L254.152659,29.0943396 Z M245.919383,29.0943396 C242.502573,29.0943396 239.744425,26.3361921 239.744425,22.9193825 C239.744425,19.5025729 242.502573,16.7444254 245.919383,16.7444254 C249.336192,16.7444254 252.09434,19.5025729 252.09434,22.9193825 C252.09434,26.3361921 249.336192,29.0943396 245.919383,29.0943396 L245.919383,29.0943396 Z" id="search_icon"></path>
            </g>
        </g>
    </g>
</svg>